<?xml version="1.0" encoding="utf-8" standalone="no"?>
<!DOCTYPE svg PUBLIC "-//W3C//DTD SVG 1.1//EN"
  "http://www.w3.org/Graphics/SVG/1.1/DTD/svg11.dtd">
<svg xmlns:xlink="http://www.w3.org/1999/xlink" width="576pt" height="432pt" viewBox="0 0 576 432" xmlns="http://www.w3.org/2000/svg" version="1.1">
 <metadata>
  <rdf:RDF xmlns:dc="http://purl.org/dc/elements/1.1/" xmlns:cc="http://creativecommons.org/ns#" xmlns:rdf="http://www.w3.org/1999/02/22-rdf-syntax-ns#">
   <cc:Work>
    <dc:type rdf:resource="http://purl.org/dc/dcmitype/StillImage"/>
    <dc:date>2024-05-09T10:52:10.787360</dc:date>
    <dc:format>image/svg+xml</dc:format>
    <dc:creator>
     <cc:Agent>
      <dc:title>Matplotlib v3.8.2, https://matplotlib.org/</dc:title>
     </cc:Agent>
    </dc:creator>
   </cc:Work>
  </rdf:RDF>
 </metadata>
 <defs>
  <style type="text/css">*{stroke-linejoin: round; stroke-linecap: butt}</style>
 </defs>
 <g id="figure_1">
  <g id="patch_1">
   <path d="M 0 432 
L 576 432 
L 576 0 
L 0 0 
L 0 432 
z
" style="fill: none"/>
  </g>
  <g id="axes_1">
   <g id="patch_2">
    <path d="M 72 384.48 
L 518.4 384.48 
L 518.4 51.84 
L 72 51.84 
L 72 384.48 
z
" style="fill: none"/>
   </g>
   <g id="matplotlib.axis_1"/>
   <g id="matplotlib.axis_2">
    <g id="ytick_1">
     <g id="line2d_1">
      <defs>
       <path id="mdd8a8cd13e" d="M 0 0 
L -3.5 0 
" style="stroke: #000000; stroke-width: 0.8"/>
      </defs>
      <g>
       <use xlink:href="#mdd8a8cd13e" x="72" y="373.63613" style="stroke: #000000; stroke-width: 0.8"/>
      </g>
     </g>
     <g id="text_1">
      <!-- 10 -->
      <g transform="translate(52.275 377.435349) scale(0.1 -0.1)">
       <defs>
        <path id="DejaVuSans-31" d="M 794 531 
L 1825 531 
L 1825 4091 
L 703 3866 
L 703 4441 
L 1819 4666 
L 2450 4666 
L 2450 531 
L 3481 531 
L 3481 0 
L 794 0 
L 794 531 
z
" transform="scale(0.015625)"/>
        <path id="DejaVuSans-30" d="M 2034 4250 
Q 1547 4250 1301 3770 
Q 1056 3291 1056 2328 
Q 1056 1369 1301 889 
Q 1547 409 2034 409 
Q 2525 409 2770 889 
Q 3016 1369 3016 2328 
Q 3016 3291 2770 3770 
Q 2525 4250 2034 4250 
z
M 2034 4750 
Q 2819 4750 3233 4129 
Q 3647 3509 3647 2328 
Q 3647 1150 3233 529 
Q 2819 -91 2034 -91 
Q 1250 -91 836 529 
Q 422 1150 422 2328 
Q 422 3509 836 4129 
Q 1250 4750 2034 4750 
z
" transform="scale(0.015625)"/>
       </defs>
       <use xlink:href="#DejaVuSans-31"/>
       <use xlink:href="#DejaVuSans-30" x="63.623047"/>
      </g>
     </g>
    </g>
    <g id="ytick_2">
     <g id="line2d_2">
      <g>
       <use xlink:href="#mdd8a8cd13e" x="72" y="312.300904" style="stroke: #000000; stroke-width: 0.8"/>
      </g>
     </g>
     <g id="text_2">
      <!-- 20 -->
      <g transform="translate(52.275 316.100123) scale(0.1 -0.1)">
       <defs>
        <path id="DejaVuSans-32" d="M 1228 531 
L 3431 531 
L 3431 0 
L 469 0 
L 469 531 
Q 828 903 1448 1529 
Q 2069 2156 2228 2338 
Q 2531 2678 2651 2914 
Q 2772 3150 2772 3378 
Q 2772 3750 2511 3984 
Q 2250 4219 1831 4219 
Q 1534 4219 1204 4116 
Q 875 4013 500 3803 
L 500 4441 
Q 881 4594 1212 4672 
Q 1544 4750 1819 4750 
Q 2544 4750 2975 4387 
Q 3406 4025 3406 3419 
Q 3406 3131 3298 2873 
Q 3191 2616 2906 2266 
Q 2828 2175 2409 1742 
Q 1991 1309 1228 531 
z
" transform="scale(0.015625)"/>
       </defs>
       <use xlink:href="#DejaVuSans-32"/>
       <use xlink:href="#DejaVuSans-30" x="63.623047"/>
      </g>
     </g>
    </g>
    <g id="ytick_3">
     <g id="line2d_3">
      <g>
       <use xlink:href="#mdd8a8cd13e" x="72" y="250.965678" style="stroke: #000000; stroke-width: 0.8"/>
      </g>
     </g>
     <g id="text_3">
      <!-- 30 -->
      <g transform="translate(52.275 254.764897) scale(0.1 -0.1)">
       <defs>
        <path id="DejaVuSans-33" d="M 2597 2516 
Q 3050 2419 3304 2112 
Q 3559 1806 3559 1356 
Q 3559 666 3084 287 
Q 2609 -91 1734 -91 
Q 1441 -91 1130 -33 
Q 819 25 488 141 
L 488 750 
Q 750 597 1062 519 
Q 1375 441 1716 441 
Q 2309 441 2620 675 
Q 2931 909 2931 1356 
Q 2931 1769 2642 2001 
Q 2353 2234 1838 2234 
L 1294 2234 
L 1294 2753 
L 1863 2753 
Q 2328 2753 2575 2939 
Q 2822 3125 2822 3475 
Q 2822 3834 2567 4026 
Q 2313 4219 1838 4219 
Q 1578 4219 1281 4162 
Q 984 4106 628 3988 
L 628 4550 
Q 988 4650 1302 4700 
Q 1616 4750 1894 4750 
Q 2613 4750 3031 4423 
Q 3450 4097 3450 3541 
Q 3450 3153 3228 2886 
Q 3006 2619 2597 2516 
z
" transform="scale(0.015625)"/>
       </defs>
       <use xlink:href="#DejaVuSans-33"/>
       <use xlink:href="#DejaVuSans-30" x="63.623047"/>
      </g>
     </g>
    </g>
    <g id="ytick_4">
     <g id="line2d_4">
      <g>
       <use xlink:href="#mdd8a8cd13e" x="72" y="189.630452" style="stroke: #000000; stroke-width: 0.8"/>
      </g>
     </g>
     <g id="text_4">
      <!-- 40 -->
      <g transform="translate(52.275 193.429671) scale(0.1 -0.1)">
       <defs>
        <path id="DejaVuSans-34" d="M 2419 4116 
L 825 1625 
L 2419 1625 
L 2419 4116 
z
M 2253 4666 
L 3047 4666 
L 3047 1625 
L 3713 1625 
L 3713 1100 
L 3047 1100 
L 3047 0 
L 2419 0 
L 2419 1100 
L 313 1100 
L 313 1709 
L 2253 4666 
z
" transform="scale(0.015625)"/>
       </defs>
       <use xlink:href="#DejaVuSans-34"/>
       <use xlink:href="#DejaVuSans-30" x="63.623047"/>
      </g>
     </g>
    </g>
    <g id="ytick_5">
     <g id="line2d_5">
      <g>
       <use xlink:href="#mdd8a8cd13e" x="72" y="128.295226" style="stroke: #000000; stroke-width: 0.8"/>
      </g>
     </g>
     <g id="text_5">
      <!-- 50 -->
      <g transform="translate(52.275 132.094445) scale(0.1 -0.1)">
       <defs>
        <path id="DejaVuSans-35" d="M 691 4666 
L 3169 4666 
L 3169 4134 
L 1269 4134 
L 1269 2991 
Q 1406 3038 1543 3061 
Q 1681 3084 1819 3084 
Q 2600 3084 3056 2656 
Q 3513 2228 3513 1497 
Q 3513 744 3044 326 
Q 2575 -91 1722 -91 
Q 1428 -91 1123 -41 
Q 819 9 494 109 
L 494 744 
Q 775 591 1075 516 
Q 1375 441 1709 441 
Q 2250 441 2565 725 
Q 2881 1009 2881 1497 
Q 2881 1984 2565 2268 
Q 2250 2553 1709 2553 
Q 1456 2553 1204 2497 
Q 953 2441 691 2322 
L 691 4666 
z
" transform="scale(0.015625)"/>
       </defs>
       <use xlink:href="#DejaVuSans-35"/>
       <use xlink:href="#DejaVuSans-30" x="63.623047"/>
      </g>
     </g>
    </g>
    <g id="ytick_6">
     <g id="line2d_6">
      <g>
       <use xlink:href="#mdd8a8cd13e" x="72" y="66.96" style="stroke: #000000; stroke-width: 0.8"/>
      </g>
     </g>
     <g id="text_6">
      <!-- 60 -->
      <g transform="translate(52.275 70.759219) scale(0.1 -0.1)">
       <defs>
        <path id="DejaVuSans-36" d="M 2113 2584 
Q 1688 2584 1439 2293 
Q 1191 2003 1191 1497 
Q 1191 994 1439 701 
Q 1688 409 2113 409 
Q 2538 409 2786 701 
Q 3034 994 3034 1497 
Q 3034 2003 2786 2293 
Q 2538 2584 2113 2584 
z
M 3366 4563 
L 3366 3988 
Q 3128 4100 2886 4159 
Q 2644 4219 2406 4219 
Q 1781 4219 1451 3797 
Q 1122 3375 1075 2522 
Q 1259 2794 1537 2939 
Q 1816 3084 2150 3084 
Q 2853 3084 3261 2657 
Q 3669 2231 3669 1497 
Q 3669 778 3244 343 
Q 2819 -91 2113 -91 
Q 1303 -91 875 529 
Q 447 1150 447 2328 
Q 447 3434 972 4092 
Q 1497 4750 2381 4750 
Q 2619 4750 2861 4703 
Q 3103 4656 3366 4563 
z
" transform="scale(0.015625)"/>
       </defs>
       <use xlink:href="#DejaVuSans-36"/>
       <use xlink:href="#DejaVuSans-30" x="63.623047"/>
      </g>
     </g>
    </g>
   </g>
   <g id="patch_3">
    <path d="M 121.926316 368.364733 
L 139.547368 368.364733 
L 139.547368 364.247921 
L 121.926316 364.247921 
L 121.926316 368.364733 
z
" clip-path="url(#p7f0cde08b0)" style="fill: #d3d3d3; stroke: #000000; stroke-linejoin: miter"/>
   </g>
   <g id="line2d_7">
    <path d="M 130.736842 368.364733 
L 130.736842 369.36 
" clip-path="url(#p7f0cde08b0)" style="fill: none; stroke: #000000; stroke-linecap: square"/>
   </g>
   <g id="line2d_8">
    <path d="M 130.736842 364.247921 
L 130.736842 363.190493 
" clip-path="url(#p7f0cde08b0)" style="fill: none; stroke: #000000; stroke-linecap: square"/>
   </g>
   <g id="line2d_9">
    <path d="M 126.331579 369.36 
L 135.142105 369.36 
" clip-path="url(#p7f0cde08b0)" style="fill: none; stroke: #000000; stroke-linecap: square"/>
   </g>
   <g id="line2d_10">
    <path d="M 126.331579 363.190493 
L 135.142105 363.190493 
" clip-path="url(#p7f0cde08b0)" style="fill: none; stroke: #000000; stroke-linecap: square"/>
   </g>
   <g id="line2d_11"/>
   <g id="patch_4">
    <path d="M 157.168421 318.57976 
L 174.789474 318.57976 
L 174.789474 300.654732 
L 157.168421 300.654732 
L 157.168421 318.57976 
z
" clip-path="url(#p7f0cde08b0)" style="fill: #ffc0cb; stroke: #000000; stroke-linejoin: miter"/>
   </g>
   <g id="line2d_12">
    <path d="M 165.978947 318.57976 
L 165.978947 323.18399 
" clip-path="url(#p7f0cde08b0)" style="fill: none; stroke: #000000; stroke-linecap: square"/>
   </g>
   <g id="line2d_13">
    <path d="M 165.978947 300.654732 
L 165.978947 290.794072 
" clip-path="url(#p7f0cde08b0)" style="fill: none; stroke: #000000; stroke-linecap: square"/>
   </g>
   <g id="line2d_14">
    <path d="M 161.573684 323.18399 
L 170.384211 323.18399 
" clip-path="url(#p7f0cde08b0)" style="fill: none; stroke: #000000; stroke-linecap: square"/>
   </g>
   <g id="line2d_15">
    <path d="M 161.573684 290.794072 
L 170.384211 290.794072 
" clip-path="url(#p7f0cde08b0)" style="fill: none; stroke: #000000; stroke-linecap: square"/>
   </g>
   <g id="line2d_16"/>
   <g id="patch_5">
    <path d="M 192.410526 300.125457 
L 210.031579 300.125457 
L 210.031579 220.570972 
L 192.410526 220.570972 
L 192.410526 300.125457 
z
" clip-path="url(#p7f0cde08b0)" style="fill: #add8e6; stroke: #000000; stroke-linejoin: miter"/>
   </g>
   <g id="line2d_17">
    <path d="M 201.221053 300.125457 
L 201.221053 312.949278 
" clip-path="url(#p7f0cde08b0)" style="fill: none; stroke: #000000; stroke-linecap: square"/>
   </g>
   <g id="line2d_18">
    <path d="M 201.221053 220.570972 
L 201.221053 213.875464 
" clip-path="url(#p7f0cde08b0)" style="fill: none; stroke: #000000; stroke-linecap: square"/>
   </g>
   <g id="line2d_19">
    <path d="M 196.815789 312.949278 
L 205.626316 312.949278 
" clip-path="url(#p7f0cde08b0)" style="fill: none; stroke: #000000; stroke-linecap: square"/>
   </g>
   <g id="line2d_20">
    <path d="M 196.815789 213.875464 
L 205.626316 213.875464 
" clip-path="url(#p7f0cde08b0)" style="fill: none; stroke: #000000; stroke-linecap: square"/>
   </g>
   <g id="line2d_21"/>
   <g id="patch_6">
    <path d="M 251.147368 303.062356 
L 268.768421 303.062356 
L 268.768421 300.436433 
L 251.147368 300.436433 
L 251.147368 303.062356 
z
" clip-path="url(#p7f0cde08b0)" style="fill: #d3d3d3; stroke: #000000; stroke-linejoin: miter"/>
   </g>
   <g id="line2d_22">
    <path d="M 259.957895 303.062356 
L 259.957895 305.202945 
" clip-path="url(#p7f0cde08b0)" style="fill: none; stroke: #000000; stroke-linecap: square"/>
   </g>
   <g id="line2d_23">
    <path d="M 259.957895 300.436433 
L 259.957895 298.46385 
" clip-path="url(#p7f0cde08b0)" style="fill: none; stroke: #000000; stroke-linecap: square"/>
   </g>
   <g id="line2d_24">
    <path d="M 255.552632 305.202945 
L 264.363158 305.202945 
" clip-path="url(#p7f0cde08b0)" style="fill: none; stroke: #000000; stroke-linecap: square"/>
   </g>
   <g id="line2d_25">
    <path d="M 255.552632 298.46385 
L 264.363158 298.46385 
" clip-path="url(#p7f0cde08b0)" style="fill: none; stroke: #000000; stroke-linecap: square"/>
   </g>
   <g id="line2d_26"/>
   <g id="patch_7">
    <path d="M 286.389474 264.587992 
L 304.010526 264.587992 
L 304.010526 248.739202 
L 286.389474 248.739202 
L 286.389474 264.587992 
z
" clip-path="url(#p7f0cde08b0)" style="fill: #ffc0cb; stroke: #000000; stroke-linejoin: miter"/>
   </g>
   <g id="line2d_27">
    <path d="M 295.2 264.587992 
L 295.2 272.307646 
" clip-path="url(#p7f0cde08b0)" style="fill: none; stroke: #000000; stroke-linecap: square"/>
   </g>
   <g id="line2d_28">
    <path d="M 295.2 248.739202 
L 295.2 246.158805 
" clip-path="url(#p7f0cde08b0)" style="fill: none; stroke: #000000; stroke-linecap: square"/>
   </g>
   <g id="line2d_29">
    <path d="M 290.794737 272.307646 
L 299.605263 272.307646 
" clip-path="url(#p7f0cde08b0)" style="fill: none; stroke: #000000; stroke-linecap: square"/>
   </g>
   <g id="line2d_30">
    <path d="M 290.794737 246.158805 
L 299.605263 246.158805 
" clip-path="url(#p7f0cde08b0)" style="fill: none; stroke: #000000; stroke-linecap: square"/>
   </g>
   <g id="line2d_31"/>
   <g id="patch_8">
    <path d="M 321.631579 144.113067 
L 339.252632 144.113067 
L 339.252632 107.055408 
L 321.631579 107.055408 
L 321.631579 144.113067 
z
" clip-path="url(#p7f0cde08b0)" style="fill: #add8e6; stroke: #000000; stroke-linejoin: miter"/>
   </g>
   <g id="line2d_32">
    <path d="M 330.442105 144.113067 
L 330.442105 163.944061 
" clip-path="url(#p7f0cde08b0)" style="fill: none; stroke: #000000; stroke-linecap: square"/>
   </g>
   <g id="line2d_33">
    <path d="M 330.442105 107.055408 
L 330.442105 66.96 
" clip-path="url(#p7f0cde08b0)" style="fill: none; stroke: #000000; stroke-linecap: square"/>
   </g>
   <g id="line2d_34">
    <path d="M 326.036842 163.944061 
L 334.847368 163.944061 
" clip-path="url(#p7f0cde08b0)" style="fill: none; stroke: #000000; stroke-linecap: square"/>
   </g>
   <g id="line2d_35">
    <path d="M 326.036842 66.96 
L 334.847368 66.96 
" clip-path="url(#p7f0cde08b0)" style="fill: none; stroke: #000000; stroke-linecap: square"/>
   </g>
   <g id="line2d_36"/>
   <g id="patch_9">
    <path d="M 380.368421 301.405583 
L 397.989474 301.405583 
L 397.989474 300.428277 
L 380.368421 300.428277 
L 380.368421 301.405583 
z
" clip-path="url(#p7f0cde08b0)" style="fill: #d3d3d3; stroke: #000000; stroke-linejoin: miter"/>
   </g>
   <g id="line2d_37">
    <path d="M 389.178947 301.405583 
L 389.178947 302.523824 
" clip-path="url(#p7f0cde08b0)" style="fill: none; stroke: #000000; stroke-linecap: square"/>
   </g>
   <g id="line2d_38">
    <path d="M 389.178947 300.428277 
L 389.178947 300.428277 
" clip-path="url(#p7f0cde08b0)" style="fill: none; stroke: #000000; stroke-linecap: square"/>
   </g>
   <g id="line2d_39">
    <path d="M 384.773684 302.523824 
L 393.584211 302.523824 
" clip-path="url(#p7f0cde08b0)" style="fill: none; stroke: #000000; stroke-linecap: square"/>
   </g>
   <g id="line2d_40">
    <path d="M 384.773684 300.428277 
L 393.584211 300.428277 
" clip-path="url(#p7f0cde08b0)" style="fill: none; stroke: #000000; stroke-linecap: square"/>
   </g>
   <g id="line2d_41">
    <defs>
     <path id="mbeb06703da" d="M 0 3 
C 0.795609 3 1.55874 2.683901 2.12132 2.12132 
C 2.683901 1.55874 3 0.795609 3 0 
C 3 -0.795609 2.683901 -1.55874 2.12132 -2.12132 
C 1.55874 -2.683901 0.795609 -3 0 -3 
C -0.795609 -3 -1.55874 -2.683901 -2.12132 -2.12132 
C -2.683901 -1.55874 -3 -0.795609 -3 0 
C -3 0.795609 -2.683901 1.55874 -2.12132 2.12132 
C -1.55874 2.683901 -0.795609 3 0 3 
z
" style="stroke: #000000"/>
    </defs>
    <g clip-path="url(#p7f0cde08b0)">
     <use xlink:href="#mbeb06703da" x="389.178947" y="297.81259" style="fill-opacity: 0; stroke: #000000"/>
    </g>
   </g>
   <g id="patch_10">
    <path d="M 415.610526 275.761218 
L 433.231579 275.761218 
L 433.231579 275.12945 
L 415.610526 275.12945 
L 415.610526 275.761218 
z
" clip-path="url(#p7f0cde08b0)" style="fill: #ffc0cb; stroke: #000000; stroke-linejoin: miter"/>
   </g>
   <g id="line2d_42">
    <path d="M 424.421053 275.761218 
L 424.421053 275.761218 
" clip-path="url(#p7f0cde08b0)" style="fill: none; stroke: #000000; stroke-linecap: square"/>
   </g>
   <g id="line2d_43">
    <path d="M 424.421053 275.12945 
L 424.421053 275.12945 
" clip-path="url(#p7f0cde08b0)" style="fill: none; stroke: #000000; stroke-linecap: square"/>
   </g>
   <g id="line2d_44">
    <path d="M 420.015789 275.761218 
L 428.826316 275.761218 
" clip-path="url(#p7f0cde08b0)" style="fill: none; stroke: #000000; stroke-linecap: square"/>
   </g>
   <g id="line2d_45">
    <path d="M 420.015789 275.12945 
L 428.826316 275.12945 
" clip-path="url(#p7f0cde08b0)" style="fill: none; stroke: #000000; stroke-linecap: square"/>
   </g>
   <g id="line2d_46">
    <g clip-path="url(#p7f0cde08b0)">
     <use xlink:href="#mbeb06703da" x="424.421053" y="285.088923" style="fill-opacity: 0; stroke: #000000"/>
     <use xlink:href="#mbeb06703da" x="424.421053" y="273.63493" style="fill-opacity: 0; stroke: #000000"/>
    </g>
   </g>
   <g id="patch_11">
    <path d="M 450.852632 244.678991 
L 468.473684 244.678991 
L 468.473684 167.817063 
L 450.852632 167.817063 
L 450.852632 244.678991 
z
" clip-path="url(#p7f0cde08b0)" style="fill: #add8e6; stroke: #000000; stroke-linejoin: miter"/>
   </g>
   <g id="line2d_47">
    <path d="M 459.663158 244.678991 
L 459.663158 262.164015 
" clip-path="url(#p7f0cde08b0)" style="fill: none; stroke: #000000; stroke-linecap: square"/>
   </g>
   <g id="line2d_48">
    <path d="M 459.663158 167.817063 
L 459.663158 66.96 
" clip-path="url(#p7f0cde08b0)" style="fill: none; stroke: #000000; stroke-linecap: square"/>
   </g>
   <g id="line2d_49">
    <path d="M 455.257895 262.164015 
L 464.068421 262.164015 
" clip-path="url(#p7f0cde08b0)" style="fill: none; stroke: #000000; stroke-linecap: square"/>
   </g>
   <g id="line2d_50">
    <path d="M 455.257895 66.96 
L 464.068421 66.96 
" clip-path="url(#p7f0cde08b0)" style="fill: none; stroke: #000000; stroke-linecap: square"/>
   </g>
   <g id="line2d_51"/>
   <g id="line2d_52">
    <path d="M 121.926316 364.714656 
L 139.547368 364.714656 
" clip-path="url(#p7f0cde08b0)" style="fill: none; stroke: #ff7f0e"/>
   </g>
   <g id="line2d_53">
    <path d="M 157.168421 305.745972 
L 174.789474 305.745972 
" clip-path="url(#p7f0cde08b0)" style="fill: none; stroke: #ff7f0e"/>
   </g>
   <g id="line2d_54">
    <path d="M 192.410526 224.139038 
L 210.031579 224.139038 
" clip-path="url(#p7f0cde08b0)" style="fill: none; stroke: #ff7f0e"/>
   </g>
   <g id="line2d_55">
    <path d="M 251.147368 301.011102 
L 268.768421 301.011102 
" clip-path="url(#p7f0cde08b0)" style="fill: none; stroke: #ff7f0e"/>
   </g>
   <g id="line2d_56">
    <path d="M 286.389474 256.892876 
L 304.010526 256.892876 
" clip-path="url(#p7f0cde08b0)" style="fill: none; stroke: #ff7f0e"/>
   </g>
   <g id="line2d_57">
    <path d="M 321.631579 107.486758 
L 339.252632 107.486758 
" clip-path="url(#p7f0cde08b0)" style="fill: none; stroke: #ff7f0e"/>
   </g>
   <g id="line2d_58">
    <path d="M 380.368421 300.49199 
L 397.989474 300.49199 
" clip-path="url(#p7f0cde08b0)" style="fill: none; stroke: #ff7f0e"/>
   </g>
   <g id="line2d_59">
    <path d="M 415.610526 275.182788 
L 433.231579 275.182788 
" clip-path="url(#p7f0cde08b0)" style="fill: none; stroke: #ff7f0e"/>
   </g>
   <g id="line2d_60">
    <path d="M 450.852632 239.102801 
L 468.473684 239.102801 
" clip-path="url(#p7f0cde08b0)" style="fill: none; stroke: #ff7f0e"/>
   </g>
   <g id="patch_12">
    <path d="M 72 384.48 
L 72 51.84 
" style="fill: none; stroke: #000000; stroke-width: 0.8; stroke-linejoin: miter; stroke-linecap: square"/>
   </g>
   <g id="patch_13">
    <path d="M 518.4 384.48 
L 518.4 51.84 
" style="fill: none; stroke: #000000; stroke-width: 0.8; stroke-linejoin: miter; stroke-linecap: square"/>
   </g>
   <g id="patch_14">
    <path d="M 72 384.48 
L 518.4 384.48 
" style="fill: none; stroke: #000000; stroke-width: 0.8; stroke-linejoin: miter; stroke-linecap: square"/>
   </g>
   <g id="patch_15">
    <path d="M 72 51.84 
L 518.4 51.84 
" style="fill: none; stroke: #000000; stroke-width: 0.8; stroke-linejoin: miter; stroke-linecap: square"/>
   </g>
  </g>
 </g>
 <defs>
  <clipPath id="p7f0cde08b0">
   <rect x="72" y="51.84" width="446.4" height="332.64"/>
  </clipPath>
 </defs>
</svg>
