<?xml version="1.0" encoding="utf-8" standalone="no"?>
<!DOCTYPE svg PUBLIC "-//W3C//DTD SVG 1.1//EN"
  "http://www.w3.org/Graphics/SVG/1.1/DTD/svg11.dtd">
<svg xmlns:xlink="http://www.w3.org/1999/xlink" width="576pt" height="360pt" viewBox="0 0 576 360" xmlns="http://www.w3.org/2000/svg" version="1.1">
 <metadata>
  <rdf:RDF xmlns:dc="http://purl.org/dc/elements/1.1/" xmlns:cc="http://creativecommons.org/ns#" xmlns:rdf="http://www.w3.org/1999/02/22-rdf-syntax-ns#">
   <cc:Work>
    <dc:type rdf:resource="http://purl.org/dc/dcmitype/StillImage"/>
    <dc:date>2024-11-11T16:01:17.084255</dc:date>
    <dc:format>image/svg+xml</dc:format>
    <dc:creator>
     <cc:Agent>
      <dc:title>Matplotlib v3.9.2, https://matplotlib.org/</dc:title>
     </cc:Agent>
    </dc:creator>
   </cc:Work>
  </rdf:RDF>
 </metadata>
 <defs>
  <style type="text/css">*{stroke-linejoin: round; stroke-linecap: butt}</style>
 </defs>
 <g id="figure_1">
  <g id="patch_1">
   <path d="M 0 360 
L 576 360 
L 576 0 
L 0 0 
z
" style="fill: #ffffff"/>
  </g>
  <g id="axes_1">
   <g id="patch_2">
    <path d="M 72 320.4 
L 518.4 320.4 
L 518.4 43.2 
L 72 43.2 
z
" style="fill: #ffffff"/>
   </g>
   <g id="matplotlib.axis_1"/>
   <g id="matplotlib.axis_2">
    <g id="ytick_1">
     <g id="text_1">
      <!-- 0 -->
      <g style="fill: #262626" transform="translate(52.001875 326.668711) scale(0.165 -0.165)">
       <defs>
        <path id="DejaVuSans-30" d="M 2034 4250 
Q 1547 4250 1301 3770 
Q 1056 3291 1056 2328 
Q 1056 1369 1301 889 
Q 1547 409 2034 409 
Q 2525 409 2770 889 
Q 3016 1369 3016 2328 
Q 3016 3291 2770 3770 
Q 2525 4250 2034 4250 
z
M 2034 4750 
Q 2819 4750 3233 4129 
Q 3647 3509 3647 2328 
Q 3647 1150 3233 529 
Q 2819 -91 2034 -91 
Q 1250 -91 836 529 
Q 422 1150 422 2328 
Q 422 3509 836 4129 
Q 1250 4750 2034 4750 
z
" transform="scale(0.015625)"/>
       </defs>
       <use xlink:href="#DejaVuSans-30"/>
      </g>
     </g>
    </g>
    <g id="ytick_2">
     <g id="text_2">
      <!-- 10 -->
      <g style="fill: #262626" transform="translate(41.50375 291.252041) scale(0.165 -0.165)">
       <defs>
        <path id="DejaVuSans-31" d="M 794 531 
L 1825 531 
L 1825 4091 
L 703 3866 
L 703 4441 
L 1819 4666 
L 2450 4666 
L 2450 531 
L 3481 531 
L 3481 0 
L 794 0 
L 794 531 
z
" transform="scale(0.015625)"/>
       </defs>
       <use xlink:href="#DejaVuSans-31"/>
       <use xlink:href="#DejaVuSans-30" x="63.623047"/>
      </g>
     </g>
    </g>
    <g id="ytick_3">
     <g id="text_3">
      <!-- 20 -->
      <g style="fill: #262626" transform="translate(41.50375 255.83537) scale(0.165 -0.165)">
       <defs>
        <path id="DejaVuSans-32" d="M 1228 531 
L 3431 531 
L 3431 0 
L 469 0 
L 469 531 
Q 828 903 1448 1529 
Q 2069 2156 2228 2338 
Q 2531 2678 2651 2914 
Q 2772 3150 2772 3378 
Q 2772 3750 2511 3984 
Q 2250 4219 1831 4219 
Q 1534 4219 1204 4116 
Q 875 4013 500 3803 
L 500 4441 
Q 881 4594 1212 4672 
Q 1544 4750 1819 4750 
Q 2544 4750 2975 4387 
Q 3406 4025 3406 3419 
Q 3406 3131 3298 2873 
Q 3191 2616 2906 2266 
Q 2828 2175 2409 1742 
Q 1991 1309 1228 531 
z
" transform="scale(0.015625)"/>
       </defs>
       <use xlink:href="#DejaVuSans-32"/>
       <use xlink:href="#DejaVuSans-30" x="63.623047"/>
      </g>
     </g>
    </g>
    <g id="ytick_4">
     <g id="text_4">
      <!-- 30 -->
      <g style="fill: #262626" transform="translate(41.50375 220.4187) scale(0.165 -0.165)">
       <defs>
        <path id="DejaVuSans-33" d="M 2597 2516 
Q 3050 2419 3304 2112 
Q 3559 1806 3559 1356 
Q 3559 666 3084 287 
Q 2609 -91 1734 -91 
Q 1441 -91 1130 -33 
Q 819 25 488 141 
L 488 750 
Q 750 597 1062 519 
Q 1375 441 1716 441 
Q 2309 441 2620 675 
Q 2931 909 2931 1356 
Q 2931 1769 2642 2001 
Q 2353 2234 1838 2234 
L 1294 2234 
L 1294 2753 
L 1863 2753 
Q 2328 2753 2575 2939 
Q 2822 3125 2822 3475 
Q 2822 3834 2567 4026 
Q 2313 4219 1838 4219 
Q 1578 4219 1281 4162 
Q 984 4106 628 3988 
L 628 4550 
Q 988 4650 1302 4700 
Q 1616 4750 1894 4750 
Q 2613 4750 3031 4423 
Q 3450 4097 3450 3541 
Q 3450 3153 3228 2886 
Q 3006 2619 2597 2516 
z
" transform="scale(0.015625)"/>
       </defs>
       <use xlink:href="#DejaVuSans-33"/>
       <use xlink:href="#DejaVuSans-30" x="63.623047"/>
      </g>
     </g>
    </g>
    <g id="ytick_5">
     <g id="text_5">
      <!-- 40 -->
      <g style="fill: #262626" transform="translate(41.50375 185.00203) scale(0.165 -0.165)">
       <defs>
        <path id="DejaVuSans-34" d="M 2419 4116 
L 825 1625 
L 2419 1625 
L 2419 4116 
z
M 2253 4666 
L 3047 4666 
L 3047 1625 
L 3713 1625 
L 3713 1100 
L 3047 1100 
L 3047 0 
L 2419 0 
L 2419 1100 
L 313 1100 
L 313 1709 
L 2253 4666 
z
" transform="scale(0.015625)"/>
       </defs>
       <use xlink:href="#DejaVuSans-34"/>
       <use xlink:href="#DejaVuSans-30" x="63.623047"/>
      </g>
     </g>
    </g>
    <g id="ytick_6">
     <g id="text_6">
      <!-- 50 -->
      <g style="fill: #262626" transform="translate(41.50375 149.58536) scale(0.165 -0.165)">
       <defs>
        <path id="DejaVuSans-35" d="M 691 4666 
L 3169 4666 
L 3169 4134 
L 1269 4134 
L 1269 2991 
Q 1406 3038 1543 3061 
Q 1681 3084 1819 3084 
Q 2600 3084 3056 2656 
Q 3513 2228 3513 1497 
Q 3513 744 3044 326 
Q 2575 -91 1722 -91 
Q 1428 -91 1123 -41 
Q 819 9 494 109 
L 494 744 
Q 775 591 1075 516 
Q 1375 441 1709 441 
Q 2250 441 2565 725 
Q 2881 1009 2881 1497 
Q 2881 1984 2565 2268 
Q 2250 2553 1709 2553 
Q 1456 2553 1204 2497 
Q 953 2441 691 2322 
L 691 4666 
z
" transform="scale(0.015625)"/>
       </defs>
       <use xlink:href="#DejaVuSans-35"/>
       <use xlink:href="#DejaVuSans-30" x="63.623047"/>
      </g>
     </g>
    </g>
    <g id="ytick_7">
     <g id="text_7">
      <!-- 60 -->
      <g style="fill: #262626" transform="translate(41.50375 114.168689) scale(0.165 -0.165)">
       <defs>
        <path id="DejaVuSans-36" d="M 2113 2584 
Q 1688 2584 1439 2293 
Q 1191 2003 1191 1497 
Q 1191 994 1439 701 
Q 1688 409 2113 409 
Q 2538 409 2786 701 
Q 3034 994 3034 1497 
Q 3034 2003 2786 2293 
Q 2538 2584 2113 2584 
z
M 3366 4563 
L 3366 3988 
Q 3128 4100 2886 4159 
Q 2644 4219 2406 4219 
Q 1781 4219 1451 3797 
Q 1122 3375 1075 2522 
Q 1259 2794 1537 2939 
Q 1816 3084 2150 3084 
Q 2853 3084 3261 2657 
Q 3669 2231 3669 1497 
Q 3669 778 3244 343 
Q 2819 -91 2113 -91 
Q 1303 -91 875 529 
Q 447 1150 447 2328 
Q 447 3434 972 4092 
Q 1497 4750 2381 4750 
Q 2619 4750 2861 4703 
Q 3103 4656 3366 4563 
z
" transform="scale(0.015625)"/>
       </defs>
       <use xlink:href="#DejaVuSans-36"/>
       <use xlink:href="#DejaVuSans-30" x="63.623047"/>
      </g>
     </g>
    </g>
    <g id="ytick_8">
     <g id="text_8">
      <!-- 70 -->
      <g style="fill: #262626" transform="translate(41.50375 78.752019) scale(0.165 -0.165)">
       <defs>
        <path id="DejaVuSans-37" d="M 525 4666 
L 3525 4666 
L 3525 4397 
L 1831 0 
L 1172 0 
L 2766 4134 
L 525 4134 
L 525 4666 
z
" transform="scale(0.015625)"/>
       </defs>
       <use xlink:href="#DejaVuSans-37"/>
       <use xlink:href="#DejaVuSans-30" x="63.623047"/>
      </g>
     </g>
    </g>
   </g>
   <g id="patch_3">
    <path d="M 175.29696 320.4 
L 186.54624 320.4 
L 186.54624 170.203559 
L 175.29696 170.203559 
z
" clip-path="url(#pe57d2efcf2)" style="fill: #597dbf; stroke: #ffffff; stroke-linejoin: miter"/>
   </g>
   <g id="patch_4">
    <path d="M 264.57696 320.4 
L 275.82624 320.4 
L 275.82624 164.323103 
L 264.57696 164.323103 
z
" clip-path="url(#pe57d2efcf2)" style="fill: #597dbf; stroke: #ffffff; stroke-linejoin: miter"/>
   </g>
   <g id="patch_5">
    <path d="M 353.85696 320.4 
L 365.10624 320.4 
L 365.10624 132.134514 
L 353.85696 132.134514 
z
" clip-path="url(#pe57d2efcf2)" style="fill: #597dbf; stroke: #ffffff; stroke-linejoin: miter"/>
   </g>
   <g id="patch_6">
    <path d="M 443.13696 320.4 
L 454.38624 320.4 
L 454.38624 180.285921 
L 443.13696 180.285921 
z
" clip-path="url(#pe57d2efcf2)" style="fill: #597dbf; stroke: #ffffff; stroke-linejoin: miter"/>
   </g>
   <g id="patch_7">
    <path d="M 98.51616 320.4 
L 109.76544 320.4 
L 109.76544 187.352756 
L 98.51616 187.352756 
z
" clip-path="url(#pe57d2efcf2)" style="fill: #d98b5f; stroke: #ffffff; stroke-linejoin: miter"/>
   </g>
   <g id="patch_8">
    <path d="M 187.79616 320.4 
L 199.04544 320.4 
L 199.04544 169.514589 
L 187.79616 169.514589 
z
" clip-path="url(#pe57d2efcf2)" style="fill: #d98b5f; stroke: #ffffff; stroke-linejoin: miter"/>
   </g>
   <g id="patch_9">
    <path d="M 277.07616 320.4 
L 288.32544 320.4 
L 288.32544 145.544196 
L 277.07616 145.544196 
z
" clip-path="url(#pe57d2efcf2)" style="fill: #d98b5f; stroke: #ffffff; stroke-linejoin: miter"/>
   </g>
   <g id="patch_10">
    <path d="M 366.35616 320.4 
L 377.60544 320.4 
L 377.60544 57.523095 
L 366.35616 57.523095 
z
" clip-path="url(#pe57d2efcf2)" style="fill: #d98b5f; stroke: #ffffff; stroke-linejoin: miter"/>
   </g>
   <g id="patch_11">
    <path d="M 455.63616 320.4 
L 466.88544 320.4 
L 466.88544 134.183895 
L 455.63616 134.183895 
z
" clip-path="url(#pe57d2efcf2)" style="fill: #d98b5f; stroke: #ffffff; stroke-linejoin: miter"/>
   </g>
   <g id="patch_12">
    <path d="M 111.01536 320.4 
L 122.26464 320.4 
L 122.26464 185.727783 
L 111.01536 185.727783 
z
" clip-path="url(#pe57d2efcf2)" style="fill: #75bf71; stroke: #ffffff; stroke-linejoin: miter"/>
   </g>
   <g id="patch_13">
    <path d="M 200.29536 320.4 
L 211.54464 320.4 
L 211.54464 170.04935 
L 200.29536 170.04935 
z
" clip-path="url(#pe57d2efcf2)" style="fill: #75bf71; stroke: #ffffff; stroke-linejoin: miter"/>
   </g>
   <g id="patch_14">
    <path d="M 289.57536 320.4 
L 300.82464 320.4 
L 300.82464 165.274879 
L 289.57536 165.274879 
z
" clip-path="url(#pe57d2efcf2)" style="fill: #75bf71; stroke: #ffffff; stroke-linejoin: miter"/>
   </g>
   <g id="patch_15">
    <path d="M 378.85536 320.4 
L 390.10464 320.4 
L 390.10464 166.750691 
L 378.85536 166.750691 
z
" clip-path="url(#pe57d2efcf2)" style="fill: #75bf71; stroke: #ffffff; stroke-linejoin: miter"/>
   </g>
   <g id="patch_16">
    <path d="M 468.13536 320.4 
L 479.38464 320.4 
L 479.38464 111.160632 
L 468.13536 111.160632 
z
" clip-path="url(#pe57d2efcf2)" style="fill: #75bf71; stroke: #ffffff; stroke-linejoin: miter"/>
   </g>
   <g id="patch_17">
    <path d="M 123.51456 320.4 
L 134.76384 320.4 
L 134.76384 187.37457 
L 123.51456 187.37457 
z
" clip-path="url(#pe57d2efcf2)" style="fill: #c76e6e; stroke: #ffffff; stroke-linejoin: miter"/>
   </g>
   <g id="patch_18">
    <path d="M 212.79456 320.4 
L 224.04384 320.4 
L 224.04384 179.831499 
L 212.79456 179.831499 
z
" clip-path="url(#pe57d2efcf2)" style="fill: #c76e6e; stroke: #ffffff; stroke-linejoin: miter"/>
   </g>
   <g id="patch_19">
    <path d="M 302.07456 320.4 
L 313.32384 320.4 
L 313.32384 172.898676 
L 302.07456 172.898676 
z
" clip-path="url(#pe57d2efcf2)" style="fill: #c76e6e; stroke: #ffffff; stroke-linejoin: miter"/>
   </g>
   <g id="patch_20">
    <path d="M 391.35456 320.4 
L 402.60384 320.4 
L 402.60384 184.378692 
L 391.35456 184.378692 
z
" clip-path="url(#pe57d2efcf2)" style="fill: #c76e6e; stroke: #ffffff; stroke-linejoin: miter"/>
   </g>
   <g id="patch_21">
    <path d="M 480.63456 320.4 
L 491.88384 320.4 
L 491.88384 164.048002 
L 480.63456 164.048002 
z
" clip-path="url(#pe57d2efcf2)" style="fill: #c76e6e; stroke: #ffffff; stroke-linejoin: miter"/>
   </g>
   <g id="patch_22">
    <path d="M 136.01376 320.4 
L 147.26304 320.4 
L 147.26304 188.187352 
L 136.01376 188.187352 
z
" clip-path="url(#pe57d2efcf2)" style="fill: #9475ab; stroke: #ffffff; stroke-linejoin: miter"/>
   </g>
   <g id="patch_23">
    <path d="M 225.29376 320.4 
L 236.54304 320.4 
L 236.54304 168.399491 
L 225.29376 168.399491 
z
" clip-path="url(#pe57d2efcf2)" style="fill: #9475ab; stroke: #ffffff; stroke-linejoin: miter"/>
   </g>
   <g id="patch_24">
    <path d="M 314.57376 320.4 
L 325.82304 320.4 
L 325.82304 140.295339 
L 314.57376 140.295339 
z
" clip-path="url(#pe57d2efcf2)" style="fill: #9475ab; stroke: #ffffff; stroke-linejoin: miter"/>
   </g>
   <g id="patch_25">
    <path d="M 403.85376 320.4 
L 415.10304 320.4 
L 415.10304 73.883037 
L 403.85376 73.883037 
z
" clip-path="url(#pe57d2efcf2)" style="fill: #9475ab; stroke: #ffffff; stroke-linejoin: miter"/>
   </g>
   <g id="patch_26">
    <path d="M 493.13376 320.4 
L 504.38304 320.4 
L 504.38304 165.089676 
L 493.13376 165.089676 
z
" clip-path="url(#pe57d2efcf2)" style="fill: #9475ab; stroke: #ffffff; stroke-linejoin: miter"/>
   </g>
   <g id="line2d_1">
    <path d="M 180.0288 175.470917 
L 181.8144 175.470917 
M 180.9216 175.470917 
L 180.9216 163.767309 
M 180.0288 163.767309 
L 181.8144 163.767309 
" clip-path="url(#pe57d2efcf2)" style="fill: none; stroke: #424242; stroke-width: 1.5; stroke-linecap: round"/>
   </g>
   <g id="line2d_2">
    <path d="M 269.3088 170.111819 
L 271.0944 170.111819 
M 270.2016 170.111819 
L 270.2016 158.104873 
M 269.3088 158.104873 
L 271.0944 158.104873 
" clip-path="url(#pe57d2efcf2)" style="fill: none; stroke: #424242; stroke-width: 1.5; stroke-linecap: round"/>
   </g>
   <g id="line2d_3">
    <path d="M 358.5888 147.567062 
L 360.3744 147.567062 
M 359.4816 147.567062 
L 359.4816 116.061262 
M 358.5888 116.061262 
L 360.3744 116.061262 
" clip-path="url(#pe57d2efcf2)" style="fill: none; stroke: #424242; stroke-width: 1.5; stroke-linecap: round"/>
   </g>
   <g id="line2d_4">
    <path d="M 447.8688 183.45945 
L 449.6544 183.45945 
M 448.7616 183.45945 
L 448.7616 176.567184 
M 447.8688 176.567184 
L 449.6544 176.567184 
" clip-path="url(#pe57d2efcf2)" style="fill: none; stroke: #424242; stroke-width: 1.5; stroke-linecap: round"/>
   </g>
   <g id="line2d_5">
    <path d="M 103.248 188.810629 
L 105.0336 188.810629 
M 104.1408 188.810629 
L 104.1408 186.075816 
M 103.248 186.075816 
L 105.0336 186.075816 
" clip-path="url(#pe57d2efcf2)" style="fill: none; stroke: #424242; stroke-width: 1.5; stroke-linecap: round"/>
   </g>
   <g id="line2d_6">
    <path d="M 192.528 170.937126 
L 194.3136 170.937126 
M 193.4208 170.937126 
L 193.4208 168.096216 
M 192.528 168.096216 
L 194.3136 168.096216 
" clip-path="url(#pe57d2efcf2)" style="fill: none; stroke: #424242; stroke-width: 1.5; stroke-linecap: round"/>
   </g>
   <g id="line2d_7">
    <path d="M 281.808 149.799734 
L 283.5936 149.799734 
M 282.7008 149.799734 
L 282.7008 139.86178 
M 281.808 139.86178 
L 283.5936 139.86178 
" clip-path="url(#pe57d2efcf2)" style="fill: none; stroke: #424242; stroke-width: 1.5; stroke-linecap: round"/>
   </g>
   <g id="line2d_8">
    <path d="M 371.088 59.593059 
L 372.8736 59.593059 
M 371.9808 59.593059 
L 371.9808 56.4 
M 371.088 56.4 
L 372.8736 56.4 
" clip-path="url(#pe57d2efcf2)" style="fill: none; stroke: #424242; stroke-width: 1.5; stroke-linecap: round"/>
   </g>
   <g id="line2d_9">
    <path clip-path="url(#pe57d2efcf2)" style="fill: none; stroke: #424242; stroke-width: 1.5; stroke-linecap: round"/>
   </g>
   <g id="line2d_10">
    <path d="M 115.7472 186.413563 
L 117.5328 186.413563 
M 116.64 186.413563 
L 116.64 184.857174 
M 115.7472 184.857174 
L 117.5328 184.857174 
" clip-path="url(#pe57d2efcf2)" style="fill: none; stroke: #424242; stroke-width: 1.5; stroke-linecap: round"/>
   </g>
   <g id="line2d_11">
    <path d="M 205.0272 171.622124 
L 206.8128 171.622124 
M 205.92 171.622124 
L 205.92 168.433473 
M 205.0272 168.433473 
L 206.8128 168.433473 
" clip-path="url(#pe57d2efcf2)" style="fill: none; stroke: #424242; stroke-width: 1.5; stroke-linecap: round"/>
   </g>
   <g id="line2d_12">
    <path d="M 294.3072 167.572561 
L 296.0928 167.572561 
M 295.2 167.572561 
L 295.2 162.866578 
M 294.3072 162.866578 
L 296.0928 162.866578 
" clip-path="url(#pe57d2efcf2)" style="fill: none; stroke: #424242; stroke-width: 1.5; stroke-linecap: round"/>
   </g>
   <g id="line2d_13">
    <path d="M 383.5872 169.574694 
L 385.3728 169.574694 
M 384.48 169.574694 
L 384.48 163.842952 
M 383.5872 163.842952 
L 385.3728 163.842952 
" clip-path="url(#pe57d2efcf2)" style="fill: none; stroke: #424242; stroke-width: 1.5; stroke-linecap: round"/>
   </g>
   <g id="line2d_14">
    <path d="M 472.8672 119.432501 
L 474.6528 119.432501 
M 473.76 119.432501 
L 473.76 96.322977 
M 472.8672 96.322977 
L 474.6528 96.322977 
" clip-path="url(#pe57d2efcf2)" style="fill: none; stroke: #424242; stroke-width: 1.5; stroke-linecap: round"/>
   </g>
   <g id="line2d_15">
    <path d="M 128.2464 189.61623 
L 130.032 189.61623 
M 129.1392 189.61623 
L 129.1392 185.051343 
M 128.2464 185.051343 
L 130.032 185.051343 
" clip-path="url(#pe57d2efcf2)" style="fill: none; stroke: #424242; stroke-width: 1.5; stroke-linecap: round"/>
   </g>
   <g id="line2d_16">
    <path d="M 217.5264 185.233262 
L 219.312 185.233262 
M 218.4192 185.233262 
L 218.4192 171.787064 
M 217.5264 171.787064 
L 219.312 171.787064 
" clip-path="url(#pe57d2efcf2)" style="fill: none; stroke: #424242; stroke-width: 1.5; stroke-linecap: round"/>
   </g>
   <g id="line2d_17">
    <path d="M 306.8064 179.580047 
L 308.592 179.580047 
M 307.6992 179.580047 
L 307.6992 166.217305 
M 306.8064 166.217305 
L 308.592 166.217305 
" clip-path="url(#pe57d2efcf2)" style="fill: none; stroke: #424242; stroke-width: 1.5; stroke-linecap: round"/>
   </g>
   <g id="line2d_18">
    <path d="M 396.0864 189.030392 
L 397.872 189.030392 
M 396.9792 189.030392 
L 396.9792 179.204887 
M 396.0864 179.204887 
L 397.872 179.204887 
" clip-path="url(#pe57d2efcf2)" style="fill: none; stroke: #424242; stroke-width: 1.5; stroke-linecap: round"/>
   </g>
   <g id="line2d_19">
    <path d="M 485.3664 180.437539 
L 487.152 180.437539 
M 486.2592 180.437539 
L 486.2592 149.285918 
M 485.3664 149.285918 
L 487.152 149.285918 
" clip-path="url(#pe57d2efcf2)" style="fill: none; stroke: #424242; stroke-width: 1.5; stroke-linecap: round"/>
   </g>
   <g id="line2d_20">
    <path d="M 140.7456 189.28874 
L 142.5312 189.28874 
M 141.6384 189.28874 
L 141.6384 186.898161 
M 140.7456 186.898161 
L 142.5312 186.898161 
" clip-path="url(#pe57d2efcf2)" style="fill: none; stroke: #424242; stroke-width: 1.5; stroke-linecap: round"/>
   </g>
   <g id="line2d_21">
    <path d="M 230.0256 168.917266 
L 231.8112 168.917266 
M 230.9184 168.917266 
L 230.9184 167.812277 
M 230.0256 167.812277 
L 231.8112 167.812277 
" clip-path="url(#pe57d2efcf2)" style="fill: none; stroke: #424242; stroke-width: 1.5; stroke-linecap: round"/>
   </g>
   <g id="line2d_22">
    <path d="M 319.3056 143.241781 
L 321.0912 143.241781 
M 320.1984 143.241781 
L 320.1984 137.401042 
M 319.3056 137.401042 
L 321.0912 137.401042 
" clip-path="url(#pe57d2efcf2)" style="fill: none; stroke: #424242; stroke-width: 1.5; stroke-linecap: round"/>
   </g>
   <g id="line2d_23">
    <path clip-path="url(#pe57d2efcf2)" style="fill: none; stroke: #424242; stroke-width: 1.5; stroke-linecap: round"/>
   </g>
   <g id="line2d_24">
    <path d="M 497.8656 165.732003 
L 499.6512 165.732003 
M 498.7584 165.732003 
L 498.7584 164.423416 
M 497.8656 164.423416 
L 499.6512 164.423416 
" clip-path="url(#pe57d2efcf2)" style="fill: none; stroke: #424242; stroke-width: 1.5; stroke-linecap: round"/>
   </g>
   <g id="patch_27">
    <path d="M 72 320.4 
L 72 43.2 
" style="fill: none; stroke: #cccccc; stroke-width: 1.25; stroke-linejoin: miter; stroke-linecap: square"/>
   </g>
   <g id="patch_28">
    <path d="M 518.4 320.4 
L 518.4 43.2 
" style="fill: none; stroke: #cccccc; stroke-width: 1.25; stroke-linejoin: miter; stroke-linecap: square"/>
   </g>
   <g id="patch_29">
    <path d="M 72 320.4 
L 518.4 320.4 
" style="fill: none; stroke: #cccccc; stroke-width: 1.25; stroke-linejoin: miter; stroke-linecap: square"/>
   </g>
   <g id="patch_30">
    <path d="M 72 43.2 
L 518.4 43.2 
" style="fill: none; stroke: #cccccc; stroke-width: 1.25; stroke-linejoin: miter; stroke-linecap: square"/>
   </g>
  </g>
 </g>
 <defs>
  <clipPath id="pe57d2efcf2">
   <rect x="72" y="43.2" width="446.4" height="277.2"/>
  </clipPath>
 </defs>
</svg>
