<?xml version="1.0" encoding="utf-8" standalone="no"?>
<!DOCTYPE svg PUBLIC "-//W3C//DTD SVG 1.1//EN"
  "http://www.w3.org/Graphics/SVG/1.1/DTD/svg11.dtd">
<svg xmlns:xlink="http://www.w3.org/1999/xlink" width="576pt" height="360pt" viewBox="0 0 576 360" xmlns="http://www.w3.org/2000/svg" version="1.1">
 <metadata>
  <rdf:RDF xmlns:dc="http://purl.org/dc/elements/1.1/" xmlns:cc="http://creativecommons.org/ns#" xmlns:rdf="http://www.w3.org/1999/02/22-rdf-syntax-ns#">
   <cc:Work>
    <dc:type rdf:resource="http://purl.org/dc/dcmitype/StillImage"/>
    <dc:date>2024-11-12T20:36:25.044248</dc:date>
    <dc:format>image/svg+xml</dc:format>
    <dc:creator>
     <cc:Agent>
      <dc:title>Matplotlib v3.9.2, https://matplotlib.org/</dc:title>
     </cc:Agent>
    </dc:creator>
   </cc:Work>
  </rdf:RDF>
 </metadata>
 <defs>
  <style type="text/css">*{stroke-linejoin: round; stroke-linecap: butt}</style>
 </defs>
 <g id="figure_1">
  <g id="patch_1">
   <path d="M 0 360 
L 576 360 
L 576 0 
L 0 0 
z
" style="fill: #ffffff"/>
  </g>
  <g id="axes_1">
   <g id="patch_2">
    <path d="M 72 320.4 
L 518.4 320.4 
L 518.4 43.2 
L 72 43.2 
z
" style="fill: #ffffff"/>
   </g>
   <g id="matplotlib.axis_1"/>
   <g id="matplotlib.axis_2">
    <g id="ytick_1">
     <g id="text_1">
      <!-- 40 -->
      <g style="fill: #262626" transform="translate(41.50375 286.219622) scale(0.165 -0.165)">
       <defs>
        <path id="DejaVuSans-34" d="M 2419 4116 
L 825 1625 
L 2419 1625 
L 2419 4116 
z
M 2253 4666 
L 3047 4666 
L 3047 1625 
L 3713 1625 
L 3713 1100 
L 3047 1100 
L 3047 0 
L 2419 0 
L 2419 1100 
L 313 1100 
L 313 1709 
L 2253 4666 
z
" transform="scale(0.015625)"/>
        <path id="DejaVuSans-30" d="M 2034 4250 
Q 1547 4250 1301 3770 
Q 1056 3291 1056 2328 
Q 1056 1369 1301 889 
Q 1547 409 2034 409 
Q 2525 409 2770 889 
Q 3016 1369 3016 2328 
Q 3016 3291 2770 3770 
Q 2525 4250 2034 4250 
z
M 2034 4750 
Q 2819 4750 3233 4129 
Q 3647 3509 3647 2328 
Q 3647 1150 3233 529 
Q 2819 -91 2034 -91 
Q 1250 -91 836 529 
Q 422 1150 422 2328 
Q 422 3509 836 4129 
Q 1250 4750 2034 4750 
z
" transform="scale(0.015625)"/>
       </defs>
       <use xlink:href="#DejaVuSans-34"/>
       <use xlink:href="#DejaVuSans-30" x="63.623047"/>
      </g>
     </g>
    </g>
    <g id="ytick_2">
     <g id="text_2">
      <!-- 50 -->
      <g style="fill: #262626" transform="translate(41.50375 222.176505) scale(0.165 -0.165)">
       <defs>
        <path id="DejaVuSans-35" d="M 691 4666 
L 3169 4666 
L 3169 4134 
L 1269 4134 
L 1269 2991 
Q 1406 3038 1543 3061 
Q 1681 3084 1819 3084 
Q 2600 3084 3056 2656 
Q 3513 2228 3513 1497 
Q 3513 744 3044 326 
Q 2575 -91 1722 -91 
Q 1428 -91 1123 -41 
Q 819 9 494 109 
L 494 744 
Q 775 591 1075 516 
Q 1375 441 1709 441 
Q 2250 441 2565 725 
Q 2881 1009 2881 1497 
Q 2881 1984 2565 2268 
Q 2250 2553 1709 2553 
Q 1456 2553 1204 2497 
Q 953 2441 691 2322 
L 691 4666 
z
" transform="scale(0.015625)"/>
       </defs>
       <use xlink:href="#DejaVuSans-35"/>
       <use xlink:href="#DejaVuSans-30" x="63.623047"/>
      </g>
     </g>
    </g>
    <g id="ytick_3">
     <g id="text_3">
      <!-- 60 -->
      <g style="fill: #262626" transform="translate(41.50375 158.133387) scale(0.165 -0.165)">
       <defs>
        <path id="DejaVuSans-36" d="M 2113 2584 
Q 1688 2584 1439 2293 
Q 1191 2003 1191 1497 
Q 1191 994 1439 701 
Q 1688 409 2113 409 
Q 2538 409 2786 701 
Q 3034 994 3034 1497 
Q 3034 2003 2786 2293 
Q 2538 2584 2113 2584 
z
M 3366 4563 
L 3366 3988 
Q 3128 4100 2886 4159 
Q 2644 4219 2406 4219 
Q 1781 4219 1451 3797 
Q 1122 3375 1075 2522 
Q 1259 2794 1537 2939 
Q 1816 3084 2150 3084 
Q 2853 3084 3261 2657 
Q 3669 2231 3669 1497 
Q 3669 778 3244 343 
Q 2819 -91 2113 -91 
Q 1303 -91 875 529 
Q 447 1150 447 2328 
Q 447 3434 972 4092 
Q 1497 4750 2381 4750 
Q 2619 4750 2861 4703 
Q 3103 4656 3366 4563 
z
" transform="scale(0.015625)"/>
       </defs>
       <use xlink:href="#DejaVuSans-36"/>
       <use xlink:href="#DejaVuSans-30" x="63.623047"/>
      </g>
     </g>
    </g>
    <g id="ytick_4">
     <g id="text_4">
      <!-- 70 -->
      <g style="fill: #262626" transform="translate(41.50375 94.09027) scale(0.165 -0.165)">
       <defs>
        <path id="DejaVuSans-37" d="M 525 4666 
L 3525 4666 
L 3525 4397 
L 1831 0 
L 1172 0 
L 2766 4134 
L 525 4134 
L 525 4666 
z
" transform="scale(0.015625)"/>
       </defs>
       <use xlink:href="#DejaVuSans-37"/>
       <use xlink:href="#DejaVuSans-30" x="63.623047"/>
      </g>
     </g>
    </g>
   </g>
   <g id="line2d_1">
    <path d="M 87.26688 306.866765 
L 96.01632 306.866765 
L 96.01632 304.555148 
L 87.26688 304.555148 
L 87.26688 306.866765 
" clip-path="url(#p7c03aade7e)" style="fill: none; stroke: #4878d0; stroke-width: 1.5; stroke-linecap: round"/>
   </g>
   <g id="line2d_2">
    <path d="M 91.6416 306.866765 
L 91.6416 307.8 
" clip-path="url(#p7c03aade7e)" style="fill: none; stroke: #4878d0; stroke-width: 1.5"/>
   </g>
   <g id="line2d_3">
    <path d="M 91.6416 304.555148 
L 91.6416 304.555148 
" clip-path="url(#p7c03aade7e)" style="fill: none; stroke: #4878d0; stroke-width: 1.5"/>
   </g>
   <g id="line2d_4">
    <path d="M 89.45424 307.8 
L 93.82896 307.8 
" clip-path="url(#p7c03aade7e)" style="fill: none; stroke: #4878d0; stroke-width: 1.5; stroke-linecap: round"/>
   </g>
   <g id="line2d_5">
    <path d="M 89.45424 304.555148 
L 93.82896 304.555148 
" clip-path="url(#p7c03aade7e)" style="fill: none; stroke: #4878d0; stroke-width: 1.5; stroke-linecap: round"/>
   </g>
   <g id="line2d_6">
    <defs>
     <path id="m7312b1619d" d="M 0 3 
C 0.795609 3 1.55874 2.683901 2.12132 2.12132 
C 2.683901 1.55874 3 0.795609 3 0 
C 3 -0.795609 2.683901 -1.55874 2.12132 -2.12132 
C 1.55874 -2.683901 0.795609 -3 0 -3 
C -0.795609 -3 -1.55874 -2.683901 -2.12132 -2.12132 
C -2.683901 -1.55874 -3 -0.795609 -3 0 
C -3 0.795609 -2.683901 1.55874 -2.12132 2.12132 
C -1.55874 2.683901 -0.795609 3 0 3 
z
" style="stroke: #4878d0"/>
    </defs>
    <g clip-path="url(#p7c03aade7e)">
     <use xlink:href="#m7312b1619d" x="91.6416" y="299.638351" style="fill-opacity: 0; stroke: #4878d0"/>
    </g>
   </g>
   <g id="line2d_7">
    <path d="M 176.54688 275.2981 
L 185.29632 275.2981 
L 185.29632 256.937357 
L 176.54688 256.937357 
L 176.54688 275.2981 
" clip-path="url(#p7c03aade7e)" style="fill: none; stroke: #4878d0; stroke-width: 1.5; stroke-linecap: round"/>
   </g>
   <g id="line2d_8">
    <path d="M 180.9216 275.2981 
L 180.9216 275.632409 
" clip-path="url(#p7c03aade7e)" style="fill: none; stroke: #4878d0; stroke-width: 1.5"/>
   </g>
   <g id="line2d_9">
    <path d="M 180.9216 256.937357 
L 180.9216 246.368962 
" clip-path="url(#p7c03aade7e)" style="fill: none; stroke: #4878d0; stroke-width: 1.5"/>
   </g>
   <g id="line2d_10">
    <path d="M 178.73424 275.632409 
L 183.10896 275.632409 
" clip-path="url(#p7c03aade7e)" style="fill: none; stroke: #4878d0; stroke-width: 1.5; stroke-linecap: round"/>
   </g>
   <g id="line2d_11">
    <path d="M 178.73424 246.368962 
L 183.10896 246.368962 
" clip-path="url(#p7c03aade7e)" style="fill: none; stroke: #4878d0; stroke-width: 1.5; stroke-linecap: round"/>
   </g>
   <g id="line2d_12"/>
   <g id="line2d_13">
    <path d="M 265.82688 266.906315 
L 274.57632 266.906315 
L 274.57632 236.283098 
L 265.82688 236.283098 
L 265.82688 266.906315 
" clip-path="url(#p7c03aade7e)" style="fill: none; stroke: #4878d0; stroke-width: 1.5; stroke-linecap: round"/>
   </g>
   <g id="line2d_14">
    <path d="M 270.2016 266.906315 
L 270.2016 280.757552 
" clip-path="url(#p7c03aade7e)" style="fill: none; stroke: #4878d0; stroke-width: 1.5"/>
   </g>
   <g id="line2d_15">
    <path d="M 270.2016 236.283098 
L 270.2016 216.758419 
" clip-path="url(#p7c03aade7e)" style="fill: none; stroke: #4878d0; stroke-width: 1.5"/>
   </g>
   <g id="line2d_16">
    <path d="M 268.01424 280.757552 
L 272.38896 280.757552 
" clip-path="url(#p7c03aade7e)" style="fill: none; stroke: #4878d0; stroke-width: 1.5; stroke-linecap: round"/>
   </g>
   <g id="line2d_17">
    <path d="M 268.01424 216.758419 
L 272.38896 216.758419 
" clip-path="url(#p7c03aade7e)" style="fill: none; stroke: #4878d0; stroke-width: 1.5; stroke-linecap: round"/>
   </g>
   <g id="line2d_18"/>
   <g id="line2d_19">
    <path d="M 355.10688 225.468364 
L 363.85632 225.468364 
L 363.85632 160.572104 
L 355.10688 160.572104 
L 355.10688 225.468364 
" clip-path="url(#p7c03aade7e)" style="fill: none; stroke: #4878d0; stroke-width: 1.5; stroke-linecap: round"/>
   </g>
   <g id="line2d_20">
    <path d="M 359.4816 225.468364 
L 359.4816 257.162179 
" clip-path="url(#p7c03aade7e)" style="fill: none; stroke: #4878d0; stroke-width: 1.5"/>
   </g>
   <g id="line2d_21">
    <path d="M 359.4816 160.572104 
L 359.4816 154.085251 
" clip-path="url(#p7c03aade7e)" style="fill: none; stroke: #4878d0; stroke-width: 1.5"/>
   </g>
   <g id="line2d_22">
    <path d="M 357.29424 257.162179 
L 361.66896 257.162179 
" clip-path="url(#p7c03aade7e)" style="fill: none; stroke: #4878d0; stroke-width: 1.5; stroke-linecap: round"/>
   </g>
   <g id="line2d_23">
    <path d="M 357.29424 154.085251 
L 361.66896 154.085251 
" clip-path="url(#p7c03aade7e)" style="fill: none; stroke: #4878d0; stroke-width: 1.5; stroke-linecap: round"/>
   </g>
   <g id="line2d_24"/>
   <g id="line2d_25">
    <path d="M 444.38688 290.133767 
L 453.13632 290.133767 
L 453.13632 280.346239 
L 444.38688 280.346239 
L 444.38688 290.133767 
" clip-path="url(#p7c03aade7e)" style="fill: none; stroke: #4878d0; stroke-width: 1.5; stroke-linecap: round"/>
   </g>
   <g id="line2d_26">
    <path d="M 448.7616 290.133767 
L 448.7616 294.690976 
" clip-path="url(#p7c03aade7e)" style="fill: none; stroke: #4878d0; stroke-width: 1.5"/>
   </g>
   <g id="line2d_27">
    <path d="M 448.7616 280.346239 
L 448.7616 266.611283 
" clip-path="url(#p7c03aade7e)" style="fill: none; stroke: #4878d0; stroke-width: 1.5"/>
   </g>
   <g id="line2d_28">
    <path d="M 446.57424 294.690976 
L 450.94896 294.690976 
" clip-path="url(#p7c03aade7e)" style="fill: none; stroke: #4878d0; stroke-width: 1.5; stroke-linecap: round"/>
   </g>
   <g id="line2d_29">
    <path d="M 446.57424 266.611283 
L 450.94896 266.611283 
" clip-path="url(#p7c03aade7e)" style="fill: none; stroke: #4878d0; stroke-width: 1.5; stroke-linecap: round"/>
   </g>
   <g id="line2d_30"/>
   <g id="line2d_31">
    <path d="M 99.76608 296.591318 
L 108.51552 296.591318 
L 108.51552 294.403713 
L 99.76608 294.403713 
L 99.76608 296.591318 
" clip-path="url(#p7c03aade7e)" style="fill: none; stroke: #ee854a; stroke-width: 1.5; stroke-linecap: round"/>
   </g>
   <g id="line2d_32">
    <path d="M 104.1408 296.591318 
L 104.1408 296.591318 
" clip-path="url(#p7c03aade7e)" style="fill: none; stroke: #ee854a; stroke-width: 1.5"/>
   </g>
   <g id="line2d_33">
    <path d="M 104.1408 294.403713 
L 104.1408 291.702553 
" clip-path="url(#p7c03aade7e)" style="fill: none; stroke: #ee854a; stroke-width: 1.5"/>
   </g>
   <g id="line2d_34">
    <path d="M 101.95344 296.591318 
L 106.32816 296.591318 
" clip-path="url(#p7c03aade7e)" style="fill: none; stroke: #ee854a; stroke-width: 1.5; stroke-linecap: round"/>
   </g>
   <g id="line2d_35">
    <path d="M 101.95344 291.702553 
L 106.32816 291.702553 
" clip-path="url(#p7c03aade7e)" style="fill: none; stroke: #ee854a; stroke-width: 1.5; stroke-linecap: round"/>
   </g>
   <g id="line2d_36">
    <defs>
     <path id="mc1e2f1eff1" d="M 0 3 
C 0.795609 3 1.55874 2.683901 2.12132 2.12132 
C 2.683901 1.55874 3 0.795609 3 0 
C 3 -0.795609 2.683901 -1.55874 2.12132 -2.12132 
C 1.55874 -2.683901 0.795609 -3 0 -3 
C -0.795609 -3 -1.55874 -2.683901 -2.12132 -2.12132 
C -2.683901 -1.55874 -3 -0.795609 -3 0 
C -3 0.795609 -2.683901 1.55874 -2.12132 2.12132 
C -1.55874 2.683901 -0.795609 3 0 3 
z
" style="stroke: #ee854a"/>
    </defs>
    <g clip-path="url(#p7c03aade7e)">
     <use xlink:href="#mc1e2f1eff1" x="104.1408" y="300.546696" style="fill-opacity: 0; stroke: #ee854a"/>
    </g>
   </g>
   <g id="line2d_37">
    <path d="M 189.04608 264.592931 
L 197.79552 264.592931 
L 197.79552 262.844354 
L 189.04608 262.844354 
L 189.04608 264.592931 
" clip-path="url(#p7c03aade7e)" style="fill: none; stroke: #ee854a; stroke-width: 1.5; stroke-linecap: round"/>
   </g>
   <g id="line2d_38">
    <path d="M 193.4208 264.592931 
L 193.4208 264.592931 
" clip-path="url(#p7c03aade7e)" style="fill: none; stroke: #ee854a; stroke-width: 1.5"/>
   </g>
   <g id="line2d_39">
    <path d="M 193.4208 262.844354 
L 193.4208 262.844354 
" clip-path="url(#p7c03aade7e)" style="fill: none; stroke: #ee854a; stroke-width: 1.5"/>
   </g>
   <g id="line2d_40">
    <path d="M 191.23344 264.592931 
L 195.60816 264.592931 
" clip-path="url(#p7c03aade7e)" style="fill: none; stroke: #ee854a; stroke-width: 1.5; stroke-linecap: round"/>
   </g>
   <g id="line2d_41">
    <path d="M 191.23344 262.844354 
L 195.60816 262.844354 
" clip-path="url(#p7c03aade7e)" style="fill: none; stroke: #ee854a; stroke-width: 1.5; stroke-linecap: round"/>
   </g>
   <g id="line2d_42">
    <g clip-path="url(#p7c03aade7e)">
     <use xlink:href="#mc1e2f1eff1" x="193.4208" y="267.799621" style="fill-opacity: 0; stroke: #ee854a"/>
     <use xlink:href="#mc1e2f1eff1" x="193.4208" y="258.144615" style="fill-opacity: 0; stroke: #ee854a"/>
    </g>
   </g>
   <g id="line2d_43">
    <path d="M 278.32608 228.38628 
L 287.07552 228.38628 
L 287.07552 217.765161 
L 278.32608 217.765161 
L 278.32608 228.38628 
" clip-path="url(#p7c03aade7e)" style="fill: none; stroke: #ee854a; stroke-width: 1.5; stroke-linecap: round"/>
   </g>
   <g id="line2d_44">
    <path d="M 282.7008 228.38628 
L 282.7008 228.916133 
" clip-path="url(#p7c03aade7e)" style="fill: none; stroke: #ee854a; stroke-width: 1.5"/>
   </g>
   <g id="line2d_45">
    <path d="M 282.7008 217.765161 
L 282.7008 217.765161 
" clip-path="url(#p7c03aade7e)" style="fill: none; stroke: #ee854a; stroke-width: 1.5"/>
   </g>
   <g id="line2d_46">
    <path d="M 280.51344 228.916133 
L 284.88816 228.916133 
" clip-path="url(#p7c03aade7e)" style="fill: none; stroke: #ee854a; stroke-width: 1.5; stroke-linecap: round"/>
   </g>
   <g id="line2d_47">
    <path d="M 280.51344 217.765161 
L 284.88816 217.765161 
" clip-path="url(#p7c03aade7e)" style="fill: none; stroke: #ee854a; stroke-width: 1.5; stroke-linecap: round"/>
   </g>
   <g id="line2d_48">
    <g clip-path="url(#p7c03aade7e)">
     <use xlink:href="#mc1e2f1eff1" x="282.7008" y="200.544711" style="fill-opacity: 0; stroke: #ee854a"/>
    </g>
   </g>
   <g id="line2d_49">
    <path d="M 367.60608 59.057163 
L 376.35552 59.057163 
L 376.35552 55.8 
L 367.60608 55.8 
L 367.60608 59.057163 
" clip-path="url(#p7c03aade7e)" style="fill: none; stroke: #ee854a; stroke-width: 1.5; stroke-linecap: round"/>
   </g>
   <g id="line2d_50">
    <path d="M 371.9808 59.057163 
L 371.9808 59.057163 
" clip-path="url(#p7c03aade7e)" style="fill: none; stroke: #ee854a; stroke-width: 1.5"/>
   </g>
   <g id="line2d_51">
    <path d="M 371.9808 55.8 
L 371.9808 55.8 
" clip-path="url(#p7c03aade7e)" style="fill: none; stroke: #ee854a; stroke-width: 1.5"/>
   </g>
   <g id="line2d_52">
    <path d="M 369.79344 59.057163 
L 374.16816 59.057163 
" clip-path="url(#p7c03aade7e)" style="fill: none; stroke: #ee854a; stroke-width: 1.5; stroke-linecap: round"/>
   </g>
   <g id="line2d_53">
    <path d="M 369.79344 55.8 
L 374.16816 55.8 
" clip-path="url(#p7c03aade7e)" style="fill: none; stroke: #ee854a; stroke-width: 1.5; stroke-linecap: round"/>
   </g>
   <g id="line2d_54">
    <g clip-path="url(#p7c03aade7e)">
     <use xlink:href="#mc1e2f1eff1" x="371.9808" y="64.51243" style="fill-opacity: 0; stroke: #ee854a"/>
    </g>
   </g>
   <g id="line2d_55">
    <path d="M 456.88608 55.8 
L 465.63552 55.8 
L 465.63552 55.8 
L 456.88608 55.8 
L 456.88608 55.8 
" clip-path="url(#p7c03aade7e)" style="fill: none; stroke: #ee854a; stroke-width: 1.5; stroke-linecap: round"/>
   </g>
   <g id="line2d_56">
    <path d="M 461.2608 55.8 
L 461.2608 55.8 
" clip-path="url(#p7c03aade7e)" style="fill: none; stroke: #ee854a; stroke-width: 1.5"/>
   </g>
   <g id="line2d_57">
    <path d="M 461.2608 55.8 
L 461.2608 55.8 
" clip-path="url(#p7c03aade7e)" style="fill: none; stroke: #ee854a; stroke-width: 1.5"/>
   </g>
   <g id="line2d_58">
    <path d="M 459.07344 55.8 
L 463.44816 55.8 
" clip-path="url(#p7c03aade7e)" style="fill: none; stroke: #ee854a; stroke-width: 1.5; stroke-linecap: round"/>
   </g>
   <g id="line2d_59">
    <path d="M 459.07344 55.8 
L 463.44816 55.8 
" clip-path="url(#p7c03aade7e)" style="fill: none; stroke: #ee854a; stroke-width: 1.5; stroke-linecap: round"/>
   </g>
   <g id="line2d_60">
    <g clip-path="url(#p7c03aade7e)">
     <use xlink:href="#mc1e2f1eff1" x="461.2608" y="199.393254" style="fill-opacity: 0; stroke: #ee854a"/>
    </g>
   </g>
   <g id="line2d_61">
    <path d="M 112.26528 293.850481 
L 121.01472 293.850481 
L 121.01472 292.596 
L 112.26528 292.596 
L 112.26528 293.850481 
" clip-path="url(#p7c03aade7e)" style="fill: none; stroke: #6acc64; stroke-width: 1.5; stroke-linecap: round"/>
   </g>
   <g id="line2d_62">
    <path d="M 116.64 293.850481 
L 116.64 294.249359 
" clip-path="url(#p7c03aade7e)" style="fill: none; stroke: #6acc64; stroke-width: 1.5"/>
   </g>
   <g id="line2d_63">
    <path d="M 116.64 292.596 
L 116.64 292.596 
" clip-path="url(#p7c03aade7e)" style="fill: none; stroke: #6acc64; stroke-width: 1.5"/>
   </g>
   <g id="line2d_64">
    <path d="M 114.45264 294.249359 
L 118.82736 294.249359 
" clip-path="url(#p7c03aade7e)" style="fill: none; stroke: #6acc64; stroke-width: 1.5; stroke-linecap: round"/>
   </g>
   <g id="line2d_65">
    <path d="M 114.45264 292.596 
L 118.82736 292.596 
" clip-path="url(#p7c03aade7e)" style="fill: none; stroke: #6acc64; stroke-width: 1.5; stroke-linecap: round"/>
   </g>
   <g id="line2d_66">
    <defs>
     <path id="mc32e18352e" d="M 0 3 
C 0.795609 3 1.55874 2.683901 2.12132 2.12132 
C 2.683901 1.55874 3 0.795609 3 0 
C 3 -0.795609 2.683901 -1.55874 2.12132 -2.12132 
C 1.55874 -2.683901 0.795609 -3 0 -3 
C -0.795609 -3 -1.55874 -2.683901 -2.12132 -2.12132 
C -2.683901 -1.55874 -3 -0.795609 -3 0 
C -3 0.795609 -2.683901 1.55874 -2.12132 2.12132 
C -1.55874 2.683901 -0.795609 3 0 3 
z
" style="stroke: #6acc64"/>
    </defs>
    <g clip-path="url(#p7c03aade7e)">
     <use xlink:href="#mc32e18352e" x="116.64" y="289.566923" style="fill-opacity: 0; stroke: #6acc64"/>
    </g>
   </g>
   <g id="line2d_67">
    <path d="M 201.54528 264.615981 
L 210.29472 264.615981 
L 210.29472 264.015644 
L 201.54528 264.015644 
L 201.54528 264.615981 
" clip-path="url(#p7c03aade7e)" style="fill: none; stroke: #6acc64; stroke-width: 1.5; stroke-linecap: round"/>
   </g>
   <g id="line2d_68">
    <path d="M 205.92 264.615981 
L 205.92 264.615981 
" clip-path="url(#p7c03aade7e)" style="fill: none; stroke: #6acc64; stroke-width: 1.5"/>
   </g>
   <g id="line2d_69">
    <path d="M 205.92 264.015644 
L 205.92 264.015644 
" clip-path="url(#p7c03aade7e)" style="fill: none; stroke: #6acc64; stroke-width: 1.5"/>
   </g>
   <g id="line2d_70">
    <path d="M 203.73264 264.615981 
L 208.10736 264.615981 
" clip-path="url(#p7c03aade7e)" style="fill: none; stroke: #6acc64; stroke-width: 1.5; stroke-linecap: round"/>
   </g>
   <g id="line2d_71">
    <path d="M 203.73264 264.015644 
L 208.10736 264.015644 
" clip-path="url(#p7c03aade7e)" style="fill: none; stroke: #6acc64; stroke-width: 1.5; stroke-linecap: round"/>
   </g>
   <g id="line2d_72">
    <g clip-path="url(#p7c03aade7e)">
     <use xlink:href="#mc32e18352e" x="205.92" y="269.084365" style="fill-opacity: 0; stroke: #6acc64"/>
     <use xlink:href="#mc32e18352e" x="205.92" y="259.332701" style="fill-opacity: 0; stroke: #6acc64"/>
    </g>
   </g>
   <g id="line2d_73">
    <path d="M 290.82528 259.122647 
L 299.57472 259.122647 
L 299.57472 250.11075 
L 290.82528 250.11075 
L 290.82528 259.122647 
" clip-path="url(#p7c03aade7e)" style="fill: none; stroke: #6acc64; stroke-width: 1.5; stroke-linecap: round"/>
   </g>
   <g id="line2d_74">
    <path d="M 295.2 259.122647 
L 295.2 261.751958 
" clip-path="url(#p7c03aade7e)" style="fill: none; stroke: #6acc64; stroke-width: 1.5"/>
   </g>
   <g id="line2d_75">
    <path d="M 295.2 250.11075 
L 295.2 248.989484 
" clip-path="url(#p7c03aade7e)" style="fill: none; stroke: #6acc64; stroke-width: 1.5"/>
   </g>
   <g id="line2d_76">
    <path d="M 293.01264 261.751958 
L 297.38736 261.751958 
" clip-path="url(#p7c03aade7e)" style="fill: none; stroke: #6acc64; stroke-width: 1.5; stroke-linecap: round"/>
   </g>
   <g id="line2d_77">
    <path d="M 293.01264 248.989484 
L 297.38736 248.989484 
" clip-path="url(#p7c03aade7e)" style="fill: none; stroke: #6acc64; stroke-width: 1.5; stroke-linecap: round"/>
   </g>
   <g id="line2d_78"/>
   <g id="line2d_79">
    <path d="M 380.10528 264.199194 
L 388.85472 264.199194 
L 388.85472 255.438295 
L 380.10528 255.438295 
L 380.10528 264.199194 
" clip-path="url(#p7c03aade7e)" style="fill: none; stroke: #6acc64; stroke-width: 1.5; stroke-linecap: round"/>
   </g>
   <g id="line2d_80">
    <path d="M 384.48 264.199194 
L 384.48 265.005729 
" clip-path="url(#p7c03aade7e)" style="fill: none; stroke: #6acc64; stroke-width: 1.5"/>
   </g>
   <g id="line2d_81">
    <path d="M 384.48 255.438295 
L 384.48 248.233741 
" clip-path="url(#p7c03aade7e)" style="fill: none; stroke: #6acc64; stroke-width: 1.5"/>
   </g>
   <g id="line2d_82">
    <path d="M 382.29264 265.005729 
L 386.66736 265.005729 
" clip-path="url(#p7c03aade7e)" style="fill: none; stroke: #6acc64; stroke-width: 1.5; stroke-linecap: round"/>
   </g>
   <g id="line2d_83">
    <path d="M 382.29264 248.233741 
L 386.66736 248.233741 
" clip-path="url(#p7c03aade7e)" style="fill: none; stroke: #6acc64; stroke-width: 1.5; stroke-linecap: round"/>
   </g>
   <g id="line2d_84"/>
   <g id="line2d_85">
    <path d="M 469.38528 169.633593 
L 478.13472 169.633593 
L 478.13472 55.8 
L 469.38528 55.8 
L 469.38528 169.633593 
" clip-path="url(#p7c03aade7e)" style="fill: none; stroke: #6acc64; stroke-width: 1.5; stroke-linecap: round"/>
   </g>
   <g id="line2d_86">
    <path d="M 473.76 169.633593 
L 473.76 172.71866 
" clip-path="url(#p7c03aade7e)" style="fill: none; stroke: #6acc64; stroke-width: 1.5"/>
   </g>
   <g id="line2d_87">
    <path d="M 473.76 55.8 
L 473.76 55.8 
" clip-path="url(#p7c03aade7e)" style="fill: none; stroke: #6acc64; stroke-width: 1.5"/>
   </g>
   <g id="line2d_88">
    <path d="M 471.57264 172.71866 
L 475.94736 172.71866 
" clip-path="url(#p7c03aade7e)" style="fill: none; stroke: #6acc64; stroke-width: 1.5; stroke-linecap: round"/>
   </g>
   <g id="line2d_89">
    <path d="M 471.57264 55.8 
L 475.94736 55.8 
" clip-path="url(#p7c03aade7e)" style="fill: none; stroke: #6acc64; stroke-width: 1.5; stroke-linecap: round"/>
   </g>
   <g id="line2d_90"/>
   <g id="line2d_91">
    <path d="M 124.76448 299.296465 
L 133.51392 299.296465 
L 133.51392 292.874964 
L 124.76448 292.874964 
L 124.76448 299.296465 
" clip-path="url(#p7c03aade7e)" style="fill: none; stroke: #d65f5f; stroke-width: 1.5; stroke-linecap: round"/>
   </g>
   <g id="line2d_92">
    <path d="M 129.1392 299.296465 
L 129.1392 300.273305 
" clip-path="url(#p7c03aade7e)" style="fill: none; stroke: #d65f5f; stroke-width: 1.5"/>
   </g>
   <g id="line2d_93">
    <path d="M 129.1392 292.874964 
L 129.1392 288.843906 
" clip-path="url(#p7c03aade7e)" style="fill: none; stroke: #d65f5f; stroke-width: 1.5"/>
   </g>
   <g id="line2d_94">
    <path d="M 126.95184 300.273305 
L 131.32656 300.273305 
" clip-path="url(#p7c03aade7e)" style="fill: none; stroke: #d65f5f; stroke-width: 1.5; stroke-linecap: round"/>
   </g>
   <g id="line2d_95">
    <path d="M 126.95184 288.843906 
L 131.32656 288.843906 
" clip-path="url(#p7c03aade7e)" style="fill: none; stroke: #d65f5f; stroke-width: 1.5; stroke-linecap: round"/>
   </g>
   <g id="line2d_96"/>
   <g id="line2d_97">
    <path d="M 214.04448 290.470545 
L 222.79392 290.470545 
L 222.79392 279.22762 
L 214.04448 279.22762 
L 214.04448 290.470545 
" clip-path="url(#p7c03aade7e)" style="fill: none; stroke: #d65f5f; stroke-width: 1.5; stroke-linecap: round"/>
   </g>
   <g id="line2d_98">
    <path d="M 218.4192 290.470545 
L 218.4192 292.321632 
" clip-path="url(#p7c03aade7e)" style="fill: none; stroke: #d65f5f; stroke-width: 1.5"/>
   </g>
   <g id="line2d_99">
    <path d="M 218.4192 279.22762 
L 218.4192 279.22762 
" clip-path="url(#p7c03aade7e)" style="fill: none; stroke: #d65f5f; stroke-width: 1.5"/>
   </g>
   <g id="line2d_100">
    <path d="M 216.23184 292.321632 
L 220.60656 292.321632 
" clip-path="url(#p7c03aade7e)" style="fill: none; stroke: #d65f5f; stroke-width: 1.5; stroke-linecap: round"/>
   </g>
   <g id="line2d_101">
    <path d="M 216.23184 279.22762 
L 220.60656 279.22762 
" clip-path="url(#p7c03aade7e)" style="fill: none; stroke: #d65f5f; stroke-width: 1.5; stroke-linecap: round"/>
   </g>
   <g id="line2d_102">
    <defs>
     <path id="m870e810068" d="M 0 3 
C 0.795609 3 1.55874 2.683901 2.12132 2.12132 
C 2.683901 1.55874 3 0.795609 3 0 
C 3 -0.795609 2.683901 -1.55874 2.12132 -2.12132 
C 1.55874 -2.683901 0.795609 -3 0 -3 
C -0.795609 -3 -1.55874 -2.683901 -2.12132 -2.12132 
C -2.683901 -1.55874 -3 -0.795609 -3 0 
C -3 0.795609 -2.683901 1.55874 -2.12132 2.12132 
C -1.55874 2.683901 -0.795609 3 0 3 
z
" style="stroke: #d65f5f"/>
    </defs>
    <g clip-path="url(#p7c03aade7e)">
     <use xlink:href="#m870e810068" x="218.4192" y="259.90238" style="fill-opacity: 0; stroke: #d65f5f"/>
    </g>
   </g>
   <g id="line2d_103">
    <path d="M 303.32448 283.772271 
L 312.07392 283.772271 
L 312.07392 254.68304 
L 303.32448 254.68304 
L 303.32448 283.772271 
" clip-path="url(#p7c03aade7e)" style="fill: none; stroke: #d65f5f; stroke-width: 1.5; stroke-linecap: round"/>
   </g>
   <g id="line2d_104">
    <path d="M 307.6992 283.772271 
L 307.6992 284.552351 
" clip-path="url(#p7c03aade7e)" style="fill: none; stroke: #d65f5f; stroke-width: 1.5"/>
   </g>
   <g id="line2d_105">
    <path d="M 307.6992 254.68304 
L 307.6992 253.232765 
" clip-path="url(#p7c03aade7e)" style="fill: none; stroke: #d65f5f; stroke-width: 1.5"/>
   </g>
   <g id="line2d_106">
    <path d="M 305.51184 284.552351 
L 309.88656 284.552351 
" clip-path="url(#p7c03aade7e)" style="fill: none; stroke: #d65f5f; stroke-width: 1.5; stroke-linecap: round"/>
   </g>
   <g id="line2d_107">
    <path d="M 305.51184 253.232765 
L 309.88656 253.232765 
" clip-path="url(#p7c03aade7e)" style="fill: none; stroke: #d65f5f; stroke-width: 1.5; stroke-linecap: round"/>
   </g>
   <g id="line2d_108"/>
   <g id="line2d_109">
    <path d="M 392.60448 291.5118 
L 401.35392 291.5118 
L 401.35392 277.234248 
L 392.60448 277.234248 
L 392.60448 291.5118 
" clip-path="url(#p7c03aade7e)" style="fill: none; stroke: #d65f5f; stroke-width: 1.5; stroke-linecap: round"/>
   </g>
   <g id="line2d_110">
    <path d="M 396.9792 291.5118 
L 396.9792 301.19614 
" clip-path="url(#p7c03aade7e)" style="fill: none; stroke: #d65f5f; stroke-width: 1.5"/>
   </g>
   <g id="line2d_111">
    <path d="M 396.9792 277.234248 
L 396.9792 277.234248 
" clip-path="url(#p7c03aade7e)" style="fill: none; stroke: #d65f5f; stroke-width: 1.5"/>
   </g>
   <g id="line2d_112">
    <path d="M 394.79184 301.19614 
L 399.16656 301.19614 
" clip-path="url(#p7c03aade7e)" style="fill: none; stroke: #d65f5f; stroke-width: 1.5; stroke-linecap: round"/>
   </g>
   <g id="line2d_113">
    <path d="M 394.79184 277.234248 
L 399.16656 277.234248 
" clip-path="url(#p7c03aade7e)" style="fill: none; stroke: #d65f5f; stroke-width: 1.5; stroke-linecap: round"/>
   </g>
   <g id="line2d_114">
    <g clip-path="url(#p7c03aade7e)">
     <use xlink:href="#m870e810068" x="396.9792" y="55.8" style="fill-opacity: 0; stroke: #d65f5f"/>
    </g>
   </g>
   <g id="line2d_115">
    <path d="M 481.88448 276.128246 
L 490.63392 276.128246 
L 490.63392 234.867589 
L 481.88448 234.867589 
L 481.88448 276.128246 
" clip-path="url(#p7c03aade7e)" style="fill: none; stroke: #d65f5f; stroke-width: 1.5; stroke-linecap: round"/>
   </g>
   <g id="line2d_116">
    <path d="M 486.2592 276.128246 
L 486.2592 301.389075 
" clip-path="url(#p7c03aade7e)" style="fill: none; stroke: #d65f5f; stroke-width: 1.5"/>
   </g>
   <g id="line2d_117">
    <path d="M 486.2592 234.867589 
L 486.2592 214.453317 
" clip-path="url(#p7c03aade7e)" style="fill: none; stroke: #d65f5f; stroke-width: 1.5"/>
   </g>
   <g id="line2d_118">
    <path d="M 484.07184 301.389075 
L 488.44656 301.389075 
" clip-path="url(#p7c03aade7e)" style="fill: none; stroke: #d65f5f; stroke-width: 1.5; stroke-linecap: round"/>
   </g>
   <g id="line2d_119">
    <path d="M 484.07184 214.453317 
L 488.44656 214.453317 
" clip-path="url(#p7c03aade7e)" style="fill: none; stroke: #d65f5f; stroke-width: 1.5; stroke-linecap: round"/>
   </g>
   <g id="line2d_120"/>
   <g id="line2d_121">
    <path d="M 137.26368 297.615328 
L 146.01312 297.615328 
L 146.01312 297.214314 
L 137.26368 297.214314 
L 137.26368 297.615328 
" clip-path="url(#p7c03aade7e)" style="fill: none; stroke: #956cb4; stroke-width: 1.5; stroke-linecap: round"/>
   </g>
   <g id="line2d_122">
    <path d="M 141.6384 297.615328 
L 141.6384 297.615328 
" clip-path="url(#p7c03aade7e)" style="fill: none; stroke: #956cb4; stroke-width: 1.5"/>
   </g>
   <g id="line2d_123">
    <path d="M 141.6384 297.214314 
L 141.6384 297.214314 
" clip-path="url(#p7c03aade7e)" style="fill: none; stroke: #956cb4; stroke-width: 1.5"/>
   </g>
   <g id="line2d_124">
    <path d="M 139.45104 297.615328 
L 143.82576 297.615328 
" clip-path="url(#p7c03aade7e)" style="fill: none; stroke: #956cb4; stroke-width: 1.5; stroke-linecap: round"/>
   </g>
   <g id="line2d_125">
    <path d="M 139.45104 297.214314 
L 143.82576 297.214314 
" clip-path="url(#p7c03aade7e)" style="fill: none; stroke: #956cb4; stroke-width: 1.5; stroke-linecap: round"/>
   </g>
   <g id="line2d_126">
    <defs>
     <path id="m6ede218af3" d="M 0 3 
C 0.795609 3 1.55874 2.683901 2.12132 2.12132 
C 2.683901 1.55874 3 0.795609 3 0 
C 3 -0.795609 2.683901 -1.55874 2.12132 -2.12132 
C 1.55874 -2.683901 0.795609 -3 0 -3 
C -0.795609 -3 -1.55874 -2.683901 -2.12132 -2.12132 
C -2.683901 -1.55874 -3 -0.795609 -3 0 
C -3 0.795609 -2.683901 1.55874 -2.12132 2.12132 
C -1.55874 2.683901 -0.795609 3 0 3 
z
" style="stroke: #956cb4"/>
    </defs>
    <g clip-path="url(#p7c03aade7e)">
     <use xlink:href="#m6ede218af3" x="141.6384" y="300.235016" style="fill-opacity: 0; stroke: #956cb4"/>
     <use xlink:href="#m6ede218af3" x="141.6384" y="292.896634" style="fill-opacity: 0; stroke: #956cb4"/>
    </g>
   </g>
   <g id="line2d_127">
    <path d="M 226.54368 261.736623 
L 235.29312 261.736623 
L 235.29312 261.268677 
L 226.54368 261.268677 
L 226.54368 261.736623 
" clip-path="url(#p7c03aade7e)" style="fill: none; stroke: #956cb4; stroke-width: 1.5; stroke-linecap: round"/>
   </g>
   <g id="line2d_128">
    <path d="M 230.9184 261.736623 
L 230.9184 261.736623 
" clip-path="url(#p7c03aade7e)" style="fill: none; stroke: #956cb4; stroke-width: 1.5"/>
   </g>
   <g id="line2d_129">
    <path d="M 230.9184 261.268677 
L 230.9184 261.268677 
" clip-path="url(#p7c03aade7e)" style="fill: none; stroke: #956cb4; stroke-width: 1.5"/>
   </g>
   <g id="line2d_130">
    <path d="M 228.73104 261.736623 
L 233.10576 261.736623 
" clip-path="url(#p7c03aade7e)" style="fill: none; stroke: #956cb4; stroke-width: 1.5; stroke-linecap: round"/>
   </g>
   <g id="line2d_131">
    <path d="M 228.73104 261.268677 
L 233.10576 261.268677 
" clip-path="url(#p7c03aade7e)" style="fill: none; stroke: #956cb4; stroke-width: 1.5; stroke-linecap: round"/>
   </g>
   <g id="line2d_132">
    <g clip-path="url(#p7c03aade7e)">
     <use xlink:href="#m6ede218af3" x="230.9184" y="262.822176" style="fill-opacity: 0; stroke: #956cb4"/>
     <use xlink:href="#m6ede218af3" x="230.9184" y="259.180004" style="fill-opacity: 0; stroke: #956cb4"/>
    </g>
   </g>
   <g id="line2d_133">
    <path d="M 315.82368 214.447618 
L 324.57312 214.447618 
L 324.57312 206.957452 
L 315.82368 206.957452 
L 315.82368 214.447618 
" clip-path="url(#p7c03aade7e)" style="fill: none; stroke: #956cb4; stroke-width: 1.5; stroke-linecap: round"/>
   </g>
   <g id="line2d_134">
    <path d="M 320.1984 214.447618 
L 320.1984 219.152332 
" clip-path="url(#p7c03aade7e)" style="fill: none; stroke: #956cb4; stroke-width: 1.5"/>
   </g>
   <g id="line2d_135">
    <path d="M 320.1984 206.957452 
L 320.1984 201.549549 
" clip-path="url(#p7c03aade7e)" style="fill: none; stroke: #956cb4; stroke-width: 1.5"/>
   </g>
   <g id="line2d_136">
    <path d="M 318.01104 219.152332 
L 322.38576 219.152332 
" clip-path="url(#p7c03aade7e)" style="fill: none; stroke: #956cb4; stroke-width: 1.5; stroke-linecap: round"/>
   </g>
   <g id="line2d_137">
    <path d="M 318.01104 201.549549 
L 322.38576 201.549549 
" clip-path="url(#p7c03aade7e)" style="fill: none; stroke: #956cb4; stroke-width: 1.5; stroke-linecap: round"/>
   </g>
   <g id="line2d_138"/>
   <g id="line2d_139">
    <path d="M 405.10368 55.8 
L 413.85312 55.8 
L 413.85312 55.8 
L 405.10368 55.8 
L 405.10368 55.8 
" clip-path="url(#p7c03aade7e)" style="fill: none; stroke: #956cb4; stroke-width: 1.5; stroke-linecap: round"/>
   </g>
   <g id="line2d_140">
    <path d="M 409.4784 55.8 
L 409.4784 55.8 
" clip-path="url(#p7c03aade7e)" style="fill: none; stroke: #956cb4; stroke-width: 1.5"/>
   </g>
   <g id="line2d_141">
    <path d="M 409.4784 55.8 
L 409.4784 55.8 
" clip-path="url(#p7c03aade7e)" style="fill: none; stroke: #956cb4; stroke-width: 1.5"/>
   </g>
   <g id="line2d_142">
    <path d="M 407.29104 55.8 
L 411.66576 55.8 
" clip-path="url(#p7c03aade7e)" style="fill: none; stroke: #956cb4; stroke-width: 1.5; stroke-linecap: round"/>
   </g>
   <g id="line2d_143">
    <path d="M 407.29104 55.8 
L 411.66576 55.8 
" clip-path="url(#p7c03aade7e)" style="fill: none; stroke: #956cb4; stroke-width: 1.5; stroke-linecap: round"/>
   </g>
   <g id="line2d_144">
    <g clip-path="url(#p7c03aade7e)">
     <use xlink:href="#m6ede218af3" x="409.4784" y="90.352654" style="fill-opacity: 0; stroke: #956cb4"/>
    </g>
   </g>
   <g id="line2d_145">
    <path d="M 494.38368 255.322716 
L 503.13312 255.322716 
L 503.13312 55.8 
L 494.38368 55.8 
L 494.38368 255.322716 
" clip-path="url(#p7c03aade7e)" style="fill: none; stroke: #956cb4; stroke-width: 1.5; stroke-linecap: round"/>
   </g>
   <g id="line2d_146">
    <path d="M 498.7584 255.322716 
L 498.7584 256.440942 
" clip-path="url(#p7c03aade7e)" style="fill: none; stroke: #956cb4; stroke-width: 1.5"/>
   </g>
   <g id="line2d_147">
    <path d="M 498.7584 55.8 
L 498.7584 55.8 
" clip-path="url(#p7c03aade7e)" style="fill: none; stroke: #956cb4; stroke-width: 1.5"/>
   </g>
   <g id="line2d_148">
    <path d="M 496.57104 256.440942 
L 500.94576 256.440942 
" clip-path="url(#p7c03aade7e)" style="fill: none; stroke: #956cb4; stroke-width: 1.5; stroke-linecap: round"/>
   </g>
   <g id="line2d_149">
    <path d="M 496.57104 55.8 
L 500.94576 55.8 
" clip-path="url(#p7c03aade7e)" style="fill: none; stroke: #956cb4; stroke-width: 1.5; stroke-linecap: round"/>
   </g>
   <g id="line2d_150"/>
   <g id="line2d_151">
    <path d="M 87.26688 305.058109 
L 96.01632 305.058109 
" clip-path="url(#p7c03aade7e)" style="fill: none; stroke: #4878d0; stroke-width: 1.5"/>
   </g>
   <g id="line2d_152">
    <path d="M 176.54688 268.39692 
L 185.29632 268.39692 
" clip-path="url(#p7c03aade7e)" style="fill: none; stroke: #4878d0; stroke-width: 1.5"/>
   </g>
   <g id="line2d_153">
    <path d="M 265.82688 263.573932 
L 274.57632 263.573932 
" clip-path="url(#p7c03aade7e)" style="fill: none; stroke: #4878d0; stroke-width: 1.5"/>
   </g>
   <g id="line2d_154">
    <path d="M 355.10688 161.554058 
L 363.85632 161.554058 
" clip-path="url(#p7c03aade7e)" style="fill: none; stroke: #4878d0; stroke-width: 1.5"/>
   </g>
   <g id="line2d_155">
    <path d="M 444.38688 284.547802 
L 453.13632 284.547802 
" clip-path="url(#p7c03aade7e)" style="fill: none; stroke: #4878d0; stroke-width: 1.5"/>
   </g>
   <g id="line2d_156">
    <path d="M 99.76608 294.441885 
L 108.51552 294.441885 
" clip-path="url(#p7c03aade7e)" style="fill: none; stroke: #ee854a; stroke-width: 1.5"/>
   </g>
   <g id="line2d_157">
    <path d="M 189.04608 263.022992 
L 197.79552 263.022992 
" clip-path="url(#p7c03aade7e)" style="fill: none; stroke: #ee854a; stroke-width: 1.5"/>
   </g>
   <g id="line2d_158">
    <path d="M 278.32608 224.066787 
L 287.07552 224.066787 
" clip-path="url(#p7c03aade7e)" style="fill: none; stroke: #ee854a; stroke-width: 1.5"/>
   </g>
   <g id="line2d_159">
    <path d="M 367.60608 58.738497 
L 376.35552 58.738497 
" clip-path="url(#p7c03aade7e)" style="fill: none; stroke: #ee854a; stroke-width: 1.5"/>
   </g>
   <g id="line2d_160">
    <path d="M 456.88608 55.8 
L 465.63552 55.8 
" clip-path="url(#p7c03aade7e)" style="fill: none; stroke: #ee854a; stroke-width: 1.5"/>
   </g>
   <g id="line2d_161">
    <path d="M 112.26528 292.7314 
L 121.01472 292.7314 
" clip-path="url(#p7c03aade7e)" style="fill: none; stroke: #6acc64; stroke-width: 1.5"/>
   </g>
   <g id="line2d_162">
    <path d="M 201.54528 264.190799 
L 210.29472 264.190799 
" clip-path="url(#p7c03aade7e)" style="fill: none; stroke: #6acc64; stroke-width: 1.5"/>
   </g>
   <g id="line2d_163">
    <path d="M 290.82528 258.096845 
L 299.57472 258.096845 
" clip-path="url(#p7c03aade7e)" style="fill: none; stroke: #6acc64; stroke-width: 1.5"/>
   </g>
   <g id="line2d_164">
    <path d="M 380.10528 258.538099 
L 388.85472 258.538099 
" clip-path="url(#p7c03aade7e)" style="fill: none; stroke: #6acc64; stroke-width: 1.5"/>
   </g>
   <g id="line2d_165">
    <path d="M 469.38528 130.930262 
L 478.13472 130.930262 
" clip-path="url(#p7c03aade7e)" style="fill: none; stroke: #6acc64; stroke-width: 1.5"/>
   </g>
   <g id="line2d_166">
    <path d="M 124.76448 296.59475 
L 133.51392 296.59475 
" clip-path="url(#p7c03aade7e)" style="fill: none; stroke: #d65f5f; stroke-width: 1.5"/>
   </g>
   <g id="line2d_167">
    <path d="M 214.04448 287.761441 
L 222.79392 287.761441 
" clip-path="url(#p7c03aade7e)" style="fill: none; stroke: #d65f5f; stroke-width: 1.5"/>
   </g>
   <g id="line2d_168">
    <path d="M 303.32448 270.760899 
L 312.07392 270.760899 
" clip-path="url(#p7c03aade7e)" style="fill: none; stroke: #d65f5f; stroke-width: 1.5"/>
   </g>
   <g id="line2d_169">
    <path d="M 392.60448 290.695028 
L 401.35392 290.695028 
" clip-path="url(#p7c03aade7e)" style="fill: none; stroke: #d65f5f; stroke-width: 1.5"/>
   </g>
   <g id="line2d_170">
    <path d="M 481.88448 240.140792 
L 490.63392 240.140792 
" clip-path="url(#p7c03aade7e)" style="fill: none; stroke: #d65f5f; stroke-width: 1.5"/>
   </g>
   <g id="line2d_171">
    <path d="M 137.26368 297.27077 
L 146.01312 297.27077 
" clip-path="url(#p7c03aade7e)" style="fill: none; stroke: #956cb4; stroke-width: 1.5"/>
   </g>
   <g id="line2d_172">
    <path d="M 226.54368 261.315003 
L 235.29312 261.315003 
" clip-path="url(#p7c03aade7e)" style="fill: none; stroke: #956cb4; stroke-width: 1.5"/>
   </g>
   <g id="line2d_173">
    <path d="M 315.82368 210.115206 
L 324.57312 210.115206 
" clip-path="url(#p7c03aade7e)" style="fill: none; stroke: #956cb4; stroke-width: 1.5"/>
   </g>
   <g id="line2d_174">
    <path d="M 405.10368 55.8 
L 413.85312 55.8 
" clip-path="url(#p7c03aade7e)" style="fill: none; stroke: #956cb4; stroke-width: 1.5"/>
   </g>
   <g id="line2d_175">
    <path d="M 494.38368 254.074655 
L 503.13312 254.074655 
" clip-path="url(#p7c03aade7e)" style="fill: none; stroke: #956cb4; stroke-width: 1.5"/>
   </g>
   <g id="patch_3">
    <path d="M 72 320.4 
L 72 43.2 
" style="fill: none; stroke: #cccccc; stroke-width: 1.25; stroke-linejoin: miter; stroke-linecap: square"/>
   </g>
   <g id="patch_4">
    <path d="M 518.4 320.4 
L 518.4 43.2 
" style="fill: none; stroke: #cccccc; stroke-width: 1.25; stroke-linejoin: miter; stroke-linecap: square"/>
   </g>
   <g id="patch_5">
    <path d="M 72 320.4 
L 518.4 320.4 
" style="fill: none; stroke: #cccccc; stroke-width: 1.25; stroke-linejoin: miter; stroke-linecap: square"/>
   </g>
   <g id="patch_6">
    <path d="M 72 43.2 
L 518.4 43.2 
" style="fill: none; stroke: #cccccc; stroke-width: 1.25; stroke-linejoin: miter; stroke-linecap: square"/>
   </g>
  </g>
 </g>
 <defs>
  <clipPath id="p7c03aade7e">
   <rect x="72" y="43.2" width="446.4" height="277.2"/>
  </clipPath>
 </defs>
</svg>
