<?xml version="1.0" encoding="utf-8" standalone="no"?>
<!DOCTYPE svg PUBLIC "-//W3C//DTD SVG 1.1//EN"
  "http://www.w3.org/Graphics/SVG/1.1/DTD/svg11.dtd">
<svg xmlns:xlink="http://www.w3.org/1999/xlink" width="501.794375pt" height="182.860195pt" viewBox="0 0 501.794375 182.860195" xmlns="http://www.w3.org/2000/svg" version="1.1">
 <metadata>
  <rdf:RDF xmlns:dc="http://purl.org/dc/elements/1.1/" xmlns:cc="http://creativecommons.org/ns#" xmlns:rdf="http://www.w3.org/1999/02/22-rdf-syntax-ns#">
   <cc:Work>
    <dc:type rdf:resource="http://purl.org/dc/dcmitype/StillImage"/>
    <dc:date>2024-11-11T17:02:07.336903</dc:date>
    <dc:format>image/svg+xml</dc:format>
    <dc:creator>
     <cc:Agent>
      <dc:title>Matplotlib v3.9.2, https://matplotlib.org/</dc:title>
     </cc:Agent>
    </dc:creator>
   </cc:Work>
  </rdf:RDF>
 </metadata>
 <defs>
  <style type="text/css">*{stroke-linejoin: round; stroke-linecap: butt}</style>
 </defs>
 <g id="figure_1">
  <g id="patch_1">
   <path d="M 0 182.860195 
L 501.794375 182.860195 
L 501.794375 -0 
L 0 -0 
L 0 182.860195 
z
" style="fill: none"/>
  </g>
  <g id="axes_1">
   <g id="patch_2">
    <path d="M 48.194375 173.52 
L 494.594375 173.52 
L 494.594375 7.2 
L 48.194375 7.2 
L 48.194375 173.52 
z
" style="fill: none"/>
   </g>
   <g id="matplotlib.axis_1"/>
   <g id="matplotlib.axis_2">
    <g id="ytick_1">
     <g id="text_1">
      <!-- 0 -->
      <g style="fill: #262626" transform="translate(28.19625 172.228711) scale(0.165 -0.165)">
       <defs>
        <path id="DejaVuSans-30" d="M 2034 4250 
Q 1547 4250 1301 3770 
Q 1056 3291 1056 2328 
Q 1056 1369 1301 889 
Q 1547 409 2034 409 
Q 2525 409 2770 889 
Q 3016 1369 3016 2328 
Q 3016 3291 2770 3770 
Q 2525 4250 2034 4250 
z
M 2034 4750 
Q 2819 4750 3233 4129 
Q 3647 3509 3647 2328 
Q 3647 1150 3233 529 
Q 2819 -91 2034 -91 
Q 1250 -91 836 529 
Q 422 1150 422 2328 
Q 422 3509 836 4129 
Q 1250 4750 2034 4750 
z
" transform="scale(0.015625)"/>
       </defs>
       <use xlink:href="#DejaVuSans-30"/>
      </g>
     </g>
    </g>
    <g id="ytick_2">
     <g id="text_2">
      <!-- 25 -->
      <g style="fill: #262626" transform="translate(17.698125 134.428711) scale(0.165 -0.165)">
       <defs>
        <path id="DejaVuSans-32" d="M 1228 531 
L 3431 531 
L 3431 0 
L 469 0 
L 469 531 
Q 828 903 1448 1529 
Q 2069 2156 2228 2338 
Q 2531 2678 2651 2914 
Q 2772 3150 2772 3378 
Q 2772 3750 2511 3984 
Q 2250 4219 1831 4219 
Q 1534 4219 1204 4116 
Q 875 4013 500 3803 
L 500 4441 
Q 881 4594 1212 4672 
Q 1544 4750 1819 4750 
Q 2544 4750 2975 4387 
Q 3406 4025 3406 3419 
Q 3406 3131 3298 2873 
Q 3191 2616 2906 2266 
Q 2828 2175 2409 1742 
Q 1991 1309 1228 531 
z
" transform="scale(0.015625)"/>
        <path id="DejaVuSans-35" d="M 691 4666 
L 3169 4666 
L 3169 4134 
L 1269 4134 
L 1269 2991 
Q 1406 3038 1543 3061 
Q 1681 3084 1819 3084 
Q 2600 3084 3056 2656 
Q 3513 2228 3513 1497 
Q 3513 744 3044 326 
Q 2575 -91 1722 -91 
Q 1428 -91 1123 -41 
Q 819 9 494 109 
L 494 744 
Q 775 591 1075 516 
Q 1375 441 1709 441 
Q 2250 441 2565 725 
Q 2881 1009 2881 1497 
Q 2881 1984 2565 2268 
Q 2250 2553 1709 2553 
Q 1456 2553 1204 2497 
Q 953 2441 691 2322 
L 691 4666 
z
" transform="scale(0.015625)"/>
       </defs>
       <use xlink:href="#DejaVuSans-32"/>
       <use xlink:href="#DejaVuSans-35" x="63.623047"/>
      </g>
     </g>
    </g>
    <g id="ytick_3">
     <g id="text_3">
      <!-- 50 -->
      <g style="fill: #262626" transform="translate(17.698125 96.628711) scale(0.165 -0.165)">
       <use xlink:href="#DejaVuSans-35"/>
       <use xlink:href="#DejaVuSans-30" x="63.623047"/>
      </g>
     </g>
    </g>
    <g id="ytick_4">
     <g id="text_4">
      <!-- 75 -->
      <g style="fill: #262626" transform="translate(17.698125 58.828711) scale(0.165 -0.165)">
       <defs>
        <path id="DejaVuSans-37" d="M 525 4666 
L 3525 4666 
L 3525 4397 
L 1831 0 
L 1172 0 
L 2766 4134 
L 525 4134 
L 525 4666 
z
" transform="scale(0.015625)"/>
       </defs>
       <use xlink:href="#DejaVuSans-37"/>
       <use xlink:href="#DejaVuSans-35" x="63.623047"/>
      </g>
     </g>
    </g>
    <g id="ytick_5">
     <g id="text_5">
      <!-- 100 -->
      <g style="fill: #262626" transform="translate(7.2 21.028711) scale(0.165 -0.165)">
       <defs>
        <path id="DejaVuSans-31" d="M 794 531 
L 1825 531 
L 1825 4091 
L 703 3866 
L 703 4441 
L 1819 4666 
L 2450 4666 
L 2450 531 
L 3481 531 
L 3481 0 
L 794 0 
L 794 531 
z
" transform="scale(0.015625)"/>
       </defs>
       <use xlink:href="#DejaVuSans-31"/>
       <use xlink:href="#DejaVuSans-30" x="63.623047"/>
       <use xlink:href="#DejaVuSans-30" x="127.246094"/>
      </g>
     </g>
    </g>
   </g>
   <g id="patch_3">
    <path d="M 57.122375 14.76 
L 128.546375 14.76 
L 128.546375 14.76 
L 57.122375 14.76 
L 57.122375 14.76 
z
" clip-path="url(#pbe8ddcd26d)" style="fill: #597dbf; stroke: #545454; stroke-linejoin: miter"/>
   </g>
   <g id="line2d_1">
    <path d="M 92.834375 14.76 
L 92.834375 14.76 
" clip-path="url(#pbe8ddcd26d)" style="fill: none; stroke: #545454"/>
   </g>
   <g id="line2d_2">
    <path d="M 92.834375 14.76 
L 92.834375 14.76 
" clip-path="url(#pbe8ddcd26d)" style="fill: none; stroke: #545454"/>
   </g>
   <g id="line2d_3">
    <path d="M 74.978375 14.76 
L 110.690375 14.76 
" clip-path="url(#pbe8ddcd26d)" style="fill: none; stroke: #545454; stroke-linecap: round"/>
   </g>
   <g id="line2d_4">
    <path d="M 74.978375 14.76 
L 110.690375 14.76 
" clip-path="url(#pbe8ddcd26d)" style="fill: none; stroke: #545454; stroke-linecap: round"/>
   </g>
   <g id="patch_4">
    <path d="M 146.402375 14.76 
L 217.826375 14.76 
L 217.826375 14.76 
L 146.402375 14.76 
L 146.402375 14.76 
z
" clip-path="url(#pbe8ddcd26d)" style="fill: #d98b5f; stroke: #545454; stroke-linejoin: miter"/>
   </g>
   <g id="line2d_5">
    <path d="M 182.114375 14.76 
L 182.114375 14.76 
" clip-path="url(#pbe8ddcd26d)" style="fill: none; stroke: #545454"/>
   </g>
   <g id="line2d_6">
    <path d="M 182.114375 14.76 
L 182.114375 14.76 
" clip-path="url(#pbe8ddcd26d)" style="fill: none; stroke: #545454"/>
   </g>
   <g id="line2d_7">
    <path d="M 164.258375 14.76 
L 199.970375 14.76 
" clip-path="url(#pbe8ddcd26d)" style="fill: none; stroke: #545454; stroke-linecap: round"/>
   </g>
   <g id="line2d_8">
    <path d="M 164.258375 14.76 
L 199.970375 14.76 
" clip-path="url(#pbe8ddcd26d)" style="fill: none; stroke: #545454; stroke-linecap: round"/>
   </g>
   <g id="patch_5">
    <path d="M 235.682375 151.785 
L 307.106375 151.785 
L 307.106375 116.3475 
L 235.682375 116.3475 
L 235.682375 151.785 
z
" clip-path="url(#pbe8ddcd26d)" style="fill: #75bf71; stroke: #545454; stroke-linejoin: miter"/>
   </g>
   <g id="line2d_9">
    <path d="M 271.394375 151.785 
L 271.394375 165.96 
" clip-path="url(#pbe8ddcd26d)" style="fill: none; stroke: #545454"/>
   </g>
   <g id="line2d_10">
    <path d="M 271.394375 116.3475 
L 271.394375 93.51 
" clip-path="url(#pbe8ddcd26d)" style="fill: none; stroke: #545454"/>
   </g>
   <g id="line2d_11">
    <path d="M 253.538375 165.96 
L 289.250375 165.96 
" clip-path="url(#pbe8ddcd26d)" style="fill: none; stroke: #545454; stroke-linecap: round"/>
   </g>
   <g id="line2d_12">
    <path d="M 253.538375 93.51 
L 289.250375 93.51 
" clip-path="url(#pbe8ddcd26d)" style="fill: none; stroke: #545454; stroke-linecap: round"/>
   </g>
   <g id="patch_6">
    <path d="M 324.962375 154.935 
L 396.386375 154.935 
L 396.386375 136.035 
L 324.962375 136.035 
L 324.962375 154.935 
z
" clip-path="url(#pbe8ddcd26d)" style="fill: #c76e6e; stroke: #545454; stroke-linejoin: miter"/>
   </g>
   <g id="line2d_13">
    <path d="M 360.674375 154.935 
L 360.674375 165.96 
" clip-path="url(#pbe8ddcd26d)" style="fill: none; stroke: #545454"/>
   </g>
   <g id="line2d_14">
    <path d="M 360.674375 136.035 
L 360.674375 125.01 
" clip-path="url(#pbe8ddcd26d)" style="fill: none; stroke: #545454"/>
   </g>
   <g id="line2d_15">
    <path d="M 342.818375 165.96 
L 378.530375 165.96 
" clip-path="url(#pbe8ddcd26d)" style="fill: none; stroke: #545454; stroke-linecap: round"/>
   </g>
   <g id="line2d_16">
    <path d="M 342.818375 125.01 
L 378.530375 125.01 
" clip-path="url(#pbe8ddcd26d)" style="fill: none; stroke: #545454; stroke-linecap: round"/>
   </g>
   <g id="patch_7">
    <path d="M 414.242375 161.235 
L 485.666375 161.235 
L 485.666375 147.8475 
L 414.242375 147.8475 
L 414.242375 161.235 
z
" clip-path="url(#pbe8ddcd26d)" style="fill: #9475ab; stroke: #545454; stroke-linejoin: miter"/>
   </g>
   <g id="line2d_17">
    <path d="M 449.954375 161.235 
L 449.954375 165.96 
" clip-path="url(#pbe8ddcd26d)" style="fill: none; stroke: #545454"/>
   </g>
   <g id="line2d_18">
    <path d="M 449.954375 147.8475 
L 449.954375 128.16 
" clip-path="url(#pbe8ddcd26d)" style="fill: none; stroke: #545454"/>
   </g>
   <g id="line2d_19">
    <path d="M 432.098375 165.96 
L 467.810375 165.96 
" clip-path="url(#pbe8ddcd26d)" style="fill: none; stroke: #545454; stroke-linecap: round"/>
   </g>
   <g id="line2d_20">
    <path d="M 432.098375 128.16 
L 467.810375 128.16 
" clip-path="url(#pbe8ddcd26d)" style="fill: none; stroke: #545454; stroke-linecap: round"/>
   </g>
   <g id="line2d_21">
    <path d="M 57.122375 14.76 
L 128.546375 14.76 
" clip-path="url(#pbe8ddcd26d)" style="fill: none; stroke: #545454"/>
   </g>
   <g id="line2d_22">
    <path d="M 146.402375 14.76 
L 217.826375 14.76 
" clip-path="url(#pbe8ddcd26d)" style="fill: none; stroke: #545454"/>
   </g>
   <g id="line2d_23">
    <path d="M 235.682375 145.485 
L 307.106375 145.485 
" clip-path="url(#pbe8ddcd26d)" style="fill: none; stroke: #545454"/>
   </g>
   <g id="line2d_24">
    <path d="M 324.962375 143.91 
L 396.386375 143.91 
" clip-path="url(#pbe8ddcd26d)" style="fill: none; stroke: #545454"/>
   </g>
   <g id="line2d_25">
    <path d="M 414.242375 150.21 
L 485.666375 150.21 
" clip-path="url(#pbe8ddcd26d)" style="fill: none; stroke: #545454"/>
   </g>
   <g id="patch_8">
    <path d="M 48.194375 173.52 
L 48.194375 7.2 
" style="fill: none; stroke: #cccccc; stroke-width: 1.25; stroke-linejoin: miter; stroke-linecap: square"/>
   </g>
   <g id="patch_9">
    <path d="M 494.594375 173.52 
L 494.594375 7.2 
" style="fill: none; stroke: #cccccc; stroke-width: 1.25; stroke-linejoin: miter; stroke-linecap: square"/>
   </g>
   <g id="patch_10">
    <path d="M 48.194375 173.52 
L 494.594375 173.52 
" style="fill: none; stroke: #cccccc; stroke-width: 1.25; stroke-linejoin: miter; stroke-linecap: square"/>
   </g>
   <g id="patch_11">
    <path d="M 48.194375 7.2 
L 494.594375 7.2 
" style="fill: none; stroke: #cccccc; stroke-width: 1.25; stroke-linejoin: miter; stroke-linecap: square"/>
   </g>
  </g>
 </g>
 <defs>
  <clipPath id="pbe8ddcd26d">
   <rect x="48.194375" y="7.2" width="446.4" height="166.32"/>
  </clipPath>
 </defs>
</svg>
