<?xml version="1.0" encoding="utf-8" standalone="no"?>
<!DOCTYPE svg PUBLIC "-//W3C//DTD SVG 1.1//EN"
  "http://www.w3.org/Graphics/SVG/1.1/DTD/svg11.dtd">
<svg xmlns:xlink="http://www.w3.org/1999/xlink" width="445.994375pt" height="236.16pt" viewBox="0 0 445.994375 236.16" xmlns="http://www.w3.org/2000/svg" version="1.1">
 <metadata>
  <rdf:RDF xmlns:dc="http://purl.org/dc/elements/1.1/" xmlns:cc="http://creativecommons.org/ns#" xmlns:rdf="http://www.w3.org/1999/02/22-rdf-syntax-ns#">
   <cc:Work>
    <dc:type rdf:resource="http://purl.org/dc/dcmitype/StillImage"/>
    <dc:date>2024-11-11T17:04:11.782236</dc:date>
    <dc:format>image/svg+xml</dc:format>
    <dc:creator>
     <cc:Agent>
      <dc:title>Matplotlib v3.9.2, https://matplotlib.org/</dc:title>
     </cc:Agent>
    </dc:creator>
   </cc:Work>
  </rdf:RDF>
 </metadata>
 <defs>
  <style type="text/css">*{stroke-linejoin: round; stroke-linecap: butt}</style>
 </defs>
 <g id="figure_1">
  <g id="patch_1">
   <path d="M 0 236.16 
L 445.994375 236.16 
L 445.994375 0 
L 0 0 
L 0 236.16 
z
" style="fill: none"/>
  </g>
  <g id="axes_1">
   <g id="patch_2">
    <path d="M 48.194375 228.96 
L 438.794375 228.96 
L 438.794375 7.2 
L 48.194375 7.2 
L 48.194375 228.96 
z
" style="fill: none"/>
   </g>
   <g id="matplotlib.axis_1"/>
   <g id="matplotlib.axis_2">
    <g id="ytick_1">
     <g id="text_1">
      <!-- 0 -->
      <g style="fill: #262626" transform="translate(28.19625 225.148711) scale(0.165 -0.165)">
       <defs>
        <path id="DejaVuSans-30" d="M 2034 4250 
Q 1547 4250 1301 3770 
Q 1056 3291 1056 2328 
Q 1056 1369 1301 889 
Q 1547 409 2034 409 
Q 2525 409 2770 889 
Q 3016 1369 3016 2328 
Q 3016 3291 2770 3770 
Q 2525 4250 2034 4250 
z
M 2034 4750 
Q 2819 4750 3233 4129 
Q 3647 3509 3647 2328 
Q 3647 1150 3233 529 
Q 2819 -91 2034 -91 
Q 1250 -91 836 529 
Q 422 1150 422 2328 
Q 422 3509 836 4129 
Q 1250 4750 2034 4750 
z
" transform="scale(0.015625)"/>
       </defs>
       <use xlink:href="#DejaVuSans-30"/>
      </g>
     </g>
    </g>
    <g id="ytick_2">
     <g id="text_2">
      <!-- 20 -->
      <g style="fill: #262626" transform="translate(17.698125 184.828711) scale(0.165 -0.165)">
       <defs>
        <path id="DejaVuSans-32" d="M 1228 531 
L 3431 531 
L 3431 0 
L 469 0 
L 469 531 
Q 828 903 1448 1529 
Q 2069 2156 2228 2338 
Q 2531 2678 2651 2914 
Q 2772 3150 2772 3378 
Q 2772 3750 2511 3984 
Q 2250 4219 1831 4219 
Q 1534 4219 1204 4116 
Q 875 4013 500 3803 
L 500 4441 
Q 881 4594 1212 4672 
Q 1544 4750 1819 4750 
Q 2544 4750 2975 4387 
Q 3406 4025 3406 3419 
Q 3406 3131 3298 2873 
Q 3191 2616 2906 2266 
Q 2828 2175 2409 1742 
Q 1991 1309 1228 531 
z
" transform="scale(0.015625)"/>
       </defs>
       <use xlink:href="#DejaVuSans-32"/>
       <use xlink:href="#DejaVuSans-30" x="63.623047"/>
      </g>
     </g>
    </g>
    <g id="ytick_3">
     <g id="text_3">
      <!-- 40 -->
      <g style="fill: #262626" transform="translate(17.698125 144.508711) scale(0.165 -0.165)">
       <defs>
        <path id="DejaVuSans-34" d="M 2419 4116 
L 825 1625 
L 2419 1625 
L 2419 4116 
z
M 2253 4666 
L 3047 4666 
L 3047 1625 
L 3713 1625 
L 3713 1100 
L 3047 1100 
L 3047 0 
L 2419 0 
L 2419 1100 
L 313 1100 
L 313 1709 
L 2253 4666 
z
" transform="scale(0.015625)"/>
       </defs>
       <use xlink:href="#DejaVuSans-34"/>
       <use xlink:href="#DejaVuSans-30" x="63.623047"/>
      </g>
     </g>
    </g>
    <g id="ytick_4">
     <g id="text_4">
      <!-- 60 -->
      <g style="fill: #262626" transform="translate(17.698125 104.188711) scale(0.165 -0.165)">
       <defs>
        <path id="DejaVuSans-36" d="M 2113 2584 
Q 1688 2584 1439 2293 
Q 1191 2003 1191 1497 
Q 1191 994 1439 701 
Q 1688 409 2113 409 
Q 2538 409 2786 701 
Q 3034 994 3034 1497 
Q 3034 2003 2786 2293 
Q 2538 2584 2113 2584 
z
M 3366 4563 
L 3366 3988 
Q 3128 4100 2886 4159 
Q 2644 4219 2406 4219 
Q 1781 4219 1451 3797 
Q 1122 3375 1075 2522 
Q 1259 2794 1537 2939 
Q 1816 3084 2150 3084 
Q 2853 3084 3261 2657 
Q 3669 2231 3669 1497 
Q 3669 778 3244 343 
Q 2819 -91 2113 -91 
Q 1303 -91 875 529 
Q 447 1150 447 2328 
Q 447 3434 972 4092 
Q 1497 4750 2381 4750 
Q 2619 4750 2861 4703 
Q 3103 4656 3366 4563 
z
" transform="scale(0.015625)"/>
       </defs>
       <use xlink:href="#DejaVuSans-36"/>
       <use xlink:href="#DejaVuSans-30" x="63.623047"/>
      </g>
     </g>
    </g>
    <g id="ytick_5">
     <g id="text_5">
      <!-- 80 -->
      <g style="fill: #262626" transform="translate(17.698125 63.868711) scale(0.165 -0.165)">
       <defs>
        <path id="DejaVuSans-38" d="M 2034 2216 
Q 1584 2216 1326 1975 
Q 1069 1734 1069 1313 
Q 1069 891 1326 650 
Q 1584 409 2034 409 
Q 2484 409 2743 651 
Q 3003 894 3003 1313 
Q 3003 1734 2745 1975 
Q 2488 2216 2034 2216 
z
M 1403 2484 
Q 997 2584 770 2862 
Q 544 3141 544 3541 
Q 544 4100 942 4425 
Q 1341 4750 2034 4750 
Q 2731 4750 3128 4425 
Q 3525 4100 3525 3541 
Q 3525 3141 3298 2862 
Q 3072 2584 2669 2484 
Q 3125 2378 3379 2068 
Q 3634 1759 3634 1313 
Q 3634 634 3220 271 
Q 2806 -91 2034 -91 
Q 1263 -91 848 271 
Q 434 634 434 1313 
Q 434 1759 690 2068 
Q 947 2378 1403 2484 
z
M 1172 3481 
Q 1172 3119 1398 2916 
Q 1625 2713 2034 2713 
Q 2441 2713 2670 2916 
Q 2900 3119 2900 3481 
Q 2900 3844 2670 4047 
Q 2441 4250 2034 4250 
Q 1625 4250 1398 4047 
Q 1172 3844 1172 3481 
z
" transform="scale(0.015625)"/>
       </defs>
       <use xlink:href="#DejaVuSans-38"/>
       <use xlink:href="#DejaVuSans-30" x="63.623047"/>
      </g>
     </g>
    </g>
    <g id="ytick_6">
     <g id="text_6">
      <!-- 100 -->
      <g style="fill: #262626" transform="translate(7.2 23.548711) scale(0.165 -0.165)">
       <defs>
        <path id="DejaVuSans-31" d="M 794 531 
L 1825 531 
L 1825 4091 
L 703 3866 
L 703 4441 
L 1819 4666 
L 2450 4666 
L 2450 531 
L 3481 531 
L 3481 0 
L 794 0 
L 794 531 
z
" transform="scale(0.015625)"/>
       </defs>
       <use xlink:href="#DejaVuSans-31"/>
       <use xlink:href="#DejaVuSans-30" x="63.623047"/>
       <use xlink:href="#DejaVuSans-30" x="127.246094"/>
      </g>
     </g>
    </g>
   </g>
   <g id="patch_3">
    <path d="M 56.006375 17.28 
L 118.502375 17.28 
L 118.502375 17.28 
L 56.006375 17.28 
L 56.006375 17.28 
z
" clip-path="url(#p31a9f6b6d5)" style="fill: #597dbf; stroke: #545454; stroke-linejoin: miter"/>
   </g>
   <g id="line2d_1">
    <path d="M 87.254375 17.28 
L 87.254375 17.28 
" clip-path="url(#p31a9f6b6d5)" style="fill: none; stroke: #545454"/>
   </g>
   <g id="line2d_2">
    <path d="M 87.254375 17.28 
L 87.254375 17.28 
" clip-path="url(#p31a9f6b6d5)" style="fill: none; stroke: #545454"/>
   </g>
   <g id="line2d_3">
    <path d="M 71.630375 17.28 
L 102.878375 17.28 
" clip-path="url(#p31a9f6b6d5)" style="fill: none; stroke: #545454; stroke-linecap: round"/>
   </g>
   <g id="line2d_4">
    <path d="M 71.630375 17.28 
L 102.878375 17.28 
" clip-path="url(#p31a9f6b6d5)" style="fill: none; stroke: #545454; stroke-linecap: round"/>
   </g>
   <g id="patch_4">
    <path d="M 134.126375 17.28 
L 196.622375 17.28 
L 196.622375 17.28 
L 134.126375 17.28 
L 134.126375 17.28 
z
" clip-path="url(#p31a9f6b6d5)" style="fill: #d98b5f; stroke: #545454; stroke-linejoin: miter"/>
   </g>
   <g id="line2d_5">
    <path d="M 165.374375 17.28 
L 165.374375 17.28 
" clip-path="url(#p31a9f6b6d5)" style="fill: none; stroke: #545454"/>
   </g>
   <g id="line2d_6">
    <path d="M 165.374375 17.28 
L 165.374375 17.28 
" clip-path="url(#p31a9f6b6d5)" style="fill: none; stroke: #545454"/>
   </g>
   <g id="line2d_7">
    <path d="M 149.750375 17.28 
L 180.998375 17.28 
" clip-path="url(#p31a9f6b6d5)" style="fill: none; stroke: #545454; stroke-linecap: round"/>
   </g>
   <g id="line2d_8">
    <path d="M 149.750375 17.28 
L 180.998375 17.28 
" clip-path="url(#p31a9f6b6d5)" style="fill: none; stroke: #545454; stroke-linecap: round"/>
   </g>
   <g id="patch_5">
    <path d="M 212.246375 199.98 
L 274.742375 199.98 
L 274.742375 152.73 
L 212.246375 152.73 
L 212.246375 199.98 
z
" clip-path="url(#p31a9f6b6d5)" style="fill: #75bf71; stroke: #545454; stroke-linejoin: miter"/>
   </g>
   <g id="line2d_9">
    <path d="M 243.494375 199.98 
L 243.494375 218.88 
" clip-path="url(#p31a9f6b6d5)" style="fill: none; stroke: #545454"/>
   </g>
   <g id="line2d_10">
    <path d="M 243.494375 152.73 
L 243.494375 122.28 
" clip-path="url(#p31a9f6b6d5)" style="fill: none; stroke: #545454"/>
   </g>
   <g id="line2d_11">
    <path d="M 227.870375 218.88 
L 259.118375 218.88 
" clip-path="url(#p31a9f6b6d5)" style="fill: none; stroke: #545454; stroke-linecap: round"/>
   </g>
   <g id="line2d_12">
    <path d="M 227.870375 122.28 
L 259.118375 122.28 
" clip-path="url(#p31a9f6b6d5)" style="fill: none; stroke: #545454; stroke-linecap: round"/>
   </g>
   <g id="patch_6">
    <path d="M 290.366375 204.18 
L 352.862375 204.18 
L 352.862375 178.98 
L 290.366375 178.98 
L 290.366375 204.18 
z
" clip-path="url(#p31a9f6b6d5)" style="fill: #c76e6e; stroke: #545454; stroke-linejoin: miter"/>
   </g>
   <g id="line2d_13">
    <path d="M 321.614375 204.18 
L 321.614375 218.88 
" clip-path="url(#p31a9f6b6d5)" style="fill: none; stroke: #545454"/>
   </g>
   <g id="line2d_14">
    <path d="M 321.614375 178.98 
L 321.614375 164.28 
" clip-path="url(#p31a9f6b6d5)" style="fill: none; stroke: #545454"/>
   </g>
   <g id="line2d_15">
    <path d="M 305.990375 218.88 
L 337.238375 218.88 
" clip-path="url(#p31a9f6b6d5)" style="fill: none; stroke: #545454; stroke-linecap: round"/>
   </g>
   <g id="line2d_16">
    <path d="M 305.990375 164.28 
L 337.238375 164.28 
" clip-path="url(#p31a9f6b6d5)" style="fill: none; stroke: #545454; stroke-linecap: round"/>
   </g>
   <g id="patch_7">
    <path d="M 368.486375 212.58 
L 430.982375 212.58 
L 430.982375 194.73 
L 368.486375 194.73 
L 368.486375 212.58 
z
" clip-path="url(#p31a9f6b6d5)" style="fill: #9475ab; stroke: #545454; stroke-linejoin: miter"/>
   </g>
   <g id="line2d_17">
    <path d="M 399.734375 212.58 
L 399.734375 218.88 
" clip-path="url(#p31a9f6b6d5)" style="fill: none; stroke: #545454"/>
   </g>
   <g id="line2d_18">
    <path d="M 399.734375 194.73 
L 399.734375 168.48 
" clip-path="url(#p31a9f6b6d5)" style="fill: none; stroke: #545454"/>
   </g>
   <g id="line2d_19">
    <path d="M 384.110375 218.88 
L 415.358375 218.88 
" clip-path="url(#p31a9f6b6d5)" style="fill: none; stroke: #545454; stroke-linecap: round"/>
   </g>
   <g id="line2d_20">
    <path d="M 384.110375 168.48 
L 415.358375 168.48 
" clip-path="url(#p31a9f6b6d5)" style="fill: none; stroke: #545454; stroke-linecap: round"/>
   </g>
   <g id="line2d_21">
    <path d="M 56.006375 17.28 
L 118.502375 17.28 
" clip-path="url(#p31a9f6b6d5)" style="fill: none; stroke: #545454"/>
   </g>
   <g id="line2d_22">
    <path d="M 134.126375 17.28 
L 196.622375 17.28 
" clip-path="url(#p31a9f6b6d5)" style="fill: none; stroke: #545454"/>
   </g>
   <g id="line2d_23">
    <path d="M 212.246375 191.58 
L 274.742375 191.58 
" clip-path="url(#p31a9f6b6d5)" style="fill: none; stroke: #545454"/>
   </g>
   <g id="line2d_24">
    <path d="M 290.366375 189.48 
L 352.862375 189.48 
" clip-path="url(#p31a9f6b6d5)" style="fill: none; stroke: #545454"/>
   </g>
   <g id="line2d_25">
    <path d="M 368.486375 197.88 
L 430.982375 197.88 
" clip-path="url(#p31a9f6b6d5)" style="fill: none; stroke: #545454"/>
   </g>
   <g id="patch_8">
    <path d="M 48.194375 228.96 
L 48.194375 7.2 
" style="fill: none; stroke: #cccccc; stroke-width: 1.25; stroke-linejoin: miter; stroke-linecap: square"/>
   </g>
   <g id="patch_9">
    <path d="M 438.794375 228.96 
L 438.794375 7.2 
" style="fill: none; stroke: #cccccc; stroke-width: 1.25; stroke-linejoin: miter; stroke-linecap: square"/>
   </g>
   <g id="patch_10">
    <path d="M 48.194375 228.96 
L 438.794375 228.96 
" style="fill: none; stroke: #cccccc; stroke-width: 1.25; stroke-linejoin: miter; stroke-linecap: square"/>
   </g>
   <g id="patch_11">
    <path d="M 48.194375 7.2 
L 438.794375 7.2 
" style="fill: none; stroke: #cccccc; stroke-width: 1.25; stroke-linejoin: miter; stroke-linecap: square"/>
   </g>
  </g>
 </g>
 <defs>
  <clipPath id="p31a9f6b6d5">
   <rect x="48.194375" y="7.2" width="390.6" height="221.76"/>
  </clipPath>
 </defs>
</svg>
