<?xml version="1.0" encoding="utf-8" standalone="no"?>
<!DOCTYPE svg PUBLIC "-//W3C//DTD SVG 1.1//EN"
  "http://www.w3.org/Graphics/SVG/1.1/DTD/svg11.dtd">
<svg xmlns:xlink="http://www.w3.org/1999/xlink" width="405pt" height="180.72pt" viewBox="0 0 405 180.72" xmlns="http://www.w3.org/2000/svg" version="1.1">
 <metadata>
  <rdf:RDF xmlns:dc="http://purl.org/dc/elements/1.1/" xmlns:cc="http://creativecommons.org/ns#" xmlns:rdf="http://www.w3.org/1999/02/22-rdf-syntax-ns#">
   <cc:Work>
    <dc:type rdf:resource="http://purl.org/dc/dcmitype/StillImage"/>
    <dc:date>2024-11-12T20:36:37.693264</dc:date>
    <dc:format>image/svg+xml</dc:format>
    <dc:creator>
     <cc:Agent>
      <dc:title>Matplotlib v3.9.2, https://matplotlib.org/</dc:title>
     </cc:Agent>
    </dc:creator>
   </cc:Work>
  </rdf:RDF>
 </metadata>
 <defs>
  <style type="text/css">*{stroke-linejoin: round; stroke-linecap: butt}</style>
 </defs>
 <g id="figure_1">
  <g id="patch_1">
   <path d="M 0 180.72 
L 405 180.72 
L 405 0 
L 0 0 
z
" style="fill: #ffffff"/>
  </g>
  <g id="axes_1">
   <g id="patch_2">
    <path d="M 7.2 173.52 
L 397.8 173.52 
L 397.8 7.2 
L 7.2 7.2 
z
" style="fill: #ffffff"/>
   </g>
   <g id="matplotlib.axis_1"/>
   <g id="matplotlib.axis_2"/>
   <g id="QuadMesh_1">
    <path d="M 7.2 7.2 
L 85.32 7.2 
L 85.32 40.464 
L 7.2 40.464 
L 7.2 7.2 
" clip-path="url(#p33447a0828)" style="fill: #03051a"/>
    <path d="M 85.32 7.2 
L 163.44 7.2 
L 163.44 40.464 
L 85.32 40.464 
L 85.32 7.2 
" clip-path="url(#p33447a0828)" style="fill: #03051a"/>
    <path d="M 163.44 7.2 
L 241.56 7.2 
L 241.56 40.464 
L 163.44 40.464 
L 163.44 7.2 
" clip-path="url(#p33447a0828)" style="fill: #03051a"/>
    <path d="M 241.56 7.2 
L 319.68 7.2 
L 319.68 40.464 
L 241.56 40.464 
L 241.56 7.2 
" clip-path="url(#p33447a0828)" style="fill: #03051a"/>
    <path d="M 319.68 7.2 
L 397.8 7.2 
L 397.8 40.464 
L 319.68 40.464 
L 319.68 7.2 
" clip-path="url(#p33447a0828)" style="fill: #03051a"/>
    <path d="M 7.2 40.464 
L 85.32 40.464 
L 85.32 73.728 
L 7.2 73.728 
L 7.2 40.464 
" clip-path="url(#p33447a0828)" style="fill: #faebdd"/>
    <path d="M 85.32 40.464 
L 163.44 40.464 
L 163.44 73.728 
L 85.32 73.728 
L 85.32 40.464 
" clip-path="url(#p33447a0828)" style="fill: #faebdd"/>
    <path d="M 163.44 40.464 
L 241.56 40.464 
L 241.56 73.728 
L 163.44 73.728 
L 163.44 40.464 
" clip-path="url(#p33447a0828)" style="fill: #faebdd"/>
    <path d="M 241.56 40.464 
L 319.68 40.464 
L 319.68 73.728 
L 241.56 73.728 
L 241.56 40.464 
" clip-path="url(#p33447a0828)" style="fill: #faebdd"/>
    <path d="M 319.68 40.464 
L 397.8 40.464 
L 397.8 73.728 
L 319.68 73.728 
L 319.68 40.464 
" clip-path="url(#p33447a0828)" style="fill: #e83f3f"/>
    <path d="M 7.2 73.728 
L 85.32 73.728 
L 85.32 106.992 
L 7.2 106.992 
L 7.2 73.728 
" clip-path="url(#p33447a0828)" style="fill: #faebdd"/>
    <path d="M 85.32 73.728 
L 163.44 73.728 
L 163.44 106.992 
L 85.32 106.992 
L 85.32 73.728 
" clip-path="url(#p33447a0828)" style="fill: #faebdd"/>
    <path d="M 163.44 73.728 
L 241.56 73.728 
L 241.56 106.992 
L 163.44 106.992 
L 163.44 73.728 
" clip-path="url(#p33447a0828)" style="fill: #faebdd"/>
    <path d="M 241.56 73.728 
L 319.68 73.728 
L 319.68 106.992 
L 241.56 106.992 
L 241.56 73.728 
" clip-path="url(#p33447a0828)" style="fill: #faebdd"/>
    <path d="M 319.68 73.728 
L 397.8 73.728 
L 397.8 106.992 
L 319.68 106.992 
L 319.68 73.728 
" clip-path="url(#p33447a0828)" style="fill: #a11a5b"/>
    <path d="M 7.2 106.992 
L 85.32 106.992 
L 85.32 140.256 
L 7.2 140.256 
L 7.2 106.992 
" clip-path="url(#p33447a0828)" style="fill: #faebdd"/>
    <path d="M 85.32 106.992 
L 163.44 106.992 
L 163.44 140.256 
L 85.32 140.256 
L 85.32 106.992 
" clip-path="url(#p33447a0828)" style="fill: #faebdd"/>
    <path d="M 163.44 106.992 
L 241.56 106.992 
L 241.56 140.256 
L 163.44 140.256 
L 163.44 106.992 
" clip-path="url(#p33447a0828)" style="fill: #faebdd"/>
    <path d="M 241.56 106.992 
L 319.68 106.992 
L 319.68 140.256 
L 241.56 140.256 
L 241.56 106.992 
" clip-path="url(#p33447a0828)" style="fill: #faebdd"/>
    <path d="M 319.68 106.992 
L 397.8 106.992 
L 397.8 140.256 
L 319.68 140.256 
L 319.68 106.992 
" clip-path="url(#p33447a0828)" style="fill: #4c1d4b"/>
    <path d="M 7.2 140.256 
L 85.32 140.256 
L 85.32 173.52 
L 7.2 173.52 
L 7.2 140.256 
" clip-path="url(#p33447a0828)" style="fill: #faebdd"/>
    <path d="M 85.32 140.256 
L 163.44 140.256 
L 163.44 173.52 
L 85.32 173.52 
L 85.32 140.256 
" clip-path="url(#p33447a0828)" style="fill: #faebdd"/>
    <path d="M 163.44 140.256 
L 241.56 140.256 
L 241.56 173.52 
L 163.44 173.52 
L 163.44 140.256 
" clip-path="url(#p33447a0828)" style="fill: #faebdd"/>
    <path d="M 241.56 140.256 
L 319.68 140.256 
L 319.68 173.52 
L 241.56 173.52 
L 241.56 140.256 
" clip-path="url(#p33447a0828)" style="fill: #faebdd"/>
    <path d="M 319.68 140.256 
L 397.8 140.256 
L 397.8 173.52 
L 319.68 173.52 
L 319.68 140.256 
" clip-path="url(#p33447a0828)" style="fill: #4c1d4b"/>
   </g>
   <g id="text_1">
    <!-- 0 -->
    <g style="fill: #ffffff" transform="translate(40.53375 28.798875) scale(0.18 -0.18)">
     <defs>
      <path id="DejaVuSans-30" d="M 2034 4250 
Q 1547 4250 1301 3770 
Q 1056 3291 1056 2328 
Q 1056 1369 1301 889 
Q 1547 409 2034 409 
Q 2525 409 2770 889 
Q 3016 1369 3016 2328 
Q 3016 3291 2770 3770 
Q 2525 4250 2034 4250 
z
M 2034 4750 
Q 2819 4750 3233 4129 
Q 3647 3509 3647 2328 
Q 3647 1150 3233 529 
Q 2819 -91 2034 -91 
Q 1250 -91 836 529 
Q 422 1150 422 2328 
Q 422 3509 836 4129 
Q 1250 4750 2034 4750 
z
" transform="scale(0.015625)"/>
     </defs>
     <use xlink:href="#DejaVuSans-30"/>
    </g>
   </g>
   <g id="text_2">
    <!-- 0 -->
    <g style="fill: #ffffff" transform="translate(118.65375 28.798875) scale(0.18 -0.18)">
     <use xlink:href="#DejaVuSans-30"/>
    </g>
   </g>
   <g id="text_3">
    <!-- 0 -->
    <g style="fill: #ffffff" transform="translate(196.77375 28.798875) scale(0.18 -0.18)">
     <use xlink:href="#DejaVuSans-30"/>
    </g>
   </g>
   <g id="text_4">
    <!-- 0 -->
    <g style="fill: #ffffff" transform="translate(274.89375 28.798875) scale(0.18 -0.18)">
     <use xlink:href="#DejaVuSans-30"/>
    </g>
   </g>
   <g id="text_5">
    <!-- 0 -->
    <g style="fill: #ffffff" transform="translate(353.01375 28.798875) scale(0.18 -0.18)">
     <use xlink:href="#DejaVuSans-30"/>
    </g>
   </g>
   <g id="text_6">
    <!-- 100 -->
    <g style="fill: #262626" transform="translate(29.08125 62.062875) scale(0.18 -0.18)">
     <defs>
      <path id="DejaVuSans-31" d="M 794 531 
L 1825 531 
L 1825 4091 
L 703 3866 
L 703 4441 
L 1819 4666 
L 2450 4666 
L 2450 531 
L 3481 531 
L 3481 0 
L 794 0 
L 794 531 
z
" transform="scale(0.015625)"/>
     </defs>
     <use xlink:href="#DejaVuSans-31"/>
     <use xlink:href="#DejaVuSans-30" x="63.623047"/>
     <use xlink:href="#DejaVuSans-30" x="127.246094"/>
    </g>
   </g>
   <g id="text_7">
    <!-- 100 -->
    <g style="fill: #262626" transform="translate(107.20125 62.062875) scale(0.18 -0.18)">
     <use xlink:href="#DejaVuSans-31"/>
     <use xlink:href="#DejaVuSans-30" x="63.623047"/>
     <use xlink:href="#DejaVuSans-30" x="127.246094"/>
    </g>
   </g>
   <g id="text_8">
    <!-- 100 -->
    <g style="fill: #262626" transform="translate(185.32125 62.062875) scale(0.18 -0.18)">
     <use xlink:href="#DejaVuSans-31"/>
     <use xlink:href="#DejaVuSans-30" x="63.623047"/>
     <use xlink:href="#DejaVuSans-30" x="127.246094"/>
    </g>
   </g>
   <g id="text_9">
    <!-- 100 -->
    <g style="fill: #262626" transform="translate(263.44125 62.062875) scale(0.18 -0.18)">
     <use xlink:href="#DejaVuSans-31"/>
     <use xlink:href="#DejaVuSans-30" x="63.623047"/>
     <use xlink:href="#DejaVuSans-30" x="127.246094"/>
    </g>
   </g>
   <g id="text_10">
    <!-- 60 -->
    <g style="fill: #ffffff" transform="translate(347.2875 62.062875) scale(0.18 -0.18)">
     <defs>
      <path id="DejaVuSans-36" d="M 2113 2584 
Q 1688 2584 1439 2293 
Q 1191 2003 1191 1497 
Q 1191 994 1439 701 
Q 1688 409 2113 409 
Q 2538 409 2786 701 
Q 3034 994 3034 1497 
Q 3034 2003 2786 2293 
Q 2538 2584 2113 2584 
z
M 3366 4563 
L 3366 3988 
Q 3128 4100 2886 4159 
Q 2644 4219 2406 4219 
Q 1781 4219 1451 3797 
Q 1122 3375 1075 2522 
Q 1259 2794 1537 2939 
Q 1816 3084 2150 3084 
Q 2853 3084 3261 2657 
Q 3669 2231 3669 1497 
Q 3669 778 3244 343 
Q 2819 -91 2113 -91 
Q 1303 -91 875 529 
Q 447 1150 447 2328 
Q 447 3434 972 4092 
Q 1497 4750 2381 4750 
Q 2619 4750 2861 4703 
Q 3103 4656 3366 4563 
z
" transform="scale(0.015625)"/>
     </defs>
     <use xlink:href="#DejaVuSans-36"/>
     <use xlink:href="#DejaVuSans-30" x="63.623047"/>
    </g>
   </g>
   <g id="text_11">
    <!-- 100 -->
    <g style="fill: #262626" transform="translate(29.08125 95.326875) scale(0.18 -0.18)">
     <use xlink:href="#DejaVuSans-31"/>
     <use xlink:href="#DejaVuSans-30" x="63.623047"/>
     <use xlink:href="#DejaVuSans-30" x="127.246094"/>
    </g>
   </g>
   <g id="text_12">
    <!-- 100 -->
    <g style="fill: #262626" transform="translate(107.20125 95.326875) scale(0.18 -0.18)">
     <use xlink:href="#DejaVuSans-31"/>
     <use xlink:href="#DejaVuSans-30" x="63.623047"/>
     <use xlink:href="#DejaVuSans-30" x="127.246094"/>
    </g>
   </g>
   <g id="text_13">
    <!-- 100 -->
    <g style="fill: #262626" transform="translate(185.32125 95.326875) scale(0.18 -0.18)">
     <use xlink:href="#DejaVuSans-31"/>
     <use xlink:href="#DejaVuSans-30" x="63.623047"/>
     <use xlink:href="#DejaVuSans-30" x="127.246094"/>
    </g>
   </g>
   <g id="text_14">
    <!-- 100 -->
    <g style="fill: #262626" transform="translate(263.44125 95.326875) scale(0.18 -0.18)">
     <use xlink:href="#DejaVuSans-31"/>
     <use xlink:href="#DejaVuSans-30" x="63.623047"/>
     <use xlink:href="#DejaVuSans-30" x="127.246094"/>
    </g>
   </g>
   <g id="text_15">
    <!-- 40 -->
    <g style="fill: #ffffff" transform="translate(347.2875 95.326875) scale(0.18 -0.18)">
     <defs>
      <path id="DejaVuSans-34" d="M 2419 4116 
L 825 1625 
L 2419 1625 
L 2419 4116 
z
M 2253 4666 
L 3047 4666 
L 3047 1625 
L 3713 1625 
L 3713 1100 
L 3047 1100 
L 3047 0 
L 2419 0 
L 2419 1100 
L 313 1100 
L 313 1709 
L 2253 4666 
z
" transform="scale(0.015625)"/>
     </defs>
     <use xlink:href="#DejaVuSans-34"/>
     <use xlink:href="#DejaVuSans-30" x="63.623047"/>
    </g>
   </g>
   <g id="text_16">
    <!-- 100 -->
    <g style="fill: #262626" transform="translate(29.08125 128.590875) scale(0.18 -0.18)">
     <use xlink:href="#DejaVuSans-31"/>
     <use xlink:href="#DejaVuSans-30" x="63.623047"/>
     <use xlink:href="#DejaVuSans-30" x="127.246094"/>
    </g>
   </g>
   <g id="text_17">
    <!-- 100 -->
    <g style="fill: #262626" transform="translate(107.20125 128.590875) scale(0.18 -0.18)">
     <use xlink:href="#DejaVuSans-31"/>
     <use xlink:href="#DejaVuSans-30" x="63.623047"/>
     <use xlink:href="#DejaVuSans-30" x="127.246094"/>
    </g>
   </g>
   <g id="text_18">
    <!-- 100 -->
    <g style="fill: #262626" transform="translate(185.32125 128.590875) scale(0.18 -0.18)">
     <use xlink:href="#DejaVuSans-31"/>
     <use xlink:href="#DejaVuSans-30" x="63.623047"/>
     <use xlink:href="#DejaVuSans-30" x="127.246094"/>
    </g>
   </g>
   <g id="text_19">
    <!-- 100 -->
    <g style="fill: #262626" transform="translate(263.44125 128.590875) scale(0.18 -0.18)">
     <use xlink:href="#DejaVuSans-31"/>
     <use xlink:href="#DejaVuSans-30" x="63.623047"/>
     <use xlink:href="#DejaVuSans-30" x="127.246094"/>
    </g>
   </g>
   <g id="text_20">
    <!-- 20 -->
    <g style="fill: #ffffff" transform="translate(347.2875 128.590875) scale(0.18 -0.18)">
     <defs>
      <path id="DejaVuSans-32" d="M 1228 531 
L 3431 531 
L 3431 0 
L 469 0 
L 469 531 
Q 828 903 1448 1529 
Q 2069 2156 2228 2338 
Q 2531 2678 2651 2914 
Q 2772 3150 2772 3378 
Q 2772 3750 2511 3984 
Q 2250 4219 1831 4219 
Q 1534 4219 1204 4116 
Q 875 4013 500 3803 
L 500 4441 
Q 881 4594 1212 4672 
Q 1544 4750 1819 4750 
Q 2544 4750 2975 4387 
Q 3406 4025 3406 3419 
Q 3406 3131 3298 2873 
Q 3191 2616 2906 2266 
Q 2828 2175 2409 1742 
Q 1991 1309 1228 531 
z
" transform="scale(0.015625)"/>
     </defs>
     <use xlink:href="#DejaVuSans-32"/>
     <use xlink:href="#DejaVuSans-30" x="63.623047"/>
    </g>
   </g>
   <g id="text_21">
    <!-- 100 -->
    <g style="fill: #262626" transform="translate(29.08125 161.854875) scale(0.18 -0.18)">
     <use xlink:href="#DejaVuSans-31"/>
     <use xlink:href="#DejaVuSans-30" x="63.623047"/>
     <use xlink:href="#DejaVuSans-30" x="127.246094"/>
    </g>
   </g>
   <g id="text_22">
    <!-- 100 -->
    <g style="fill: #262626" transform="translate(107.20125 161.854875) scale(0.18 -0.18)">
     <use xlink:href="#DejaVuSans-31"/>
     <use xlink:href="#DejaVuSans-30" x="63.623047"/>
     <use xlink:href="#DejaVuSans-30" x="127.246094"/>
    </g>
   </g>
   <g id="text_23">
    <!-- 100 -->
    <g style="fill: #262626" transform="translate(185.32125 161.854875) scale(0.18 -0.18)">
     <use xlink:href="#DejaVuSans-31"/>
     <use xlink:href="#DejaVuSans-30" x="63.623047"/>
     <use xlink:href="#DejaVuSans-30" x="127.246094"/>
    </g>
   </g>
   <g id="text_24">
    <!-- 100 -->
    <g style="fill: #262626" transform="translate(263.44125 161.854875) scale(0.18 -0.18)">
     <use xlink:href="#DejaVuSans-31"/>
     <use xlink:href="#DejaVuSans-30" x="63.623047"/>
     <use xlink:href="#DejaVuSans-30" x="127.246094"/>
    </g>
   </g>
   <g id="text_25">
    <!-- 20 -->
    <g style="fill: #ffffff" transform="translate(347.2875 161.854875) scale(0.18 -0.18)">
     <use xlink:href="#DejaVuSans-32"/>
     <use xlink:href="#DejaVuSans-30" x="63.623047"/>
    </g>
   </g>
  </g>
 </g>
 <defs>
  <clipPath id="p33447a0828">
   <rect x="7.2" y="7.2" width="390.6" height="166.32"/>
  </clipPath>
 </defs>
</svg>
