<?xml version="1.0" encoding="utf-8" standalone="no"?>
<!DOCTYPE svg PUBLIC "-//W3C//DTD SVG 1.1//EN"
  "http://www.w3.org/Graphics/SVG/1.1/DTD/svg11.dtd">
<svg xmlns:xlink="http://www.w3.org/1999/xlink" width="576pt" height="360pt" viewBox="0 0 576 360" xmlns="http://www.w3.org/2000/svg" version="1.1">
 <metadata>
  <rdf:RDF xmlns:dc="http://purl.org/dc/elements/1.1/" xmlns:cc="http://creativecommons.org/ns#" xmlns:rdf="http://www.w3.org/1999/02/22-rdf-syntax-ns#">
   <cc:Work>
    <dc:type rdf:resource="http://purl.org/dc/dcmitype/StillImage"/>
    <dc:date>2024-11-12T20:36:25.600159</dc:date>
    <dc:format>image/svg+xml</dc:format>
    <dc:creator>
     <cc:Agent>
      <dc:title>Matplotlib v3.9.2, https://matplotlib.org/</dc:title>
     </cc:Agent>
    </dc:creator>
   </cc:Work>
  </rdf:RDF>
 </metadata>
 <defs>
  <style type="text/css">*{stroke-linejoin: round; stroke-linecap: butt}</style>
 </defs>
 <g id="figure_1">
  <g id="patch_1">
   <path d="M 0 360 
L 576 360 
L 576 0 
L 0 0 
z
" style="fill: #ffffff"/>
  </g>
  <g id="axes_1">
   <g id="patch_2">
    <path d="M 72 320.4 
L 518.4 320.4 
L 518.4 43.2 
L 72 43.2 
z
" style="fill: #ffffff"/>
   </g>
   <g id="matplotlib.axis_1"/>
   <g id="matplotlib.axis_2">
    <g id="ytick_1">
     <g id="text_1">
      <!-- 7.5 -->
      <g style="fill: #262626" transform="translate(36.259844 301.818333) scale(0.165 -0.165)">
       <defs>
        <path id="DejaVuSans-37" d="M 525 4666 
L 3525 4666 
L 3525 4397 
L 1831 0 
L 1172 0 
L 2766 4134 
L 525 4134 
L 525 4666 
z
" transform="scale(0.015625)"/>
        <path id="DejaVuSans-2e" d="M 684 794 
L 1344 794 
L 1344 0 
L 684 0 
L 684 794 
z
" transform="scale(0.015625)"/>
        <path id="DejaVuSans-35" d="M 691 4666 
L 3169 4666 
L 3169 4134 
L 1269 4134 
L 1269 2991 
Q 1406 3038 1543 3061 
Q 1681 3084 1819 3084 
Q 2600 3084 3056 2656 
Q 3513 2228 3513 1497 
Q 3513 744 3044 326 
Q 2575 -91 1722 -91 
Q 1428 -91 1123 -41 
Q 819 9 494 109 
L 494 744 
Q 775 591 1075 516 
Q 1375 441 1709 441 
Q 2250 441 2565 725 
Q 2881 1009 2881 1497 
Q 2881 1984 2565 2268 
Q 2250 2553 1709 2553 
Q 1456 2553 1204 2497 
Q 953 2441 691 2322 
L 691 4666 
z
" transform="scale(0.015625)"/>
       </defs>
       <use xlink:href="#DejaVuSans-37"/>
       <use xlink:href="#DejaVuSans-2e" x="63.623047"/>
       <use xlink:href="#DejaVuSans-35" x="95.410156"/>
      </g>
     </g>
    </g>
    <g id="ytick_2">
     <g id="text_2">
      <!-- 10.0 -->
      <g style="fill: #262626" transform="translate(25.761719 265.492633) scale(0.165 -0.165)">
       <defs>
        <path id="DejaVuSans-31" d="M 794 531 
L 1825 531 
L 1825 4091 
L 703 3866 
L 703 4441 
L 1819 4666 
L 2450 4666 
L 2450 531 
L 3481 531 
L 3481 0 
L 794 0 
L 794 531 
z
" transform="scale(0.015625)"/>
        <path id="DejaVuSans-30" d="M 2034 4250 
Q 1547 4250 1301 3770 
Q 1056 3291 1056 2328 
Q 1056 1369 1301 889 
Q 1547 409 2034 409 
Q 2525 409 2770 889 
Q 3016 1369 3016 2328 
Q 3016 3291 2770 3770 
Q 2525 4250 2034 4250 
z
M 2034 4750 
Q 2819 4750 3233 4129 
Q 3647 3509 3647 2328 
Q 3647 1150 3233 529 
Q 2819 -91 2034 -91 
Q 1250 -91 836 529 
Q 422 1150 422 2328 
Q 422 3509 836 4129 
Q 1250 4750 2034 4750 
z
" transform="scale(0.015625)"/>
       </defs>
       <use xlink:href="#DejaVuSans-31"/>
       <use xlink:href="#DejaVuSans-30" x="63.623047"/>
       <use xlink:href="#DejaVuSans-2e" x="127.246094"/>
       <use xlink:href="#DejaVuSans-30" x="159.033203"/>
      </g>
     </g>
    </g>
    <g id="ytick_3">
     <g id="text_3">
      <!-- 12.5 -->
      <g style="fill: #262626" transform="translate(25.761719 229.166932) scale(0.165 -0.165)">
       <defs>
        <path id="DejaVuSans-32" d="M 1228 531 
L 3431 531 
L 3431 0 
L 469 0 
L 469 531 
Q 828 903 1448 1529 
Q 2069 2156 2228 2338 
Q 2531 2678 2651 2914 
Q 2772 3150 2772 3378 
Q 2772 3750 2511 3984 
Q 2250 4219 1831 4219 
Q 1534 4219 1204 4116 
Q 875 4013 500 3803 
L 500 4441 
Q 881 4594 1212 4672 
Q 1544 4750 1819 4750 
Q 2544 4750 2975 4387 
Q 3406 4025 3406 3419 
Q 3406 3131 3298 2873 
Q 3191 2616 2906 2266 
Q 2828 2175 2409 1742 
Q 1991 1309 1228 531 
z
" transform="scale(0.015625)"/>
       </defs>
       <use xlink:href="#DejaVuSans-31"/>
       <use xlink:href="#DejaVuSans-32" x="63.623047"/>
       <use xlink:href="#DejaVuSans-2e" x="127.246094"/>
       <use xlink:href="#DejaVuSans-35" x="159.033203"/>
      </g>
     </g>
    </g>
    <g id="ytick_4">
     <g id="text_4">
      <!-- 15.0 -->
      <g style="fill: #262626" transform="translate(25.761719 192.841232) scale(0.165 -0.165)">
       <use xlink:href="#DejaVuSans-31"/>
       <use xlink:href="#DejaVuSans-35" x="63.623047"/>
       <use xlink:href="#DejaVuSans-2e" x="127.246094"/>
       <use xlink:href="#DejaVuSans-30" x="159.033203"/>
      </g>
     </g>
    </g>
    <g id="ytick_5">
     <g id="text_5">
      <!-- 17.5 -->
      <g style="fill: #262626" transform="translate(25.761719 156.515532) scale(0.165 -0.165)">
       <use xlink:href="#DejaVuSans-31"/>
       <use xlink:href="#DejaVuSans-37" x="63.623047"/>
       <use xlink:href="#DejaVuSans-2e" x="127.246094"/>
       <use xlink:href="#DejaVuSans-35" x="159.033203"/>
      </g>
     </g>
    </g>
    <g id="ytick_6">
     <g id="text_6">
      <!-- 20.0 -->
      <g style="fill: #262626" transform="translate(25.761719 120.189831) scale(0.165 -0.165)">
       <use xlink:href="#DejaVuSans-32"/>
       <use xlink:href="#DejaVuSans-30" x="63.623047"/>
       <use xlink:href="#DejaVuSans-2e" x="127.246094"/>
       <use xlink:href="#DejaVuSans-30" x="159.033203"/>
      </g>
     </g>
    </g>
    <g id="ytick_7">
     <g id="text_7">
      <!-- 22.5 -->
      <g style="fill: #262626" transform="translate(25.761719 83.864131) scale(0.165 -0.165)">
       <use xlink:href="#DejaVuSans-32"/>
       <use xlink:href="#DejaVuSans-32" x="63.623047"/>
       <use xlink:href="#DejaVuSans-2e" x="127.246094"/>
       <use xlink:href="#DejaVuSans-35" x="159.033203"/>
      </g>
     </g>
    </g>
   </g>
   <g id="line2d_1">
    <path d="M 87.26688 55.8 
L 96.01632 55.8 
L 96.01632 55.8 
L 87.26688 55.8 
L 87.26688 55.8 
" clip-path="url(#pac547135f4)" style="fill: none; stroke: #4878d0; stroke-width: 1.5; stroke-linecap: round"/>
   </g>
   <g id="line2d_2">
    <path d="M 91.6416 55.8 
L 91.6416 55.8 
" clip-path="url(#pac547135f4)" style="fill: none; stroke: #4878d0; stroke-width: 1.5"/>
   </g>
   <g id="line2d_3">
    <path d="M 91.6416 55.8 
L 91.6416 55.8 
" clip-path="url(#pac547135f4)" style="fill: none; stroke: #4878d0; stroke-width: 1.5"/>
   </g>
   <g id="line2d_4">
    <path d="M 89.45424 55.8 
L 93.82896 55.8 
" clip-path="url(#pac547135f4)" style="fill: none; stroke: #4878d0; stroke-width: 1.5; stroke-linecap: round"/>
   </g>
   <g id="line2d_5">
    <path d="M 89.45424 55.8 
L 93.82896 55.8 
" clip-path="url(#pac547135f4)" style="fill: none; stroke: #4878d0; stroke-width: 1.5; stroke-linecap: round"/>
   </g>
   <g id="line2d_6"/>
   <g id="line2d_7">
    <path d="M 176.54688 55.8 
L 185.29632 55.8 
L 185.29632 55.8 
L 176.54688 55.8 
L 176.54688 55.8 
" clip-path="url(#pac547135f4)" style="fill: none; stroke: #4878d0; stroke-width: 1.5; stroke-linecap: round"/>
   </g>
   <g id="line2d_8">
    <path d="M 180.9216 55.8 
L 180.9216 55.8 
" clip-path="url(#pac547135f4)" style="fill: none; stroke: #4878d0; stroke-width: 1.5"/>
   </g>
   <g id="line2d_9">
    <path d="M 180.9216 55.8 
L 180.9216 55.8 
" clip-path="url(#pac547135f4)" style="fill: none; stroke: #4878d0; stroke-width: 1.5"/>
   </g>
   <g id="line2d_10">
    <path d="M 178.73424 55.8 
L 183.10896 55.8 
" clip-path="url(#pac547135f4)" style="fill: none; stroke: #4878d0; stroke-width: 1.5; stroke-linecap: round"/>
   </g>
   <g id="line2d_11">
    <path d="M 178.73424 55.8 
L 183.10896 55.8 
" clip-path="url(#pac547135f4)" style="fill: none; stroke: #4878d0; stroke-width: 1.5; stroke-linecap: round"/>
   </g>
   <g id="line2d_12"/>
   <g id="line2d_13">
    <path d="M 265.82688 55.8 
L 274.57632 55.8 
L 274.57632 55.8 
L 265.82688 55.8 
L 265.82688 55.8 
" clip-path="url(#pac547135f4)" style="fill: none; stroke: #4878d0; stroke-width: 1.5; stroke-linecap: round"/>
   </g>
   <g id="line2d_14">
    <path d="M 270.2016 55.8 
L 270.2016 55.8 
" clip-path="url(#pac547135f4)" style="fill: none; stroke: #4878d0; stroke-width: 1.5"/>
   </g>
   <g id="line2d_15">
    <path d="M 270.2016 55.8 
L 270.2016 55.8 
" clip-path="url(#pac547135f4)" style="fill: none; stroke: #4878d0; stroke-width: 1.5"/>
   </g>
   <g id="line2d_16">
    <path d="M 268.01424 55.8 
L 272.38896 55.8 
" clip-path="url(#pac547135f4)" style="fill: none; stroke: #4878d0; stroke-width: 1.5; stroke-linecap: round"/>
   </g>
   <g id="line2d_17">
    <path d="M 268.01424 55.8 
L 272.38896 55.8 
" clip-path="url(#pac547135f4)" style="fill: none; stroke: #4878d0; stroke-width: 1.5; stroke-linecap: round"/>
   </g>
   <g id="line2d_18"/>
   <g id="line2d_19">
    <path d="M 355.10688 55.8 
L 363.85632 55.8 
L 363.85632 55.8 
L 355.10688 55.8 
L 355.10688 55.8 
" clip-path="url(#pac547135f4)" style="fill: none; stroke: #4878d0; stroke-width: 1.5; stroke-linecap: round"/>
   </g>
   <g id="line2d_20">
    <path d="M 359.4816 55.8 
L 359.4816 55.8 
" clip-path="url(#pac547135f4)" style="fill: none; stroke: #4878d0; stroke-width: 1.5"/>
   </g>
   <g id="line2d_21">
    <path d="M 359.4816 55.8 
L 359.4816 55.8 
" clip-path="url(#pac547135f4)" style="fill: none; stroke: #4878d0; stroke-width: 1.5"/>
   </g>
   <g id="line2d_22">
    <path d="M 357.29424 55.8 
L 361.66896 55.8 
" clip-path="url(#pac547135f4)" style="fill: none; stroke: #4878d0; stroke-width: 1.5; stroke-linecap: round"/>
   </g>
   <g id="line2d_23">
    <path d="M 357.29424 55.8 
L 361.66896 55.8 
" clip-path="url(#pac547135f4)" style="fill: none; stroke: #4878d0; stroke-width: 1.5; stroke-linecap: round"/>
   </g>
   <g id="line2d_24"/>
   <g id="line2d_25">
    <path d="M 444.38688 55.8 
L 453.13632 55.8 
L 453.13632 55.8 
L 444.38688 55.8 
L 444.38688 55.8 
" clip-path="url(#pac547135f4)" style="fill: none; stroke: #4878d0; stroke-width: 1.5; stroke-linecap: round"/>
   </g>
   <g id="line2d_26">
    <path d="M 448.7616 55.8 
L 448.7616 55.8 
" clip-path="url(#pac547135f4)" style="fill: none; stroke: #4878d0; stroke-width: 1.5"/>
   </g>
   <g id="line2d_27">
    <path d="M 448.7616 55.8 
L 448.7616 55.8 
" clip-path="url(#pac547135f4)" style="fill: none; stroke: #4878d0; stroke-width: 1.5"/>
   </g>
   <g id="line2d_28">
    <path d="M 446.57424 55.8 
L 450.94896 55.8 
" clip-path="url(#pac547135f4)" style="fill: none; stroke: #4878d0; stroke-width: 1.5; stroke-linecap: round"/>
   </g>
   <g id="line2d_29">
    <path d="M 446.57424 55.8 
L 450.94896 55.8 
" clip-path="url(#pac547135f4)" style="fill: none; stroke: #4878d0; stroke-width: 1.5; stroke-linecap: round"/>
   </g>
   <g id="line2d_30"/>
   <g id="line2d_31">
    <path d="M 99.76608 235.280469 
L 108.51552 235.280469 
L 108.51552 227.907677 
L 99.76608 227.907677 
L 99.76608 235.280469 
" clip-path="url(#pac547135f4)" style="fill: none; stroke: #ee854a; stroke-width: 1.5; stroke-linecap: round"/>
   </g>
   <g id="line2d_32">
    <path d="M 104.1408 235.280469 
L 104.1408 235.280469 
" clip-path="url(#pac547135f4)" style="fill: none; stroke: #ee854a; stroke-width: 1.5"/>
   </g>
   <g id="line2d_33">
    <path d="M 104.1408 227.907677 
L 104.1408 222.103867 
" clip-path="url(#pac547135f4)" style="fill: none; stroke: #ee854a; stroke-width: 1.5"/>
   </g>
   <g id="line2d_34">
    <path d="M 101.95344 235.280469 
L 106.32816 235.280469 
" clip-path="url(#pac547135f4)" style="fill: none; stroke: #ee854a; stroke-width: 1.5; stroke-linecap: round"/>
   </g>
   <g id="line2d_35">
    <path d="M 101.95344 222.103867 
L 106.32816 222.103867 
" clip-path="url(#pac547135f4)" style="fill: none; stroke: #ee854a; stroke-width: 1.5; stroke-linecap: round"/>
   </g>
   <g id="line2d_36">
    <defs>
     <path id="mb74abeeb40" d="M 0 3 
C 0.795609 3 1.55874 2.683901 2.12132 2.12132 
C 2.683901 1.55874 3 0.795609 3 0 
C 3 -0.795609 2.683901 -1.55874 2.12132 -2.12132 
C 1.55874 -2.683901 0.795609 -3 0 -3 
C -0.795609 -3 -1.55874 -2.683901 -2.12132 -2.12132 
C -2.683901 -1.55874 -3 -0.795609 -3 0 
C -3 0.795609 -2.683901 1.55874 -2.12132 2.12132 
C -1.55874 2.683901 -0.795609 3 0 3 
z
" style="stroke: #ee854a"/>
    </defs>
    <g clip-path="url(#pac547135f4)">
     <use xlink:href="#mb74abeeb40" x="104.1408" y="263.649005" style="fill-opacity: 0; stroke: #ee854a"/>
    </g>
   </g>
   <g id="line2d_37">
    <path d="M 189.04608 231.374899 
L 197.79552 231.374899 
L 197.79552 202.187738 
L 189.04608 202.187738 
L 189.04608 231.374899 
" clip-path="url(#pac547135f4)" style="fill: none; stroke: #ee854a; stroke-width: 1.5; stroke-linecap: round"/>
   </g>
   <g id="line2d_38">
    <path d="M 193.4208 231.374899 
L 193.4208 239.648925 
" clip-path="url(#pac547135f4)" style="fill: none; stroke: #ee854a; stroke-width: 1.5"/>
   </g>
   <g id="line2d_39">
    <path d="M 193.4208 202.187738 
L 193.4208 201.034226 
" clip-path="url(#pac547135f4)" style="fill: none; stroke: #ee854a; stroke-width: 1.5"/>
   </g>
   <g id="line2d_40">
    <path d="M 191.23344 239.648925 
L 195.60816 239.648925 
" clip-path="url(#pac547135f4)" style="fill: none; stroke: #ee854a; stroke-width: 1.5; stroke-linecap: round"/>
   </g>
   <g id="line2d_41">
    <path d="M 191.23344 201.034226 
L 195.60816 201.034226 
" clip-path="url(#pac547135f4)" style="fill: none; stroke: #ee854a; stroke-width: 1.5; stroke-linecap: round"/>
   </g>
   <g id="line2d_42"/>
   <g id="line2d_43">
    <path d="M 278.32608 168.197746 
L 287.07552 168.197746 
L 287.07552 150.687505 
L 278.32608 150.687505 
L 278.32608 168.197746 
" clip-path="url(#pac547135f4)" style="fill: none; stroke: #ee854a; stroke-width: 1.5; stroke-linecap: round"/>
   </g>
   <g id="line2d_44">
    <path d="M 282.7008 168.197746 
L 282.7008 168.197746 
" clip-path="url(#pac547135f4)" style="fill: none; stroke: #ee854a; stroke-width: 1.5"/>
   </g>
   <g id="line2d_45">
    <path d="M 282.7008 150.687505 
L 282.7008 140.463053 
" clip-path="url(#pac547135f4)" style="fill: none; stroke: #ee854a; stroke-width: 1.5"/>
   </g>
   <g id="line2d_46">
    <path d="M 280.51344 168.197746 
L 284.88816 168.197746 
" clip-path="url(#pac547135f4)" style="fill: none; stroke: #ee854a; stroke-width: 1.5; stroke-linecap: round"/>
   </g>
   <g id="line2d_47">
    <path d="M 280.51344 140.463053 
L 284.88816 140.463053 
" clip-path="url(#pac547135f4)" style="fill: none; stroke: #ee854a; stroke-width: 1.5; stroke-linecap: round"/>
   </g>
   <g id="line2d_48">
    <g clip-path="url(#pac547135f4)">
     <use xlink:href="#mb74abeeb40" x="282.7008" y="207.997661" style="fill-opacity: 0; stroke: #ee854a"/>
    </g>
   </g>
   <g id="line2d_49">
    <path d="M 367.60608 111.904913 
L 376.35552 111.904913 
L 376.35552 98.580888 
L 367.60608 98.580888 
L 367.60608 111.904913 
" clip-path="url(#pac547135f4)" style="fill: none; stroke: #ee854a; stroke-width: 1.5; stroke-linecap: round"/>
   </g>
   <g id="line2d_50">
    <path d="M 371.9808 111.904913 
L 371.9808 111.904913 
" clip-path="url(#pac547135f4)" style="fill: none; stroke: #ee854a; stroke-width: 1.5"/>
   </g>
   <g id="line2d_51">
    <path d="M 371.9808 98.580888 
L 371.9808 82.652973 
" clip-path="url(#pac547135f4)" style="fill: none; stroke: #ee854a; stroke-width: 1.5"/>
   </g>
   <g id="line2d_52">
    <path d="M 369.79344 111.904913 
L 374.16816 111.904913 
" clip-path="url(#pac547135f4)" style="fill: none; stroke: #ee854a; stroke-width: 1.5; stroke-linecap: round"/>
   </g>
   <g id="line2d_53">
    <path d="M 369.79344 82.652973 
L 374.16816 82.652973 
" clip-path="url(#pac547135f4)" style="fill: none; stroke: #ee854a; stroke-width: 1.5; stroke-linecap: round"/>
   </g>
   <g id="line2d_54">
    <g clip-path="url(#pac547135f4)">
     <use xlink:href="#mb74abeeb40" x="371.9808" y="141.247864" style="fill-opacity: 0; stroke: #ee854a"/>
    </g>
   </g>
   <g id="line2d_55">
    <path d="M 456.88608 223.071466 
L 465.63552 223.071466 
L 465.63552 55.8 
L 456.88608 55.8 
L 456.88608 223.071466 
" clip-path="url(#pac547135f4)" style="fill: none; stroke: #ee854a; stroke-width: 1.5; stroke-linecap: round"/>
   </g>
   <g id="line2d_56">
    <path d="M 461.2608 223.071466 
L 461.2608 240.096716 
" clip-path="url(#pac547135f4)" style="fill: none; stroke: #ee854a; stroke-width: 1.5"/>
   </g>
   <g id="line2d_57">
    <path d="M 461.2608 55.8 
L 461.2608 55.8 
" clip-path="url(#pac547135f4)" style="fill: none; stroke: #ee854a; stroke-width: 1.5"/>
   </g>
   <g id="line2d_58">
    <path d="M 459.07344 240.096716 
L 463.44816 240.096716 
" clip-path="url(#pac547135f4)" style="fill: none; stroke: #ee854a; stroke-width: 1.5; stroke-linecap: round"/>
   </g>
   <g id="line2d_59">
    <path d="M 459.07344 55.8 
L 463.44816 55.8 
" clip-path="url(#pac547135f4)" style="fill: none; stroke: #ee854a; stroke-width: 1.5; stroke-linecap: round"/>
   </g>
   <g id="line2d_60"/>
   <g id="line2d_61">
    <path d="M 112.26528 251.759349 
L 121.01472 251.759349 
L 121.01472 248.410925 
L 112.26528 248.410925 
L 112.26528 251.759349 
" clip-path="url(#pac547135f4)" style="fill: none; stroke: #6acc64; stroke-width: 1.5; stroke-linecap: round"/>
   </g>
   <g id="line2d_62">
    <path d="M 116.64 251.759349 
L 116.64 254.470242 
" clip-path="url(#pac547135f4)" style="fill: none; stroke: #6acc64; stroke-width: 1.5"/>
   </g>
   <g id="line2d_63">
    <path d="M 116.64 248.410925 
L 116.64 244.773655 
" clip-path="url(#pac547135f4)" style="fill: none; stroke: #6acc64; stroke-width: 1.5"/>
   </g>
   <g id="line2d_64">
    <path d="M 114.45264 254.470242 
L 118.82736 254.470242 
" clip-path="url(#pac547135f4)" style="fill: none; stroke: #6acc64; stroke-width: 1.5; stroke-linecap: round"/>
   </g>
   <g id="line2d_65">
    <path d="M 114.45264 244.773655 
L 118.82736 244.773655 
" clip-path="url(#pac547135f4)" style="fill: none; stroke: #6acc64; stroke-width: 1.5; stroke-linecap: round"/>
   </g>
   <g id="line2d_66"/>
   <g id="line2d_67">
    <path d="M 201.54528 212.941024 
L 210.29472 212.941024 
L 210.29472 173.173977 
L 201.54528 173.173977 
L 201.54528 212.941024 
" clip-path="url(#pac547135f4)" style="fill: none; stroke: #6acc64; stroke-width: 1.5; stroke-linecap: round"/>
   </g>
   <g id="line2d_68">
    <path d="M 205.92 212.941024 
L 205.92 219.508511 
" clip-path="url(#pac547135f4)" style="fill: none; stroke: #6acc64; stroke-width: 1.5"/>
   </g>
   <g id="line2d_69">
    <path d="M 205.92 173.173977 
L 205.92 165.932109 
" clip-path="url(#pac547135f4)" style="fill: none; stroke: #6acc64; stroke-width: 1.5"/>
   </g>
   <g id="line2d_70">
    <path d="M 203.73264 219.508511 
L 208.10736 219.508511 
" clip-path="url(#pac547135f4)" style="fill: none; stroke: #6acc64; stroke-width: 1.5; stroke-linecap: round"/>
   </g>
   <g id="line2d_71">
    <path d="M 203.73264 165.932109 
L 208.10736 165.932109 
" clip-path="url(#pac547135f4)" style="fill: none; stroke: #6acc64; stroke-width: 1.5; stroke-linecap: round"/>
   </g>
   <g id="line2d_72"/>
   <g id="line2d_73">
    <path d="M 290.82528 175.144508 
L 299.57472 175.144508 
L 299.57472 98.795648 
L 290.82528 98.795648 
L 290.82528 175.144508 
" clip-path="url(#pac547135f4)" style="fill: none; stroke: #6acc64; stroke-width: 1.5; stroke-linecap: round"/>
   </g>
   <g id="line2d_74">
    <path d="M 295.2 175.144508 
L 295.2 191.189141 
" clip-path="url(#pac547135f4)" style="fill: none; stroke: #6acc64; stroke-width: 1.5"/>
   </g>
   <g id="line2d_75">
    <path d="M 295.2 98.795648 
L 295.2 83.52309 
" clip-path="url(#pac547135f4)" style="fill: none; stroke: #6acc64; stroke-width: 1.5"/>
   </g>
   <g id="line2d_76">
    <path d="M 293.01264 191.189141 
L 297.38736 191.189141 
" clip-path="url(#pac547135f4)" style="fill: none; stroke: #6acc64; stroke-width: 1.5; stroke-linecap: round"/>
   </g>
   <g id="line2d_77">
    <path d="M 293.01264 83.52309 
L 297.38736 83.52309 
" clip-path="url(#pac547135f4)" style="fill: none; stroke: #6acc64; stroke-width: 1.5; stroke-linecap: round"/>
   </g>
   <g id="line2d_78"/>
   <g id="line2d_79">
    <path d="M 380.10528 206.861929 
L 388.85472 206.861929 
L 388.85472 201.575058 
L 380.10528 201.575058 
L 380.10528 206.861929 
" clip-path="url(#pac547135f4)" style="fill: none; stroke: #6acc64; stroke-width: 1.5; stroke-linecap: round"/>
   </g>
   <g id="line2d_80">
    <path d="M 384.48 206.861929 
L 384.48 209.351828 
" clip-path="url(#pac547135f4)" style="fill: none; stroke: #6acc64; stroke-width: 1.5"/>
   </g>
   <g id="line2d_81">
    <path d="M 384.48 201.575058 
L 384.48 201.575058 
" clip-path="url(#pac547135f4)" style="fill: none; stroke: #6acc64; stroke-width: 1.5"/>
   </g>
   <g id="line2d_82">
    <path d="M 382.29264 209.351828 
L 386.66736 209.351828 
" clip-path="url(#pac547135f4)" style="fill: none; stroke: #6acc64; stroke-width: 1.5; stroke-linecap: round"/>
   </g>
   <g id="line2d_83">
    <path d="M 382.29264 201.575058 
L 386.66736 201.575058 
" clip-path="url(#pac547135f4)" style="fill: none; stroke: #6acc64; stroke-width: 1.5; stroke-linecap: round"/>
   </g>
   <g id="line2d_84">
    <defs>
     <path id="md45b40e984" d="M 0 3 
C 0.795609 3 1.55874 2.683901 2.12132 2.12132 
C 2.683901 1.55874 3 0.795609 3 0 
C 3 -0.795609 2.683901 -1.55874 2.12132 -2.12132 
C 1.55874 -2.683901 0.795609 -3 0 -3 
C -0.795609 -3 -1.55874 -2.683901 -2.12132 -2.12132 
C -2.683901 -1.55874 -3 -0.795609 -3 0 
C -3 0.795609 -2.683901 1.55874 -2.12132 2.12132 
C -1.55874 2.683901 -0.795609 3 0 3 
z
" style="stroke: #6acc64"/>
    </defs>
    <g clip-path="url(#pac547135f4)">
     <use xlink:href="#md45b40e984" x="384.48" y="189.438891" style="fill-opacity: 0; stroke: #6acc64"/>
    </g>
   </g>
   <g id="line2d_85">
    <path d="M 469.38528 59.5954 
L 478.13472 59.5954 
L 478.13472 55.8 
L 469.38528 55.8 
L 469.38528 59.5954 
" clip-path="url(#pac547135f4)" style="fill: none; stroke: #6acc64; stroke-width: 1.5; stroke-linecap: round"/>
   </g>
   <g id="line2d_86">
    <path d="M 473.76 59.5954 
L 473.76 59.5954 
" clip-path="url(#pac547135f4)" style="fill: none; stroke: #6acc64; stroke-width: 1.5"/>
   </g>
   <g id="line2d_87">
    <path d="M 473.76 55.8 
L 473.76 55.8 
" clip-path="url(#pac547135f4)" style="fill: none; stroke: #6acc64; stroke-width: 1.5"/>
   </g>
   <g id="line2d_88">
    <path d="M 471.57264 59.5954 
L 475.94736 59.5954 
" clip-path="url(#pac547135f4)" style="fill: none; stroke: #6acc64; stroke-width: 1.5; stroke-linecap: round"/>
   </g>
   <g id="line2d_89">
    <path d="M 471.57264 55.8 
L 475.94736 55.8 
" clip-path="url(#pac547135f4)" style="fill: none; stroke: #6acc64; stroke-width: 1.5; stroke-linecap: round"/>
   </g>
   <g id="line2d_90">
    <g clip-path="url(#pac547135f4)">
     <use xlink:href="#md45b40e984" x="473.76" y="76.575225" style="fill-opacity: 0; stroke: #6acc64"/>
    </g>
   </g>
   <g id="line2d_91">
    <path d="M 124.76448 248.307309 
L 133.51392 248.307309 
L 133.51392 234.287466 
L 124.76448 234.287466 
L 124.76448 248.307309 
" clip-path="url(#pac547135f4)" style="fill: none; stroke: #d65f5f; stroke-width: 1.5; stroke-linecap: round"/>
   </g>
   <g id="line2d_92">
    <path d="M 129.1392 248.307309 
L 129.1392 260.540062 
" clip-path="url(#pac547135f4)" style="fill: none; stroke: #d65f5f; stroke-width: 1.5"/>
   </g>
   <g id="line2d_93">
    <path d="M 129.1392 234.287466 
L 129.1392 215.336221 
" clip-path="url(#pac547135f4)" style="fill: none; stroke: #d65f5f; stroke-width: 1.5"/>
   </g>
   <g id="line2d_94">
    <path d="M 126.95184 260.540062 
L 131.32656 260.540062 
" clip-path="url(#pac547135f4)" style="fill: none; stroke: #d65f5f; stroke-width: 1.5; stroke-linecap: round"/>
   </g>
   <g id="line2d_95">
    <path d="M 126.95184 215.336221 
L 131.32656 215.336221 
" clip-path="url(#pac547135f4)" style="fill: none; stroke: #d65f5f; stroke-width: 1.5; stroke-linecap: round"/>
   </g>
   <g id="line2d_96"/>
   <g id="line2d_97">
    <path d="M 214.04448 216.463437 
L 222.79392 216.463437 
L 222.79392 203.405412 
L 214.04448 203.405412 
L 214.04448 216.463437 
" clip-path="url(#pac547135f4)" style="fill: none; stroke: #d65f5f; stroke-width: 1.5; stroke-linecap: round"/>
   </g>
   <g id="line2d_98">
    <path d="M 218.4192 216.463437 
L 218.4192 232.751746 
" clip-path="url(#pac547135f4)" style="fill: none; stroke: #d65f5f; stroke-width: 1.5"/>
   </g>
   <g id="line2d_99">
    <path d="M 218.4192 203.405412 
L 218.4192 188.361441 
" clip-path="url(#pac547135f4)" style="fill: none; stroke: #d65f5f; stroke-width: 1.5"/>
   </g>
   <g id="line2d_100">
    <path d="M 216.23184 232.751746 
L 220.60656 232.751746 
" clip-path="url(#pac547135f4)" style="fill: none; stroke: #d65f5f; stroke-width: 1.5; stroke-linecap: round"/>
   </g>
   <g id="line2d_101">
    <path d="M 216.23184 188.361441 
L 220.60656 188.361441 
" clip-path="url(#pac547135f4)" style="fill: none; stroke: #d65f5f; stroke-width: 1.5; stroke-linecap: round"/>
   </g>
   <g id="line2d_102"/>
   <g id="line2d_103">
    <path d="M 303.32448 170.695322 
L 312.07392 170.695322 
L 312.07392 158.281464 
L 303.32448 158.281464 
L 303.32448 170.695322 
" clip-path="url(#pac547135f4)" style="fill: none; stroke: #d65f5f; stroke-width: 1.5; stroke-linecap: round"/>
   </g>
   <g id="line2d_104">
    <path d="M 307.6992 170.695322 
L 307.6992 170.695322 
" clip-path="url(#pac547135f4)" style="fill: none; stroke: #d65f5f; stroke-width: 1.5"/>
   </g>
   <g id="line2d_105">
    <path d="M 307.6992 158.281464 
L 307.6992 156.726476 
" clip-path="url(#pac547135f4)" style="fill: none; stroke: #d65f5f; stroke-width: 1.5"/>
   </g>
   <g id="line2d_106">
    <path d="M 305.51184 170.695322 
L 309.88656 170.695322 
" clip-path="url(#pac547135f4)" style="fill: none; stroke: #d65f5f; stroke-width: 1.5; stroke-linecap: round"/>
   </g>
   <g id="line2d_107">
    <path d="M 305.51184 156.726476 
L 309.88656 156.726476 
" clip-path="url(#pac547135f4)" style="fill: none; stroke: #d65f5f; stroke-width: 1.5; stroke-linecap: round"/>
   </g>
   <g id="line2d_108">
    <defs>
     <path id="m299d0b63d7" d="M 0 3 
C 0.795609 3 1.55874 2.683901 2.12132 2.12132 
C 2.683901 1.55874 3 0.795609 3 0 
C 3 -0.795609 2.683901 -1.55874 2.12132 -2.12132 
C 1.55874 -2.683901 0.795609 -3 0 -3 
C -0.795609 -3 -1.55874 -2.683901 -2.12132 -2.12132 
C -2.683901 -1.55874 -3 -0.795609 -3 0 
C -3 0.795609 -2.683901 1.55874 -2.12132 2.12132 
C -1.55874 2.683901 -0.795609 3 0 3 
z
" style="stroke: #d65f5f"/>
    </defs>
    <g clip-path="url(#pac547135f4)">
     <use xlink:href="#m299d0b63d7" x="307.6992" y="200.783885" style="fill-opacity: 0; stroke: #d65f5f"/>
    </g>
   </g>
   <g id="line2d_109">
    <path d="M 392.60448 196.034487 
L 401.35392 196.034487 
L 401.35392 154.241031 
L 392.60448 154.241031 
L 392.60448 196.034487 
" clip-path="url(#pac547135f4)" style="fill: none; stroke: #d65f5f; stroke-width: 1.5; stroke-linecap: round"/>
   </g>
   <g id="line2d_110">
    <path d="M 396.9792 196.034487 
L 396.9792 230.824128 
" clip-path="url(#pac547135f4)" style="fill: none; stroke: #d65f5f; stroke-width: 1.5"/>
   </g>
   <g id="line2d_111">
    <path d="M 396.9792 154.241031 
L 396.9792 139.718015 
" clip-path="url(#pac547135f4)" style="fill: none; stroke: #d65f5f; stroke-width: 1.5"/>
   </g>
   <g id="line2d_112">
    <path d="M 394.79184 230.824128 
L 399.16656 230.824128 
" clip-path="url(#pac547135f4)" style="fill: none; stroke: #d65f5f; stroke-width: 1.5; stroke-linecap: round"/>
   </g>
   <g id="line2d_113">
    <path d="M 394.79184 139.718015 
L 399.16656 139.718015 
" clip-path="url(#pac547135f4)" style="fill: none; stroke: #d65f5f; stroke-width: 1.5; stroke-linecap: round"/>
   </g>
   <g id="line2d_114"/>
   <g id="line2d_115">
    <path d="M 481.88448 55.8 
L 490.63392 55.8 
L 490.63392 55.8 
L 481.88448 55.8 
L 481.88448 55.8 
" clip-path="url(#pac547135f4)" style="fill: none; stroke: #d65f5f; stroke-width: 1.5; stroke-linecap: round"/>
   </g>
   <g id="line2d_116">
    <path d="M 486.2592 55.8 
L 486.2592 55.8 
" clip-path="url(#pac547135f4)" style="fill: none; stroke: #d65f5f; stroke-width: 1.5"/>
   </g>
   <g id="line2d_117">
    <path d="M 486.2592 55.8 
L 486.2592 55.8 
" clip-path="url(#pac547135f4)" style="fill: none; stroke: #d65f5f; stroke-width: 1.5"/>
   </g>
   <g id="line2d_118">
    <path d="M 484.07184 55.8 
L 488.44656 55.8 
" clip-path="url(#pac547135f4)" style="fill: none; stroke: #d65f5f; stroke-width: 1.5; stroke-linecap: round"/>
   </g>
   <g id="line2d_119">
    <path d="M 484.07184 55.8 
L 488.44656 55.8 
" clip-path="url(#pac547135f4)" style="fill: none; stroke: #d65f5f; stroke-width: 1.5; stroke-linecap: round"/>
   </g>
   <g id="line2d_120">
    <g clip-path="url(#pac547135f4)">
     <use xlink:href="#m299d0b63d7" x="486.2592" y="238.675297" style="fill-opacity: 0; stroke: #d65f5f"/>
    </g>
   </g>
   <g id="line2d_121">
    <path d="M 137.26368 261.902905 
L 146.01312 261.902905 
L 146.01312 224.498068 
L 137.26368 224.498068 
L 137.26368 261.902905 
" clip-path="url(#pac547135f4)" style="fill: none; stroke: #956cb4; stroke-width: 1.5; stroke-linecap: round"/>
   </g>
   <g id="line2d_122">
    <path d="M 141.6384 261.902905 
L 141.6384 307.8 
" clip-path="url(#pac547135f4)" style="fill: none; stroke: #956cb4; stroke-width: 1.5"/>
   </g>
   <g id="line2d_123">
    <path d="M 141.6384 224.498068 
L 141.6384 221.599814 
" clip-path="url(#pac547135f4)" style="fill: none; stroke: #956cb4; stroke-width: 1.5"/>
   </g>
   <g id="line2d_124">
    <path d="M 139.45104 307.8 
L 143.82576 307.8 
" clip-path="url(#pac547135f4)" style="fill: none; stroke: #956cb4; stroke-width: 1.5; stroke-linecap: round"/>
   </g>
   <g id="line2d_125">
    <path d="M 139.45104 221.599814 
L 143.82576 221.599814 
" clip-path="url(#pac547135f4)" style="fill: none; stroke: #956cb4; stroke-width: 1.5; stroke-linecap: round"/>
   </g>
   <g id="line2d_126"/>
   <g id="line2d_127">
    <path d="M 226.54368 228.415127 
L 235.29312 228.415127 
L 235.29312 225.294993 
L 226.54368 225.294993 
L 226.54368 228.415127 
" clip-path="url(#pac547135f4)" style="fill: none; stroke: #956cb4; stroke-width: 1.5; stroke-linecap: round"/>
   </g>
   <g id="line2d_128">
    <path d="M 230.9184 228.415127 
L 230.9184 232.070198 
" clip-path="url(#pac547135f4)" style="fill: none; stroke: #956cb4; stroke-width: 1.5"/>
   </g>
   <g id="line2d_129">
    <path d="M 230.9184 225.294993 
L 230.9184 225.294993 
" clip-path="url(#pac547135f4)" style="fill: none; stroke: #956cb4; stroke-width: 1.5"/>
   </g>
   <g id="line2d_130">
    <path d="M 228.73104 232.070198 
L 233.10576 232.070198 
" clip-path="url(#pac547135f4)" style="fill: none; stroke: #956cb4; stroke-width: 1.5; stroke-linecap: round"/>
   </g>
   <g id="line2d_131">
    <path d="M 228.73104 225.294993 
L 233.10576 225.294993 
" clip-path="url(#pac547135f4)" style="fill: none; stroke: #956cb4; stroke-width: 1.5; stroke-linecap: round"/>
   </g>
   <g id="line2d_132">
    <defs>
     <path id="m764ad69b86" d="M 0 3 
C 0.795609 3 1.55874 2.683901 2.12132 2.12132 
C 2.683901 1.55874 3 0.795609 3 0 
C 3 -0.795609 2.683901 -1.55874 2.12132 -2.12132 
C 1.55874 -2.683901 0.795609 -3 0 -3 
C -0.795609 -3 -1.55874 -2.683901 -2.12132 -2.12132 
C -2.683901 -1.55874 -3 -0.795609 -3 0 
C -3 0.795609 -2.683901 1.55874 -2.12132 2.12132 
C -1.55874 2.683901 -0.795609 3 0 3 
z
" style="stroke: #956cb4"/>
    </defs>
    <g clip-path="url(#pac547135f4)">
     <use xlink:href="#m764ad69b86" x="230.9184" y="217.71101" style="fill-opacity: 0; stroke: #956cb4"/>
    </g>
   </g>
   <g id="line2d_133">
    <path d="M 315.82368 135.330635 
L 324.57312 135.330635 
L 324.57312 125.550673 
L 315.82368 125.550673 
L 315.82368 135.330635 
" clip-path="url(#pac547135f4)" style="fill: none; stroke: #956cb4; stroke-width: 1.5; stroke-linecap: round"/>
   </g>
   <g id="line2d_134">
    <path d="M 320.1984 135.330635 
L 320.1984 135.330635 
" clip-path="url(#pac547135f4)" style="fill: none; stroke: #956cb4; stroke-width: 1.5"/>
   </g>
   <g id="line2d_135">
    <path d="M 320.1984 125.550673 
L 320.1984 125.00628 
" clip-path="url(#pac547135f4)" style="fill: none; stroke: #956cb4; stroke-width: 1.5"/>
   </g>
   <g id="line2d_136">
    <path d="M 318.01104 135.330635 
L 322.38576 135.330635 
" clip-path="url(#pac547135f4)" style="fill: none; stroke: #956cb4; stroke-width: 1.5; stroke-linecap: round"/>
   </g>
   <g id="line2d_137">
    <path d="M 318.01104 125.00628 
L 322.38576 125.00628 
" clip-path="url(#pac547135f4)" style="fill: none; stroke: #956cb4; stroke-width: 1.5; stroke-linecap: round"/>
   </g>
   <g id="line2d_138">
    <g clip-path="url(#pac547135f4)">
     <use xlink:href="#m764ad69b86" x="320.1984" y="150.250843" style="fill-opacity: 0; stroke: #956cb4"/>
    </g>
   </g>
   <g id="line2d_139">
    <path d="M 405.10368 178.437479 
L 413.85312 178.437479 
L 413.85312 112.534668 
L 405.10368 112.534668 
L 405.10368 178.437479 
" clip-path="url(#pac547135f4)" style="fill: none; stroke: #956cb4; stroke-width: 1.5; stroke-linecap: round"/>
   </g>
   <g id="line2d_140">
    <path d="M 409.4784 178.437479 
L 409.4784 181.230328 
" clip-path="url(#pac547135f4)" style="fill: none; stroke: #956cb4; stroke-width: 1.5"/>
   </g>
   <g id="line2d_141">
    <path d="M 409.4784 112.534668 
L 409.4784 86.248488 
" clip-path="url(#pac547135f4)" style="fill: none; stroke: #956cb4; stroke-width: 1.5"/>
   </g>
   <g id="line2d_142">
    <path d="M 407.29104 181.230328 
L 411.66576 181.230328 
" clip-path="url(#pac547135f4)" style="fill: none; stroke: #956cb4; stroke-width: 1.5; stroke-linecap: round"/>
   </g>
   <g id="line2d_143">
    <path d="M 407.29104 86.248488 
L 411.66576 86.248488 
" clip-path="url(#pac547135f4)" style="fill: none; stroke: #956cb4; stroke-width: 1.5; stroke-linecap: round"/>
   </g>
   <g id="line2d_144"/>
   <g id="line2d_145">
    <path d="M 494.38368 55.8 
L 503.13312 55.8 
L 503.13312 55.8 
L 494.38368 55.8 
L 494.38368 55.8 
" clip-path="url(#pac547135f4)" style="fill: none; stroke: #956cb4; stroke-width: 1.5; stroke-linecap: round"/>
   </g>
   <g id="line2d_146">
    <path d="M 498.7584 55.8 
L 498.7584 55.8 
" clip-path="url(#pac547135f4)" style="fill: none; stroke: #956cb4; stroke-width: 1.5"/>
   </g>
   <g id="line2d_147">
    <path d="M 498.7584 55.8 
L 498.7584 55.8 
" clip-path="url(#pac547135f4)" style="fill: none; stroke: #956cb4; stroke-width: 1.5"/>
   </g>
   <g id="line2d_148">
    <path d="M 496.57104 55.8 
L 500.94576 55.8 
" clip-path="url(#pac547135f4)" style="fill: none; stroke: #956cb4; stroke-width: 1.5; stroke-linecap: round"/>
   </g>
   <g id="line2d_149">
    <path d="M 496.57104 55.8 
L 500.94576 55.8 
" clip-path="url(#pac547135f4)" style="fill: none; stroke: #956cb4; stroke-width: 1.5; stroke-linecap: round"/>
   </g>
   <g id="line2d_150">
    <g clip-path="url(#pac547135f4)">
     <use xlink:href="#m764ad69b86" x="498.7584" y="258.766199" style="fill-opacity: 0; stroke: #956cb4"/>
    </g>
   </g>
   <g id="line2d_151">
    <path d="M 87.26688 55.8 
L 96.01632 55.8 
" clip-path="url(#pac547135f4)" style="fill: none; stroke: #4878d0; stroke-width: 1.5"/>
   </g>
   <g id="line2d_152">
    <path d="M 176.54688 55.8 
L 185.29632 55.8 
" clip-path="url(#pac547135f4)" style="fill: none; stroke: #4878d0; stroke-width: 1.5"/>
   </g>
   <g id="line2d_153">
    <path d="M 265.82688 55.8 
L 274.57632 55.8 
" clip-path="url(#pac547135f4)" style="fill: none; stroke: #4878d0; stroke-width: 1.5"/>
   </g>
   <g id="line2d_154">
    <path d="M 355.10688 55.8 
L 363.85632 55.8 
" clip-path="url(#pac547135f4)" style="fill: none; stroke: #4878d0; stroke-width: 1.5"/>
   </g>
   <g id="line2d_155">
    <path d="M 444.38688 55.8 
L 453.13632 55.8 
" clip-path="url(#pac547135f4)" style="fill: none; stroke: #4878d0; stroke-width: 1.5"/>
   </g>
   <g id="line2d_156">
    <path d="M 99.76608 231.117823 
L 108.51552 231.117823 
" clip-path="url(#pac547135f4)" style="fill: none; stroke: #ee854a; stroke-width: 1.5"/>
   </g>
   <g id="line2d_157">
    <path d="M 189.04608 202.200139 
L 197.79552 202.200139 
" clip-path="url(#pac547135f4)" style="fill: none; stroke: #ee854a; stroke-width: 1.5"/>
   </g>
   <g id="line2d_158">
    <path d="M 278.32608 165.780333 
L 287.07552 165.780333 
" clip-path="url(#pac547135f4)" style="fill: none; stroke: #ee854a; stroke-width: 1.5"/>
   </g>
   <g id="line2d_159">
    <path d="M 367.60608 103.570804 
L 376.35552 103.570804 
" clip-path="url(#pac547135f4)" style="fill: none; stroke: #ee854a; stroke-width: 1.5"/>
   </g>
   <g id="line2d_160">
    <path d="M 456.88608 215.733761 
L 465.63552 215.733761 
" clip-path="url(#pac547135f4)" style="fill: none; stroke: #ee854a; stroke-width: 1.5"/>
   </g>
   <g id="line2d_161">
    <path d="M 112.26528 250.239533 
L 121.01472 250.239533 
" clip-path="url(#pac547135f4)" style="fill: none; stroke: #6acc64; stroke-width: 1.5"/>
   </g>
   <g id="line2d_162">
    <path d="M 201.54528 203.561214 
L 210.29472 203.561214 
" clip-path="url(#pac547135f4)" style="fill: none; stroke: #6acc64; stroke-width: 1.5"/>
   </g>
   <g id="line2d_163">
    <path d="M 290.82528 159.345935 
L 299.57472 159.345935 
" clip-path="url(#pac547135f4)" style="fill: none; stroke: #6acc64; stroke-width: 1.5"/>
   </g>
   <g id="line2d_164">
    <path d="M 380.10528 201.987083 
L 388.85472 201.987083 
" clip-path="url(#pac547135f4)" style="fill: none; stroke: #6acc64; stroke-width: 1.5"/>
   </g>
   <g id="line2d_165">
    <path d="M 469.38528 55.8 
L 478.13472 55.8 
" clip-path="url(#pac547135f4)" style="fill: none; stroke: #6acc64; stroke-width: 1.5"/>
   </g>
   <g id="line2d_166">
    <path d="M 124.76448 242.417136 
L 133.51392 242.417136 
" clip-path="url(#pac547135f4)" style="fill: none; stroke: #d65f5f; stroke-width: 1.5"/>
   </g>
   <g id="line2d_167">
    <path d="M 214.04448 204.086039 
L 222.79392 204.086039 
" clip-path="url(#pac547135f4)" style="fill: none; stroke: #d65f5f; stroke-width: 1.5"/>
   </g>
   <g id="line2d_168">
    <path d="M 303.32448 163.614037 
L 312.07392 163.614037 
" clip-path="url(#pac547135f4)" style="fill: none; stroke: #d65f5f; stroke-width: 1.5"/>
   </g>
   <g id="line2d_169">
    <path d="M 392.60448 194.847738 
L 401.35392 194.847738 
" clip-path="url(#pac547135f4)" style="fill: none; stroke: #d65f5f; stroke-width: 1.5"/>
   </g>
   <g id="line2d_170">
    <path d="M 481.88448 55.8 
L 490.63392 55.8 
" clip-path="url(#pac547135f4)" style="fill: none; stroke: #d65f5f; stroke-width: 1.5"/>
   </g>
   <g id="line2d_171">
    <path d="M 137.26368 237.682898 
L 146.01312 237.682898 
" clip-path="url(#pac547135f4)" style="fill: none; stroke: #956cb4; stroke-width: 1.5"/>
   </g>
   <g id="line2d_172">
    <path d="M 226.54368 225.472785 
L 235.29312 225.472785 
" clip-path="url(#pac547135f4)" style="fill: none; stroke: #956cb4; stroke-width: 1.5"/>
   </g>
   <g id="line2d_173">
    <path d="M 315.82368 129.758988 
L 324.57312 129.758988 
" clip-path="url(#pac547135f4)" style="fill: none; stroke: #956cb4; stroke-width: 1.5"/>
   </g>
   <g id="line2d_174">
    <path d="M 405.10368 152.249487 
L 413.85312 152.249487 
" clip-path="url(#pac547135f4)" style="fill: none; stroke: #956cb4; stroke-width: 1.5"/>
   </g>
   <g id="line2d_175">
    <path d="M 494.38368 55.8 
L 503.13312 55.8 
" clip-path="url(#pac547135f4)" style="fill: none; stroke: #956cb4; stroke-width: 1.5"/>
   </g>
   <g id="patch_3">
    <path d="M 72 320.4 
L 72 43.2 
" style="fill: none; stroke: #cccccc; stroke-width: 1.25; stroke-linejoin: miter; stroke-linecap: square"/>
   </g>
   <g id="patch_4">
    <path d="M 518.4 320.4 
L 518.4 43.2 
" style="fill: none; stroke: #cccccc; stroke-width: 1.25; stroke-linejoin: miter; stroke-linecap: square"/>
   </g>
   <g id="patch_5">
    <path d="M 72 320.4 
L 518.4 320.4 
" style="fill: none; stroke: #cccccc; stroke-width: 1.25; stroke-linejoin: miter; stroke-linecap: square"/>
   </g>
   <g id="patch_6">
    <path d="M 72 43.2 
L 518.4 43.2 
" style="fill: none; stroke: #cccccc; stroke-width: 1.25; stroke-linejoin: miter; stroke-linecap: square"/>
   </g>
  </g>
 </g>
 <defs>
  <clipPath id="pac547135f4">
   <rect x="72" y="43.2" width="446.4" height="277.2"/>
  </clipPath>
 </defs>
</svg>
