<?xml version="1.0" encoding="utf-8" standalone="no"?>
<!DOCTYPE svg PUBLIC "-//W3C//DTD SVG 1.1//EN"
  "http://www.w3.org/Graphics/SVG/1.1/DTD/svg11.dtd">
<svg xmlns:xlink="http://www.w3.org/1999/xlink" width="424.998125pt" height="180.72pt" viewBox="0 0 424.998125 180.72" xmlns="http://www.w3.org/2000/svg" version="1.1">
 <metadata>
  <rdf:RDF xmlns:dc="http://purl.org/dc/elements/1.1/" xmlns:cc="http://creativecommons.org/ns#" xmlns:rdf="http://www.w3.org/1999/02/22-rdf-syntax-ns#">
   <cc:Work>
    <dc:type rdf:resource="http://purl.org/dc/dcmitype/StillImage"/>
    <dc:date>2024-11-11T13:12:15.333205</dc:date>
    <dc:format>image/svg+xml</dc:format>
    <dc:creator>
     <cc:Agent>
      <dc:title>Matplotlib v3.9.2, https://matplotlib.org/</dc:title>
     </cc:Agent>
    </dc:creator>
   </cc:Work>
  </rdf:RDF>
 </metadata>
 <defs>
  <style type="text/css">*{stroke-linejoin: round; stroke-linecap: butt}</style>
 </defs>
 <g id="figure_1">
  <g id="patch_1">
   <path d="M 0 180.72 
L 424.998125 180.72 
L 424.998125 0 
L 0 0 
z
" style="fill: #ffffff"/>
  </g>
  <g id="axes_1">
   <g id="patch_2">
    <path d="M 27.198125 173.52 
L 417.798125 173.52 
L 417.798125 7.2 
L 27.198125 7.2 
z
" style="fill: #ffffff"/>
   </g>
   <g id="matplotlib.axis_1"/>
   <g id="matplotlib.axis_2">
    <g id="ytick_1">
     <g id="text_1">
      <!-- 2 -->
      <g style="fill: #262626" transform="translate(7.2 149.867332) scale(0.165 -0.165)">
       <defs>
        <path id="DejaVuSans-32" d="M 1228 531 
L 3431 531 
L 3431 0 
L 469 0 
L 469 531 
Q 828 903 1448 1529 
Q 2069 2156 2228 2338 
Q 2531 2678 2651 2914 
Q 2772 3150 2772 3378 
Q 2772 3750 2511 3984 
Q 2250 4219 1831 4219 
Q 1534 4219 1204 4116 
Q 875 4013 500 3803 
L 500 4441 
Q 881 4594 1212 4672 
Q 1544 4750 1819 4750 
Q 2544 4750 2975 4387 
Q 3406 4025 3406 3419 
Q 3406 3131 3298 2873 
Q 3191 2616 2906 2266 
Q 2828 2175 2409 1742 
Q 1991 1309 1228 531 
z
" transform="scale(0.015625)"/>
       </defs>
       <use xlink:href="#DejaVuSans-32"/>
      </g>
     </g>
    </g>
    <g id="ytick_2">
     <g id="text_2">
      <!-- 4 -->
      <g style="fill: #262626" transform="translate(7.2 103.522504) scale(0.165 -0.165)">
       <defs>
        <path id="DejaVuSans-34" d="M 2419 4116 
L 825 1625 
L 2419 1625 
L 2419 4116 
z
M 2253 4666 
L 3047 4666 
L 3047 1625 
L 3713 1625 
L 3713 1100 
L 3047 1100 
L 3047 0 
L 2419 0 
L 2419 1100 
L 313 1100 
L 313 1709 
L 2253 4666 
z
" transform="scale(0.015625)"/>
       </defs>
       <use xlink:href="#DejaVuSans-34"/>
      </g>
     </g>
    </g>
    <g id="ytick_3">
     <g id="text_3">
      <!-- 6 -->
      <g style="fill: #262626" transform="translate(7.2 57.177676) scale(0.165 -0.165)">
       <defs>
        <path id="DejaVuSans-36" d="M 2113 2584 
Q 1688 2584 1439 2293 
Q 1191 2003 1191 1497 
Q 1191 994 1439 701 
Q 1688 409 2113 409 
Q 2538 409 2786 701 
Q 3034 994 3034 1497 
Q 3034 2003 2786 2293 
Q 2538 2584 2113 2584 
z
M 3366 4563 
L 3366 3988 
Q 3128 4100 2886 4159 
Q 2644 4219 2406 4219 
Q 1781 4219 1451 3797 
Q 1122 3375 1075 2522 
Q 1259 2794 1537 2939 
Q 1816 3084 2150 3084 
Q 2853 3084 3261 2657 
Q 3669 2231 3669 1497 
Q 3669 778 3244 343 
Q 2819 -91 2113 -91 
Q 1303 -91 875 529 
Q 447 1150 447 2328 
Q 447 3434 972 4092 
Q 1497 4750 2381 4750 
Q 2619 4750 2861 4703 
Q 3103 4656 3366 4563 
z
" transform="scale(0.015625)"/>
       </defs>
       <use xlink:href="#DejaVuSans-36"/>
      </g>
     </g>
    </g>
   </g>
   <g id="patch_3">
    <path d="M 27.198125 173.52 
L 27.198125 7.2 
" style="fill: none; stroke: #cccccc; stroke-width: 1.25; stroke-linejoin: miter; stroke-linecap: square"/>
   </g>
   <g id="patch_4">
    <path d="M 417.798125 173.52 
L 417.798125 7.2 
" style="fill: none; stroke: #cccccc; stroke-width: 1.25; stroke-linejoin: miter; stroke-linecap: square"/>
   </g>
   <g id="patch_5">
    <path d="M 27.198125 173.52 
L 417.798125 173.52 
" style="fill: none; stroke: #cccccc; stroke-width: 1.25; stroke-linejoin: miter; stroke-linecap: square"/>
   </g>
   <g id="patch_6">
    <path d="M 27.198125 7.2 
L 417.798125 7.2 
" style="fill: none; stroke: #cccccc; stroke-width: 1.25; stroke-linejoin: miter; stroke-linecap: square"/>
   </g>
   <g id="PathCollection_1">
    <defs>
     <path id="m6dd9ae05e8" d="M 0 2.5 
C 0.663008 2.5 1.29895 2.236584 1.767767 1.767767 
C 2.236584 1.29895 2.5 0.663008 2.5 0 
C 2.5 -0.663008 2.236584 -1.29895 1.767767 -1.767767 
C 1.29895 -2.236584 0.663008 -2.5 0 -2.5 
C -0.663008 -2.5 -1.29895 -2.236584 -1.767767 -1.767767 
C -2.236584 -1.29895 -2.5 -0.663008 -2.5 0 
C -2.5 0.663008 -2.236584 1.29895 -1.767767 1.767767 
C -1.29895 2.236584 -0.663008 2.5 0 2.5 
z
"/>
    </defs>
    <g clip-path="url(#pda137e0a01)">
     <use xlink:href="#m6dd9ae05e8" x="57.937892" y="25.766897"/>
     <use xlink:href="#m6dd9ae05e8" x="63.272607" y="17.270345"/>
     <use xlink:href="#m6dd9ae05e8" x="65.627938" y="17.656552"/>
     <use xlink:href="#m6dd9ae05e8" x="59.989166" y="14.76"/>
     <use xlink:href="#m6dd9ae05e8" x="58.981523" y="21.634483"/>
    </g>
   </g>
   <g id="PathCollection_2">
    <g clip-path="url(#pda137e0a01)">
     <use xlink:href="#m6dd9ae05e8" x="126.359769" y="130.158621"/>
     <use xlink:href="#m6dd9ae05e8" x="130.359458" y="132.244138"/>
     <use xlink:href="#m6dd9ae05e8" x="118.602693" y="131.278621"/>
     <use xlink:href="#m6dd9ae05e8" x="119.0095" y="132.051034"/>
     <use xlink:href="#m6dd9ae05e8" x="124.083364" y="130.622069"/>
    </g>
   </g>
   <g id="PathCollection_3">
    <g clip-path="url(#pda137e0a01)">
     <use xlink:href="#m6dd9ae05e8" x="188.273001" y="128.729655"/>
     <use xlink:href="#m6dd9ae05e8" x="191.522054" y="134.291034"/>
     <use xlink:href="#m6dd9ae05e8" x="185.834822" y="135.488276"/>
     <use xlink:href="#m6dd9ae05e8" x="195.459364" y="132.012414"/>
     <use xlink:href="#m6dd9ae05e8" x="190.724832" y="135.488276"/>
    </g>
   </g>
   <g id="PathCollection_4">
    <g clip-path="url(#pda137e0a01)">
     <use xlink:href="#m6dd9ae05e8" x="255.626447" y="104.321379"/>
     <use xlink:href="#m6dd9ae05e8" x="250.85792" y="108.222069"/>
     <use xlink:href="#m6dd9ae05e8" x="259.649233" y="104.668966"/>
     <use xlink:href="#m6dd9ae05e8" x="254.894642" y="106.006036"/>
     <use xlink:href="#m6dd9ae05e8" x="257.817676" y="107.181352"/>
    </g>
   </g>
   <g id="PathCollection_5">
    <g clip-path="url(#pda137e0a01)">
     <use xlink:href="#m6dd9ae05e8" x="319.761033" y="108.015295"/>
     <use xlink:href="#m6dd9ae05e8" x="316.499419" y="119.499151"/>
     <use xlink:href="#m6dd9ae05e8" x="326.338753" y="120.658342"/>
     <use xlink:href="#m6dd9ae05e8" x="315.574626" y="121.2912"/>
     <use xlink:href="#m6dd9ae05e8" x="313.871617" y="121.328768"/>
    </g>
   </g>
   <g id="PathCollection_6">
    <g clip-path="url(#pda137e0a01)">
     <use xlink:href="#m6dd9ae05e8" x="381.174711" y="165.612414"/>
     <use xlink:href="#m6dd9ae05e8" x="391.088899" y="165.96"/>
     <use xlink:href="#m6dd9ae05e8" x="389.990563" y="165.759607"/>
     <use xlink:href="#m6dd9ae05e8" x="386.818052" y="165.908714"/>
     <use xlink:href="#m6dd9ae05e8" x="382.084004" y="165.630794"/>
    </g>
   </g>
  </g>
 </g>
 <defs>
  <clipPath id="pda137e0a01">
   <rect x="27.198125" y="7.2" width="390.6" height="166.32"/>
  </clipPath>
 </defs>
</svg>
