<?xml version="1.0" encoding="utf-8" standalone="no"?>
<!DOCTYPE svg PUBLIC "-//W3C//DTD SVG 1.1//EN"
  "http://www.w3.org/Graphics/SVG/1.1/DTD/svg11.dtd">
<svg xmlns:xlink="http://www.w3.org/1999/xlink" width="460.8pt" height="345.6pt" viewBox="0 0 460.8 345.6" xmlns="http://www.w3.org/2000/svg" version="1.1">
 <metadata>
  <rdf:RDF xmlns:dc="http://purl.org/dc/elements/1.1/" xmlns:cc="http://creativecommons.org/ns#" xmlns:rdf="http://www.w3.org/1999/02/22-rdf-syntax-ns#">
   <cc:Work>
    <dc:type rdf:resource="http://purl.org/dc/dcmitype/StillImage"/>
    <dc:date>2024-06-22T22:00:33.419935</dc:date>
    <dc:format>image/svg+xml</dc:format>
    <dc:creator>
     <cc:Agent>
      <dc:title>Matplotlib v3.8.2, https://matplotlib.org/</dc:title>
     </cc:Agent>
    </dc:creator>
   </cc:Work>
  </rdf:RDF>
 </metadata>
 <defs>
  <style type="text/css">*{stroke-linejoin: round; stroke-linecap: butt}</style>
 </defs>
 <g id="figure_1">
  <g id="patch_1">
   <path d="M 0 345.6 
L 460.8 345.6 
L 460.8 0 
L 0 0 
L 0 345.6 
z
" style="fill: none"/>
  </g>
  <g id="axes_1">
   <g id="patch_2">
    <path d="M 57.6 307.584 
L 414.72 307.584 
L 414.72 41.472 
L 57.6 41.472 
L 57.6 307.584 
z
" style="fill: none"/>
   </g>
   <g id="PolyCollection_1">
    <defs>
     <path id="md82e748631" d="M 73.506265 -50.112 
L 71.41806 -50.112 
L 75.710513 -55.259234 
L 79.965549 -60.406468 
L 85.045996 -65.553702 
L 90.844773 -70.700936 
L 94.677433 -75.84817 
L 99.243253 -80.995404 
L 103.736816 -86.142638 
L 108.779874 -91.289872 
L 113.275353 -96.437106 
L 117.825288 -101.58434 
L 122.89754 -106.731574 
L 127.726447 -111.878809 
L 132.632143 -117.026043 
L 137.270247 -122.173277 
L 142.1522 -127.320511 
L 146.629009 -132.467745 
L 151.434643 -137.614979 
L 155.983463 -142.762213 
L 160.788483 -147.909447 
L 165.682102 -153.056681 
L 170.653892 -158.203915 
L 175.367752 -163.351149 
L 179.746853 -168.498383 
L 184.722939 -173.645617 
L 189.093892 -178.792851 
L 193.937019 -183.940085 
L 199.209041 -189.087319 
L 203.962067 -194.234553 
L 208.567151 -199.381787 
L 213.301976 -204.529021 
L 218.034941 -209.676255 
L 222.370114 -214.823489 
L 226.346061 -219.970723 
L 231.57566 -225.117957 
L 235.689797 -230.265191 
L 240.712247 -235.412426 
L 246.447872 -240.55966 
L 250.561888 -245.706894 
L 255.241905 -250.854128 
L 259.830857 -256.001362 
L 264.529843 -261.148596 
L 269.201989 -266.29583 
L 274.766846 -271.443064 
L 278.736361 -276.590298 
L 284.011192 -281.737532 
L 290.385545 -286.884766 
L 293.450182 -292.032 
L 298.824262 -292.032 
L 298.824262 -292.032 
L 296.574918 -286.884766 
L 289.329367 -281.737532 
L 284.53058 -276.590298 
L 280.13131 -271.443064 
L 275.332359 -266.29583 
L 270.336219 -261.148596 
L 265.159877 -256.001362 
L 260.028947 -250.854128 
L 255.89215 -245.706894 
L 251.495107 -240.55966 
L 246.33006 -235.412426 
L 241.465515 -230.265191 
L 236.8034 -225.117957 
L 231.859182 -219.970723 
L 227.319397 -214.823489 
L 222.547049 -209.676255 
L 218.077933 -204.529021 
L 213.151492 -199.381787 
L 208.201965 -194.234553 
L 203.445251 -189.087319 
L 198.754936 -183.940085 
L 193.715255 -178.792851 
L 189.012032 -173.645617 
L 184.059587 -168.498383 
L 179.327602 -163.351149 
L 174.615329 -158.203915 
L 169.988428 -153.056681 
L 165.333805 -147.909447 
L 161.39751 -142.762213 
L 155.377611 -137.614979 
L 150.640908 -132.467745 
L 145.85252 -127.320511 
L 140.800039 -122.173277 
L 135.770335 -117.026043 
L 130.578845 -111.878809 
L 125.750443 -106.731574 
L 120.776636 -101.58434 
L 116.377258 -96.437106 
L 112.871087 -91.289872 
L 107.019318 -86.142638 
L 102.163443 -80.995404 
L 97.398699 -75.84817 
L 92.85523 -70.700936 
L 87.640485 -65.553702 
L 82.36922 -60.406468 
L 78.197813 -55.259234 
L 73.506265 -50.112 
z
" style="stroke: #1f77b4; stroke-opacity: 0.2"/>
    </defs>
    <g clip-path="url(#p0b71bffdf2)">
     <use xlink:href="#md82e748631" x="0" y="345.6" style="fill: #1f77b4; fill-opacity: 0.2; stroke: #1f77b4; stroke-opacity: 0.2"/>
    </g>
   </g>
   <g id="PolyCollection_2">
    <defs>
     <path id="m35f2ff7973" d="M 97.872135 -50.112 
L 79.384592 -50.112 
L 85.045962 -55.259234 
L 89.71435 -60.406468 
L 95.589518 -65.553702 
L 99.37597 -70.700936 
L 105.770693 -75.84817 
L 109.523372 -80.995404 
L 115.973287 -86.142638 
L 120.712205 -91.289872 
L 125.358798 -96.437106 
L 129.980138 -101.58434 
L 134.899029 -106.731574 
L 139.346291 -111.878809 
L 144.299799 -117.026043 
L 149.073521 -122.173277 
L 153.863098 -127.320511 
L 159.454167 -132.467745 
L 163.317111 -137.614979 
L 168.842664 -142.762213 
L 173.211813 -147.909447 
L 178.103705 -153.056681 
L 183.328481 -158.203915 
L 188.125714 -163.351149 
L 192.91905 -168.498383 
L 197.865202 -173.645617 
L 202.91229 -178.792851 
L 208.441805 -183.940085 
L 212.806888 -189.087319 
L 217.493158 -194.234553 
L 222.008852 -199.381787 
L 228.3487 -204.529021 
L 232.599772 -209.676255 
L 237.271903 -214.823489 
L 242.779681 -219.970723 
L 246.866698 -225.117957 
L 252.745306 -230.265191 
L 258.785707 -235.412426 
L 262.107711 -240.55966 
L 267.361219 -245.706894 
L 272.230103 -250.854128 
L 276.195742 -256.001362 
L 280.757304 -261.148596 
L 285.812085 -266.29583 
L 290.884994 -271.443064 
L 296.635714 -276.590298 
L 300.114321 -281.737532 
L 305.784093 -286.884766 
L 310.365205 -292.032 
L 331.412156 -292.032 
L 331.412156 -292.032 
L 326.246085 -286.884766 
L 319.665374 -281.737532 
L 315.515354 -276.590298 
L 309.287125 -271.443064 
L 304.585501 -266.29583 
L 300.944749 -261.148596 
L 294.956916 -256.001362 
L 290.515526 -250.854128 
L 285.144237 -245.706894 
L 279.79835 -240.55966 
L 275.128193 -235.412426 
L 270.346947 -230.265191 
L 265.112084 -225.117957 
L 260.110349 -219.970723 
L 255.358152 -214.823489 
L 250.749641 -209.676255 
L 245.509357 -204.529021 
L 239.74323 -199.381787 
L 234.46802 -194.234553 
L 229.28744 -189.087319 
L 225.117046 -183.940085 
L 220.284986 -178.792851 
L 215.304112 -173.645617 
L 210.152854 -168.498383 
L 204.534602 -163.351149 
L 199.835727 -158.203915 
L 195.618816 -153.056681 
L 189.38145 -147.909447 
L 185.70941 -142.762213 
L 179.934076 -137.614979 
L 175.170296 -132.467745 
L 170.724354 -127.320511 
L 166.387236 -122.173277 
L 162.512835 -117.026043 
L 157.081646 -111.878809 
L 151.455108 -106.731574 
L 147.447657 -101.58434 
L 142.547823 -96.437106 
L 138.304441 -91.289872 
L 132.54564 -86.142638 
L 128.305086 -80.995404 
L 122.911238 -75.84817 
L 118.518911 -70.700936 
L 113.318976 -65.553702 
L 108.395947 -60.406468 
L 103.826362 -55.259234 
L 97.872135 -50.112 
z
" style="stroke: #ff7f0e; stroke-opacity: 0.2"/>
    </defs>
    <g clip-path="url(#p0b71bffdf2)">
     <use xlink:href="#m35f2ff7973" x="0" y="345.6" style="fill: #ff7f0e; fill-opacity: 0.2; stroke: #ff7f0e; stroke-opacity: 0.2"/>
    </g>
   </g>
   <g id="PolyCollection_3">
    <defs>
     <path id="m998a7ae5d5" d="M 128.956282 -50.112 
L 80.821109 -50.112 
L 87.848843 -55.259234 
L 93.937839 -60.406468 
L 99.313993 -65.553702 
L 109.374859 -70.700936 
L 115.182804 -75.84817 
L 120.35336 -80.995404 
L 126.333117 -86.142638 
L 129.652004 -91.289872 
L 138.142687 -96.437106 
L 140.957909 -101.58434 
L 146.834626 -106.731574 
L 152.487372 -111.878809 
L 156.891425 -117.026043 
L 162.269465 -122.173277 
L 167.271465 -127.320511 
L 175.128653 -132.467745 
L 181.458461 -137.614979 
L 184.840391 -142.762213 
L 190.485151 -147.909447 
L 194.280407 -153.056681 
L 202.223591 -158.203915 
L 209.12575 -163.351149 
L 212.795345 -168.498383 
L 216.815088 -173.645617 
L 220.970986 -178.792851 
L 226.757716 -183.940085 
L 231.445157 -189.087319 
L 240.317082 -194.234553 
L 244.633689 -199.381787 
L 249.409529 -204.529021 
L 255.800894 -209.676255 
L 258.82614 -214.823489 
L 266.202425 -219.970723 
L 270.829552 -225.117957 
L 274.158678 -230.265191 
L 284.304835 -235.412426 
L 289.105929 -240.55966 
L 292.514996 -245.706894 
L 299.193201 -250.854128 
L 304.995839 -256.001362 
L 310.418073 -261.148596 
L 315.951109 -266.29583 
L 319.723595 -271.443064 
L 329.331187 -276.590298 
L 337.888169 -281.737532 
L 342.135392 -286.884766 
L 347.049127 -292.032 
L 397.875516 -292.032 
L 397.875516 -292.032 
L 392.698558 -286.884766 
L 386.264417 -281.737532 
L 381.284344 -276.590298 
L 375.823013 -271.443064 
L 367.63251 -266.29583 
L 362.156167 -261.148596 
L 355.866765 -256.001362 
L 345.862361 -250.854128 
L 339.101872 -245.706894 
L 336.956776 -240.55966 
L 328.932938 -235.412426 
L 320.63812 -230.265191 
L 316.300985 -225.117957 
L 311.96537 -219.970723 
L 304.571678 -214.823489 
L 299.410328 -209.676255 
L 291.815143 -204.529021 
L 289.529116 -199.381787 
L 283.593259 -194.234553 
L 278.367434 -189.087319 
L 271.934914 -183.940085 
L 267.986855 -178.792851 
L 263.245421 -173.645617 
L 256.553382 -168.498383 
L 253.40295 -163.351149 
L 247.999367 -158.203915 
L 241.863574 -153.056681 
L 237.775071 -147.909447 
L 229.734178 -142.762213 
L 226.523021 -137.614979 
L 222.290586 -132.467745 
L 212.15263 -127.320511 
L 210.587 -122.173277 
L 205.435325 -117.026043 
L 197.436553 -111.878809 
L 191.591806 -106.731574 
L 182.616151 -101.58434 
L 181.99283 -96.437106 
L 175.76388 -91.289872 
L 170.026107 -86.142638 
L 163.51773 -80.995404 
L 158.395788 -75.84817 
L 150.154451 -70.700936 
L 144.540897 -65.553702 
L 138.141935 -60.406468 
L 131.80122 -55.259234 
L 128.956282 -50.112 
z
" style="stroke: #2ca02c; stroke-opacity: 0.2"/>
    </defs>
    <g clip-path="url(#p0b71bffdf2)">
     <use xlink:href="#m998a7ae5d5" x="0" y="345.6" style="fill: #2ca02c; fill-opacity: 0.2; stroke: #2ca02c; stroke-opacity: 0.2"/>
    </g>
   </g>
   <g id="matplotlib.axis_1">
    <g id="xtick_1">
     <g id="line2d_1">
      <defs>
       <path id="ma54abdefb4" d="M 0 0 
L 0 3.5 
" style="stroke: #000000; stroke-width: 0.8"/>
      </defs>
      <g>
       <use xlink:href="#ma54abdefb4" x="57.6" y="307.584" style="stroke: #000000; stroke-width: 0.8"/>
      </g>
     </g>
     <g id="text_1">
      <!-- 0 -->
      <g transform="translate(54.41875 322.182437) scale(0.1 -0.1)">
       <defs>
        <path id="DejaVuSans-30" d="M 2034 4250 
Q 1547 4250 1301 3770 
Q 1056 3291 1056 2328 
Q 1056 1369 1301 889 
Q 1547 409 2034 409 
Q 2525 409 2770 889 
Q 3016 1369 3016 2328 
Q 3016 3291 2770 3770 
Q 2525 4250 2034 4250 
z
M 2034 4750 
Q 2819 4750 3233 4129 
Q 3647 3509 3647 2328 
Q 3647 1150 3233 529 
Q 2819 -91 2034 -91 
Q 1250 -91 836 529 
Q 422 1150 422 2328 
Q 422 3509 836 4129 
Q 1250 4750 2034 4750 
z
" transform="scale(0.015625)"/>
       </defs>
       <use xlink:href="#DejaVuSans-30"/>
      </g>
     </g>
    </g>
    <g id="xtick_2">
     <g id="line2d_2">
      <g>
       <use xlink:href="#ma54abdefb4" x="117.12" y="307.584" style="stroke: #000000; stroke-width: 0.8"/>
      </g>
     </g>
     <g id="text_2">
      <!-- 10 -->
      <g transform="translate(110.7575 322.182437) scale(0.1 -0.1)">
       <defs>
        <path id="DejaVuSans-31" d="M 794 531 
L 1825 531 
L 1825 4091 
L 703 3866 
L 703 4441 
L 1819 4666 
L 2450 4666 
L 2450 531 
L 3481 531 
L 3481 0 
L 794 0 
L 794 531 
z
" transform="scale(0.015625)"/>
       </defs>
       <use xlink:href="#DejaVuSans-31"/>
       <use xlink:href="#DejaVuSans-30" x="63.623047"/>
      </g>
     </g>
    </g>
    <g id="xtick_3">
     <g id="line2d_3">
      <g>
       <use xlink:href="#ma54abdefb4" x="176.64" y="307.584" style="stroke: #000000; stroke-width: 0.8"/>
      </g>
     </g>
     <g id="text_3">
      <!-- 20 -->
      <g transform="translate(170.2775 322.182437) scale(0.1 -0.1)">
       <defs>
        <path id="DejaVuSans-32" d="M 1228 531 
L 3431 531 
L 3431 0 
L 469 0 
L 469 531 
Q 828 903 1448 1529 
Q 2069 2156 2228 2338 
Q 2531 2678 2651 2914 
Q 2772 3150 2772 3378 
Q 2772 3750 2511 3984 
Q 2250 4219 1831 4219 
Q 1534 4219 1204 4116 
Q 875 4013 500 3803 
L 500 4441 
Q 881 4594 1212 4672 
Q 1544 4750 1819 4750 
Q 2544 4750 2975 4387 
Q 3406 4025 3406 3419 
Q 3406 3131 3298 2873 
Q 3191 2616 2906 2266 
Q 2828 2175 2409 1742 
Q 1991 1309 1228 531 
z
" transform="scale(0.015625)"/>
       </defs>
       <use xlink:href="#DejaVuSans-32"/>
       <use xlink:href="#DejaVuSans-30" x="63.623047"/>
      </g>
     </g>
    </g>
    <g id="xtick_4">
     <g id="line2d_4">
      <g>
       <use xlink:href="#ma54abdefb4" x="236.16" y="307.584" style="stroke: #000000; stroke-width: 0.8"/>
      </g>
     </g>
     <g id="text_4">
      <!-- 30 -->
      <g transform="translate(229.7975 322.182437) scale(0.1 -0.1)">
       <defs>
        <path id="DejaVuSans-33" d="M 2597 2516 
Q 3050 2419 3304 2112 
Q 3559 1806 3559 1356 
Q 3559 666 3084 287 
Q 2609 -91 1734 -91 
Q 1441 -91 1130 -33 
Q 819 25 488 141 
L 488 750 
Q 750 597 1062 519 
Q 1375 441 1716 441 
Q 2309 441 2620 675 
Q 2931 909 2931 1356 
Q 2931 1769 2642 2001 
Q 2353 2234 1838 2234 
L 1294 2234 
L 1294 2753 
L 1863 2753 
Q 2328 2753 2575 2939 
Q 2822 3125 2822 3475 
Q 2822 3834 2567 4026 
Q 2313 4219 1838 4219 
Q 1578 4219 1281 4162 
Q 984 4106 628 3988 
L 628 4550 
Q 988 4650 1302 4700 
Q 1616 4750 1894 4750 
Q 2613 4750 3031 4423 
Q 3450 4097 3450 3541 
Q 3450 3153 3228 2886 
Q 3006 2619 2597 2516 
z
" transform="scale(0.015625)"/>
       </defs>
       <use xlink:href="#DejaVuSans-33"/>
       <use xlink:href="#DejaVuSans-30" x="63.623047"/>
      </g>
     </g>
    </g>
    <g id="xtick_5">
     <g id="line2d_5">
      <g>
       <use xlink:href="#ma54abdefb4" x="295.68" y="307.584" style="stroke: #000000; stroke-width: 0.8"/>
      </g>
     </g>
     <g id="text_5">
      <!-- 40 -->
      <g transform="translate(289.3175 322.182437) scale(0.1 -0.1)">
       <defs>
        <path id="DejaVuSans-34" d="M 2419 4116 
L 825 1625 
L 2419 1625 
L 2419 4116 
z
M 2253 4666 
L 3047 4666 
L 3047 1625 
L 3713 1625 
L 3713 1100 
L 3047 1100 
L 3047 0 
L 2419 0 
L 2419 1100 
L 313 1100 
L 313 1709 
L 2253 4666 
z
" transform="scale(0.015625)"/>
       </defs>
       <use xlink:href="#DejaVuSans-34"/>
       <use xlink:href="#DejaVuSans-30" x="63.623047"/>
      </g>
     </g>
    </g>
    <g id="xtick_6">
     <g id="line2d_6">
      <g>
       <use xlink:href="#ma54abdefb4" x="355.2" y="307.584" style="stroke: #000000; stroke-width: 0.8"/>
      </g>
     </g>
     <g id="text_6">
      <!-- 50 -->
      <g transform="translate(348.8375 322.182437) scale(0.1 -0.1)">
       <defs>
        <path id="DejaVuSans-35" d="M 691 4666 
L 3169 4666 
L 3169 4134 
L 1269 4134 
L 1269 2991 
Q 1406 3038 1543 3061 
Q 1681 3084 1819 3084 
Q 2600 3084 3056 2656 
Q 3513 2228 3513 1497 
Q 3513 744 3044 326 
Q 2575 -91 1722 -91 
Q 1428 -91 1123 -41 
Q 819 9 494 109 
L 494 744 
Q 775 591 1075 516 
Q 1375 441 1709 441 
Q 2250 441 2565 725 
Q 2881 1009 2881 1497 
Q 2881 1984 2565 2268 
Q 2250 2553 1709 2553 
Q 1456 2553 1204 2497 
Q 953 2441 691 2322 
L 691 4666 
z
" transform="scale(0.015625)"/>
       </defs>
       <use xlink:href="#DejaVuSans-35"/>
       <use xlink:href="#DejaVuSans-30" x="63.623047"/>
      </g>
     </g>
    </g>
    <g id="xtick_7">
     <g id="line2d_7">
      <g>
       <use xlink:href="#ma54abdefb4" x="414.72" y="307.584" style="stroke: #000000; stroke-width: 0.8"/>
      </g>
     </g>
     <g id="text_7">
      <!-- 60 -->
      <g transform="translate(408.3575 322.182437) scale(0.1 -0.1)">
       <defs>
        <path id="DejaVuSans-36" d="M 2113 2584 
Q 1688 2584 1439 2293 
Q 1191 2003 1191 1497 
Q 1191 994 1439 701 
Q 1688 409 2113 409 
Q 2538 409 2786 701 
Q 3034 994 3034 1497 
Q 3034 2003 2786 2293 
Q 2538 2584 2113 2584 
z
M 3366 4563 
L 3366 3988 
Q 3128 4100 2886 4159 
Q 2644 4219 2406 4219 
Q 1781 4219 1451 3797 
Q 1122 3375 1075 2522 
Q 1259 2794 1537 2939 
Q 1816 3084 2150 3084 
Q 2853 3084 3261 2657 
Q 3669 2231 3669 1497 
Q 3669 778 3244 343 
Q 2819 -91 2113 -91 
Q 1303 -91 875 529 
Q 447 1150 447 2328 
Q 447 3434 972 4092 
Q 1497 4750 2381 4750 
Q 2619 4750 2861 4703 
Q 3103 4656 3366 4563 
z
" transform="scale(0.015625)"/>
       </defs>
       <use xlink:href="#DejaVuSans-36"/>
       <use xlink:href="#DejaVuSans-30" x="63.623047"/>
      </g>
     </g>
    </g>
   </g>
   <g id="matplotlib.axis_2">
    <g id="ytick_1">
     <g id="line2d_8">
      <defs>
       <path id="m21bb618311" d="M 0 0 
L -3.5 0 
" style="stroke: #000000; stroke-width: 0.8"/>
      </defs>
      <g>
       <use xlink:href="#m21bb618311" x="57.6" y="300.635234" style="stroke: #000000; stroke-width: 0.8"/>
      </g>
     </g>
     <g id="text_8">
      <!-- 0 -->
      <g transform="translate(44.2375 304.434453) scale(0.1 -0.1)">
       <use xlink:href="#DejaVuSans-30"/>
      </g>
     </g>
    </g>
    <g id="ytick_2">
     <g id="line2d_9">
      <g>
       <use xlink:href="#m21bb618311" x="57.6" y="251.221787" style="stroke: #000000; stroke-width: 0.8"/>
      </g>
     </g>
     <g id="text_9">
      <!-- 20 -->
      <g transform="translate(37.875 255.021006) scale(0.1 -0.1)">
       <use xlink:href="#DejaVuSans-32"/>
       <use xlink:href="#DejaVuSans-30" x="63.623047"/>
      </g>
     </g>
    </g>
    <g id="ytick_3">
     <g id="line2d_10">
      <g>
       <use xlink:href="#m21bb618311" x="57.6" y="201.80834" style="stroke: #000000; stroke-width: 0.8"/>
      </g>
     </g>
     <g id="text_10">
      <!-- 40 -->
      <g transform="translate(37.875 205.607559) scale(0.1 -0.1)">
       <use xlink:href="#DejaVuSans-34"/>
       <use xlink:href="#DejaVuSans-30" x="63.623047"/>
      </g>
     </g>
    </g>
    <g id="ytick_4">
     <g id="line2d_11">
      <g>
       <use xlink:href="#m21bb618311" x="57.6" y="152.394894" style="stroke: #000000; stroke-width: 0.8"/>
      </g>
     </g>
     <g id="text_11">
      <!-- 60 -->
      <g transform="translate(37.875 156.194112) scale(0.1 -0.1)">
       <use xlink:href="#DejaVuSans-36"/>
       <use xlink:href="#DejaVuSans-30" x="63.623047"/>
      </g>
     </g>
    </g>
    <g id="ytick_5">
     <g id="line2d_12">
      <g>
       <use xlink:href="#m21bb618311" x="57.6" y="102.981447" style="stroke: #000000; stroke-width: 0.8"/>
      </g>
     </g>
     <g id="text_12">
      <!-- 80 -->
      <g transform="translate(37.875 106.780666) scale(0.1 -0.1)">
       <defs>
        <path id="DejaVuSans-38" d="M 2034 2216 
Q 1584 2216 1326 1975 
Q 1069 1734 1069 1313 
Q 1069 891 1326 650 
Q 1584 409 2034 409 
Q 2484 409 2743 651 
Q 3003 894 3003 1313 
Q 3003 1734 2745 1975 
Q 2488 2216 2034 2216 
z
M 1403 2484 
Q 997 2584 770 2862 
Q 544 3141 544 3541 
Q 544 4100 942 4425 
Q 1341 4750 2034 4750 
Q 2731 4750 3128 4425 
Q 3525 4100 3525 3541 
Q 3525 3141 3298 2862 
Q 3072 2584 2669 2484 
Q 3125 2378 3379 2068 
Q 3634 1759 3634 1313 
Q 3634 634 3220 271 
Q 2806 -91 2034 -91 
Q 1263 -91 848 271 
Q 434 634 434 1313 
Q 434 1759 690 2068 
Q 947 2378 1403 2484 
z
M 1172 3481 
Q 1172 3119 1398 2916 
Q 1625 2713 2034 2713 
Q 2441 2713 2670 2916 
Q 2900 3119 2900 3481 
Q 2900 3844 2670 4047 
Q 2441 4250 2034 4250 
Q 1625 4250 1398 4047 
Q 1172 3844 1172 3481 
z
" transform="scale(0.015625)"/>
       </defs>
       <use xlink:href="#DejaVuSans-38"/>
       <use xlink:href="#DejaVuSans-30" x="63.623047"/>
      </g>
     </g>
    </g>
    <g id="ytick_6">
     <g id="line2d_13">
      <g>
       <use xlink:href="#m21bb618311" x="57.6" y="53.568" style="stroke: #000000; stroke-width: 0.8"/>
      </g>
     </g>
     <g id="text_13">
      <!-- 100 -->
      <g transform="translate(31.5125 57.367219) scale(0.1 -0.1)">
       <use xlink:href="#DejaVuSans-31"/>
       <use xlink:href="#DejaVuSans-30" x="63.623047"/>
       <use xlink:href="#DejaVuSans-30" x="127.246094"/>
      </g>
     </g>
    </g>
   </g>
   <g id="line2d_14">
    <path d="M 72.486239 295.488 
L 76.975039 290.340766 
L 81.228239 285.193532 
L 86.411439 280.046298 
L 91.879839 274.899064 
L 96.033839 269.75183 
L 100.733439 264.604596 
L 105.408239 259.457362 
L 110.765039 254.310128 
L 114.857039 249.162894 
L 119.370639 244.01566 
L 124.367839 238.868426 
L 129.179039 233.721191 
L 134.188639 228.573957 
L 139.061839 223.426723 
L 144.071439 218.279489 
L 148.758639 213.132255 
L 153.532639 207.985021 
L 158.691039 202.837787 
L 163.105439 197.690553 
L 167.978639 192.543319 
L 172.690639 187.396085 
L 177.464639 182.248851 
L 182.102239 177.101617 
L 186.975439 171.954383 
L 191.625439 166.807149 
L 196.684639 161.659915 
L 201.657039 156.512681 
L 206.406239 151.365447 
L 211.155439 146.218213 
L 215.929439 141.070979 
L 220.405839 135.923745 
L 225.043439 130.776511 
L 229.420639 125.629277 
L 234.120239 120.482043 
L 238.497439 115.334809 
L 243.544239 110.187574 
L 248.901039 105.04034 
L 253.352639 99.893106 
L 257.568639 94.745872 
L 262.677439 89.598638 
L 267.439039 84.451404 
L 272.151039 79.30417 
L 277.421039 74.156936 
L 281.686639 69.009702 
L 286.522639 63.862468 
L 293.094639 58.715234 
L 295.934239 53.568 
" clip-path="url(#p0b71bffdf2)" style="fill: none; stroke: #1f77b4; stroke-width: 1.5; stroke-linecap: square"/>
    <defs>
     <path id="mf3a399bbe2" d="M 0 3 
C 0.795609 3 1.55874 2.683901 2.12132 2.12132 
C 2.683901 1.55874 3 0.795609 3 0 
C 3 -0.795609 2.683901 -1.55874 2.12132 -2.12132 
C 1.55874 -2.683901 0.795609 -3 0 -3 
C -0.795609 -3 -1.55874 -2.683901 -2.12132 -2.12132 
C -2.683901 -1.55874 -3 -0.795609 -3 0 
C -3 0.795609 -2.683901 1.55874 -2.12132 2.12132 
C -1.55874 2.683901 -0.795609 3 0 3 
z
" style="stroke: #ffffff; stroke-width: 0.75"/>
    </defs>
    <g clip-path="url(#p0b71bffdf2)">
     <use xlink:href="#mf3a399bbe2" x="72.486239" y="295.488" style="fill: #1f77b4; stroke: #ffffff; stroke-width: 0.75"/>
     <use xlink:href="#mf3a399bbe2" x="76.975039" y="290.340766" style="fill: #1f77b4; stroke: #ffffff; stroke-width: 0.75"/>
     <use xlink:href="#mf3a399bbe2" x="81.228239" y="285.193532" style="fill: #1f77b4; stroke: #ffffff; stroke-width: 0.75"/>
     <use xlink:href="#mf3a399bbe2" x="86.411439" y="280.046298" style="fill: #1f77b4; stroke: #ffffff; stroke-width: 0.75"/>
     <use xlink:href="#mf3a399bbe2" x="91.879839" y="274.899064" style="fill: #1f77b4; stroke: #ffffff; stroke-width: 0.75"/>
     <use xlink:href="#mf3a399bbe2" x="96.033839" y="269.75183" style="fill: #1f77b4; stroke: #ffffff; stroke-width: 0.75"/>
     <use xlink:href="#mf3a399bbe2" x="100.733439" y="264.604596" style="fill: #1f77b4; stroke: #ffffff; stroke-width: 0.75"/>
     <use xlink:href="#mf3a399bbe2" x="105.408239" y="259.457362" style="fill: #1f77b4; stroke: #ffffff; stroke-width: 0.75"/>
     <use xlink:href="#mf3a399bbe2" x="110.765039" y="254.310128" style="fill: #1f77b4; stroke: #ffffff; stroke-width: 0.75"/>
     <use xlink:href="#mf3a399bbe2" x="114.857039" y="249.162894" style="fill: #1f77b4; stroke: #ffffff; stroke-width: 0.75"/>
     <use xlink:href="#mf3a399bbe2" x="119.370639" y="244.01566" style="fill: #1f77b4; stroke: #ffffff; stroke-width: 0.75"/>
     <use xlink:href="#mf3a399bbe2" x="124.367839" y="238.868426" style="fill: #1f77b4; stroke: #ffffff; stroke-width: 0.75"/>
     <use xlink:href="#mf3a399bbe2" x="129.179039" y="233.721191" style="fill: #1f77b4; stroke: #ffffff; stroke-width: 0.75"/>
     <use xlink:href="#mf3a399bbe2" x="134.188639" y="228.573957" style="fill: #1f77b4; stroke: #ffffff; stroke-width: 0.75"/>
     <use xlink:href="#mf3a399bbe2" x="139.061839" y="223.426723" style="fill: #1f77b4; stroke: #ffffff; stroke-width: 0.75"/>
     <use xlink:href="#mf3a399bbe2" x="144.071439" y="218.279489" style="fill: #1f77b4; stroke: #ffffff; stroke-width: 0.75"/>
     <use xlink:href="#mf3a399bbe2" x="148.758639" y="213.132255" style="fill: #1f77b4; stroke: #ffffff; stroke-width: 0.75"/>
     <use xlink:href="#mf3a399bbe2" x="153.532639" y="207.985021" style="fill: #1f77b4; stroke: #ffffff; stroke-width: 0.75"/>
     <use xlink:href="#mf3a399bbe2" x="158.691039" y="202.837787" style="fill: #1f77b4; stroke: #ffffff; stroke-width: 0.75"/>
     <use xlink:href="#mf3a399bbe2" x="163.105439" y="197.690553" style="fill: #1f77b4; stroke: #ffffff; stroke-width: 0.75"/>
     <use xlink:href="#mf3a399bbe2" x="167.978639" y="192.543319" style="fill: #1f77b4; stroke: #ffffff; stroke-width: 0.75"/>
     <use xlink:href="#mf3a399bbe2" x="172.690639" y="187.396085" style="fill: #1f77b4; stroke: #ffffff; stroke-width: 0.75"/>
     <use xlink:href="#mf3a399bbe2" x="177.464639" y="182.248851" style="fill: #1f77b4; stroke: #ffffff; stroke-width: 0.75"/>
     <use xlink:href="#mf3a399bbe2" x="182.102239" y="177.101617" style="fill: #1f77b4; stroke: #ffffff; stroke-width: 0.75"/>
     <use xlink:href="#mf3a399bbe2" x="186.975439" y="171.954383" style="fill: #1f77b4; stroke: #ffffff; stroke-width: 0.75"/>
     <use xlink:href="#mf3a399bbe2" x="191.625439" y="166.807149" style="fill: #1f77b4; stroke: #ffffff; stroke-width: 0.75"/>
     <use xlink:href="#mf3a399bbe2" x="196.684639" y="161.659915" style="fill: #1f77b4; stroke: #ffffff; stroke-width: 0.75"/>
     <use xlink:href="#mf3a399bbe2" x="201.657039" y="156.512681" style="fill: #1f77b4; stroke: #ffffff; stroke-width: 0.75"/>
     <use xlink:href="#mf3a399bbe2" x="206.406239" y="151.365447" style="fill: #1f77b4; stroke: #ffffff; stroke-width: 0.75"/>
     <use xlink:href="#mf3a399bbe2" x="211.155439" y="146.218213" style="fill: #1f77b4; stroke: #ffffff; stroke-width: 0.75"/>
     <use xlink:href="#mf3a399bbe2" x="215.929439" y="141.070979" style="fill: #1f77b4; stroke: #ffffff; stroke-width: 0.75"/>
     <use xlink:href="#mf3a399bbe2" x="220.405839" y="135.923745" style="fill: #1f77b4; stroke: #ffffff; stroke-width: 0.75"/>
     <use xlink:href="#mf3a399bbe2" x="225.043439" y="130.776511" style="fill: #1f77b4; stroke: #ffffff; stroke-width: 0.75"/>
     <use xlink:href="#mf3a399bbe2" x="229.420639" y="125.629277" style="fill: #1f77b4; stroke: #ffffff; stroke-width: 0.75"/>
     <use xlink:href="#mf3a399bbe2" x="234.120239" y="120.482043" style="fill: #1f77b4; stroke: #ffffff; stroke-width: 0.75"/>
     <use xlink:href="#mf3a399bbe2" x="238.497439" y="115.334809" style="fill: #1f77b4; stroke: #ffffff; stroke-width: 0.75"/>
     <use xlink:href="#mf3a399bbe2" x="243.544239" y="110.187574" style="fill: #1f77b4; stroke: #ffffff; stroke-width: 0.75"/>
     <use xlink:href="#mf3a399bbe2" x="248.901039" y="105.04034" style="fill: #1f77b4; stroke: #ffffff; stroke-width: 0.75"/>
     <use xlink:href="#mf3a399bbe2" x="253.352639" y="99.893106" style="fill: #1f77b4; stroke: #ffffff; stroke-width: 0.75"/>
     <use xlink:href="#mf3a399bbe2" x="257.568639" y="94.745872" style="fill: #1f77b4; stroke: #ffffff; stroke-width: 0.75"/>
     <use xlink:href="#mf3a399bbe2" x="262.677439" y="89.598638" style="fill: #1f77b4; stroke: #ffffff; stroke-width: 0.75"/>
     <use xlink:href="#mf3a399bbe2" x="267.439039" y="84.451404" style="fill: #1f77b4; stroke: #ffffff; stroke-width: 0.75"/>
     <use xlink:href="#mf3a399bbe2" x="272.151039" y="79.30417" style="fill: #1f77b4; stroke: #ffffff; stroke-width: 0.75"/>
     <use xlink:href="#mf3a399bbe2" x="277.421039" y="74.156936" style="fill: #1f77b4; stroke: #ffffff; stroke-width: 0.75"/>
     <use xlink:href="#mf3a399bbe2" x="281.686639" y="69.009702" style="fill: #1f77b4; stroke: #ffffff; stroke-width: 0.75"/>
     <use xlink:href="#mf3a399bbe2" x="286.522639" y="63.862468" style="fill: #1f77b4; stroke: #ffffff; stroke-width: 0.75"/>
     <use xlink:href="#mf3a399bbe2" x="293.094639" y="58.715234" style="fill: #1f77b4; stroke: #ffffff; stroke-width: 0.75"/>
     <use xlink:href="#mf3a399bbe2" x="295.934239" y="53.568" style="fill: #1f77b4; stroke: #ffffff; stroke-width: 0.75"/>
    </g>
   </g>
   <g id="line2d_15">
    <path d="M 88.056978 295.488 
L 93.592338 290.340766 
L 98.413458 285.193532 
L 103.591698 280.046298 
L 108.561618 274.899064 
L 113.660498 269.75183 
L 118.372498 264.604596 
L 123.610258 259.457362 
L 128.510738 254.310128 
L 133.302098 249.162894 
L 137.994258 244.01566 
L 142.646738 238.868426 
L 147.249618 233.721191 
L 152.715538 228.573957 
L 157.050578 223.426723 
L 161.703058 218.279489 
L 166.563858 213.132255 
L 171.216338 207.985021 
L 176.176338 202.837787 
L 180.808978 197.690553 
L 185.897938 192.543319 
L 190.778578 187.396085 
L 195.798098 182.248851 
L 200.847378 177.101617 
L 205.797458 171.954383 
L 211.055058 166.807149 
L 215.915858 161.659915 
L 220.677458 156.512681 
L 225.935058 151.365447 
L 230.785938 146.218213 
L 236.172498 141.070979 
L 240.934098 135.923745 
L 245.864338 130.776511 
L 250.675538 125.629277 
L 255.387538 120.482043 
L 260.674898 115.334809 
L 266.111058 110.187574 
L 270.525458 105.04034 
L 275.485458 99.893106 
L 280.703378 94.745872 
L 285.018578 89.598638 
L 290.107538 84.451404 
L 294.948498 79.30417 
L 300.146578 74.156936 
L 305.513298 69.009702 
L 309.858258 63.862468 
L 314.976978 58.715234 
L 319.897298 53.568 
" clip-path="url(#p0b71bffdf2)" style="fill: none; stroke-dasharray: 6,2.25; stroke-dashoffset: 0; stroke: #ff7f0e; stroke-width: 1.5"/>
    <defs>
     <path id="m37b3296924" d="M -1.5 3 
L 0 1.5 
L 1.5 3 
L 3 1.5 
L 1.5 0 
L 3 -1.5 
L 1.5 -3 
L 0 -1.5 
L -1.5 -3 
L -3 -1.5 
L -1.5 0 
L -3 1.5 
z
" style="stroke: #ffffff; stroke-width: 0.75; stroke-linejoin: miter"/>
    </defs>
    <g clip-path="url(#p0b71bffdf2)">
     <use xlink:href="#m37b3296924" x="88.056978" y="295.488" style="fill: #ff7f0e; stroke: #ffffff; stroke-width: 0.75; stroke-linejoin: miter"/>
     <use xlink:href="#m37b3296924" x="93.592338" y="290.340766" style="fill: #ff7f0e; stroke: #ffffff; stroke-width: 0.75; stroke-linejoin: miter"/>
     <use xlink:href="#m37b3296924" x="98.413458" y="285.193532" style="fill: #ff7f0e; stroke: #ffffff; stroke-width: 0.75; stroke-linejoin: miter"/>
     <use xlink:href="#m37b3296924" x="103.591698" y="280.046298" style="fill: #ff7f0e; stroke: #ffffff; stroke-width: 0.75; stroke-linejoin: miter"/>
     <use xlink:href="#m37b3296924" x="108.561618" y="274.899064" style="fill: #ff7f0e; stroke: #ffffff; stroke-width: 0.75; stroke-linejoin: miter"/>
     <use xlink:href="#m37b3296924" x="113.660498" y="269.75183" style="fill: #ff7f0e; stroke: #ffffff; stroke-width: 0.75; stroke-linejoin: miter"/>
     <use xlink:href="#m37b3296924" x="118.372498" y="264.604596" style="fill: #ff7f0e; stroke: #ffffff; stroke-width: 0.75; stroke-linejoin: miter"/>
     <use xlink:href="#m37b3296924" x="123.610258" y="259.457362" style="fill: #ff7f0e; stroke: #ffffff; stroke-width: 0.75; stroke-linejoin: miter"/>
     <use xlink:href="#m37b3296924" x="128.510738" y="254.310128" style="fill: #ff7f0e; stroke: #ffffff; stroke-width: 0.75; stroke-linejoin: miter"/>
     <use xlink:href="#m37b3296924" x="133.302098" y="249.162894" style="fill: #ff7f0e; stroke: #ffffff; stroke-width: 0.75; stroke-linejoin: miter"/>
     <use xlink:href="#m37b3296924" x="137.994258" y="244.01566" style="fill: #ff7f0e; stroke: #ffffff; stroke-width: 0.75; stroke-linejoin: miter"/>
     <use xlink:href="#m37b3296924" x="142.646738" y="238.868426" style="fill: #ff7f0e; stroke: #ffffff; stroke-width: 0.75; stroke-linejoin: miter"/>
     <use xlink:href="#m37b3296924" x="147.249618" y="233.721191" style="fill: #ff7f0e; stroke: #ffffff; stroke-width: 0.75; stroke-linejoin: miter"/>
     <use xlink:href="#m37b3296924" x="152.715538" y="228.573957" style="fill: #ff7f0e; stroke: #ffffff; stroke-width: 0.75; stroke-linejoin: miter"/>
     <use xlink:href="#m37b3296924" x="157.050578" y="223.426723" style="fill: #ff7f0e; stroke: #ffffff; stroke-width: 0.75; stroke-linejoin: miter"/>
     <use xlink:href="#m37b3296924" x="161.703058" y="218.279489" style="fill: #ff7f0e; stroke: #ffffff; stroke-width: 0.75; stroke-linejoin: miter"/>
     <use xlink:href="#m37b3296924" x="166.563858" y="213.132255" style="fill: #ff7f0e; stroke: #ffffff; stroke-width: 0.75; stroke-linejoin: miter"/>
     <use xlink:href="#m37b3296924" x="171.216338" y="207.985021" style="fill: #ff7f0e; stroke: #ffffff; stroke-width: 0.75; stroke-linejoin: miter"/>
     <use xlink:href="#m37b3296924" x="176.176338" y="202.837787" style="fill: #ff7f0e; stroke: #ffffff; stroke-width: 0.75; stroke-linejoin: miter"/>
     <use xlink:href="#m37b3296924" x="180.808978" y="197.690553" style="fill: #ff7f0e; stroke: #ffffff; stroke-width: 0.75; stroke-linejoin: miter"/>
     <use xlink:href="#m37b3296924" x="185.897938" y="192.543319" style="fill: #ff7f0e; stroke: #ffffff; stroke-width: 0.75; stroke-linejoin: miter"/>
     <use xlink:href="#m37b3296924" x="190.778578" y="187.396085" style="fill: #ff7f0e; stroke: #ffffff; stroke-width: 0.75; stroke-linejoin: miter"/>
     <use xlink:href="#m37b3296924" x="195.798098" y="182.248851" style="fill: #ff7f0e; stroke: #ffffff; stroke-width: 0.75; stroke-linejoin: miter"/>
     <use xlink:href="#m37b3296924" x="200.847378" y="177.101617" style="fill: #ff7f0e; stroke: #ffffff; stroke-width: 0.75; stroke-linejoin: miter"/>
     <use xlink:href="#m37b3296924" x="205.797458" y="171.954383" style="fill: #ff7f0e; stroke: #ffffff; stroke-width: 0.75; stroke-linejoin: miter"/>
     <use xlink:href="#m37b3296924" x="211.055058" y="166.807149" style="fill: #ff7f0e; stroke: #ffffff; stroke-width: 0.75; stroke-linejoin: miter"/>
     <use xlink:href="#m37b3296924" x="215.915858" y="161.659915" style="fill: #ff7f0e; stroke: #ffffff; stroke-width: 0.75; stroke-linejoin: miter"/>
     <use xlink:href="#m37b3296924" x="220.677458" y="156.512681" style="fill: #ff7f0e; stroke: #ffffff; stroke-width: 0.75; stroke-linejoin: miter"/>
     <use xlink:href="#m37b3296924" x="225.935058" y="151.365447" style="fill: #ff7f0e; stroke: #ffffff; stroke-width: 0.75; stroke-linejoin: miter"/>
     <use xlink:href="#m37b3296924" x="230.785938" y="146.218213" style="fill: #ff7f0e; stroke: #ffffff; stroke-width: 0.75; stroke-linejoin: miter"/>
     <use xlink:href="#m37b3296924" x="236.172498" y="141.070979" style="fill: #ff7f0e; stroke: #ffffff; stroke-width: 0.75; stroke-linejoin: miter"/>
     <use xlink:href="#m37b3296924" x="240.934098" y="135.923745" style="fill: #ff7f0e; stroke: #ffffff; stroke-width: 0.75; stroke-linejoin: miter"/>
     <use xlink:href="#m37b3296924" x="245.864338" y="130.776511" style="fill: #ff7f0e; stroke: #ffffff; stroke-width: 0.75; stroke-linejoin: miter"/>
     <use xlink:href="#m37b3296924" x="250.675538" y="125.629277" style="fill: #ff7f0e; stroke: #ffffff; stroke-width: 0.75; stroke-linejoin: miter"/>
     <use xlink:href="#m37b3296924" x="255.387538" y="120.482043" style="fill: #ff7f0e; stroke: #ffffff; stroke-width: 0.75; stroke-linejoin: miter"/>
     <use xlink:href="#m37b3296924" x="260.674898" y="115.334809" style="fill: #ff7f0e; stroke: #ffffff; stroke-width: 0.75; stroke-linejoin: miter"/>
     <use xlink:href="#m37b3296924" x="266.111058" y="110.187574" style="fill: #ff7f0e; stroke: #ffffff; stroke-width: 0.75; stroke-linejoin: miter"/>
     <use xlink:href="#m37b3296924" x="270.525458" y="105.04034" style="fill: #ff7f0e; stroke: #ffffff; stroke-width: 0.75; stroke-linejoin: miter"/>
     <use xlink:href="#m37b3296924" x="275.485458" y="99.893106" style="fill: #ff7f0e; stroke: #ffffff; stroke-width: 0.75; stroke-linejoin: miter"/>
     <use xlink:href="#m37b3296924" x="280.703378" y="94.745872" style="fill: #ff7f0e; stroke: #ffffff; stroke-width: 0.75; stroke-linejoin: miter"/>
     <use xlink:href="#m37b3296924" x="285.018578" y="89.598638" style="fill: #ff7f0e; stroke: #ffffff; stroke-width: 0.75; stroke-linejoin: miter"/>
     <use xlink:href="#m37b3296924" x="290.107538" y="84.451404" style="fill: #ff7f0e; stroke: #ffffff; stroke-width: 0.75; stroke-linejoin: miter"/>
     <use xlink:href="#m37b3296924" x="294.948498" y="79.30417" style="fill: #ff7f0e; stroke: #ffffff; stroke-width: 0.75; stroke-linejoin: miter"/>
     <use xlink:href="#m37b3296924" x="300.146578" y="74.156936" style="fill: #ff7f0e; stroke: #ffffff; stroke-width: 0.75; stroke-linejoin: miter"/>
     <use xlink:href="#m37b3296924" x="305.513298" y="69.009702" style="fill: #ff7f0e; stroke: #ffffff; stroke-width: 0.75; stroke-linejoin: miter"/>
     <use xlink:href="#m37b3296924" x="309.858258" y="63.862468" style="fill: #ff7f0e; stroke: #ffffff; stroke-width: 0.75; stroke-linejoin: miter"/>
     <use xlink:href="#m37b3296924" x="314.976978" y="58.715234" style="fill: #ff7f0e; stroke: #ffffff; stroke-width: 0.75; stroke-linejoin: miter"/>
     <use xlink:href="#m37b3296924" x="319.897298" y="53.568" style="fill: #ff7f0e; stroke: #ffffff; stroke-width: 0.75; stroke-linejoin: miter"/>
    </g>
   </g>
   <g id="line2d_16">
    <path d="M 104.887499 295.488 
L 111.174299 290.340766 
L 116.146699 285.193532 
L 121.763899 280.046298 
L 129.141899 274.899064 
L 136.643899 269.75183 
L 142.571099 264.604596 
L 147.580699 259.457362 
L 152.788699 254.310128 
L 158.827499 249.162894 
L 162.919499 244.01566 
L 168.970699 238.868426 
L 174.488699 233.721191 
L 180.614299 228.573957 
L 187.099499 223.426723 
L 191.687499 218.279489 
L 196.870699 213.132255 
L 203.219499 207.985021 
L 207.720699 202.837787 
L 213.536299 197.690553 
L 218.310299 192.543319 
L 224.386299 187.396085 
L 230.549099 182.248851 
L 234.405499 177.101617 
L 239.526699 171.954383 
L 244.908299 166.807149 
L 249.347499 161.659915 
L 254.803499 156.512681 
L 261.226699 151.365447 
L 267.625099 146.218213 
L 272.337099 141.070979 
L 277.359099 135.923745 
L 282.095899 130.776511 
L 288.767099 125.629277 
L 292.784699 120.482043 
L 297.633099 115.334809 
L 306.139499 110.187574 
L 312.612299 105.04034 
L 316.741499 99.893106 
L 322.085899 94.745872 
L 330.641899 89.598638 
L 335.899499 84.451404 
L 342.483899 79.30417 
L 347.915099 74.156936 
L 355.131899 69.009702 
L 361.741099 63.862468 
L 367.965899 58.715234 
L 373.992299 53.568 
" clip-path="url(#p0b71bffdf2)" style="fill: none; stroke-dasharray: 1.5,1.5; stroke-dashoffset: 0; stroke: #2ca02c; stroke-width: 1.5"/>
    <defs>
     <path id="ma90a2d558e" d="M -2.12132 -2.12132 
L -2.12132 2.12132 
L 2.12132 2.12132 
L 2.12132 -2.12132 
z
" style="stroke: #ffffff; stroke-width: 0.75; stroke-linejoin: miter"/>
    </defs>
    <g clip-path="url(#p0b71bffdf2)">
     <use xlink:href="#ma90a2d558e" x="104.887499" y="295.488" style="fill: #2ca02c; stroke: #ffffff; stroke-width: 0.75; stroke-linejoin: miter"/>
     <use xlink:href="#ma90a2d558e" x="111.174299" y="290.340766" style="fill: #2ca02c; stroke: #ffffff; stroke-width: 0.75; stroke-linejoin: miter"/>
     <use xlink:href="#ma90a2d558e" x="116.146699" y="285.193532" style="fill: #2ca02c; stroke: #ffffff; stroke-width: 0.75; stroke-linejoin: miter"/>
     <use xlink:href="#ma90a2d558e" x="121.763899" y="280.046298" style="fill: #2ca02c; stroke: #ffffff; stroke-width: 0.75; stroke-linejoin: miter"/>
     <use xlink:href="#ma90a2d558e" x="129.141899" y="274.899064" style="fill: #2ca02c; stroke: #ffffff; stroke-width: 0.75; stroke-linejoin: miter"/>
     <use xlink:href="#ma90a2d558e" x="136.643899" y="269.75183" style="fill: #2ca02c; stroke: #ffffff; stroke-width: 0.75; stroke-linejoin: miter"/>
     <use xlink:href="#ma90a2d558e" x="142.571099" y="264.604596" style="fill: #2ca02c; stroke: #ffffff; stroke-width: 0.75; stroke-linejoin: miter"/>
     <use xlink:href="#ma90a2d558e" x="147.580699" y="259.457362" style="fill: #2ca02c; stroke: #ffffff; stroke-width: 0.75; stroke-linejoin: miter"/>
     <use xlink:href="#ma90a2d558e" x="152.788699" y="254.310128" style="fill: #2ca02c; stroke: #ffffff; stroke-width: 0.75; stroke-linejoin: miter"/>
     <use xlink:href="#ma90a2d558e" x="158.827499" y="249.162894" style="fill: #2ca02c; stroke: #ffffff; stroke-width: 0.75; stroke-linejoin: miter"/>
     <use xlink:href="#ma90a2d558e" x="162.919499" y="244.01566" style="fill: #2ca02c; stroke: #ffffff; stroke-width: 0.75; stroke-linejoin: miter"/>
     <use xlink:href="#ma90a2d558e" x="168.970699" y="238.868426" style="fill: #2ca02c; stroke: #ffffff; stroke-width: 0.75; stroke-linejoin: miter"/>
     <use xlink:href="#ma90a2d558e" x="174.488699" y="233.721191" style="fill: #2ca02c; stroke: #ffffff; stroke-width: 0.75; stroke-linejoin: miter"/>
     <use xlink:href="#ma90a2d558e" x="180.614299" y="228.573957" style="fill: #2ca02c; stroke: #ffffff; stroke-width: 0.75; stroke-linejoin: miter"/>
     <use xlink:href="#ma90a2d558e" x="187.099499" y="223.426723" style="fill: #2ca02c; stroke: #ffffff; stroke-width: 0.75; stroke-linejoin: miter"/>
     <use xlink:href="#ma90a2d558e" x="191.687499" y="218.279489" style="fill: #2ca02c; stroke: #ffffff; stroke-width: 0.75; stroke-linejoin: miter"/>
     <use xlink:href="#ma90a2d558e" x="196.870699" y="213.132255" style="fill: #2ca02c; stroke: #ffffff; stroke-width: 0.75; stroke-linejoin: miter"/>
     <use xlink:href="#ma90a2d558e" x="203.219499" y="207.985021" style="fill: #2ca02c; stroke: #ffffff; stroke-width: 0.75; stroke-linejoin: miter"/>
     <use xlink:href="#ma90a2d558e" x="207.720699" y="202.837787" style="fill: #2ca02c; stroke: #ffffff; stroke-width: 0.75; stroke-linejoin: miter"/>
     <use xlink:href="#ma90a2d558e" x="213.536299" y="197.690553" style="fill: #2ca02c; stroke: #ffffff; stroke-width: 0.75; stroke-linejoin: miter"/>
     <use xlink:href="#ma90a2d558e" x="218.310299" y="192.543319" style="fill: #2ca02c; stroke: #ffffff; stroke-width: 0.75; stroke-linejoin: miter"/>
     <use xlink:href="#ma90a2d558e" x="224.386299" y="187.396085" style="fill: #2ca02c; stroke: #ffffff; stroke-width: 0.75; stroke-linejoin: miter"/>
     <use xlink:href="#ma90a2d558e" x="230.549099" y="182.248851" style="fill: #2ca02c; stroke: #ffffff; stroke-width: 0.75; stroke-linejoin: miter"/>
     <use xlink:href="#ma90a2d558e" x="234.405499" y="177.101617" style="fill: #2ca02c; stroke: #ffffff; stroke-width: 0.75; stroke-linejoin: miter"/>
     <use xlink:href="#ma90a2d558e" x="239.526699" y="171.954383" style="fill: #2ca02c; stroke: #ffffff; stroke-width: 0.75; stroke-linejoin: miter"/>
     <use xlink:href="#ma90a2d558e" x="244.908299" y="166.807149" style="fill: #2ca02c; stroke: #ffffff; stroke-width: 0.75; stroke-linejoin: miter"/>
     <use xlink:href="#ma90a2d558e" x="249.347499" y="161.659915" style="fill: #2ca02c; stroke: #ffffff; stroke-width: 0.75; stroke-linejoin: miter"/>
     <use xlink:href="#ma90a2d558e" x="254.803499" y="156.512681" style="fill: #2ca02c; stroke: #ffffff; stroke-width: 0.75; stroke-linejoin: miter"/>
     <use xlink:href="#ma90a2d558e" x="261.226699" y="151.365447" style="fill: #2ca02c; stroke: #ffffff; stroke-width: 0.75; stroke-linejoin: miter"/>
     <use xlink:href="#ma90a2d558e" x="267.625099" y="146.218213" style="fill: #2ca02c; stroke: #ffffff; stroke-width: 0.75; stroke-linejoin: miter"/>
     <use xlink:href="#ma90a2d558e" x="272.337099" y="141.070979" style="fill: #2ca02c; stroke: #ffffff; stroke-width: 0.75; stroke-linejoin: miter"/>
     <use xlink:href="#ma90a2d558e" x="277.359099" y="135.923745" style="fill: #2ca02c; stroke: #ffffff; stroke-width: 0.75; stroke-linejoin: miter"/>
     <use xlink:href="#ma90a2d558e" x="282.095899" y="130.776511" style="fill: #2ca02c; stroke: #ffffff; stroke-width: 0.75; stroke-linejoin: miter"/>
     <use xlink:href="#ma90a2d558e" x="288.767099" y="125.629277" style="fill: #2ca02c; stroke: #ffffff; stroke-width: 0.75; stroke-linejoin: miter"/>
     <use xlink:href="#ma90a2d558e" x="292.784699" y="120.482043" style="fill: #2ca02c; stroke: #ffffff; stroke-width: 0.75; stroke-linejoin: miter"/>
     <use xlink:href="#ma90a2d558e" x="297.633099" y="115.334809" style="fill: #2ca02c; stroke: #ffffff; stroke-width: 0.75; stroke-linejoin: miter"/>
     <use xlink:href="#ma90a2d558e" x="306.139499" y="110.187574" style="fill: #2ca02c; stroke: #ffffff; stroke-width: 0.75; stroke-linejoin: miter"/>
     <use xlink:href="#ma90a2d558e" x="312.612299" y="105.04034" style="fill: #2ca02c; stroke: #ffffff; stroke-width: 0.75; stroke-linejoin: miter"/>
     <use xlink:href="#ma90a2d558e" x="316.741499" y="99.893106" style="fill: #2ca02c; stroke: #ffffff; stroke-width: 0.75; stroke-linejoin: miter"/>
     <use xlink:href="#ma90a2d558e" x="322.085899" y="94.745872" style="fill: #2ca02c; stroke: #ffffff; stroke-width: 0.75; stroke-linejoin: miter"/>
     <use xlink:href="#ma90a2d558e" x="330.641899" y="89.598638" style="fill: #2ca02c; stroke: #ffffff; stroke-width: 0.75; stroke-linejoin: miter"/>
     <use xlink:href="#ma90a2d558e" x="335.899499" y="84.451404" style="fill: #2ca02c; stroke: #ffffff; stroke-width: 0.75; stroke-linejoin: miter"/>
     <use xlink:href="#ma90a2d558e" x="342.483899" y="79.30417" style="fill: #2ca02c; stroke: #ffffff; stroke-width: 0.75; stroke-linejoin: miter"/>
     <use xlink:href="#ma90a2d558e" x="347.915099" y="74.156936" style="fill: #2ca02c; stroke: #ffffff; stroke-width: 0.75; stroke-linejoin: miter"/>
     <use xlink:href="#ma90a2d558e" x="355.131899" y="69.009702" style="fill: #2ca02c; stroke: #ffffff; stroke-width: 0.75; stroke-linejoin: miter"/>
     <use xlink:href="#ma90a2d558e" x="361.741099" y="63.862468" style="fill: #2ca02c; stroke: #ffffff; stroke-width: 0.75; stroke-linejoin: miter"/>
     <use xlink:href="#ma90a2d558e" x="367.965899" y="58.715234" style="fill: #2ca02c; stroke: #ffffff; stroke-width: 0.75; stroke-linejoin: miter"/>
     <use xlink:href="#ma90a2d558e" x="373.992299" y="53.568" style="fill: #2ca02c; stroke: #ffffff; stroke-width: 0.75; stroke-linejoin: miter"/>
    </g>
   </g>
   <g id="line2d_17"/>
   <g id="line2d_18"/>
   <g id="line2d_19"/>
   <g id="patch_3">
    <path d="M 57.6 307.584 
L 57.6 41.472 
" style="fill: none; stroke: #000000; stroke-width: 0.8; stroke-linejoin: miter; stroke-linecap: square"/>
   </g>
   <g id="patch_4">
    <path d="M 414.72 307.584 
L 414.72 41.472 
" style="fill: none; stroke: #000000; stroke-width: 0.8; stroke-linejoin: miter; stroke-linecap: square"/>
   </g>
   <g id="patch_5">
    <path d="M 57.6 307.584 
L 414.72 307.584 
" style="fill: none; stroke: #000000; stroke-width: 0.8; stroke-linejoin: miter; stroke-linecap: square"/>
   </g>
   <g id="patch_6">
    <path d="M 57.6 41.472 
L 414.72 41.472 
" style="fill: none; stroke: #000000; stroke-width: 0.8; stroke-linejoin: miter; stroke-linecap: square"/>
   </g>
   <g id="legend_1">
    <g id="patch_7">
     <path d="M 64.6 109.018875 
L 240.71875 109.018875 
Q 242.71875 109.018875 242.71875 107.018875 
L 242.71875 48.472 
Q 242.71875 46.472 240.71875 46.472 
L 64.6 46.472 
Q 62.6 46.472 62.6 48.472 
L 62.6 107.018875 
Q 62.6 109.018875 64.6 109.018875 
z
" style="fill: #ffffff; opacity: 0.8; stroke: #cccccc; stroke-linejoin: miter"/>
    </g>
    <g id="text_14">
     <!-- experiment -->
     <g transform="translate(123.939844 58.070438) scale(0.1 -0.1)">
      <defs>
       <path id="DejaVuSans-65" d="M 3597 1894 
L 3597 1613 
L 953 1613 
Q 991 1019 1311 708 
Q 1631 397 2203 397 
Q 2534 397 2845 478 
Q 3156 559 3463 722 
L 3463 178 
Q 3153 47 2828 -22 
Q 2503 -91 2169 -91 
Q 1331 -91 842 396 
Q 353 884 353 1716 
Q 353 2575 817 3079 
Q 1281 3584 2069 3584 
Q 2775 3584 3186 3129 
Q 3597 2675 3597 1894 
z
M 3022 2063 
Q 3016 2534 2758 2815 
Q 2500 3097 2075 3097 
Q 1594 3097 1305 2825 
Q 1016 2553 972 2059 
L 3022 2063 
z
" transform="scale(0.015625)"/>
       <path id="DejaVuSans-78" d="M 3513 3500 
L 2247 1797 
L 3578 0 
L 2900 0 
L 1881 1375 
L 863 0 
L 184 0 
L 1544 1831 
L 300 3500 
L 978 3500 
L 1906 2253 
L 2834 3500 
L 3513 3500 
z
" transform="scale(0.015625)"/>
       <path id="DejaVuSans-70" d="M 1159 525 
L 1159 -1331 
L 581 -1331 
L 581 3500 
L 1159 3500 
L 1159 2969 
Q 1341 3281 1617 3432 
Q 1894 3584 2278 3584 
Q 2916 3584 3314 3078 
Q 3713 2572 3713 1747 
Q 3713 922 3314 415 
Q 2916 -91 2278 -91 
Q 1894 -91 1617 61 
Q 1341 213 1159 525 
z
M 3116 1747 
Q 3116 2381 2855 2742 
Q 2594 3103 2138 3103 
Q 1681 3103 1420 2742 
Q 1159 2381 1159 1747 
Q 1159 1113 1420 752 
Q 1681 391 2138 391 
Q 2594 391 2855 752 
Q 3116 1113 3116 1747 
z
" transform="scale(0.015625)"/>
       <path id="DejaVuSans-72" d="M 2631 2963 
Q 2534 3019 2420 3045 
Q 2306 3072 2169 3072 
Q 1681 3072 1420 2755 
Q 1159 2438 1159 1844 
L 1159 0 
L 581 0 
L 581 3500 
L 1159 3500 
L 1159 2956 
Q 1341 3275 1631 3429 
Q 1922 3584 2338 3584 
Q 2397 3584 2469 3576 
Q 2541 3569 2628 3553 
L 2631 2963 
z
" transform="scale(0.015625)"/>
       <path id="DejaVuSans-69" d="M 603 3500 
L 1178 3500 
L 1178 0 
L 603 0 
L 603 3500 
z
M 603 4863 
L 1178 4863 
L 1178 4134 
L 603 4134 
L 603 4863 
z
" transform="scale(0.015625)"/>
       <path id="DejaVuSans-6d" d="M 3328 2828 
Q 3544 3216 3844 3400 
Q 4144 3584 4550 3584 
Q 5097 3584 5394 3201 
Q 5691 2819 5691 2113 
L 5691 0 
L 5113 0 
L 5113 2094 
Q 5113 2597 4934 2840 
Q 4756 3084 4391 3084 
Q 3944 3084 3684 2787 
Q 3425 2491 3425 1978 
L 3425 0 
L 2847 0 
L 2847 2094 
Q 2847 2600 2669 2842 
Q 2491 3084 2119 3084 
Q 1678 3084 1418 2786 
Q 1159 2488 1159 1978 
L 1159 0 
L 581 0 
L 581 3500 
L 1159 3500 
L 1159 2956 
Q 1356 3278 1631 3431 
Q 1906 3584 2284 3584 
Q 2666 3584 2933 3390 
Q 3200 3197 3328 2828 
z
" transform="scale(0.015625)"/>
       <path id="DejaVuSans-6e" d="M 3513 2113 
L 3513 0 
L 2938 0 
L 2938 2094 
Q 2938 2591 2744 2837 
Q 2550 3084 2163 3084 
Q 1697 3084 1428 2787 
Q 1159 2491 1159 1978 
L 1159 0 
L 581 0 
L 581 3500 
L 1159 3500 
L 1159 2956 
Q 1366 3272 1645 3428 
Q 1925 3584 2291 3584 
Q 2894 3584 3203 3211 
Q 3513 2838 3513 2113 
z
" transform="scale(0.015625)"/>
       <path id="DejaVuSans-74" d="M 1172 4494 
L 1172 3500 
L 2356 3500 
L 2356 3053 
L 1172 3053 
L 1172 1153 
Q 1172 725 1289 603 
Q 1406 481 1766 481 
L 2356 481 
L 2356 0 
L 1766 0 
Q 1100 0 847 248 
Q 594 497 594 1153 
L 594 3053 
L 172 3053 
L 172 3500 
L 594 3500 
L 594 4494 
L 1172 4494 
z
" transform="scale(0.015625)"/>
      </defs>
      <use xlink:href="#DejaVuSans-65"/>
      <use xlink:href="#DejaVuSans-78" x="59.773438"/>
      <use xlink:href="#DejaVuSans-70" x="118.953125"/>
      <use xlink:href="#DejaVuSans-65" x="182.429688"/>
      <use xlink:href="#DejaVuSans-72" x="243.953125"/>
      <use xlink:href="#DejaVuSans-69" x="285.066406"/>
      <use xlink:href="#DejaVuSans-6d" x="312.849609"/>
      <use xlink:href="#DejaVuSans-65" x="410.261719"/>
      <use xlink:href="#DejaVuSans-6e" x="471.785156"/>
      <use xlink:href="#DejaVuSans-74" x="535.164062"/>
     </g>
    </g>
    <g id="line2d_20">
     <path d="M 66.6 69.248563 
L 76.6 69.248563 
L 86.6 69.248563 
" style="fill: none; stroke: #1f77b4; stroke-width: 1.5; stroke-linecap: square"/>
     <g>
      <use xlink:href="#mf3a399bbe2" x="76.6" y="69.248563" style="fill: #1f77b4; stroke: #ffffff; stroke-width: 0.75"/>
     </g>
    </g>
    <g id="text_15">
     <!-- baseline_standalone_d0_h0 -->
     <g transform="translate(94.6 72.748563) scale(0.1 -0.1)">
      <defs>
       <path id="DejaVuSans-62" d="M 3116 1747 
Q 3116 2381 2855 2742 
Q 2594 3103 2138 3103 
Q 1681 3103 1420 2742 
Q 1159 2381 1159 1747 
Q 1159 1113 1420 752 
Q 1681 391 2138 391 
Q 2594 391 2855 752 
Q 3116 1113 3116 1747 
z
M 1159 2969 
Q 1341 3281 1617 3432 
Q 1894 3584 2278 3584 
Q 2916 3584 3314 3078 
Q 3713 2572 3713 1747 
Q 3713 922 3314 415 
Q 2916 -91 2278 -91 
Q 1894 -91 1617 61 
Q 1341 213 1159 525 
L 1159 0 
L 581 0 
L 581 4863 
L 1159 4863 
L 1159 2969 
z
" transform="scale(0.015625)"/>
       <path id="DejaVuSans-61" d="M 2194 1759 
Q 1497 1759 1228 1600 
Q 959 1441 959 1056 
Q 959 750 1161 570 
Q 1363 391 1709 391 
Q 2188 391 2477 730 
Q 2766 1069 2766 1631 
L 2766 1759 
L 2194 1759 
z
M 3341 1997 
L 3341 0 
L 2766 0 
L 2766 531 
Q 2569 213 2275 61 
Q 1981 -91 1556 -91 
Q 1019 -91 701 211 
Q 384 513 384 1019 
Q 384 1609 779 1909 
Q 1175 2209 1959 2209 
L 2766 2209 
L 2766 2266 
Q 2766 2663 2505 2880 
Q 2244 3097 1772 3097 
Q 1472 3097 1187 3025 
Q 903 2953 641 2809 
L 641 3341 
Q 956 3463 1253 3523 
Q 1550 3584 1831 3584 
Q 2591 3584 2966 3190 
Q 3341 2797 3341 1997 
z
" transform="scale(0.015625)"/>
       <path id="DejaVuSans-73" d="M 2834 3397 
L 2834 2853 
Q 2591 2978 2328 3040 
Q 2066 3103 1784 3103 
Q 1356 3103 1142 2972 
Q 928 2841 928 2578 
Q 928 2378 1081 2264 
Q 1234 2150 1697 2047 
L 1894 2003 
Q 2506 1872 2764 1633 
Q 3022 1394 3022 966 
Q 3022 478 2636 193 
Q 2250 -91 1575 -91 
Q 1294 -91 989 -36 
Q 684 19 347 128 
L 347 722 
Q 666 556 975 473 
Q 1284 391 1588 391 
Q 1994 391 2212 530 
Q 2431 669 2431 922 
Q 2431 1156 2273 1281 
Q 2116 1406 1581 1522 
L 1381 1569 
Q 847 1681 609 1914 
Q 372 2147 372 2553 
Q 372 3047 722 3315 
Q 1072 3584 1716 3584 
Q 2034 3584 2315 3537 
Q 2597 3491 2834 3397 
z
" transform="scale(0.015625)"/>
       <path id="DejaVuSans-6c" d="M 603 4863 
L 1178 4863 
L 1178 0 
L 603 0 
L 603 4863 
z
" transform="scale(0.015625)"/>
       <path id="DejaVuSans-5f" d="M 3263 -1063 
L 3263 -1509 
L -63 -1509 
L -63 -1063 
L 3263 -1063 
z
" transform="scale(0.015625)"/>
       <path id="DejaVuSans-64" d="M 2906 2969 
L 2906 4863 
L 3481 4863 
L 3481 0 
L 2906 0 
L 2906 525 
Q 2725 213 2448 61 
Q 2172 -91 1784 -91 
Q 1150 -91 751 415 
Q 353 922 353 1747 
Q 353 2572 751 3078 
Q 1150 3584 1784 3584 
Q 2172 3584 2448 3432 
Q 2725 3281 2906 2969 
z
M 947 1747 
Q 947 1113 1208 752 
Q 1469 391 1925 391 
Q 2381 391 2643 752 
Q 2906 1113 2906 1747 
Q 2906 2381 2643 2742 
Q 2381 3103 1925 3103 
Q 1469 3103 1208 2742 
Q 947 2381 947 1747 
z
" transform="scale(0.015625)"/>
       <path id="DejaVuSans-6f" d="M 1959 3097 
Q 1497 3097 1228 2736 
Q 959 2375 959 1747 
Q 959 1119 1226 758 
Q 1494 397 1959 397 
Q 2419 397 2687 759 
Q 2956 1122 2956 1747 
Q 2956 2369 2687 2733 
Q 2419 3097 1959 3097 
z
M 1959 3584 
Q 2709 3584 3137 3096 
Q 3566 2609 3566 1747 
Q 3566 888 3137 398 
Q 2709 -91 1959 -91 
Q 1206 -91 779 398 
Q 353 888 353 1747 
Q 353 2609 779 3096 
Q 1206 3584 1959 3584 
z
" transform="scale(0.015625)"/>
       <path id="DejaVuSans-68" d="M 3513 2113 
L 3513 0 
L 2938 0 
L 2938 2094 
Q 2938 2591 2744 2837 
Q 2550 3084 2163 3084 
Q 1697 3084 1428 2787 
Q 1159 2491 1159 1978 
L 1159 0 
L 581 0 
L 581 4863 
L 1159 4863 
L 1159 2956 
Q 1366 3272 1645 3428 
Q 1925 3584 2291 3584 
Q 2894 3584 3203 3211 
Q 3513 2838 3513 2113 
z
" transform="scale(0.015625)"/>
      </defs>
      <use xlink:href="#DejaVuSans-62"/>
      <use xlink:href="#DejaVuSans-61" x="63.476562"/>
      <use xlink:href="#DejaVuSans-73" x="124.755859"/>
      <use xlink:href="#DejaVuSans-65" x="176.855469"/>
      <use xlink:href="#DejaVuSans-6c" x="238.378906"/>
      <use xlink:href="#DejaVuSans-69" x="266.162109"/>
      <use xlink:href="#DejaVuSans-6e" x="293.945312"/>
      <use xlink:href="#DejaVuSans-65" x="357.324219"/>
      <use xlink:href="#DejaVuSans-5f" x="418.847656"/>
      <use xlink:href="#DejaVuSans-73" x="468.847656"/>
      <use xlink:href="#DejaVuSans-74" x="520.947266"/>
      <use xlink:href="#DejaVuSans-61" x="560.15625"/>
      <use xlink:href="#DejaVuSans-6e" x="621.435547"/>
      <use xlink:href="#DejaVuSans-64" x="684.814453"/>
      <use xlink:href="#DejaVuSans-61" x="748.291016"/>
      <use xlink:href="#DejaVuSans-6c" x="809.570312"/>
      <use xlink:href="#DejaVuSans-6f" x="837.353516"/>
      <use xlink:href="#DejaVuSans-6e" x="898.535156"/>
      <use xlink:href="#DejaVuSans-65" x="961.914062"/>
      <use xlink:href="#DejaVuSans-5f" x="1023.4375"/>
      <use xlink:href="#DejaVuSans-64" x="1073.4375"/>
      <use xlink:href="#DejaVuSans-30" x="1136.914062"/>
      <use xlink:href="#DejaVuSans-5f" x="1200.537109"/>
      <use xlink:href="#DejaVuSans-68" x="1250.537109"/>
      <use xlink:href="#DejaVuSans-30" x="1313.916016"/>
     </g>
    </g>
    <g id="line2d_21">
     <path d="M 66.6 84.204813 
L 76.6 84.204813 
L 86.6 84.204813 
" style="fill: none; stroke-dasharray: 6,2.25; stroke-dashoffset: 0; stroke: #ff7f0e; stroke-width: 1.5"/>
     <g>
      <use xlink:href="#m37b3296924" x="76.6" y="84.204813" style="fill: #ff7f0e; stroke: #ffffff; stroke-width: 0.75; stroke-linejoin: miter"/>
     </g>
    </g>
    <g id="text_16">
     <!-- baseline_standalone_d10_h0 -->
     <g transform="translate(94.6 87.704813) scale(0.1 -0.1)">
      <use xlink:href="#DejaVuSans-62"/>
      <use xlink:href="#DejaVuSans-61" x="63.476562"/>
      <use xlink:href="#DejaVuSans-73" x="124.755859"/>
      <use xlink:href="#DejaVuSans-65" x="176.855469"/>
      <use xlink:href="#DejaVuSans-6c" x="238.378906"/>
      <use xlink:href="#DejaVuSans-69" x="266.162109"/>
      <use xlink:href="#DejaVuSans-6e" x="293.945312"/>
      <use xlink:href="#DejaVuSans-65" x="357.324219"/>
      <use xlink:href="#DejaVuSans-5f" x="418.847656"/>
      <use xlink:href="#DejaVuSans-73" x="468.847656"/>
      <use xlink:href="#DejaVuSans-74" x="520.947266"/>
      <use xlink:href="#DejaVuSans-61" x="560.15625"/>
      <use xlink:href="#DejaVuSans-6e" x="621.435547"/>
      <use xlink:href="#DejaVuSans-64" x="684.814453"/>
      <use xlink:href="#DejaVuSans-61" x="748.291016"/>
      <use xlink:href="#DejaVuSans-6c" x="809.570312"/>
      <use xlink:href="#DejaVuSans-6f" x="837.353516"/>
      <use xlink:href="#DejaVuSans-6e" x="898.535156"/>
      <use xlink:href="#DejaVuSans-65" x="961.914062"/>
      <use xlink:href="#DejaVuSans-5f" x="1023.4375"/>
      <use xlink:href="#DejaVuSans-64" x="1073.4375"/>
      <use xlink:href="#DejaVuSans-31" x="1136.914062"/>
      <use xlink:href="#DejaVuSans-30" x="1200.537109"/>
      <use xlink:href="#DejaVuSans-5f" x="1264.160156"/>
      <use xlink:href="#DejaVuSans-68" x="1314.160156"/>
      <use xlink:href="#DejaVuSans-30" x="1377.539062"/>
     </g>
    </g>
    <g id="line2d_22">
     <path d="M 66.6 99.161063 
L 76.6 99.161063 
L 86.6 99.161063 
" style="fill: none; stroke-dasharray: 1.5,1.5; stroke-dashoffset: 0; stroke: #2ca02c; stroke-width: 1.5"/>
     <g>
      <use xlink:href="#ma90a2d558e" x="76.6" y="99.161063" style="fill: #2ca02c; stroke: #ffffff; stroke-width: 0.75; stroke-linejoin: miter"/>
     </g>
    </g>
    <g id="text_17">
     <!-- baseline_layered_d10_h50 -->
     <g transform="translate(94.6 102.661063) scale(0.1 -0.1)">
      <defs>
       <path id="DejaVuSans-79" d="M 2059 -325 
Q 1816 -950 1584 -1140 
Q 1353 -1331 966 -1331 
L 506 -1331 
L 506 -850 
L 844 -850 
Q 1081 -850 1212 -737 
Q 1344 -625 1503 -206 
L 1606 56 
L 191 3500 
L 800 3500 
L 1894 763 
L 2988 3500 
L 3597 3500 
L 2059 -325 
z
" transform="scale(0.015625)"/>
      </defs>
      <use xlink:href="#DejaVuSans-62"/>
      <use xlink:href="#DejaVuSans-61" x="63.476562"/>
      <use xlink:href="#DejaVuSans-73" x="124.755859"/>
      <use xlink:href="#DejaVuSans-65" x="176.855469"/>
      <use xlink:href="#DejaVuSans-6c" x="238.378906"/>
      <use xlink:href="#DejaVuSans-69" x="266.162109"/>
      <use xlink:href="#DejaVuSans-6e" x="293.945312"/>
      <use xlink:href="#DejaVuSans-65" x="357.324219"/>
      <use xlink:href="#DejaVuSans-5f" x="418.847656"/>
      <use xlink:href="#DejaVuSans-6c" x="468.847656"/>
      <use xlink:href="#DejaVuSans-61" x="496.630859"/>
      <use xlink:href="#DejaVuSans-79" x="557.910156"/>
      <use xlink:href="#DejaVuSans-65" x="617.089844"/>
      <use xlink:href="#DejaVuSans-72" x="678.613281"/>
      <use xlink:href="#DejaVuSans-65" x="717.476562"/>
      <use xlink:href="#DejaVuSans-64" x="779"/>
      <use xlink:href="#DejaVuSans-5f" x="842.476562"/>
      <use xlink:href="#DejaVuSans-64" x="892.476562"/>
      <use xlink:href="#DejaVuSans-31" x="955.953125"/>
      <use xlink:href="#DejaVuSans-30" x="1019.576172"/>
      <use xlink:href="#DejaVuSans-5f" x="1083.199219"/>
      <use xlink:href="#DejaVuSans-68" x="1133.199219"/>
      <use xlink:href="#DejaVuSans-35" x="1196.578125"/>
      <use xlink:href="#DejaVuSans-30" x="1260.201172"/>
     </g>
    </g>
   </g>
  </g>
 </g>
 <defs>
  <clipPath id="p0b71bffdf2">
   <rect x="57.6" y="41.472" width="357.12" height="266.112"/>
  </clipPath>
 </defs>
</svg>
