<?xml version="1.0" encoding="utf-8" standalone="no"?>
<!DOCTYPE svg PUBLIC "-//W3C//DTD SVG 1.1//EN"
  "http://www.w3.org/Graphics/SVG/1.1/DTD/svg11.dtd">
<svg xmlns:xlink="http://www.w3.org/1999/xlink" width="460.8pt" height="345.6pt" viewBox="0 0 460.8 345.6" xmlns="http://www.w3.org/2000/svg" version="1.1">
 <metadata>
  <rdf:RDF xmlns:dc="http://purl.org/dc/elements/1.1/" xmlns:cc="http://creativecommons.org/ns#" xmlns:rdf="http://www.w3.org/1999/02/22-rdf-syntax-ns#">
   <cc:Work>
    <dc:type rdf:resource="http://purl.org/dc/dcmitype/StillImage"/>
    <dc:date>2024-07-02T17:07:24.713335</dc:date>
    <dc:format>image/svg+xml</dc:format>
    <dc:creator>
     <cc:Agent>
      <dc:title>Matplotlib v3.8.4, https://matplotlib.org/</dc:title>
     </cc:Agent>
    </dc:creator>
   </cc:Work>
  </rdf:RDF>
 </metadata>
 <defs>
  <style type="text/css">*{stroke-linejoin: round; stroke-linecap: butt}</style>
 </defs>
 <g id="figure_1">
  <g id="patch_1">
   <path d="M 0 345.6 
L 460.8 345.6 
L 460.8 0 
L 0 0 
L 0 345.6 
z
" style="fill: none"/>
  </g>
  <g id="axes_1">
   <g id="patch_2">
    <path d="M 57.6 307.584 
L 414.72 307.584 
L 414.72 41.472 
L 57.6 41.472 
L 57.6 307.584 
z
" style="fill: none"/>
   </g>
   <g id="PolyCollection_1">
    <defs>
     <path id="m67f6e55424" d="M 73.527515 -50.112 
L 71.350976 -50.112 
L 75.701797 -55.259234 
L 80.030611 -60.406468 
L 85.051448 -65.553702 
L 90.7107 -70.700936 
L 94.669635 -75.84817 
L 98.981287 -80.995404 
L 103.857461 -86.142638 
L 108.873474 -91.289872 
L 113.20839 -96.437106 
L 117.893543 -101.58434 
L 122.977838 -106.731574 
L 127.671979 -111.878809 
L 132.614392 -117.026043 
L 137.416811 -122.173277 
L 142.095013 -127.320511 
L 146.697247 -132.467745 
L 151.400886 -137.614979 
L 156.054559 -142.762213 
L 160.582385 -147.909447 
L 165.579771 -153.056681 
L 170.45563 -158.203915 
L 175.260398 -163.351149 
L 179.815578 -168.498383 
L 184.471717 -173.645617 
L 188.745009 -178.792851 
L 194.174116 -183.940085 
L 199.336953 -189.087319 
L 203.967802 -194.234553 
L 208.508381 -199.381787 
L 213.291559 -204.529021 
L 217.941315 -209.676255 
L 222.479323 -214.823489 
L 226.659741 -219.970723 
L 231.636415 -225.117957 
L 235.75348 -230.265191 
L 240.878761 -235.412426 
L 246.080813 -240.55966 
L 250.494747 -245.706894 
L 254.813066 -250.854128 
L 260.1011 -256.001362 
L 264.725157 -261.148596 
L 269.316929 -266.29583 
L 274.556547 -271.443064 
L 278.771726 -276.590298 
L 283.900546 -281.737532 
L 290.284701 -286.884766 
L 293.545543 -292.032 
L 298.555745 -292.032 
L 298.555745 -292.032 
L 296.547349 -286.884766 
L 289.225695 -281.737532 
L 284.589735 -276.590298 
L 280.208295 -271.443064 
L 275.20616 -266.29583 
L 270.095866 -261.148596 
L 265.060308 -256.001362 
L 259.978997 -250.854128 
L 255.755673 -245.706894 
L 251.497805 -240.55966 
L 246.548215 -235.412426 
L 241.550808 -230.265191 
L 236.930483 -225.117957 
L 231.834786 -219.970723 
L 227.2806 -214.823489 
L 222.57345 -209.676255 
L 218.08158 -204.529021 
L 213.267506 -199.381787 
L 208.345345 -194.234553 
L 203.566374 -189.087319 
L 198.755954 -183.940085 
L 193.653165 -178.792851 
L 189.060459 -173.645617 
L 184.059392 -168.498383 
L 179.322496 -163.351149 
L 174.609833 -158.203915 
L 169.906884 -153.056681 
L 165.371361 -147.909447 
L 161.270894 -142.762213 
L 155.380999 -137.614979 
L 150.520561 -132.467745 
L 145.876558 -127.320511 
L 140.74769 -122.173277 
L 135.761632 -117.026043 
L 130.597068 -111.878809 
L 125.764702 -106.731574 
L 120.713712 -101.58434 
L 116.289663 -96.437106 
L 112.956655 -91.289872 
L 106.829757 -86.142638 
L 102.080776 -80.995404 
L 97.299143 -75.84817 
L 92.804193 -70.700936 
L 87.633362 -65.553702 
L 82.346915 -60.406468 
L 78.203577 -55.259234 
L 73.527515 -50.112 
z
" style="stroke: #1f77b4; stroke-opacity: 0.2; stroke-width: 0.8"/>
    </defs>
    <g clip-path="url(#p2ac1e1d428)">
     <use xlink:href="#m67f6e55424" x="0" y="345.6" style="fill: #1f77b4; fill-opacity: 0.2; stroke: #1f77b4; stroke-opacity: 0.2; stroke-width: 0.8"/>
    </g>
   </g>
   <g id="PolyCollection_2">
    <defs>
     <path id="m3fcf0229ca" d="M 98.91638 -50.112 
L 79.767743 -50.112 
L 84.47327 -55.259234 
L 89.737306 -60.406468 
L 95.16371 -65.553702 
L 100.122122 -70.700936 
L 104.919219 -75.84817 
L 109.922876 -80.995404 
L 115.325737 -86.142638 
L 119.902674 -91.289872 
L 125.404455 -96.437106 
L 130.209723 -101.58434 
L 134.820477 -106.731574 
L 138.77483 -111.878809 
L 144.39537 -117.026043 
L 149.75679 -122.173277 
L 153.676253 -127.320511 
L 159.467048 -132.467745 
L 163.709156 -137.614979 
L 168.351957 -142.762213 
L 173.208259 -147.909447 
L 178.133193 -153.056681 
L 183.457072 -158.203915 
L 187.858714 -163.351149 
L 193.448878 -168.498383 
L 197.816535 -173.645617 
L 203.020501 -178.792851 
L 207.919031 -183.940085 
L 212.454556 -189.087319 
L 217.437316 -194.234553 
L 222.117682 -199.381787 
L 227.805954 -204.529021 
L 232.633449 -209.676255 
L 237.437143 -214.823489 
L 241.965818 -219.970723 
L 247.066791 -225.117957 
L 251.941131 -230.265191 
L 258.533547 -235.412426 
L 262.029347 -240.55966 
L 266.775594 -245.706894 
L 271.729674 -250.854128 
L 276.436863 -256.001362 
L 281.440539 -261.148596 
L 285.781043 -266.29583 
L 290.787342 -271.443064 
L 296.633118 -276.590298 
L 300.557054 -281.737532 
L 305.509106 -286.884766 
L 310.85975 -292.032 
L 330.384794 -292.032 
L 330.384794 -292.032 
L 324.595026 -286.884766 
L 319.991457 -281.737532 
L 315.295793 -276.590298 
L 310.774076 -271.443064 
L 305.144471 -266.29583 
L 300.309265 -261.148596 
L 295.204808 -256.001362 
L 291.066712 -250.854128 
L 284.469066 -245.706894 
L 280.634178 -240.55966 
L 275.681054 -235.412426 
L 269.858451 -230.265191 
L 265.086893 -225.117957 
L 260.435265 -219.970723 
L 255.596568 -214.823489 
L 249.583337 -209.676255 
L 245.45756 -204.529021 
L 239.392804 -199.381787 
L 235.252441 -194.234553 
L 230.263295 -189.087319 
L 225.861658 -183.940085 
L 220.386694 -178.792851 
L 215.154367 -173.645617 
L 209.502774 -168.498383 
L 204.392694 -163.351149 
L 199.537104 -158.203915 
L 195.115416 -153.056681 
L 190.036863 -147.909447 
L 184.945039 -142.762213 
L 179.891336 -137.614979 
L 175.077274 -132.467745 
L 169.964271 -127.320511 
L 166.483772 -122.173277 
L 162.518755 -117.026043 
L 156.479843 -111.878809 
L 151.234826 -106.731574 
L 147.050015 -101.58434 
L 142.409832 -96.437106 
L 137.486524 -91.289872 
L 132.450847 -86.142638 
L 127.948131 -80.995404 
L 123.065973 -75.84817 
L 118.341685 -70.700936 
L 113.769208 -65.553702 
L 107.823724 -60.406468 
L 103.94178 -55.259234 
L 98.91638 -50.112 
z
" style="stroke: #ff7f0e; stroke-opacity: 0.2; stroke-width: 0.8"/>
    </defs>
    <g clip-path="url(#p2ac1e1d428)">
     <use xlink:href="#m3fcf0229ca" x="0" y="345.6" style="fill: #ff7f0e; fill-opacity: 0.2; stroke: #ff7f0e; stroke-opacity: 0.2; stroke-width: 0.8"/>
    </g>
   </g>
   <g id="PolyCollection_3">
    <defs>
     <path id="m48e8f39796" d="M 129.089775 -50.112 
L 81.492325 -50.112 
L 88.505317 -55.259234 
L 93.050626 -60.406468 
L 99.945974 -65.553702 
L 107.663856 -70.700936 
L 117.692262 -75.84817 
L 121.297112 -80.995404 
L 125.325687 -86.142638 
L 129.193085 -91.289872 
L 141.549303 -96.437106 
L 140.567718 -101.58434 
L 146.694985 -106.731574 
L 151.914628 -111.878809 
L 157.947712 -117.026043 
L 163.705513 -122.173277 
L 168.100456 -127.320511 
L 171.895153 -132.467745 
L 181.154085 -137.614979 
L 185.049924 -142.762213 
L 190.062357 -147.909447 
L 194.531133 -153.056681 
L 200.607934 -158.203915 
L 206.51437 -163.351149 
L 212.582052 -168.498383 
L 217.585324 -173.645617 
L 222.651274 -178.792851 
L 226.922146 -183.940085 
L 231.315404 -189.087319 
L 238.532158 -194.234553 
L 245.972078 -199.381787 
L 248.657341 -204.529021 
L 253.522531 -209.676255 
L 260.800233 -214.823489 
L 266.188863 -219.970723 
L 268.631516 -225.117957 
L 273.437764 -230.265191 
L 284.299854 -235.412426 
L 288.732655 -240.55966 
L 294.56913 -245.706894 
L 298.437792 -250.854128 
L 302.831705 -256.001362 
L 309.859955 -261.148596 
L 317.348582 -266.29583 
L 321.528864 -271.443064 
L 331.08513 -276.590298 
L 335.432046 -281.737532 
L 343.851012 -286.884766 
L 349.586981 -292.032 
L 398.945438 -292.032 
L 398.945438 -292.032 
L 391.257464 -286.884766 
L 386.27249 -281.737532 
L 381.92825 -276.590298 
L 371.855269 -271.443064 
L 371.217665 -266.29583 
L 362.6129 -261.148596 
L 356.431313 -256.001362 
L 347.908398 -250.854128 
L 341.739602 -245.706894 
L 332.805901 -240.55966 
L 328.787157 -235.412426 
L 321.107825 -230.265191 
L 315.899907 -225.117957 
L 311.668952 -219.970723 
L 305.35417 -214.823489 
L 299.78527 -209.676255 
L 293.310621 -204.529021 
L 291.273092 -199.381787 
L 284.873692 -194.234553 
L 277.79827 -189.087319 
L 271.920198 -183.940085 
L 267.640093 -178.792851 
L 262.244382 -173.645617 
L 257.003136 -168.498383 
L 253.505614 -163.351149 
L 247.129082 -158.203915 
L 239.836288 -153.056681 
L 237.11703 -147.909447 
L 231.642083 -142.762213 
L 225.55914 -137.614979 
L 218.703169 -132.467745 
L 213.449153 -127.320511 
L 212.166494 -122.173277 
L 204.737856 -117.026043 
L 196.390825 -111.878809 
L 191.892535 -106.731574 
L 186.016313 -101.58434 
L 178.891101 -96.437106 
L 174.99988 -91.289872 
L 166.910065 -86.142638 
L 164.33415 -80.995404 
L 158.411245 -75.84817 
L 150.787137 -70.700936 
L 144.346908 -65.553702 
L 138.813122 -60.406468 
L 133.174933 -55.259234 
L 129.089775 -50.112 
z
" style="stroke: #2ca02c; stroke-opacity: 0.2; stroke-width: 0.8"/>
    </defs>
    <g clip-path="url(#p2ac1e1d428)">
     <use xlink:href="#m48e8f39796" x="0" y="345.6" style="fill: #2ca02c; fill-opacity: 0.2; stroke: #2ca02c; stroke-opacity: 0.2; stroke-width: 0.8"/>
    </g>
   </g>
   <g id="matplotlib.axis_1">
    <g id="xtick_1">
     <g id="line2d_1">
      <defs>
       <path id="m7f11ab030c" d="M 0 0 
L 0 4.8 
" style="stroke: #000000"/>
      </defs>
      <g>
       <use xlink:href="#m7f11ab030c" x="57.6" y="307.584" style="stroke: #000000"/>
      </g>
     </g>
     <g id="text_1">
      <!-- 0 -->
      <g transform="translate(50.60125 332.600562) scale(0.22 -0.22)">
       <defs>
        <path id="DejaVuSans-30" d="M 2034 4250 
Q 1547 4250 1301 3770 
Q 1056 3291 1056 2328 
Q 1056 1369 1301 889 
Q 1547 409 2034 409 
Q 2525 409 2770 889 
Q 3016 1369 3016 2328 
Q 3016 3291 2770 3770 
Q 2525 4250 2034 4250 
z
M 2034 4750 
Q 2819 4750 3233 4129 
Q 3647 3509 3647 2328 
Q 3647 1150 3233 529 
Q 2819 -91 2034 -91 
Q 1250 -91 836 529 
Q 422 1150 422 2328 
Q 422 3509 836 4129 
Q 1250 4750 2034 4750 
z
" transform="scale(0.015625)"/>
       </defs>
       <use xlink:href="#DejaVuSans-30"/>
      </g>
     </g>
    </g>
    <g id="xtick_2">
     <g id="line2d_2">
      <g>
       <use xlink:href="#m7f11ab030c" x="176.64" y="307.584" style="stroke: #000000"/>
      </g>
     </g>
     <g id="text_2">
      <!-- 20 -->
      <g transform="translate(162.6425 332.600562) scale(0.22 -0.22)">
       <defs>
        <path id="DejaVuSans-32" d="M 1228 531 
L 3431 531 
L 3431 0 
L 469 0 
L 469 531 
Q 828 903 1448 1529 
Q 2069 2156 2228 2338 
Q 2531 2678 2651 2914 
Q 2772 3150 2772 3378 
Q 2772 3750 2511 3984 
Q 2250 4219 1831 4219 
Q 1534 4219 1204 4116 
Q 875 4013 500 3803 
L 500 4441 
Q 881 4594 1212 4672 
Q 1544 4750 1819 4750 
Q 2544 4750 2975 4387 
Q 3406 4025 3406 3419 
Q 3406 3131 3298 2873 
Q 3191 2616 2906 2266 
Q 2828 2175 2409 1742 
Q 1991 1309 1228 531 
z
" transform="scale(0.015625)"/>
       </defs>
       <use xlink:href="#DejaVuSans-32"/>
       <use xlink:href="#DejaVuSans-30" x="63.623047"/>
      </g>
     </g>
    </g>
    <g id="xtick_3">
     <g id="line2d_3">
      <g>
       <use xlink:href="#m7f11ab030c" x="295.68" y="307.584" style="stroke: #000000"/>
      </g>
     </g>
     <g id="text_3">
      <!-- 40 -->
      <g transform="translate(281.6825 332.600562) scale(0.22 -0.22)">
       <defs>
        <path id="DejaVuSans-34" d="M 2419 4116 
L 825 1625 
L 2419 1625 
L 2419 4116 
z
M 2253 4666 
L 3047 4666 
L 3047 1625 
L 3713 1625 
L 3713 1100 
L 3047 1100 
L 3047 0 
L 2419 0 
L 2419 1100 
L 313 1100 
L 313 1709 
L 2253 4666 
z
" transform="scale(0.015625)"/>
       </defs>
       <use xlink:href="#DejaVuSans-34"/>
       <use xlink:href="#DejaVuSans-30" x="63.623047"/>
      </g>
     </g>
    </g>
    <g id="xtick_4">
     <g id="line2d_4">
      <g>
       <use xlink:href="#m7f11ab030c" x="414.72" y="307.584" style="stroke: #000000"/>
      </g>
     </g>
     <g id="text_4">
      <!-- 60 -->
      <g transform="translate(400.7225 332.600562) scale(0.22 -0.22)">
       <defs>
        <path id="DejaVuSans-36" d="M 2113 2584 
Q 1688 2584 1439 2293 
Q 1191 2003 1191 1497 
Q 1191 994 1439 701 
Q 1688 409 2113 409 
Q 2538 409 2786 701 
Q 3034 994 3034 1497 
Q 3034 2003 2786 2293 
Q 2538 2584 2113 2584 
z
M 3366 4563 
L 3366 3988 
Q 3128 4100 2886 4159 
Q 2644 4219 2406 4219 
Q 1781 4219 1451 3797 
Q 1122 3375 1075 2522 
Q 1259 2794 1537 2939 
Q 1816 3084 2150 3084 
Q 2853 3084 3261 2657 
Q 3669 2231 3669 1497 
Q 3669 778 3244 343 
Q 2819 -91 2113 -91 
Q 1303 -91 875 529 
Q 447 1150 447 2328 
Q 447 3434 972 4092 
Q 1497 4750 2381 4750 
Q 2619 4750 2861 4703 
Q 3103 4656 3366 4563 
z
" transform="scale(0.015625)"/>
       </defs>
       <use xlink:href="#DejaVuSans-36"/>
       <use xlink:href="#DejaVuSans-30" x="63.623047"/>
      </g>
     </g>
    </g>
   </g>
   <g id="matplotlib.axis_2">
    <g id="ytick_1">
     <g id="line2d_5">
      <defs>
       <path id="m5804671870" d="M 0 0 
L -4.8 0 
" style="stroke: #000000"/>
      </defs>
      <g>
       <use xlink:href="#m5804671870" x="57.6" y="300.635234" style="stroke: #000000"/>
      </g>
     </g>
     <g id="text_5">
      <!-- 0 -->
      <g transform="translate(35.3025 308.993515) scale(0.22 -0.22)">
       <use xlink:href="#DejaVuSans-30"/>
      </g>
     </g>
    </g>
    <g id="ytick_2">
     <g id="line2d_6">
      <g>
       <use xlink:href="#m5804671870" x="57.6" y="251.221787" style="stroke: #000000"/>
      </g>
     </g>
     <g id="text_6">
      <!-- 20 -->
      <g transform="translate(21.305 259.580068) scale(0.22 -0.22)">
       <use xlink:href="#DejaVuSans-32"/>
       <use xlink:href="#DejaVuSans-30" x="63.623047"/>
      </g>
     </g>
    </g>
    <g id="ytick_3">
     <g id="line2d_7">
      <g>
       <use xlink:href="#m5804671870" x="57.6" y="201.80834" style="stroke: #000000"/>
      </g>
     </g>
     <g id="text_7">
      <!-- 40 -->
      <g transform="translate(21.305 210.166622) scale(0.22 -0.22)">
       <use xlink:href="#DejaVuSans-34"/>
       <use xlink:href="#DejaVuSans-30" x="63.623047"/>
      </g>
     </g>
    </g>
    <g id="ytick_4">
     <g id="line2d_8">
      <g>
       <use xlink:href="#m5804671870" x="57.6" y="152.394894" style="stroke: #000000"/>
      </g>
     </g>
     <g id="text_8">
      <!-- 60 -->
      <g transform="translate(21.305 160.753175) scale(0.22 -0.22)">
       <use xlink:href="#DejaVuSans-36"/>
       <use xlink:href="#DejaVuSans-30" x="63.623047"/>
      </g>
     </g>
    </g>
    <g id="ytick_5">
     <g id="line2d_9">
      <g>
       <use xlink:href="#m5804671870" x="57.6" y="102.981447" style="stroke: #000000"/>
      </g>
     </g>
     <g id="text_9">
      <!-- 80 -->
      <g transform="translate(21.305 111.339728) scale(0.22 -0.22)">
       <defs>
        <path id="DejaVuSans-38" d="M 2034 2216 
Q 1584 2216 1326 1975 
Q 1069 1734 1069 1313 
Q 1069 891 1326 650 
Q 1584 409 2034 409 
Q 2484 409 2743 651 
Q 3003 894 3003 1313 
Q 3003 1734 2745 1975 
Q 2488 2216 2034 2216 
z
M 1403 2484 
Q 997 2584 770 2862 
Q 544 3141 544 3541 
Q 544 4100 942 4425 
Q 1341 4750 2034 4750 
Q 2731 4750 3128 4425 
Q 3525 4100 3525 3541 
Q 3525 3141 3298 2862 
Q 3072 2584 2669 2484 
Q 3125 2378 3379 2068 
Q 3634 1759 3634 1313 
Q 3634 634 3220 271 
Q 2806 -91 2034 -91 
Q 1263 -91 848 271 
Q 434 634 434 1313 
Q 434 1759 690 2068 
Q 947 2378 1403 2484 
z
M 1172 3481 
Q 1172 3119 1398 2916 
Q 1625 2713 2034 2713 
Q 2441 2713 2670 2916 
Q 2900 3119 2900 3481 
Q 2900 3844 2670 4047 
Q 2441 4250 2034 4250 
Q 1625 4250 1398 4047 
Q 1172 3844 1172 3481 
z
" transform="scale(0.015625)"/>
       </defs>
       <use xlink:href="#DejaVuSans-38"/>
       <use xlink:href="#DejaVuSans-30" x="63.623047"/>
      </g>
     </g>
    </g>
    <g id="ytick_6">
     <g id="line2d_10">
      <g>
       <use xlink:href="#m5804671870" x="57.6" y="53.568" style="stroke: #000000"/>
      </g>
     </g>
     <g id="text_10">
      <!-- 100 -->
      <g transform="translate(7.3075 61.926281) scale(0.22 -0.22)">
       <defs>
        <path id="DejaVuSans-31" d="M 794 531 
L 1825 531 
L 1825 4091 
L 703 3866 
L 703 4441 
L 1819 4666 
L 2450 4666 
L 2450 531 
L 3481 531 
L 3481 0 
L 794 0 
L 794 531 
z
" transform="scale(0.015625)"/>
       </defs>
       <use xlink:href="#DejaVuSans-31"/>
       <use xlink:href="#DejaVuSans-30" x="63.623047"/>
       <use xlink:href="#DejaVuSans-30" x="127.246094"/>
      </g>
     </g>
    </g>
   </g>
   <g id="line2d_11">
    <path d="M 72.486239 295.488 
L 76.975039 290.340766 
L 81.228239 285.193532 
L 86.411439 280.046298 
L 91.879839 274.899064 
L 96.033839 269.75183 
L 100.733439 264.604596 
L 105.408239 259.457362 
L 110.765039 254.310128 
L 114.857039 249.162894 
L 119.370639 244.01566 
L 124.367839 238.868426 
L 129.179039 233.721191 
L 134.188639 228.573957 
L 139.061839 223.426723 
L 144.071439 218.279489 
L 148.758639 213.132255 
L 153.532639 207.985021 
L 158.691039 202.837787 
L 163.105439 197.690553 
L 167.978639 192.543319 
L 172.690639 187.396085 
L 177.464639 182.248851 
L 182.102239 177.101617 
L 186.975439 171.954383 
L 191.625439 166.807149 
L 196.684639 161.659915 
L 201.657039 156.512681 
L 206.406239 151.365447 
L 211.155439 146.218213 
L 215.929439 141.070979 
L 220.405839 135.923745 
L 225.043439 130.776511 
L 229.420639 125.629277 
L 234.120239 120.482043 
L 238.497439 115.334809 
L 243.544239 110.187574 
L 248.901039 105.04034 
L 253.352639 99.893106 
L 257.568639 94.745872 
L 262.677439 89.598638 
L 267.439039 84.451404 
L 272.151039 79.30417 
L 277.421039 74.156936 
L 281.686639 69.009702 
L 286.522639 63.862468 
L 293.094639 58.715234 
L 295.934239 53.568 
" clip-path="url(#p2ac1e1d428)" style="fill: none; stroke: #1f77b4; stroke-width: 1.2; stroke-linecap: square"/>
    <defs>
     <path id="mb99cef3912" d="M 0 2.4 
C 0.636487 2.4 1.246992 2.147121 1.697056 1.697056 
C 2.147121 1.246992 2.4 0.636487 2.4 0 
C 2.4 -0.636487 2.147121 -1.246992 1.697056 -1.697056 
C 1.246992 -2.147121 0.636487 -2.4 0 -2.4 
C -0.636487 -2.4 -1.246992 -2.147121 -1.697056 -1.697056 
C -2.147121 -1.246992 -2.4 -0.636487 -2.4 0 
C -2.4 0.636487 -2.147121 1.246992 -1.697056 1.697056 
C -1.246992 2.147121 -0.636487 2.4 0 2.4 
z
" style="stroke: #ffffff; stroke-width: 0.75"/>
    </defs>
    <g clip-path="url(#p2ac1e1d428)">
     <use xlink:href="#mb99cef3912" x="72.486239" y="295.488" style="fill: #1f77b4; stroke: #ffffff; stroke-width: 0.75"/>
     <use xlink:href="#mb99cef3912" x="76.975039" y="290.340766" style="fill: #1f77b4; stroke: #ffffff; stroke-width: 0.75"/>
     <use xlink:href="#mb99cef3912" x="81.228239" y="285.193532" style="fill: #1f77b4; stroke: #ffffff; stroke-width: 0.75"/>
     <use xlink:href="#mb99cef3912" x="86.411439" y="280.046298" style="fill: #1f77b4; stroke: #ffffff; stroke-width: 0.75"/>
     <use xlink:href="#mb99cef3912" x="91.879839" y="274.899064" style="fill: #1f77b4; stroke: #ffffff; stroke-width: 0.75"/>
     <use xlink:href="#mb99cef3912" x="96.033839" y="269.75183" style="fill: #1f77b4; stroke: #ffffff; stroke-width: 0.75"/>
     <use xlink:href="#mb99cef3912" x="100.733439" y="264.604596" style="fill: #1f77b4; stroke: #ffffff; stroke-width: 0.75"/>
     <use xlink:href="#mb99cef3912" x="105.408239" y="259.457362" style="fill: #1f77b4; stroke: #ffffff; stroke-width: 0.75"/>
     <use xlink:href="#mb99cef3912" x="110.765039" y="254.310128" style="fill: #1f77b4; stroke: #ffffff; stroke-width: 0.75"/>
     <use xlink:href="#mb99cef3912" x="114.857039" y="249.162894" style="fill: #1f77b4; stroke: #ffffff; stroke-width: 0.75"/>
     <use xlink:href="#mb99cef3912" x="119.370639" y="244.01566" style="fill: #1f77b4; stroke: #ffffff; stroke-width: 0.75"/>
     <use xlink:href="#mb99cef3912" x="124.367839" y="238.868426" style="fill: #1f77b4; stroke: #ffffff; stroke-width: 0.75"/>
     <use xlink:href="#mb99cef3912" x="129.179039" y="233.721191" style="fill: #1f77b4; stroke: #ffffff; stroke-width: 0.75"/>
     <use xlink:href="#mb99cef3912" x="134.188639" y="228.573957" style="fill: #1f77b4; stroke: #ffffff; stroke-width: 0.75"/>
     <use xlink:href="#mb99cef3912" x="139.061839" y="223.426723" style="fill: #1f77b4; stroke: #ffffff; stroke-width: 0.75"/>
     <use xlink:href="#mb99cef3912" x="144.071439" y="218.279489" style="fill: #1f77b4; stroke: #ffffff; stroke-width: 0.75"/>
     <use xlink:href="#mb99cef3912" x="148.758639" y="213.132255" style="fill: #1f77b4; stroke: #ffffff; stroke-width: 0.75"/>
     <use xlink:href="#mb99cef3912" x="153.532639" y="207.985021" style="fill: #1f77b4; stroke: #ffffff; stroke-width: 0.75"/>
     <use xlink:href="#mb99cef3912" x="158.691039" y="202.837787" style="fill: #1f77b4; stroke: #ffffff; stroke-width: 0.75"/>
     <use xlink:href="#mb99cef3912" x="163.105439" y="197.690553" style="fill: #1f77b4; stroke: #ffffff; stroke-width: 0.75"/>
     <use xlink:href="#mb99cef3912" x="167.978639" y="192.543319" style="fill: #1f77b4; stroke: #ffffff; stroke-width: 0.75"/>
     <use xlink:href="#mb99cef3912" x="172.690639" y="187.396085" style="fill: #1f77b4; stroke: #ffffff; stroke-width: 0.75"/>
     <use xlink:href="#mb99cef3912" x="177.464639" y="182.248851" style="fill: #1f77b4; stroke: #ffffff; stroke-width: 0.75"/>
     <use xlink:href="#mb99cef3912" x="182.102239" y="177.101617" style="fill: #1f77b4; stroke: #ffffff; stroke-width: 0.75"/>
     <use xlink:href="#mb99cef3912" x="186.975439" y="171.954383" style="fill: #1f77b4; stroke: #ffffff; stroke-width: 0.75"/>
     <use xlink:href="#mb99cef3912" x="191.625439" y="166.807149" style="fill: #1f77b4; stroke: #ffffff; stroke-width: 0.75"/>
     <use xlink:href="#mb99cef3912" x="196.684639" y="161.659915" style="fill: #1f77b4; stroke: #ffffff; stroke-width: 0.75"/>
     <use xlink:href="#mb99cef3912" x="201.657039" y="156.512681" style="fill: #1f77b4; stroke: #ffffff; stroke-width: 0.75"/>
     <use xlink:href="#mb99cef3912" x="206.406239" y="151.365447" style="fill: #1f77b4; stroke: #ffffff; stroke-width: 0.75"/>
     <use xlink:href="#mb99cef3912" x="211.155439" y="146.218213" style="fill: #1f77b4; stroke: #ffffff; stroke-width: 0.75"/>
     <use xlink:href="#mb99cef3912" x="215.929439" y="141.070979" style="fill: #1f77b4; stroke: #ffffff; stroke-width: 0.75"/>
     <use xlink:href="#mb99cef3912" x="220.405839" y="135.923745" style="fill: #1f77b4; stroke: #ffffff; stroke-width: 0.75"/>
     <use xlink:href="#mb99cef3912" x="225.043439" y="130.776511" style="fill: #1f77b4; stroke: #ffffff; stroke-width: 0.75"/>
     <use xlink:href="#mb99cef3912" x="229.420639" y="125.629277" style="fill: #1f77b4; stroke: #ffffff; stroke-width: 0.75"/>
     <use xlink:href="#mb99cef3912" x="234.120239" y="120.482043" style="fill: #1f77b4; stroke: #ffffff; stroke-width: 0.75"/>
     <use xlink:href="#mb99cef3912" x="238.497439" y="115.334809" style="fill: #1f77b4; stroke: #ffffff; stroke-width: 0.75"/>
     <use xlink:href="#mb99cef3912" x="243.544239" y="110.187574" style="fill: #1f77b4; stroke: #ffffff; stroke-width: 0.75"/>
     <use xlink:href="#mb99cef3912" x="248.901039" y="105.04034" style="fill: #1f77b4; stroke: #ffffff; stroke-width: 0.75"/>
     <use xlink:href="#mb99cef3912" x="253.352639" y="99.893106" style="fill: #1f77b4; stroke: #ffffff; stroke-width: 0.75"/>
     <use xlink:href="#mb99cef3912" x="257.568639" y="94.745872" style="fill: #1f77b4; stroke: #ffffff; stroke-width: 0.75"/>
     <use xlink:href="#mb99cef3912" x="262.677439" y="89.598638" style="fill: #1f77b4; stroke: #ffffff; stroke-width: 0.75"/>
     <use xlink:href="#mb99cef3912" x="267.439039" y="84.451404" style="fill: #1f77b4; stroke: #ffffff; stroke-width: 0.75"/>
     <use xlink:href="#mb99cef3912" x="272.151039" y="79.30417" style="fill: #1f77b4; stroke: #ffffff; stroke-width: 0.75"/>
     <use xlink:href="#mb99cef3912" x="277.421039" y="74.156936" style="fill: #1f77b4; stroke: #ffffff; stroke-width: 0.75"/>
     <use xlink:href="#mb99cef3912" x="281.686639" y="69.009702" style="fill: #1f77b4; stroke: #ffffff; stroke-width: 0.75"/>
     <use xlink:href="#mb99cef3912" x="286.522639" y="63.862468" style="fill: #1f77b4; stroke: #ffffff; stroke-width: 0.75"/>
     <use xlink:href="#mb99cef3912" x="293.094639" y="58.715234" style="fill: #1f77b4; stroke: #ffffff; stroke-width: 0.75"/>
     <use xlink:href="#mb99cef3912" x="295.934239" y="53.568" style="fill: #1f77b4; stroke: #ffffff; stroke-width: 0.75"/>
    </g>
   </g>
   <g id="line2d_12">
    <path d="M 88.056978 295.488 
L 93.592338 290.340766 
L 98.413458 285.193532 
L 103.591698 280.046298 
L 108.561618 274.899064 
L 113.660498 269.75183 
L 118.372498 264.604596 
L 123.610258 259.457362 
L 128.510738 254.310128 
L 133.302098 249.162894 
L 137.994258 244.01566 
L 142.646738 238.868426 
L 147.249618 233.721191 
L 152.715538 228.573957 
L 157.050578 223.426723 
L 161.703058 218.279489 
L 166.563858 213.132255 
L 171.216338 207.985021 
L 176.176338 202.837787 
L 180.808978 197.690553 
L 185.897938 192.543319 
L 190.778578 187.396085 
L 195.798098 182.248851 
L 200.847378 177.101617 
L 205.797458 171.954383 
L 211.055058 166.807149 
L 215.915858 161.659915 
L 220.677458 156.512681 
L 225.935058 151.365447 
L 230.785938 146.218213 
L 236.172498 141.070979 
L 240.934098 135.923745 
L 245.864338 130.776511 
L 250.675538 125.629277 
L 255.387538 120.482043 
L 260.674898 115.334809 
L 266.111058 110.187574 
L 270.525458 105.04034 
L 275.485458 99.893106 
L 280.703378 94.745872 
L 285.018578 89.598638 
L 290.107538 84.451404 
L 294.948498 79.30417 
L 300.146578 74.156936 
L 305.513298 69.009702 
L 309.858258 63.862468 
L 314.976978 58.715234 
L 319.897298 53.568 
" clip-path="url(#p2ac1e1d428)" style="fill: none; stroke-dasharray: 4.8,1.8; stroke-dashoffset: 0; stroke: #ff7f0e; stroke-width: 1.2"/>
    <defs>
     <path id="m5293f38bbe" d="M -1.2 2.4 
L 0 1.2 
L 1.2 2.4 
L 2.4 1.2 
L 1.2 0 
L 2.4 -1.2 
L 1.2 -2.4 
L 0 -1.2 
L -1.2 -2.4 
L -2.4 -1.2 
L -1.2 0 
L -2.4 1.2 
z
" style="stroke: #ffffff; stroke-width: 0.75; stroke-linejoin: miter"/>
    </defs>
    <g clip-path="url(#p2ac1e1d428)">
     <use xlink:href="#m5293f38bbe" x="88.056978" y="295.488" style="fill: #ff7f0e; stroke: #ffffff; stroke-width: 0.75; stroke-linejoin: miter"/>
     <use xlink:href="#m5293f38bbe" x="93.592338" y="290.340766" style="fill: #ff7f0e; stroke: #ffffff; stroke-width: 0.75; stroke-linejoin: miter"/>
     <use xlink:href="#m5293f38bbe" x="98.413458" y="285.193532" style="fill: #ff7f0e; stroke: #ffffff; stroke-width: 0.75; stroke-linejoin: miter"/>
     <use xlink:href="#m5293f38bbe" x="103.591698" y="280.046298" style="fill: #ff7f0e; stroke: #ffffff; stroke-width: 0.75; stroke-linejoin: miter"/>
     <use xlink:href="#m5293f38bbe" x="108.561618" y="274.899064" style="fill: #ff7f0e; stroke: #ffffff; stroke-width: 0.75; stroke-linejoin: miter"/>
     <use xlink:href="#m5293f38bbe" x="113.660498" y="269.75183" style="fill: #ff7f0e; stroke: #ffffff; stroke-width: 0.75; stroke-linejoin: miter"/>
     <use xlink:href="#m5293f38bbe" x="118.372498" y="264.604596" style="fill: #ff7f0e; stroke: #ffffff; stroke-width: 0.75; stroke-linejoin: miter"/>
     <use xlink:href="#m5293f38bbe" x="123.610258" y="259.457362" style="fill: #ff7f0e; stroke: #ffffff; stroke-width: 0.75; stroke-linejoin: miter"/>
     <use xlink:href="#m5293f38bbe" x="128.510738" y="254.310128" style="fill: #ff7f0e; stroke: #ffffff; stroke-width: 0.75; stroke-linejoin: miter"/>
     <use xlink:href="#m5293f38bbe" x="133.302098" y="249.162894" style="fill: #ff7f0e; stroke: #ffffff; stroke-width: 0.75; stroke-linejoin: miter"/>
     <use xlink:href="#m5293f38bbe" x="137.994258" y="244.01566" style="fill: #ff7f0e; stroke: #ffffff; stroke-width: 0.75; stroke-linejoin: miter"/>
     <use xlink:href="#m5293f38bbe" x="142.646738" y="238.868426" style="fill: #ff7f0e; stroke: #ffffff; stroke-width: 0.75; stroke-linejoin: miter"/>
     <use xlink:href="#m5293f38bbe" x="147.249618" y="233.721191" style="fill: #ff7f0e; stroke: #ffffff; stroke-width: 0.75; stroke-linejoin: miter"/>
     <use xlink:href="#m5293f38bbe" x="152.715538" y="228.573957" style="fill: #ff7f0e; stroke: #ffffff; stroke-width: 0.75; stroke-linejoin: miter"/>
     <use xlink:href="#m5293f38bbe" x="157.050578" y="223.426723" style="fill: #ff7f0e; stroke: #ffffff; stroke-width: 0.75; stroke-linejoin: miter"/>
     <use xlink:href="#m5293f38bbe" x="161.703058" y="218.279489" style="fill: #ff7f0e; stroke: #ffffff; stroke-width: 0.75; stroke-linejoin: miter"/>
     <use xlink:href="#m5293f38bbe" x="166.563858" y="213.132255" style="fill: #ff7f0e; stroke: #ffffff; stroke-width: 0.75; stroke-linejoin: miter"/>
     <use xlink:href="#m5293f38bbe" x="171.216338" y="207.985021" style="fill: #ff7f0e; stroke: #ffffff; stroke-width: 0.75; stroke-linejoin: miter"/>
     <use xlink:href="#m5293f38bbe" x="176.176338" y="202.837787" style="fill: #ff7f0e; stroke: #ffffff; stroke-width: 0.75; stroke-linejoin: miter"/>
     <use xlink:href="#m5293f38bbe" x="180.808978" y="197.690553" style="fill: #ff7f0e; stroke: #ffffff; stroke-width: 0.75; stroke-linejoin: miter"/>
     <use xlink:href="#m5293f38bbe" x="185.897938" y="192.543319" style="fill: #ff7f0e; stroke: #ffffff; stroke-width: 0.75; stroke-linejoin: miter"/>
     <use xlink:href="#m5293f38bbe" x="190.778578" y="187.396085" style="fill: #ff7f0e; stroke: #ffffff; stroke-width: 0.75; stroke-linejoin: miter"/>
     <use xlink:href="#m5293f38bbe" x="195.798098" y="182.248851" style="fill: #ff7f0e; stroke: #ffffff; stroke-width: 0.75; stroke-linejoin: miter"/>
     <use xlink:href="#m5293f38bbe" x="200.847378" y="177.101617" style="fill: #ff7f0e; stroke: #ffffff; stroke-width: 0.75; stroke-linejoin: miter"/>
     <use xlink:href="#m5293f38bbe" x="205.797458" y="171.954383" style="fill: #ff7f0e; stroke: #ffffff; stroke-width: 0.75; stroke-linejoin: miter"/>
     <use xlink:href="#m5293f38bbe" x="211.055058" y="166.807149" style="fill: #ff7f0e; stroke: #ffffff; stroke-width: 0.75; stroke-linejoin: miter"/>
     <use xlink:href="#m5293f38bbe" x="215.915858" y="161.659915" style="fill: #ff7f0e; stroke: #ffffff; stroke-width: 0.75; stroke-linejoin: miter"/>
     <use xlink:href="#m5293f38bbe" x="220.677458" y="156.512681" style="fill: #ff7f0e; stroke: #ffffff; stroke-width: 0.75; stroke-linejoin: miter"/>
     <use xlink:href="#m5293f38bbe" x="225.935058" y="151.365447" style="fill: #ff7f0e; stroke: #ffffff; stroke-width: 0.75; stroke-linejoin: miter"/>
     <use xlink:href="#m5293f38bbe" x="230.785938" y="146.218213" style="fill: #ff7f0e; stroke: #ffffff; stroke-width: 0.75; stroke-linejoin: miter"/>
     <use xlink:href="#m5293f38bbe" x="236.172498" y="141.070979" style="fill: #ff7f0e; stroke: #ffffff; stroke-width: 0.75; stroke-linejoin: miter"/>
     <use xlink:href="#m5293f38bbe" x="240.934098" y="135.923745" style="fill: #ff7f0e; stroke: #ffffff; stroke-width: 0.75; stroke-linejoin: miter"/>
     <use xlink:href="#m5293f38bbe" x="245.864338" y="130.776511" style="fill: #ff7f0e; stroke: #ffffff; stroke-width: 0.75; stroke-linejoin: miter"/>
     <use xlink:href="#m5293f38bbe" x="250.675538" y="125.629277" style="fill: #ff7f0e; stroke: #ffffff; stroke-width: 0.75; stroke-linejoin: miter"/>
     <use xlink:href="#m5293f38bbe" x="255.387538" y="120.482043" style="fill: #ff7f0e; stroke: #ffffff; stroke-width: 0.75; stroke-linejoin: miter"/>
     <use xlink:href="#m5293f38bbe" x="260.674898" y="115.334809" style="fill: #ff7f0e; stroke: #ffffff; stroke-width: 0.75; stroke-linejoin: miter"/>
     <use xlink:href="#m5293f38bbe" x="266.111058" y="110.187574" style="fill: #ff7f0e; stroke: #ffffff; stroke-width: 0.75; stroke-linejoin: miter"/>
     <use xlink:href="#m5293f38bbe" x="270.525458" y="105.04034" style="fill: #ff7f0e; stroke: #ffffff; stroke-width: 0.75; stroke-linejoin: miter"/>
     <use xlink:href="#m5293f38bbe" x="275.485458" y="99.893106" style="fill: #ff7f0e; stroke: #ffffff; stroke-width: 0.75; stroke-linejoin: miter"/>
     <use xlink:href="#m5293f38bbe" x="280.703378" y="94.745872" style="fill: #ff7f0e; stroke: #ffffff; stroke-width: 0.75; stroke-linejoin: miter"/>
     <use xlink:href="#m5293f38bbe" x="285.018578" y="89.598638" style="fill: #ff7f0e; stroke: #ffffff; stroke-width: 0.75; stroke-linejoin: miter"/>
     <use xlink:href="#m5293f38bbe" x="290.107538" y="84.451404" style="fill: #ff7f0e; stroke: #ffffff; stroke-width: 0.75; stroke-linejoin: miter"/>
     <use xlink:href="#m5293f38bbe" x="294.948498" y="79.30417" style="fill: #ff7f0e; stroke: #ffffff; stroke-width: 0.75; stroke-linejoin: miter"/>
     <use xlink:href="#m5293f38bbe" x="300.146578" y="74.156936" style="fill: #ff7f0e; stroke: #ffffff; stroke-width: 0.75; stroke-linejoin: miter"/>
     <use xlink:href="#m5293f38bbe" x="305.513298" y="69.009702" style="fill: #ff7f0e; stroke: #ffffff; stroke-width: 0.75; stroke-linejoin: miter"/>
     <use xlink:href="#m5293f38bbe" x="309.858258" y="63.862468" style="fill: #ff7f0e; stroke: #ffffff; stroke-width: 0.75; stroke-linejoin: miter"/>
     <use xlink:href="#m5293f38bbe" x="314.976978" y="58.715234" style="fill: #ff7f0e; stroke: #ffffff; stroke-width: 0.75; stroke-linejoin: miter"/>
     <use xlink:href="#m5293f38bbe" x="319.897298" y="53.568" style="fill: #ff7f0e; stroke: #ffffff; stroke-width: 0.75; stroke-linejoin: miter"/>
    </g>
   </g>
   <g id="line2d_13">
    <path d="M 104.887499 295.488 
L 111.174299 290.340766 
L 116.146699 285.193532 
L 121.763899 280.046298 
L 129.141899 274.899064 
L 136.643899 269.75183 
L 142.571099 264.604596 
L 147.580699 259.457362 
L 152.788699 254.310128 
L 158.827499 249.162894 
L 162.919499 244.01566 
L 168.970699 238.868426 
L 174.488699 233.721191 
L 180.614299 228.573957 
L 187.099499 223.426723 
L 191.687499 218.279489 
L 196.870699 213.132255 
L 203.219499 207.985021 
L 207.720699 202.837787 
L 213.536299 197.690553 
L 218.310299 192.543319 
L 224.386299 187.396085 
L 230.549099 182.248851 
L 234.405499 177.101617 
L 239.526699 171.954383 
L 244.908299 166.807149 
L 249.347499 161.659915 
L 254.803499 156.512681 
L 261.226699 151.365447 
L 267.625099 146.218213 
L 272.337099 141.070979 
L 277.359099 135.923745 
L 282.095899 130.776511 
L 288.767099 125.629277 
L 292.784699 120.482043 
L 297.633099 115.334809 
L 306.139499 110.187574 
L 312.612299 105.04034 
L 316.741499 99.893106 
L 322.085899 94.745872 
L 330.641899 89.598638 
L 335.899499 84.451404 
L 342.483899 79.30417 
L 347.915099 74.156936 
L 355.131899 69.009702 
L 361.741099 63.862468 
L 367.965899 58.715234 
L 373.992299 53.568 
" clip-path="url(#p2ac1e1d428)" style="fill: none; stroke-dasharray: 1.2,1.2; stroke-dashoffset: 0; stroke: #2ca02c; stroke-width: 1.2"/>
    <defs>
     <path id="m2c3f02a05a" d="M -1.697056 -1.697056 
L -1.697056 1.697056 
L 1.697056 1.697056 
L 1.697056 -1.697056 
z
" style="stroke: #ffffff; stroke-width: 0.75; stroke-linejoin: miter"/>
    </defs>
    <g clip-path="url(#p2ac1e1d428)">
     <use xlink:href="#m2c3f02a05a" x="104.887499" y="295.488" style="fill: #2ca02c; stroke: #ffffff; stroke-width: 0.75; stroke-linejoin: miter"/>
     <use xlink:href="#m2c3f02a05a" x="111.174299" y="290.340766" style="fill: #2ca02c; stroke: #ffffff; stroke-width: 0.75; stroke-linejoin: miter"/>
     <use xlink:href="#m2c3f02a05a" x="116.146699" y="285.193532" style="fill: #2ca02c; stroke: #ffffff; stroke-width: 0.75; stroke-linejoin: miter"/>
     <use xlink:href="#m2c3f02a05a" x="121.763899" y="280.046298" style="fill: #2ca02c; stroke: #ffffff; stroke-width: 0.75; stroke-linejoin: miter"/>
     <use xlink:href="#m2c3f02a05a" x="129.141899" y="274.899064" style="fill: #2ca02c; stroke: #ffffff; stroke-width: 0.75; stroke-linejoin: miter"/>
     <use xlink:href="#m2c3f02a05a" x="136.643899" y="269.75183" style="fill: #2ca02c; stroke: #ffffff; stroke-width: 0.75; stroke-linejoin: miter"/>
     <use xlink:href="#m2c3f02a05a" x="142.571099" y="264.604596" style="fill: #2ca02c; stroke: #ffffff; stroke-width: 0.75; stroke-linejoin: miter"/>
     <use xlink:href="#m2c3f02a05a" x="147.580699" y="259.457362" style="fill: #2ca02c; stroke: #ffffff; stroke-width: 0.75; stroke-linejoin: miter"/>
     <use xlink:href="#m2c3f02a05a" x="152.788699" y="254.310128" style="fill: #2ca02c; stroke: #ffffff; stroke-width: 0.75; stroke-linejoin: miter"/>
     <use xlink:href="#m2c3f02a05a" x="158.827499" y="249.162894" style="fill: #2ca02c; stroke: #ffffff; stroke-width: 0.75; stroke-linejoin: miter"/>
     <use xlink:href="#m2c3f02a05a" x="162.919499" y="244.01566" style="fill: #2ca02c; stroke: #ffffff; stroke-width: 0.75; stroke-linejoin: miter"/>
     <use xlink:href="#m2c3f02a05a" x="168.970699" y="238.868426" style="fill: #2ca02c; stroke: #ffffff; stroke-width: 0.75; stroke-linejoin: miter"/>
     <use xlink:href="#m2c3f02a05a" x="174.488699" y="233.721191" style="fill: #2ca02c; stroke: #ffffff; stroke-width: 0.75; stroke-linejoin: miter"/>
     <use xlink:href="#m2c3f02a05a" x="180.614299" y="228.573957" style="fill: #2ca02c; stroke: #ffffff; stroke-width: 0.75; stroke-linejoin: miter"/>
     <use xlink:href="#m2c3f02a05a" x="187.099499" y="223.426723" style="fill: #2ca02c; stroke: #ffffff; stroke-width: 0.75; stroke-linejoin: miter"/>
     <use xlink:href="#m2c3f02a05a" x="191.687499" y="218.279489" style="fill: #2ca02c; stroke: #ffffff; stroke-width: 0.75; stroke-linejoin: miter"/>
     <use xlink:href="#m2c3f02a05a" x="196.870699" y="213.132255" style="fill: #2ca02c; stroke: #ffffff; stroke-width: 0.75; stroke-linejoin: miter"/>
     <use xlink:href="#m2c3f02a05a" x="203.219499" y="207.985021" style="fill: #2ca02c; stroke: #ffffff; stroke-width: 0.75; stroke-linejoin: miter"/>
     <use xlink:href="#m2c3f02a05a" x="207.720699" y="202.837787" style="fill: #2ca02c; stroke: #ffffff; stroke-width: 0.75; stroke-linejoin: miter"/>
     <use xlink:href="#m2c3f02a05a" x="213.536299" y="197.690553" style="fill: #2ca02c; stroke: #ffffff; stroke-width: 0.75; stroke-linejoin: miter"/>
     <use xlink:href="#m2c3f02a05a" x="218.310299" y="192.543319" style="fill: #2ca02c; stroke: #ffffff; stroke-width: 0.75; stroke-linejoin: miter"/>
     <use xlink:href="#m2c3f02a05a" x="224.386299" y="187.396085" style="fill: #2ca02c; stroke: #ffffff; stroke-width: 0.75; stroke-linejoin: miter"/>
     <use xlink:href="#m2c3f02a05a" x="230.549099" y="182.248851" style="fill: #2ca02c; stroke: #ffffff; stroke-width: 0.75; stroke-linejoin: miter"/>
     <use xlink:href="#m2c3f02a05a" x="234.405499" y="177.101617" style="fill: #2ca02c; stroke: #ffffff; stroke-width: 0.75; stroke-linejoin: miter"/>
     <use xlink:href="#m2c3f02a05a" x="239.526699" y="171.954383" style="fill: #2ca02c; stroke: #ffffff; stroke-width: 0.75; stroke-linejoin: miter"/>
     <use xlink:href="#m2c3f02a05a" x="244.908299" y="166.807149" style="fill: #2ca02c; stroke: #ffffff; stroke-width: 0.75; stroke-linejoin: miter"/>
     <use xlink:href="#m2c3f02a05a" x="249.347499" y="161.659915" style="fill: #2ca02c; stroke: #ffffff; stroke-width: 0.75; stroke-linejoin: miter"/>
     <use xlink:href="#m2c3f02a05a" x="254.803499" y="156.512681" style="fill: #2ca02c; stroke: #ffffff; stroke-width: 0.75; stroke-linejoin: miter"/>
     <use xlink:href="#m2c3f02a05a" x="261.226699" y="151.365447" style="fill: #2ca02c; stroke: #ffffff; stroke-width: 0.75; stroke-linejoin: miter"/>
     <use xlink:href="#m2c3f02a05a" x="267.625099" y="146.218213" style="fill: #2ca02c; stroke: #ffffff; stroke-width: 0.75; stroke-linejoin: miter"/>
     <use xlink:href="#m2c3f02a05a" x="272.337099" y="141.070979" style="fill: #2ca02c; stroke: #ffffff; stroke-width: 0.75; stroke-linejoin: miter"/>
     <use xlink:href="#m2c3f02a05a" x="277.359099" y="135.923745" style="fill: #2ca02c; stroke: #ffffff; stroke-width: 0.75; stroke-linejoin: miter"/>
     <use xlink:href="#m2c3f02a05a" x="282.095899" y="130.776511" style="fill: #2ca02c; stroke: #ffffff; stroke-width: 0.75; stroke-linejoin: miter"/>
     <use xlink:href="#m2c3f02a05a" x="288.767099" y="125.629277" style="fill: #2ca02c; stroke: #ffffff; stroke-width: 0.75; stroke-linejoin: miter"/>
     <use xlink:href="#m2c3f02a05a" x="292.784699" y="120.482043" style="fill: #2ca02c; stroke: #ffffff; stroke-width: 0.75; stroke-linejoin: miter"/>
     <use xlink:href="#m2c3f02a05a" x="297.633099" y="115.334809" style="fill: #2ca02c; stroke: #ffffff; stroke-width: 0.75; stroke-linejoin: miter"/>
     <use xlink:href="#m2c3f02a05a" x="306.139499" y="110.187574" style="fill: #2ca02c; stroke: #ffffff; stroke-width: 0.75; stroke-linejoin: miter"/>
     <use xlink:href="#m2c3f02a05a" x="312.612299" y="105.04034" style="fill: #2ca02c; stroke: #ffffff; stroke-width: 0.75; stroke-linejoin: miter"/>
     <use xlink:href="#m2c3f02a05a" x="316.741499" y="99.893106" style="fill: #2ca02c; stroke: #ffffff; stroke-width: 0.75; stroke-linejoin: miter"/>
     <use xlink:href="#m2c3f02a05a" x="322.085899" y="94.745872" style="fill: #2ca02c; stroke: #ffffff; stroke-width: 0.75; stroke-linejoin: miter"/>
     <use xlink:href="#m2c3f02a05a" x="330.641899" y="89.598638" style="fill: #2ca02c; stroke: #ffffff; stroke-width: 0.75; stroke-linejoin: miter"/>
     <use xlink:href="#m2c3f02a05a" x="335.899499" y="84.451404" style="fill: #2ca02c; stroke: #ffffff; stroke-width: 0.75; stroke-linejoin: miter"/>
     <use xlink:href="#m2c3f02a05a" x="342.483899" y="79.30417" style="fill: #2ca02c; stroke: #ffffff; stroke-width: 0.75; stroke-linejoin: miter"/>
     <use xlink:href="#m2c3f02a05a" x="347.915099" y="74.156936" style="fill: #2ca02c; stroke: #ffffff; stroke-width: 0.75; stroke-linejoin: miter"/>
     <use xlink:href="#m2c3f02a05a" x="355.131899" y="69.009702" style="fill: #2ca02c; stroke: #ffffff; stroke-width: 0.75; stroke-linejoin: miter"/>
     <use xlink:href="#m2c3f02a05a" x="361.741099" y="63.862468" style="fill: #2ca02c; stroke: #ffffff; stroke-width: 0.75; stroke-linejoin: miter"/>
     <use xlink:href="#m2c3f02a05a" x="367.965899" y="58.715234" style="fill: #2ca02c; stroke: #ffffff; stroke-width: 0.75; stroke-linejoin: miter"/>
     <use xlink:href="#m2c3f02a05a" x="373.992299" y="53.568" style="fill: #2ca02c; stroke: #ffffff; stroke-width: 0.75; stroke-linejoin: miter"/>
    </g>
   </g>
   <g id="patch_3">
    <path d="M 57.6 307.584 
L 57.6 41.472 
" style="fill: none; stroke: #000000; stroke-linejoin: miter; stroke-linecap: square"/>
   </g>
   <g id="patch_4">
    <path d="M 414.72 307.584 
L 414.72 41.472 
" style="fill: none; stroke: #000000; stroke-linejoin: miter; stroke-linecap: square"/>
   </g>
   <g id="patch_5">
    <path d="M 57.6 307.584 
L 414.72 307.584 
" style="fill: none; stroke: #000000; stroke-linejoin: miter; stroke-linecap: square"/>
   </g>
   <g id="patch_6">
    <path d="M 57.6 41.472 
L 414.72 41.472 
" style="fill: none; stroke: #000000; stroke-linejoin: miter; stroke-linecap: square"/>
   </g>
  </g>
 </g>
 <defs>
  <clipPath id="p2ac1e1d428">
   <rect x="57.6" y="41.472" width="357.12" height="266.112"/>
  </clipPath>
 </defs>
</svg>
