<?xml version="1.0" encoding="utf-8" standalone="no"?>
<!DOCTYPE svg PUBLIC "-//W3C//DTD SVG 1.1//EN"
  "http://www.w3.org/Graphics/SVG/1.1/DTD/svg11.dtd">
<svg xmlns:xlink="http://www.w3.org/1999/xlink" width="411.782187pt" height="290.212195pt" viewBox="0 0 411.782187 290.212195" xmlns="http://www.w3.org/2000/svg" version="1.1">
 <metadata>
  <rdf:RDF xmlns:dc="http://purl.org/dc/elements/1.1/" xmlns:cc="http://creativecommons.org/ns#" xmlns:rdf="http://www.w3.org/1999/02/22-rdf-syntax-ns#">
   <cc:Work>
    <dc:type rdf:resource="http://purl.org/dc/dcmitype/StillImage"/>
    <dc:date>2024-11-12T20:36:37.235361</dc:date>
    <dc:format>image/svg+xml</dc:format>
    <dc:creator>
     <cc:Agent>
      <dc:title>Matplotlib v3.9.2, https://matplotlib.org/</dc:title>
     </cc:Agent>
    </dc:creator>
   </cc:Work>
  </rdf:RDF>
 </metadata>
 <defs>
  <style type="text/css">*{stroke-linejoin: round; stroke-linecap: butt}</style>
 </defs>
 <g id="figure_1">
  <g id="patch_1">
   <path d="M 0 290.212195 
L 411.782187 290.212195 
L 411.782187 0 
L 0 0 
z
" style="fill: #ffffff"/>
  </g>
  <g id="axes_1">
   <g id="patch_2">
    <path d="M 47.462188 273.312 
L 404.582188 273.312 
L 404.582188 7.2 
L 47.462188 7.2 
z
" style="fill: #ffffff"/>
   </g>
   <g id="matplotlib.axis_1"/>
   <g id="matplotlib.axis_2">
    <g id="ytick_1">
     <g id="text_1">
      <!-- 0x -->
      <g style="fill: #262626" transform="translate(17.698125 279.580711) scale(0.165 -0.165)">
       <defs>
        <path id="DejaVuSans-30" d="M 2034 4250 
Q 1547 4250 1301 3770 
Q 1056 3291 1056 2328 
Q 1056 1369 1301 889 
Q 1547 409 2034 409 
Q 2525 409 2770 889 
Q 3016 1369 3016 2328 
Q 3016 3291 2770 3770 
Q 2525 4250 2034 4250 
z
M 2034 4750 
Q 2819 4750 3233 4129 
Q 3647 3509 3647 2328 
Q 3647 1150 3233 529 
Q 2819 -91 2034 -91 
Q 1250 -91 836 529 
Q 422 1150 422 2328 
Q 422 3509 836 4129 
Q 1250 4750 2034 4750 
z
" transform="scale(0.015625)"/>
        <path id="DejaVuSans-78" d="M 3513 3500 
L 2247 1797 
L 3578 0 
L 2900 0 
L 1881 1375 
L 863 0 
L 184 0 
L 1544 1831 
L 300 3500 
L 978 3500 
L 1906 2253 
L 2834 3500 
L 3513 3500 
z
" transform="scale(0.015625)"/>
       </defs>
       <use xlink:href="#DejaVuSans-30"/>
       <use xlink:href="#DejaVuSans-78" x="63.623047"/>
      </g>
     </g>
    </g>
    <g id="ytick_2">
     <g id="text_2">
      <!-- 5x -->
      <g style="fill: #262626" transform="translate(17.698125 230.614955) scale(0.165 -0.165)">
       <defs>
        <path id="DejaVuSans-35" d="M 691 4666 
L 3169 4666 
L 3169 4134 
L 1269 4134 
L 1269 2991 
Q 1406 3038 1543 3061 
Q 1681 3084 1819 3084 
Q 2600 3084 3056 2656 
Q 3513 2228 3513 1497 
Q 3513 744 3044 326 
Q 2575 -91 1722 -91 
Q 1428 -91 1123 -41 
Q 819 9 494 109 
L 494 744 
Q 775 591 1075 516 
Q 1375 441 1709 441 
Q 2250 441 2565 725 
Q 2881 1009 2881 1497 
Q 2881 1984 2565 2268 
Q 2250 2553 1709 2553 
Q 1456 2553 1204 2497 
Q 953 2441 691 2322 
L 691 4666 
z
" transform="scale(0.015625)"/>
       </defs>
       <use xlink:href="#DejaVuSans-35"/>
       <use xlink:href="#DejaVuSans-78" x="63.623047"/>
      </g>
     </g>
    </g>
    <g id="ytick_3">
     <g id="text_3">
      <!-- 10x -->
      <g style="fill: #262626" transform="translate(7.2 181.649199) scale(0.165 -0.165)">
       <defs>
        <path id="DejaVuSans-31" d="M 794 531 
L 1825 531 
L 1825 4091 
L 703 3866 
L 703 4441 
L 1819 4666 
L 2450 4666 
L 2450 531 
L 3481 531 
L 3481 0 
L 794 0 
L 794 531 
z
" transform="scale(0.015625)"/>
       </defs>
       <use xlink:href="#DejaVuSans-31"/>
       <use xlink:href="#DejaVuSans-30" x="63.623047"/>
       <use xlink:href="#DejaVuSans-78" x="127.246094"/>
      </g>
     </g>
    </g>
    <g id="ytick_4">
     <g id="text_4">
      <!-- 15x -->
      <g style="fill: #262626" transform="translate(7.2 132.683442) scale(0.165 -0.165)">
       <use xlink:href="#DejaVuSans-31"/>
       <use xlink:href="#DejaVuSans-35" x="63.623047"/>
       <use xlink:href="#DejaVuSans-78" x="127.246094"/>
      </g>
     </g>
    </g>
    <g id="ytick_5">
     <g id="text_5">
      <!-- 20x -->
      <g style="fill: #262626" transform="translate(7.2 83.717686) scale(0.165 -0.165)">
       <defs>
        <path id="DejaVuSans-32" d="M 1228 531 
L 3431 531 
L 3431 0 
L 469 0 
L 469 531 
Q 828 903 1448 1529 
Q 2069 2156 2228 2338 
Q 2531 2678 2651 2914 
Q 2772 3150 2772 3378 
Q 2772 3750 2511 3984 
Q 2250 4219 1831 4219 
Q 1534 4219 1204 4116 
Q 875 4013 500 3803 
L 500 4441 
Q 881 4594 1212 4672 
Q 1544 4750 1819 4750 
Q 2544 4750 2975 4387 
Q 3406 4025 3406 3419 
Q 3406 3131 3298 2873 
Q 3191 2616 2906 2266 
Q 2828 2175 2409 1742 
Q 1991 1309 1228 531 
z
" transform="scale(0.015625)"/>
       </defs>
       <use xlink:href="#DejaVuSans-32"/>
       <use xlink:href="#DejaVuSans-30" x="63.623047"/>
       <use xlink:href="#DejaVuSans-78" x="127.246094"/>
      </g>
     </g>
    </g>
    <g id="ytick_6">
     <g id="text_6">
      <!-- 25x -->
      <g style="fill: #262626" transform="translate(7.2 34.75193) scale(0.165 -0.165)">
       <use xlink:href="#DejaVuSans-32"/>
       <use xlink:href="#DejaVuSans-35" x="63.623047"/>
       <use xlink:href="#DejaVuSans-78" x="127.246094"/>
      </g>
     </g>
    </g>
   </g>
   <g id="patch_3">
    <path d="M 65.318188 273.312 
L 101.030188 273.312 
L 101.030188 131.228314 
L 65.318188 131.228314 
z
" clip-path="url(#pb1613669e7)" style="fill: #4878d0; stroke: #ffffff; stroke-linejoin: miter"/>
   </g>
   <g id="patch_4">
    <path d="M 136.742188 273.312 
L 172.454188 273.312 
L 172.454188 124.956177 
L 136.742188 124.956177 
z
" clip-path="url(#pb1613669e7)" style="fill: #4878d0; stroke: #ffffff; stroke-linejoin: miter"/>
   </g>
   <g id="patch_5">
    <path d="M 208.166188 273.312 
L 243.878188 273.312 
L 243.878188 161.539501 
L 208.166188 161.539501 
z
" clip-path="url(#pb1613669e7)" style="fill: #4878d0; stroke: #ffffff; stroke-linejoin: miter"/>
   </g>
   <g id="patch_6">
    <path d="M 279.590188 273.312 
L 315.302188 273.312 
L 315.302188 103.989834 
L 279.590188 103.989834 
z
" clip-path="url(#pb1613669e7)" style="fill: #4878d0; stroke: #ffffff; stroke-linejoin: miter"/>
   </g>
   <g id="patch_7">
    <path d="M 351.014188 273.312 
L 386.726188 273.312 
L 386.726188 74.072027 
L 351.014188 74.072027 
z
" clip-path="url(#pb1613669e7)" style="fill: #4878d0; stroke: #ffffff; stroke-linejoin: miter"/>
   </g>
   <g id="patch_8">
    <path d="M 65.318188 131.228314 
L 101.030188 131.228314 
L 101.030188 104.670616 
L 65.318188 104.670616 
z
" clip-path="url(#pb1613669e7)" style="fill: #ee854a; stroke: #ffffff; stroke-linejoin: miter"/>
   </g>
   <g id="patch_9">
    <path d="M 136.742188 124.956177 
L 172.454188 124.956177 
L 172.454188 97.13946 
L 136.742188 97.13946 
z
" clip-path="url(#pb1613669e7)" style="fill: #ee854a; stroke: #ffffff; stroke-linejoin: miter"/>
   </g>
   <g id="patch_10">
    <path d="M 208.166188 161.539501 
L 243.878188 161.539501 
L 243.878188 140.647445 
L 208.166188 140.647445 
z
" clip-path="url(#pb1613669e7)" style="fill: #ee854a; stroke: #ffffff; stroke-linejoin: miter"/>
   </g>
   <g id="patch_11">
    <path d="M 279.590188 103.989834 
L 315.302188 103.989834 
L 315.302188 74.89424 
L 279.590188 74.89424 
z
" clip-path="url(#pb1613669e7)" style="fill: #ee854a; stroke: #ffffff; stroke-linejoin: miter"/>
   </g>
   <g id="patch_12">
    <path d="M 351.014188 74.072027 
L 386.726188 74.072027 
L 386.726188 39.458302 
L 351.014188 39.458302 
z
" clip-path="url(#pb1613669e7)" style="fill: #ee854a; stroke: #ffffff; stroke-linejoin: miter"/>
   </g>
   <g id="patch_13">
    <path d="M 65.318188 104.670616 
L 101.030188 104.670616 
L 101.030188 78.77686 
L 65.318188 78.77686 
z
" clip-path="url(#pb1613669e7)" style="fill: #6acc64; stroke: #ffffff; stroke-linejoin: miter"/>
   </g>
   <g id="patch_14">
    <path d="M 136.742188 97.13946 
L 172.454188 97.13946 
L 172.454188 86.304484 
L 136.742188 86.304484 
z
" clip-path="url(#pb1613669e7)" style="fill: #6acc64; stroke: #ffffff; stroke-linejoin: miter"/>
   </g>
   <g id="patch_15">
    <path d="M 208.166188 140.647445 
L 243.878188 140.647445 
L 243.878188 120.27769 
L 208.166188 120.27769 
z
" clip-path="url(#pb1613669e7)" style="fill: #6acc64; stroke: #ffffff; stroke-linejoin: miter"/>
   </g>
   <g id="patch_16">
    <path d="M 279.590188 74.89424 
L 315.302188 74.89424 
L 315.302188 42.534262 
L 279.590188 42.534262 
z
" clip-path="url(#pb1613669e7)" style="fill: #6acc64; stroke: #ffffff; stroke-linejoin: miter"/>
   </g>
   <g id="patch_17">
    <path d="M 351.014188 39.458302 
L 386.726188 39.458302 
L 386.726188 24.430881 
L 351.014188 24.430881 
z
" clip-path="url(#pb1613669e7)" style="fill: #6acc64; stroke: #ffffff; stroke-linejoin: miter"/>
   </g>
   <g id="patch_18">
    <path d="M 65.318188 78.77686 
L 101.030188 78.77686 
L 101.030188 74.793206 
L 65.318188 74.793206 
z
" clip-path="url(#pb1613669e7)" style="fill: #d65f5f; stroke: #ffffff; stroke-linejoin: miter"/>
   </g>
   <g id="patch_19">
    <path d="M 136.742188 86.304484 
L 172.454188 86.304484 
L 172.454188 81.199544 
L 136.742188 81.199544 
z
" clip-path="url(#pb1613669e7)" style="fill: #d65f5f; stroke: #ffffff; stroke-linejoin: miter"/>
   </g>
   <g id="patch_20">
    <path d="M 208.166188 120.27769 
L 243.878188 120.27769 
L 243.878188 117.143882 
L 208.166188 117.143882 
z
" clip-path="url(#pb1613669e7)" style="fill: #d65f5f; stroke: #ffffff; stroke-linejoin: miter"/>
   </g>
   <g id="patch_21">
    <path d="M 279.590188 42.534262 
L 315.302188 42.534262 
L 315.302188 39.127949 
L 279.590188 39.127949 
z
" clip-path="url(#pb1613669e7)" style="fill: #d65f5f; stroke: #ffffff; stroke-linejoin: miter"/>
   </g>
   <g id="patch_22">
    <path d="M 351.014188 24.430881 
L 386.726188 24.430881 
L 386.726188 19.872 
L 351.014188 19.872 
z
" clip-path="url(#pb1613669e7)" style="fill: #d65f5f; stroke: #ffffff; stroke-linejoin: miter"/>
   </g>
   <g id="patch_23">
    <path d="M 47.462188 273.312 
L 47.462188 7.2 
" style="fill: none; stroke: #cccccc; stroke-width: 1.25; stroke-linejoin: miter; stroke-linecap: square"/>
   </g>
   <g id="patch_24">
    <path d="M 404.582188 273.312 
L 404.582188 7.2 
" style="fill: none; stroke: #cccccc; stroke-width: 1.25; stroke-linejoin: miter; stroke-linecap: square"/>
   </g>
   <g id="patch_25">
    <path d="M 47.462188 273.312 
L 404.582188 273.312 
" style="fill: none; stroke: #cccccc; stroke-width: 1.25; stroke-linejoin: miter; stroke-linecap: square"/>
   </g>
   <g id="patch_26">
    <path d="M 47.462188 7.2 
L 404.582188 7.2 
" style="fill: none; stroke: #cccccc; stroke-width: 1.25; stroke-linejoin: miter; stroke-linecap: square"/>
   </g>
  </g>
 </g>
 <defs>
  <clipPath id="pb1613669e7">
   <rect x="47.462188" y="7.2" width="357.12" height="266.112"/>
  </clipPath>
 </defs>
</svg>
