<?xml version="1.0" encoding="utf-8" standalone="no"?>
<!DOCTYPE svg PUBLIC "-//W3C//DTD SVG 1.1//EN"
  "http://www.w3.org/Graphics/SVG/1.1/DTD/svg11.dtd">
<svg xmlns:xlink="http://www.w3.org/1999/xlink" width="460.8pt" height="345.6pt" viewBox="0 0 460.8 345.6" xmlns="http://www.w3.org/2000/svg" version="1.1">
 <metadata>
  <rdf:RDF xmlns:dc="http://purl.org/dc/elements/1.1/" xmlns:cc="http://creativecommons.org/ns#" xmlns:rdf="http://www.w3.org/1999/02/22-rdf-syntax-ns#">
   <cc:Work>
    <dc:type rdf:resource="http://purl.org/dc/dcmitype/StillImage"/>
    <dc:date>2024-06-22T22:00:56.308840</dc:date>
    <dc:format>image/svg+xml</dc:format>
    <dc:creator>
     <cc:Agent>
      <dc:title>Matplotlib v3.8.2, https://matplotlib.org/</dc:title>
     </cc:Agent>
    </dc:creator>
   </cc:Work>
  </rdf:RDF>
 </metadata>
 <defs>
  <style type="text/css">*{stroke-linejoin: round; stroke-linecap: butt}</style>
 </defs>
 <g id="figure_1">
  <g id="patch_1">
   <path d="M 0 345.6 
L 460.8 345.6 
L 460.8 0 
L 0 0 
L 0 345.6 
z
" style="fill: none"/>
  </g>
  <g id="axes_1">
   <g id="patch_2">
    <path d="M 57.6 307.584 
L 414.72 307.584 
L 414.72 41.472 
L 57.6 41.472 
L 57.6 307.584 
z
" style="fill: none"/>
   </g>
   <g id="PolyCollection_1">
    <defs>
     <path id="m9f25675419" d="M 76.727696 -50.112 
L 74.131215 -50.112 
L 79.261415 -55.259234 
L 84.533757 -60.406468 
L 90.541845 -65.553702 
L 97.354883 -70.700936 
L 101.896443 -75.84817 
L 107.408298 -80.995404 
L 113.036373 -86.142638 
L 118.947611 -91.289872 
L 124.328993 -96.437106 
L 129.937021 -101.58434 
L 135.931031 -106.731574 
L 141.686572 -111.878809 
L 147.630346 -117.026043 
L 153.2631 -122.173277 
L 159.199016 -127.320511 
L 164.670844 -132.467745 
L 170.208584 -137.614979 
L 175.586356 -142.762213 
L 181.383596 -147.909447 
L 187.453959 -153.056681 
L 193.012858 -158.203915 
L 199.02906 -163.351149 
L 204.034048 -168.498383 
L 209.644792 -173.645617 
L 214.849884 -178.792851 
L 221.207865 -183.940085 
L 227.768428 -189.087319 
L 233.421671 -194.234553 
L 238.630747 -199.381787 
L 244.247523 -204.529021 
L 250.192532 -209.676255 
L 255.341445 -214.823489 
L 260.152345 -219.970723 
L 266.397008 -225.117957 
L 271.319429 -230.265191 
L 277.147191 -235.412426 
L 283.701177 -240.55966 
L 288.998042 -245.706894 
L 294.621455 -250.854128 
L 300.487331 -256.001362 
L 306.125728 -261.148596 
L 311.392924 -266.29583 
L 317.955636 -271.443064 
L 323.232063 -276.590298 
L 329.431702 -281.737532 
L 336.740607 -286.884766 
L 340.620218 -292.032 
L 347.037653 -292.032 
L 347.037653 -292.032 
L 344.105997 -286.884766 
L 335.480956 -281.737532 
L 329.887901 -276.590298 
L 324.822787 -271.443064 
L 318.563931 -266.29583 
L 312.764887 -261.148596 
L 306.63036 -256.001362 
L 300.439538 -250.854128 
L 295.564118 -245.706894 
L 290.091395 -240.55966 
L 284.198171 -235.412426 
L 278.028509 -230.265191 
L 272.558231 -225.117957 
L 266.437425 -219.970723 
L 261.213397 -214.823489 
L 255.445018 -209.676255 
L 250.038034 -204.529021 
L 244.300888 -199.381787 
L 238.300915 -194.234553 
L 232.723774 -189.087319 
L 226.845067 -183.940085 
L 220.941761 -178.792851 
L 215.37841 -173.645617 
L 209.475123 -168.498383 
L 203.719739 -163.351149 
L 198.171541 -158.203915 
L 192.302281 -153.056681 
L 186.870133 -147.909447 
L 182.207936 -142.762213 
L 175.111748 -137.614979 
L 169.06632 -132.467745 
L 163.503023 -127.320511 
L 157.575823 -122.173277 
L 151.296514 -117.026043 
L 145.123771 -111.878809 
L 139.427984 -106.731574 
L 133.482371 -101.58434 
L 128.030351 -96.437106 
L 124.435964 -91.289872 
L 116.749919 -86.142638 
L 111.001062 -80.995404 
L 105.304293 -75.84817 
L 99.842678 -70.700936 
L 93.570548 -65.553702 
L 87.361835 -60.406468 
L 82.25204 -55.259234 
L 76.727696 -50.112 
z
" style="stroke: #1f77b4; stroke-opacity: 0.2"/>
    </defs>
    <g clip-path="url(#pe6e43780da)">
     <use xlink:href="#m9f25675419" x="0" y="345.6" style="fill: #1f77b4; fill-opacity: 0.2; stroke: #1f77b4; stroke-opacity: 0.2"/>
    </g>
   </g>
   <g id="PolyCollection_2">
    <defs>
     <path id="m85f4b18b0a" d="M 102.848553 -50.112 
L 81.500675 -50.112 
L 87.966548 -55.259234 
L 94.191529 -60.406468 
L 99.355369 -65.553702 
L 106.033677 -70.700936 
L 112.281581 -75.84817 
L 118.461453 -80.995404 
L 124.961037 -86.142638 
L 130.722573 -91.289872 
L 136.555533 -96.437106 
L 142.150413 -101.58434 
L 148.173837 -106.731574 
L 153.935373 -111.878809 
L 160.336581 -117.026043 
L 165.958413 -122.173277 
L 171.196173 -127.320511 
L 176.672013 -132.467745 
L 182.100237 -137.614979 
L 187.504653 -142.762213 
L 192.504333 -147.909447 
L 199.550995 -153.056681 
L 204.765453 -158.203915 
L 210.360333 -163.351149 
L 215.955213 -168.498383 
L 221.312013 -173.645617 
L 226.716429 -178.792851 
L 232.549389 -183.940085 
L 238.683639 -189.087319 
L 243.786765 -194.234553 
L 248.882348 -199.381787 
L 254.482837 -204.529021 
L 260.801271 -209.676255 
L 265.523469 -214.823489 
L 271.285005 -219.970723 
L 276.490234 -225.117957 
L 282.323703 -230.265191 
L 287.450637 -235.412426 
L 293.444222 -240.55966 
L 299.116557 -245.706894 
L 305.545117 -250.854128 
L 310.714196 -256.001362 
L 316.186893 -261.148596 
L 321.948429 -266.29583 
L 326.948109 -271.443064 
L 333.019149 -276.590298 
L 339.445612 -281.737532 
L 344.637453 -286.884766 
L 349.875213 -292.032 
L 371.319112 -292.032 
L 371.319112 -292.032 
L 367.525615 -286.884766 
L 361.573615 -281.737532 
L 353.537017 -276.590298 
L 347.873572 -271.443064 
L 342.106885 -266.29583 
L 336.154885 -261.148596 
L 330.560005 -256.001362 
L 325.584133 -250.854128 
L 319.567167 -245.706894 
L 313.659212 -240.55966 
L 307.444729 -235.412426 
L 301.296829 -230.265191 
L 294.987709 -225.117957 
L 290.943493 -219.970723 
L 282.626389 -214.823489 
L 277.845949 -209.676255 
L 272.489149 -204.529021 
L 267.421286 -199.381787 
L 261.802501 -194.234553 
L 255.466429 -189.087319 
L 250.937839 -183.940085 
L 244.827397 -178.792851 
L 239.137285 -173.645617 
L 233.897055 -168.498383 
L 228.515773 -163.351149 
L 223.326303 -158.203915 
L 218.210053 -153.056681 
L 212.472325 -147.909447 
L 206.064829 -142.762213 
L 200.565181 -137.614979 
L 193.902085 -132.467745 
L 188.235781 -127.320511 
L 182.855173 -122.173277 
L 177.641221 -117.026043 
L 171.577179 -111.878809 
L 166.051066 -106.731574 
L 160.696923 -101.58434 
L 154.166533 -96.437106 
L 148.690693 -91.289872 
L 143.000581 -86.142638 
L 136.562819 -80.995404 
L 131.662917 -75.84817 
L 124.868115 -70.700936 
L 119.784637 -65.553702 
L 114.499261 -60.406468 
L 109.467177 -55.259234 
L 102.848553 -50.112 
z
" style="stroke: #ff7f0e; stroke-opacity: 0.2"/>
    </defs>
    <g clip-path="url(#pe6e43780da)">
     <use xlink:href="#m85f4b18b0a" x="0" y="345.6" style="fill: #ff7f0e; fill-opacity: 0.2; stroke: #ff7f0e; stroke-opacity: 0.2"/>
    </g>
   </g>
   <g id="PolyCollection_3">
    <defs>
     <path id="m11c92ed092" d="M 90.297735 -50.112 
L 77.552872 -50.112 
L 83.922931 -55.259234 
L 90.196395 -60.406468 
L 97.443102 -65.553702 
L 102.535687 -70.700936 
L 109.707768 -75.84817 
L 115.000254 -80.995404 
L 120.962884 -86.142638 
L 126.208289 -91.289872 
L 131.476631 -96.437106 
L 137.223186 -101.58434 
L 143.646565 -106.731574 
L 150.038746 -111.878809 
L 156.245605 -117.026043 
L 161.756523 -122.173277 
L 167.808937 -127.320511 
L 173.226142 -132.467745 
L 178.684069 -137.614979 
L 184.586586 -142.762213 
L 191.406483 -147.909447 
L 196.961057 -153.056681 
L 203.433005 -158.203915 
L 208.722337 -163.351149 
L 214.671411 -168.498383 
L 220.700368 -173.645617 
L 225.707476 -178.792851 
L 232.752026 -183.940085 
L 238.493441 -189.087319 
L 244.035166 -194.234553 
L 250.462116 -199.381787 
L 255.870571 -204.529021 
L 261.407525 -209.676255 
L 266.438917 -214.823489 
L 272.811687 -219.970723 
L 278.41453 -225.117957 
L 284.75422 -230.265191 
L 290.300586 -235.412426 
L 296.466053 -240.55966 
L 303.216447 -245.706894 
L 309.211628 -250.854128 
L 314.433162 -256.001362 
L 321.247003 -261.148596 
L 327.062785 -266.29583 
L 333.277318 -271.443064 
L 339.049179 -276.590298 
L 343.695361 -281.737532 
L 349.347411 -286.884766 
L 355.596139 -292.032 
L 370.802801 -292.032 
L 370.802801 -292.032 
L 364.914899 -286.884766 
L 359.40894 -281.737532 
L 354.741594 -276.590298 
L 348.766172 -271.443064 
L 342.115933 -266.29583 
L 335.862123 -261.148596 
L 330.3685 -256.001362 
L 324.23688 -250.854128 
L 317.471679 -245.706894 
L 311.003628 -240.55966 
L 305.308933 -235.412426 
L 299.168276 -230.265191 
L 293.366078 -225.117957 
L 287.36007 -219.970723 
L 281.507246 -214.823489 
L 275.538648 -209.676255 
L 270.660693 -204.529021 
L 263.798946 -199.381787 
L 257.637326 -194.234553 
L 251.896804 -189.087319 
L 245.603179 -183.940085 
L 239.515933 -178.792851 
L 235.967631 -173.645617 
L 227.837188 -168.498383 
L 222.307556 -163.351149 
L 217.172024 -158.203915 
L 210.685052 -153.056681 
L 204.750311 -147.909447 
L 198.758724 -142.762213 
L 192.80961 -137.614979 
L 186.721866 -132.467745 
L 181.599409 -127.320511 
L 175.586359 -122.173277 
L 169.766392 -117.026043 
L 163.441508 -111.878809 
L 157.163156 -106.731574 
L 152.151826 -101.58434 
L 145.18605 -96.437106 
L 138.827556 -91.289872 
L 133.01491 -86.142638 
L 126.511308 -80.995404 
L 121.714666 -75.84817 
L 114.021151 -70.700936 
L 108.832396 -65.553702 
L 102.369653 -60.406468 
L 96.083521 -55.259234 
L 90.297735 -50.112 
z
" style="stroke: #2ca02c; stroke-opacity: 0.2"/>
    </defs>
    <g clip-path="url(#pe6e43780da)">
     <use xlink:href="#m11c92ed092" x="0" y="345.6" style="fill: #2ca02c; fill-opacity: 0.2; stroke: #2ca02c; stroke-opacity: 0.2"/>
    </g>
   </g>
   <g id="matplotlib.axis_1">
    <g id="xtick_1">
     <g id="line2d_1">
      <defs>
       <path id="m1491f65df8" d="M 0 0 
L 0 3.5 
" style="stroke: #000000; stroke-width: 0.8"/>
      </defs>
      <g>
       <use xlink:href="#m1491f65df8" x="57.6" y="307.584" style="stroke: #000000; stroke-width: 0.8"/>
      </g>
     </g>
     <g id="text_1">
      <!-- 0 -->
      <g transform="translate(52.51 326.7415) scale(0.16 -0.16)">
       <defs>
        <path id="DejaVuSans-30" d="M 2034 4250 
Q 1547 4250 1301 3770 
Q 1056 3291 1056 2328 
Q 1056 1369 1301 889 
Q 1547 409 2034 409 
Q 2525 409 2770 889 
Q 3016 1369 3016 2328 
Q 3016 3291 2770 3770 
Q 2525 4250 2034 4250 
z
M 2034 4750 
Q 2819 4750 3233 4129 
Q 3647 3509 3647 2328 
Q 3647 1150 3233 529 
Q 2819 -91 2034 -91 
Q 1250 -91 836 529 
Q 422 1150 422 2328 
Q 422 3509 836 4129 
Q 1250 4750 2034 4750 
z
" transform="scale(0.015625)"/>
       </defs>
       <use xlink:href="#DejaVuSans-30"/>
      </g>
     </g>
    </g>
    <g id="xtick_2">
     <g id="line2d_2">
      <g>
       <use xlink:href="#m1491f65df8" x="129.024" y="307.584" style="stroke: #000000; stroke-width: 0.8"/>
      </g>
     </g>
     <g id="text_2">
      <!-- 10 -->
      <g transform="translate(118.844 326.7415) scale(0.16 -0.16)">
       <defs>
        <path id="DejaVuSans-31" d="M 794 531 
L 1825 531 
L 1825 4091 
L 703 3866 
L 703 4441 
L 1819 4666 
L 2450 4666 
L 2450 531 
L 3481 531 
L 3481 0 
L 794 0 
L 794 531 
z
" transform="scale(0.015625)"/>
       </defs>
       <use xlink:href="#DejaVuSans-31"/>
       <use xlink:href="#DejaVuSans-30" x="63.623047"/>
      </g>
     </g>
    </g>
    <g id="xtick_3">
     <g id="line2d_3">
      <g>
       <use xlink:href="#m1491f65df8" x="200.448" y="307.584" style="stroke: #000000; stroke-width: 0.8"/>
      </g>
     </g>
     <g id="text_3">
      <!-- 20 -->
      <g transform="translate(190.268 326.7415) scale(0.16 -0.16)">
       <defs>
        <path id="DejaVuSans-32" d="M 1228 531 
L 3431 531 
L 3431 0 
L 469 0 
L 469 531 
Q 828 903 1448 1529 
Q 2069 2156 2228 2338 
Q 2531 2678 2651 2914 
Q 2772 3150 2772 3378 
Q 2772 3750 2511 3984 
Q 2250 4219 1831 4219 
Q 1534 4219 1204 4116 
Q 875 4013 500 3803 
L 500 4441 
Q 881 4594 1212 4672 
Q 1544 4750 1819 4750 
Q 2544 4750 2975 4387 
Q 3406 4025 3406 3419 
Q 3406 3131 3298 2873 
Q 3191 2616 2906 2266 
Q 2828 2175 2409 1742 
Q 1991 1309 1228 531 
z
" transform="scale(0.015625)"/>
       </defs>
       <use xlink:href="#DejaVuSans-32"/>
       <use xlink:href="#DejaVuSans-30" x="63.623047"/>
      </g>
     </g>
    </g>
    <g id="xtick_4">
     <g id="line2d_4">
      <g>
       <use xlink:href="#m1491f65df8" x="271.872" y="307.584" style="stroke: #000000; stroke-width: 0.8"/>
      </g>
     </g>
     <g id="text_4">
      <!-- 30 -->
      <g transform="translate(261.692 326.7415) scale(0.16 -0.16)">
       <defs>
        <path id="DejaVuSans-33" d="M 2597 2516 
Q 3050 2419 3304 2112 
Q 3559 1806 3559 1356 
Q 3559 666 3084 287 
Q 2609 -91 1734 -91 
Q 1441 -91 1130 -33 
Q 819 25 488 141 
L 488 750 
Q 750 597 1062 519 
Q 1375 441 1716 441 
Q 2309 441 2620 675 
Q 2931 909 2931 1356 
Q 2931 1769 2642 2001 
Q 2353 2234 1838 2234 
L 1294 2234 
L 1294 2753 
L 1863 2753 
Q 2328 2753 2575 2939 
Q 2822 3125 2822 3475 
Q 2822 3834 2567 4026 
Q 2313 4219 1838 4219 
Q 1578 4219 1281 4162 
Q 984 4106 628 3988 
L 628 4550 
Q 988 4650 1302 4700 
Q 1616 4750 1894 4750 
Q 2613 4750 3031 4423 
Q 3450 4097 3450 3541 
Q 3450 3153 3228 2886 
Q 3006 2619 2597 2516 
z
" transform="scale(0.015625)"/>
       </defs>
       <use xlink:href="#DejaVuSans-33"/>
       <use xlink:href="#DejaVuSans-30" x="63.623047"/>
      </g>
     </g>
    </g>
    <g id="xtick_5">
     <g id="line2d_5">
      <g>
       <use xlink:href="#m1491f65df8" x="343.296" y="307.584" style="stroke: #000000; stroke-width: 0.8"/>
      </g>
     </g>
     <g id="text_5">
      <!-- 40 -->
      <g transform="translate(333.116 326.7415) scale(0.16 -0.16)">
       <defs>
        <path id="DejaVuSans-34" d="M 2419 4116 
L 825 1625 
L 2419 1625 
L 2419 4116 
z
M 2253 4666 
L 3047 4666 
L 3047 1625 
L 3713 1625 
L 3713 1100 
L 3047 1100 
L 3047 0 
L 2419 0 
L 2419 1100 
L 313 1100 
L 313 1709 
L 2253 4666 
z
" transform="scale(0.015625)"/>
       </defs>
       <use xlink:href="#DejaVuSans-34"/>
       <use xlink:href="#DejaVuSans-30" x="63.623047"/>
      </g>
     </g>
    </g>
    <g id="xtick_6">
     <g id="line2d_6">
      <g>
       <use xlink:href="#m1491f65df8" x="414.72" y="307.584" style="stroke: #000000; stroke-width: 0.8"/>
      </g>
     </g>
     <g id="text_6">
      <!-- 50 -->
      <g transform="translate(404.54 326.7415) scale(0.16 -0.16)">
       <defs>
        <path id="DejaVuSans-35" d="M 691 4666 
L 3169 4666 
L 3169 4134 
L 1269 4134 
L 1269 2991 
Q 1406 3038 1543 3061 
Q 1681 3084 1819 3084 
Q 2600 3084 3056 2656 
Q 3513 2228 3513 1497 
Q 3513 744 3044 326 
Q 2575 -91 1722 -91 
Q 1428 -91 1123 -41 
Q 819 9 494 109 
L 494 744 
Q 775 591 1075 516 
Q 1375 441 1709 441 
Q 2250 441 2565 725 
Q 2881 1009 2881 1497 
Q 2881 1984 2565 2268 
Q 2250 2553 1709 2553 
Q 1456 2553 1204 2497 
Q 953 2441 691 2322 
L 691 4666 
z
" transform="scale(0.015625)"/>
       </defs>
       <use xlink:href="#DejaVuSans-35"/>
       <use xlink:href="#DejaVuSans-30" x="63.623047"/>
      </g>
     </g>
    </g>
   </g>
   <g id="matplotlib.axis_2">
    <g id="ytick_1">
     <g id="line2d_7">
      <defs>
       <path id="m3c972a4374" d="M 0 0 
L -3.5 0 
" style="stroke: #000000; stroke-width: 0.8"/>
      </defs>
      <g>
       <use xlink:href="#m3c972a4374" x="57.6" y="300.635234" style="stroke: #000000; stroke-width: 0.8"/>
      </g>
     </g>
     <g id="text_7">
      <!-- 0 -->
      <g transform="translate(40.42 306.713984) scale(0.16 -0.16)">
       <use xlink:href="#DejaVuSans-30"/>
      </g>
     </g>
    </g>
    <g id="ytick_2">
     <g id="line2d_8">
      <g>
       <use xlink:href="#m3c972a4374" x="57.6" y="249.162894" style="stroke: #000000; stroke-width: 0.8"/>
      </g>
     </g>
     <g id="text_8">
      <!-- 10 -->
      <g transform="translate(30.24 255.241644) scale(0.16 -0.16)">
       <use xlink:href="#DejaVuSans-31"/>
       <use xlink:href="#DejaVuSans-30" x="63.623047"/>
      </g>
     </g>
    </g>
    <g id="ytick_3">
     <g id="line2d_9">
      <g>
       <use xlink:href="#m3c972a4374" x="57.6" y="197.690553" style="stroke: #000000; stroke-width: 0.8"/>
      </g>
     </g>
     <g id="text_9">
      <!-- 20 -->
      <g transform="translate(30.24 203.769303) scale(0.16 -0.16)">
       <use xlink:href="#DejaVuSans-32"/>
       <use xlink:href="#DejaVuSans-30" x="63.623047"/>
      </g>
     </g>
    </g>
    <g id="ytick_4">
     <g id="line2d_10">
      <g>
       <use xlink:href="#m3c972a4374" x="57.6" y="146.218213" style="stroke: #000000; stroke-width: 0.8"/>
      </g>
     </g>
     <g id="text_10">
      <!-- 30 -->
      <g transform="translate(30.24 152.296963) scale(0.16 -0.16)">
       <use xlink:href="#DejaVuSans-33"/>
       <use xlink:href="#DejaVuSans-30" x="63.623047"/>
      </g>
     </g>
    </g>
    <g id="ytick_5">
     <g id="line2d_11">
      <g>
       <use xlink:href="#m3c972a4374" x="57.6" y="94.745872" style="stroke: #000000; stroke-width: 0.8"/>
      </g>
     </g>
     <g id="text_11">
      <!-- 40 -->
      <g transform="translate(30.24 100.824622) scale(0.16 -0.16)">
       <use xlink:href="#DejaVuSans-34"/>
       <use xlink:href="#DejaVuSans-30" x="63.623047"/>
      </g>
     </g>
    </g>
    <g id="ytick_6">
     <g id="line2d_12">
      <g>
       <use xlink:href="#m3c972a4374" x="57.6" y="43.273532" style="stroke: #000000; stroke-width: 0.8"/>
      </g>
     </g>
     <g id="text_12">
      <!-- 50 -->
      <g transform="translate(30.24 49.352282) scale(0.16 -0.16)">
       <use xlink:href="#DejaVuSans-35"/>
       <use xlink:href="#DejaVuSans-30" x="63.623047"/>
      </g>
     </g>
    </g>
   </g>
   <g id="line2d_13">
    <path d="M 75.463486 295.488 
L 80.850046 290.340766 
L 85.953886 285.193532 
L 92.173726 280.046298 
L 98.735806 274.899064 
L 103.720606 269.75183 
L 109.360126 264.604596 
L 114.969886 259.457362 
L 121.398046 254.310128 
L 126.308446 249.162894 
L 131.724766 244.01566 
L 137.721406 238.868426 
L 143.494846 233.721191 
L 149.506366 228.573957 
L 155.354206 223.426723 
L 161.365726 218.279489 
L 166.990366 213.132255 
L 172.719166 207.985021 
L 178.909246 202.837787 
L 184.206526 197.690553 
L 190.054366 192.543319 
L 195.708766 187.396085 
L 201.437566 182.248851 
L 207.002686 177.101617 
L 212.850526 171.954383 
L 218.430526 166.807149 
L 224.501566 161.659915 
L 230.468446 156.512681 
L 236.167486 151.365447 
L 241.866526 146.218213 
L 247.595326 141.070979 
L 252.967006 135.923745 
L 258.532126 130.776511 
L 263.784766 125.629277 
L 269.424286 120.482043 
L 274.676926 115.334809 
L 280.733086 110.187574 
L 287.161246 105.04034 
L 292.503166 99.893106 
L 297.562366 94.745872 
L 303.692926 89.598638 
L 309.406846 84.451404 
L 315.061246 79.30417 
L 321.385246 74.156936 
L 326.503966 69.009702 
L 332.307166 63.862468 
L 340.193566 58.715234 
L 343.601086 53.568 
" clip-path="url(#pe6e43780da)" style="fill: none; stroke: #1f77b4; stroke-width: 1.5; stroke-linecap: square"/>
    <defs>
     <path id="m6696f6bc1f" d="M 0 3 
C 0.795609 3 1.55874 2.683901 2.12132 2.12132 
C 2.683901 1.55874 3 0.795609 3 0 
C 3 -0.795609 2.683901 -1.55874 2.12132 -2.12132 
C 1.55874 -2.683901 0.795609 -3 0 -3 
C -0.795609 -3 -1.55874 -2.683901 -2.12132 -2.12132 
C -2.683901 -1.55874 -3 -0.795609 -3 0 
C -3 0.795609 -2.683901 1.55874 -2.12132 2.12132 
C -1.55874 2.683901 -0.795609 3 0 3 
z
" style="stroke: #ffffff; stroke-width: 0.75"/>
    </defs>
    <g clip-path="url(#pe6e43780da)">
     <use xlink:href="#m6696f6bc1f" x="75.463486" y="295.488" style="fill: #1f77b4; stroke: #ffffff; stroke-width: 0.75"/>
     <use xlink:href="#m6696f6bc1f" x="80.850046" y="290.340766" style="fill: #1f77b4; stroke: #ffffff; stroke-width: 0.75"/>
     <use xlink:href="#m6696f6bc1f" x="85.953886" y="285.193532" style="fill: #1f77b4; stroke: #ffffff; stroke-width: 0.75"/>
     <use xlink:href="#m6696f6bc1f" x="92.173726" y="280.046298" style="fill: #1f77b4; stroke: #ffffff; stroke-width: 0.75"/>
     <use xlink:href="#m6696f6bc1f" x="98.735806" y="274.899064" style="fill: #1f77b4; stroke: #ffffff; stroke-width: 0.75"/>
     <use xlink:href="#m6696f6bc1f" x="103.720606" y="269.75183" style="fill: #1f77b4; stroke: #ffffff; stroke-width: 0.75"/>
     <use xlink:href="#m6696f6bc1f" x="109.360126" y="264.604596" style="fill: #1f77b4; stroke: #ffffff; stroke-width: 0.75"/>
     <use xlink:href="#m6696f6bc1f" x="114.969886" y="259.457362" style="fill: #1f77b4; stroke: #ffffff; stroke-width: 0.75"/>
     <use xlink:href="#m6696f6bc1f" x="121.398046" y="254.310128" style="fill: #1f77b4; stroke: #ffffff; stroke-width: 0.75"/>
     <use xlink:href="#m6696f6bc1f" x="126.308446" y="249.162894" style="fill: #1f77b4; stroke: #ffffff; stroke-width: 0.75"/>
     <use xlink:href="#m6696f6bc1f" x="131.724766" y="244.01566" style="fill: #1f77b4; stroke: #ffffff; stroke-width: 0.75"/>
     <use xlink:href="#m6696f6bc1f" x="137.721406" y="238.868426" style="fill: #1f77b4; stroke: #ffffff; stroke-width: 0.75"/>
     <use xlink:href="#m6696f6bc1f" x="143.494846" y="233.721191" style="fill: #1f77b4; stroke: #ffffff; stroke-width: 0.75"/>
     <use xlink:href="#m6696f6bc1f" x="149.506366" y="228.573957" style="fill: #1f77b4; stroke: #ffffff; stroke-width: 0.75"/>
     <use xlink:href="#m6696f6bc1f" x="155.354206" y="223.426723" style="fill: #1f77b4; stroke: #ffffff; stroke-width: 0.75"/>
     <use xlink:href="#m6696f6bc1f" x="161.365726" y="218.279489" style="fill: #1f77b4; stroke: #ffffff; stroke-width: 0.75"/>
     <use xlink:href="#m6696f6bc1f" x="166.990366" y="213.132255" style="fill: #1f77b4; stroke: #ffffff; stroke-width: 0.75"/>
     <use xlink:href="#m6696f6bc1f" x="172.719166" y="207.985021" style="fill: #1f77b4; stroke: #ffffff; stroke-width: 0.75"/>
     <use xlink:href="#m6696f6bc1f" x="178.909246" y="202.837787" style="fill: #1f77b4; stroke: #ffffff; stroke-width: 0.75"/>
     <use xlink:href="#m6696f6bc1f" x="184.206526" y="197.690553" style="fill: #1f77b4; stroke: #ffffff; stroke-width: 0.75"/>
     <use xlink:href="#m6696f6bc1f" x="190.054366" y="192.543319" style="fill: #1f77b4; stroke: #ffffff; stroke-width: 0.75"/>
     <use xlink:href="#m6696f6bc1f" x="195.708766" y="187.396085" style="fill: #1f77b4; stroke: #ffffff; stroke-width: 0.75"/>
     <use xlink:href="#m6696f6bc1f" x="201.437566" y="182.248851" style="fill: #1f77b4; stroke: #ffffff; stroke-width: 0.75"/>
     <use xlink:href="#m6696f6bc1f" x="207.002686" y="177.101617" style="fill: #1f77b4; stroke: #ffffff; stroke-width: 0.75"/>
     <use xlink:href="#m6696f6bc1f" x="212.850526" y="171.954383" style="fill: #1f77b4; stroke: #ffffff; stroke-width: 0.75"/>
     <use xlink:href="#m6696f6bc1f" x="218.430526" y="166.807149" style="fill: #1f77b4; stroke: #ffffff; stroke-width: 0.75"/>
     <use xlink:href="#m6696f6bc1f" x="224.501566" y="161.659915" style="fill: #1f77b4; stroke: #ffffff; stroke-width: 0.75"/>
     <use xlink:href="#m6696f6bc1f" x="230.468446" y="156.512681" style="fill: #1f77b4; stroke: #ffffff; stroke-width: 0.75"/>
     <use xlink:href="#m6696f6bc1f" x="236.167486" y="151.365447" style="fill: #1f77b4; stroke: #ffffff; stroke-width: 0.75"/>
     <use xlink:href="#m6696f6bc1f" x="241.866526" y="146.218213" style="fill: #1f77b4; stroke: #ffffff; stroke-width: 0.75"/>
     <use xlink:href="#m6696f6bc1f" x="247.595326" y="141.070979" style="fill: #1f77b4; stroke: #ffffff; stroke-width: 0.75"/>
     <use xlink:href="#m6696f6bc1f" x="252.967006" y="135.923745" style="fill: #1f77b4; stroke: #ffffff; stroke-width: 0.75"/>
     <use xlink:href="#m6696f6bc1f" x="258.532126" y="130.776511" style="fill: #1f77b4; stroke: #ffffff; stroke-width: 0.75"/>
     <use xlink:href="#m6696f6bc1f" x="263.784766" y="125.629277" style="fill: #1f77b4; stroke: #ffffff; stroke-width: 0.75"/>
     <use xlink:href="#m6696f6bc1f" x="269.424286" y="120.482043" style="fill: #1f77b4; stroke: #ffffff; stroke-width: 0.75"/>
     <use xlink:href="#m6696f6bc1f" x="274.676926" y="115.334809" style="fill: #1f77b4; stroke: #ffffff; stroke-width: 0.75"/>
     <use xlink:href="#m6696f6bc1f" x="280.733086" y="110.187574" style="fill: #1f77b4; stroke: #ffffff; stroke-width: 0.75"/>
     <use xlink:href="#m6696f6bc1f" x="287.161246" y="105.04034" style="fill: #1f77b4; stroke: #ffffff; stroke-width: 0.75"/>
     <use xlink:href="#m6696f6bc1f" x="292.503166" y="99.893106" style="fill: #1f77b4; stroke: #ffffff; stroke-width: 0.75"/>
     <use xlink:href="#m6696f6bc1f" x="297.562366" y="94.745872" style="fill: #1f77b4; stroke: #ffffff; stroke-width: 0.75"/>
     <use xlink:href="#m6696f6bc1f" x="303.692926" y="89.598638" style="fill: #1f77b4; stroke: #ffffff; stroke-width: 0.75"/>
     <use xlink:href="#m6696f6bc1f" x="309.406846" y="84.451404" style="fill: #1f77b4; stroke: #ffffff; stroke-width: 0.75"/>
     <use xlink:href="#m6696f6bc1f" x="315.061246" y="79.30417" style="fill: #1f77b4; stroke: #ffffff; stroke-width: 0.75"/>
     <use xlink:href="#m6696f6bc1f" x="321.385246" y="74.156936" style="fill: #1f77b4; stroke: #ffffff; stroke-width: 0.75"/>
     <use xlink:href="#m6696f6bc1f" x="326.503966" y="69.009702" style="fill: #1f77b4; stroke: #ffffff; stroke-width: 0.75"/>
     <use xlink:href="#m6696f6bc1f" x="332.307166" y="63.862468" style="fill: #1f77b4; stroke: #ffffff; stroke-width: 0.75"/>
     <use xlink:href="#m6696f6bc1f" x="340.193566" y="58.715234" style="fill: #1f77b4; stroke: #ffffff; stroke-width: 0.75"/>
     <use xlink:href="#m6696f6bc1f" x="343.601086" y="53.568" style="fill: #1f77b4; stroke: #ffffff; stroke-width: 0.75"/>
    </g>
   </g>
   <g id="line2d_14">
    <path d="M 90.872175 295.488 
L 98.109807 290.340766 
L 102.823791 285.193532 
L 108.347247 280.046298 
L 114.561135 274.899064 
L 120.417903 269.75183 
L 126.369903 264.604596 
L 132.869487 259.457362 
L 138.631023 254.310128 
L 144.225903 249.162894 
L 150.201711 244.01566 
L 156.225135 238.868426 
L 161.962863 233.721191 
L 168.057711 228.573957 
L 173.628783 223.426723 
L 178.890351 218.279489 
L 184.628079 213.132255 
L 190.508655 207.985021 
L 195.913071 202.837787 
L 201.531759 197.690553 
L 207.793263 192.543319 
L 213.173871 187.396085 
L 218.792559 182.248851 
L 224.101743 177.101617 
L 229.506159 171.954383 
L 234.910575 166.807149 
L 240.481647 161.659915 
L 246.314607 156.512681 
L 251.695215 151.365447 
L 257.266287 146.218213 
L 263.099247 141.070979 
L 268.551279 135.923745 
L 274.074735 130.776511 
L 279.907695 125.629277 
L 285.145455 120.482043 
L 290.859375 115.334809 
L 296.597103 110.187574 
L 302.953839 105.04034 
L 308.858223 99.893106 
L 314.762607 94.745872 
L 320.095599 89.598638 
L 325.809519 84.451404 
L 331.356783 79.30417 
L 336.808815 74.156936 
L 342.784623 69.009702 
L 348.998511 63.862468 
L 354.783855 58.715234 
L 360.497775 53.568 
" clip-path="url(#pe6e43780da)" style="fill: none; stroke-dasharray: 6,2.25; stroke-dashoffset: 0; stroke: #ff7f0e; stroke-width: 1.5"/>
    <defs>
     <path id="m4e3cd51874" d="M -1.5 3 
L 0 1.5 
L 1.5 3 
L 3 1.5 
L 1.5 0 
L 3 -1.5 
L 1.5 -3 
L 0 -1.5 
L -1.5 -3 
L -3 -1.5 
L -1.5 0 
L -3 1.5 
z
" style="stroke: #ffffff; stroke-width: 0.75; stroke-linejoin: miter"/>
    </defs>
    <g clip-path="url(#pe6e43780da)">
     <use xlink:href="#m4e3cd51874" x="90.872175" y="295.488" style="fill: #ff7f0e; stroke: #ffffff; stroke-width: 0.75; stroke-linejoin: miter"/>
     <use xlink:href="#m4e3cd51874" x="98.109807" y="290.340766" style="fill: #ff7f0e; stroke: #ffffff; stroke-width: 0.75; stroke-linejoin: miter"/>
     <use xlink:href="#m4e3cd51874" x="102.823791" y="285.193532" style="fill: #ff7f0e; stroke: #ffffff; stroke-width: 0.75; stroke-linejoin: miter"/>
     <use xlink:href="#m4e3cd51874" x="108.347247" y="280.046298" style="fill: #ff7f0e; stroke: #ffffff; stroke-width: 0.75; stroke-linejoin: miter"/>
     <use xlink:href="#m4e3cd51874" x="114.561135" y="274.899064" style="fill: #ff7f0e; stroke: #ffffff; stroke-width: 0.75; stroke-linejoin: miter"/>
     <use xlink:href="#m4e3cd51874" x="120.417903" y="269.75183" style="fill: #ff7f0e; stroke: #ffffff; stroke-width: 0.75; stroke-linejoin: miter"/>
     <use xlink:href="#m4e3cd51874" x="126.369903" y="264.604596" style="fill: #ff7f0e; stroke: #ffffff; stroke-width: 0.75; stroke-linejoin: miter"/>
     <use xlink:href="#m4e3cd51874" x="132.869487" y="259.457362" style="fill: #ff7f0e; stroke: #ffffff; stroke-width: 0.75; stroke-linejoin: miter"/>
     <use xlink:href="#m4e3cd51874" x="138.631023" y="254.310128" style="fill: #ff7f0e; stroke: #ffffff; stroke-width: 0.75; stroke-linejoin: miter"/>
     <use xlink:href="#m4e3cd51874" x="144.225903" y="249.162894" style="fill: #ff7f0e; stroke: #ffffff; stroke-width: 0.75; stroke-linejoin: miter"/>
     <use xlink:href="#m4e3cd51874" x="150.201711" y="244.01566" style="fill: #ff7f0e; stroke: #ffffff; stroke-width: 0.75; stroke-linejoin: miter"/>
     <use xlink:href="#m4e3cd51874" x="156.225135" y="238.868426" style="fill: #ff7f0e; stroke: #ffffff; stroke-width: 0.75; stroke-linejoin: miter"/>
     <use xlink:href="#m4e3cd51874" x="161.962863" y="233.721191" style="fill: #ff7f0e; stroke: #ffffff; stroke-width: 0.75; stroke-linejoin: miter"/>
     <use xlink:href="#m4e3cd51874" x="168.057711" y="228.573957" style="fill: #ff7f0e; stroke: #ffffff; stroke-width: 0.75; stroke-linejoin: miter"/>
     <use xlink:href="#m4e3cd51874" x="173.628783" y="223.426723" style="fill: #ff7f0e; stroke: #ffffff; stroke-width: 0.75; stroke-linejoin: miter"/>
     <use xlink:href="#m4e3cd51874" x="178.890351" y="218.279489" style="fill: #ff7f0e; stroke: #ffffff; stroke-width: 0.75; stroke-linejoin: miter"/>
     <use xlink:href="#m4e3cd51874" x="184.628079" y="213.132255" style="fill: #ff7f0e; stroke: #ffffff; stroke-width: 0.75; stroke-linejoin: miter"/>
     <use xlink:href="#m4e3cd51874" x="190.508655" y="207.985021" style="fill: #ff7f0e; stroke: #ffffff; stroke-width: 0.75; stroke-linejoin: miter"/>
     <use xlink:href="#m4e3cd51874" x="195.913071" y="202.837787" style="fill: #ff7f0e; stroke: #ffffff; stroke-width: 0.75; stroke-linejoin: miter"/>
     <use xlink:href="#m4e3cd51874" x="201.531759" y="197.690553" style="fill: #ff7f0e; stroke: #ffffff; stroke-width: 0.75; stroke-linejoin: miter"/>
     <use xlink:href="#m4e3cd51874" x="207.793263" y="192.543319" style="fill: #ff7f0e; stroke: #ffffff; stroke-width: 0.75; stroke-linejoin: miter"/>
     <use xlink:href="#m4e3cd51874" x="213.173871" y="187.396085" style="fill: #ff7f0e; stroke: #ffffff; stroke-width: 0.75; stroke-linejoin: miter"/>
     <use xlink:href="#m4e3cd51874" x="218.792559" y="182.248851" style="fill: #ff7f0e; stroke: #ffffff; stroke-width: 0.75; stroke-linejoin: miter"/>
     <use xlink:href="#m4e3cd51874" x="224.101743" y="177.101617" style="fill: #ff7f0e; stroke: #ffffff; stroke-width: 0.75; stroke-linejoin: miter"/>
     <use xlink:href="#m4e3cd51874" x="229.506159" y="171.954383" style="fill: #ff7f0e; stroke: #ffffff; stroke-width: 0.75; stroke-linejoin: miter"/>
     <use xlink:href="#m4e3cd51874" x="234.910575" y="166.807149" style="fill: #ff7f0e; stroke: #ffffff; stroke-width: 0.75; stroke-linejoin: miter"/>
     <use xlink:href="#m4e3cd51874" x="240.481647" y="161.659915" style="fill: #ff7f0e; stroke: #ffffff; stroke-width: 0.75; stroke-linejoin: miter"/>
     <use xlink:href="#m4e3cd51874" x="246.314607" y="156.512681" style="fill: #ff7f0e; stroke: #ffffff; stroke-width: 0.75; stroke-linejoin: miter"/>
     <use xlink:href="#m4e3cd51874" x="251.695215" y="151.365447" style="fill: #ff7f0e; stroke: #ffffff; stroke-width: 0.75; stroke-linejoin: miter"/>
     <use xlink:href="#m4e3cd51874" x="257.266287" y="146.218213" style="fill: #ff7f0e; stroke: #ffffff; stroke-width: 0.75; stroke-linejoin: miter"/>
     <use xlink:href="#m4e3cd51874" x="263.099247" y="141.070979" style="fill: #ff7f0e; stroke: #ffffff; stroke-width: 0.75; stroke-linejoin: miter"/>
     <use xlink:href="#m4e3cd51874" x="268.551279" y="135.923745" style="fill: #ff7f0e; stroke: #ffffff; stroke-width: 0.75; stroke-linejoin: miter"/>
     <use xlink:href="#m4e3cd51874" x="274.074735" y="130.776511" style="fill: #ff7f0e; stroke: #ffffff; stroke-width: 0.75; stroke-linejoin: miter"/>
     <use xlink:href="#m4e3cd51874" x="279.907695" y="125.629277" style="fill: #ff7f0e; stroke: #ffffff; stroke-width: 0.75; stroke-linejoin: miter"/>
     <use xlink:href="#m4e3cd51874" x="285.145455" y="120.482043" style="fill: #ff7f0e; stroke: #ffffff; stroke-width: 0.75; stroke-linejoin: miter"/>
     <use xlink:href="#m4e3cd51874" x="290.859375" y="115.334809" style="fill: #ff7f0e; stroke: #ffffff; stroke-width: 0.75; stroke-linejoin: miter"/>
     <use xlink:href="#m4e3cd51874" x="296.597103" y="110.187574" style="fill: #ff7f0e; stroke: #ffffff; stroke-width: 0.75; stroke-linejoin: miter"/>
     <use xlink:href="#m4e3cd51874" x="302.953839" y="105.04034" style="fill: #ff7f0e; stroke: #ffffff; stroke-width: 0.75; stroke-linejoin: miter"/>
     <use xlink:href="#m4e3cd51874" x="308.858223" y="99.893106" style="fill: #ff7f0e; stroke: #ffffff; stroke-width: 0.75; stroke-linejoin: miter"/>
     <use xlink:href="#m4e3cd51874" x="314.762607" y="94.745872" style="fill: #ff7f0e; stroke: #ffffff; stroke-width: 0.75; stroke-linejoin: miter"/>
     <use xlink:href="#m4e3cd51874" x="320.095599" y="89.598638" style="fill: #ff7f0e; stroke: #ffffff; stroke-width: 0.75; stroke-linejoin: miter"/>
     <use xlink:href="#m4e3cd51874" x="325.809519" y="84.451404" style="fill: #ff7f0e; stroke: #ffffff; stroke-width: 0.75; stroke-linejoin: miter"/>
     <use xlink:href="#m4e3cd51874" x="331.356783" y="79.30417" style="fill: #ff7f0e; stroke: #ffffff; stroke-width: 0.75; stroke-linejoin: miter"/>
     <use xlink:href="#m4e3cd51874" x="336.808815" y="74.156936" style="fill: #ff7f0e; stroke: #ffffff; stroke-width: 0.75; stroke-linejoin: miter"/>
     <use xlink:href="#m4e3cd51874" x="342.784623" y="69.009702" style="fill: #ff7f0e; stroke: #ffffff; stroke-width: 0.75; stroke-linejoin: miter"/>
     <use xlink:href="#m4e3cd51874" x="348.998511" y="63.862468" style="fill: #ff7f0e; stroke: #ffffff; stroke-width: 0.75; stroke-linejoin: miter"/>
     <use xlink:href="#m4e3cd51874" x="354.783855" y="58.715234" style="fill: #ff7f0e; stroke: #ffffff; stroke-width: 0.75; stroke-linejoin: miter"/>
     <use xlink:href="#m4e3cd51874" x="360.497775" y="53.568" style="fill: #ff7f0e; stroke: #ffffff; stroke-width: 0.75; stroke-linejoin: miter"/>
    </g>
   </g>
   <g id="line2d_15">
    <path d="M 83.884556 295.488 
L 90.098444 290.340766 
L 96.074252 285.193532 
L 102.669068 280.046298 
L 108.406796 274.899064 
L 115.656332 269.75183 
L 120.691724 264.604596 
L 126.477068 259.457362 
L 132.10766 254.310128 
L 138.166796 249.162894 
L 144.214028 244.01566 
L 150.20174 238.868426 
L 156.534668 233.721191 
L 162.855692 228.573957 
L 168.59342 223.426723 
L 174.533516 218.279489 
L 179.890316 213.132255 
L 185.55662 207.985021 
L 191.615756 202.837787 
L 197.6987 197.690553 
L 203.900684 192.543319 
L 209.95982 187.396085 
L 215.459468 182.248851 
L 221.292428 177.101617 
L 228.089612 171.954383 
L 232.684556 166.807149 
L 238.981772 161.659915 
L 245.278988 156.512681 
L 250.85006 151.365447 
L 257.04014 146.218213 
L 263.34926 141.070979 
L 268.610828 135.923745 
L 274.086668 130.776511 
L 280.098188 125.629277 
L 285.895436 120.482043 
L 291.62126 115.334809 
L 297.644684 110.187574 
L 303.751436 105.04034 
L 310.417676 99.893106 
L 316.97678 94.745872 
L 322.619276 89.598638 
L 328.309388 84.451404 
L 334.35662 79.30417 
L 340.760972 74.156936 
L 347.022476 69.009702 
L 351.903116 63.862468 
L 357.355148 58.715234 
L 363.176204 53.568 
" clip-path="url(#pe6e43780da)" style="fill: none; stroke-dasharray: 1.5,1.5; stroke-dashoffset: 0; stroke: #2ca02c; stroke-width: 1.5"/>
    <defs>
     <path id="m269d7d61ae" d="M -2.12132 -2.12132 
L -2.12132 2.12132 
L 2.12132 2.12132 
L 2.12132 -2.12132 
z
" style="stroke: #ffffff; stroke-width: 0.75; stroke-linejoin: miter"/>
    </defs>
    <g clip-path="url(#pe6e43780da)">
     <use xlink:href="#m269d7d61ae" x="83.884556" y="295.488" style="fill: #2ca02c; stroke: #ffffff; stroke-width: 0.75; stroke-linejoin: miter"/>
     <use xlink:href="#m269d7d61ae" x="90.098444" y="290.340766" style="fill: #2ca02c; stroke: #ffffff; stroke-width: 0.75; stroke-linejoin: miter"/>
     <use xlink:href="#m269d7d61ae" x="96.074252" y="285.193532" style="fill: #2ca02c; stroke: #ffffff; stroke-width: 0.75; stroke-linejoin: miter"/>
     <use xlink:href="#m269d7d61ae" x="102.669068" y="280.046298" style="fill: #2ca02c; stroke: #ffffff; stroke-width: 0.75; stroke-linejoin: miter"/>
     <use xlink:href="#m269d7d61ae" x="108.406796" y="274.899064" style="fill: #2ca02c; stroke: #ffffff; stroke-width: 0.75; stroke-linejoin: miter"/>
     <use xlink:href="#m269d7d61ae" x="115.656332" y="269.75183" style="fill: #2ca02c; stroke: #ffffff; stroke-width: 0.75; stroke-linejoin: miter"/>
     <use xlink:href="#m269d7d61ae" x="120.691724" y="264.604596" style="fill: #2ca02c; stroke: #ffffff; stroke-width: 0.75; stroke-linejoin: miter"/>
     <use xlink:href="#m269d7d61ae" x="126.477068" y="259.457362" style="fill: #2ca02c; stroke: #ffffff; stroke-width: 0.75; stroke-linejoin: miter"/>
     <use xlink:href="#m269d7d61ae" x="132.10766" y="254.310128" style="fill: #2ca02c; stroke: #ffffff; stroke-width: 0.75; stroke-linejoin: miter"/>
     <use xlink:href="#m269d7d61ae" x="138.166796" y="249.162894" style="fill: #2ca02c; stroke: #ffffff; stroke-width: 0.75; stroke-linejoin: miter"/>
     <use xlink:href="#m269d7d61ae" x="144.214028" y="244.01566" style="fill: #2ca02c; stroke: #ffffff; stroke-width: 0.75; stroke-linejoin: miter"/>
     <use xlink:href="#m269d7d61ae" x="150.20174" y="238.868426" style="fill: #2ca02c; stroke: #ffffff; stroke-width: 0.75; stroke-linejoin: miter"/>
     <use xlink:href="#m269d7d61ae" x="156.534668" y="233.721191" style="fill: #2ca02c; stroke: #ffffff; stroke-width: 0.75; stroke-linejoin: miter"/>
     <use xlink:href="#m269d7d61ae" x="162.855692" y="228.573957" style="fill: #2ca02c; stroke: #ffffff; stroke-width: 0.75; stroke-linejoin: miter"/>
     <use xlink:href="#m269d7d61ae" x="168.59342" y="223.426723" style="fill: #2ca02c; stroke: #ffffff; stroke-width: 0.75; stroke-linejoin: miter"/>
     <use xlink:href="#m269d7d61ae" x="174.533516" y="218.279489" style="fill: #2ca02c; stroke: #ffffff; stroke-width: 0.75; stroke-linejoin: miter"/>
     <use xlink:href="#m269d7d61ae" x="179.890316" y="213.132255" style="fill: #2ca02c; stroke: #ffffff; stroke-width: 0.75; stroke-linejoin: miter"/>
     <use xlink:href="#m269d7d61ae" x="185.55662" y="207.985021" style="fill: #2ca02c; stroke: #ffffff; stroke-width: 0.75; stroke-linejoin: miter"/>
     <use xlink:href="#m269d7d61ae" x="191.615756" y="202.837787" style="fill: #2ca02c; stroke: #ffffff; stroke-width: 0.75; stroke-linejoin: miter"/>
     <use xlink:href="#m269d7d61ae" x="197.6987" y="197.690553" style="fill: #2ca02c; stroke: #ffffff; stroke-width: 0.75; stroke-linejoin: miter"/>
     <use xlink:href="#m269d7d61ae" x="203.900684" y="192.543319" style="fill: #2ca02c; stroke: #ffffff; stroke-width: 0.75; stroke-linejoin: miter"/>
     <use xlink:href="#m269d7d61ae" x="209.95982" y="187.396085" style="fill: #2ca02c; stroke: #ffffff; stroke-width: 0.75; stroke-linejoin: miter"/>
     <use xlink:href="#m269d7d61ae" x="215.459468" y="182.248851" style="fill: #2ca02c; stroke: #ffffff; stroke-width: 0.75; stroke-linejoin: miter"/>
     <use xlink:href="#m269d7d61ae" x="221.292428" y="177.101617" style="fill: #2ca02c; stroke: #ffffff; stroke-width: 0.75; stroke-linejoin: miter"/>
     <use xlink:href="#m269d7d61ae" x="228.089612" y="171.954383" style="fill: #2ca02c; stroke: #ffffff; stroke-width: 0.75; stroke-linejoin: miter"/>
     <use xlink:href="#m269d7d61ae" x="232.684556" y="166.807149" style="fill: #2ca02c; stroke: #ffffff; stroke-width: 0.75; stroke-linejoin: miter"/>
     <use xlink:href="#m269d7d61ae" x="238.981772" y="161.659915" style="fill: #2ca02c; stroke: #ffffff; stroke-width: 0.75; stroke-linejoin: miter"/>
     <use xlink:href="#m269d7d61ae" x="245.278988" y="156.512681" style="fill: #2ca02c; stroke: #ffffff; stroke-width: 0.75; stroke-linejoin: miter"/>
     <use xlink:href="#m269d7d61ae" x="250.85006" y="151.365447" style="fill: #2ca02c; stroke: #ffffff; stroke-width: 0.75; stroke-linejoin: miter"/>
     <use xlink:href="#m269d7d61ae" x="257.04014" y="146.218213" style="fill: #2ca02c; stroke: #ffffff; stroke-width: 0.75; stroke-linejoin: miter"/>
     <use xlink:href="#m269d7d61ae" x="263.34926" y="141.070979" style="fill: #2ca02c; stroke: #ffffff; stroke-width: 0.75; stroke-linejoin: miter"/>
     <use xlink:href="#m269d7d61ae" x="268.610828" y="135.923745" style="fill: #2ca02c; stroke: #ffffff; stroke-width: 0.75; stroke-linejoin: miter"/>
     <use xlink:href="#m269d7d61ae" x="274.086668" y="130.776511" style="fill: #2ca02c; stroke: #ffffff; stroke-width: 0.75; stroke-linejoin: miter"/>
     <use xlink:href="#m269d7d61ae" x="280.098188" y="125.629277" style="fill: #2ca02c; stroke: #ffffff; stroke-width: 0.75; stroke-linejoin: miter"/>
     <use xlink:href="#m269d7d61ae" x="285.895436" y="120.482043" style="fill: #2ca02c; stroke: #ffffff; stroke-width: 0.75; stroke-linejoin: miter"/>
     <use xlink:href="#m269d7d61ae" x="291.62126" y="115.334809" style="fill: #2ca02c; stroke: #ffffff; stroke-width: 0.75; stroke-linejoin: miter"/>
     <use xlink:href="#m269d7d61ae" x="297.644684" y="110.187574" style="fill: #2ca02c; stroke: #ffffff; stroke-width: 0.75; stroke-linejoin: miter"/>
     <use xlink:href="#m269d7d61ae" x="303.751436" y="105.04034" style="fill: #2ca02c; stroke: #ffffff; stroke-width: 0.75; stroke-linejoin: miter"/>
     <use xlink:href="#m269d7d61ae" x="310.417676" y="99.893106" style="fill: #2ca02c; stroke: #ffffff; stroke-width: 0.75; stroke-linejoin: miter"/>
     <use xlink:href="#m269d7d61ae" x="316.97678" y="94.745872" style="fill: #2ca02c; stroke: #ffffff; stroke-width: 0.75; stroke-linejoin: miter"/>
     <use xlink:href="#m269d7d61ae" x="322.619276" y="89.598638" style="fill: #2ca02c; stroke: #ffffff; stroke-width: 0.75; stroke-linejoin: miter"/>
     <use xlink:href="#m269d7d61ae" x="328.309388" y="84.451404" style="fill: #2ca02c; stroke: #ffffff; stroke-width: 0.75; stroke-linejoin: miter"/>
     <use xlink:href="#m269d7d61ae" x="334.35662" y="79.30417" style="fill: #2ca02c; stroke: #ffffff; stroke-width: 0.75; stroke-linejoin: miter"/>
     <use xlink:href="#m269d7d61ae" x="340.760972" y="74.156936" style="fill: #2ca02c; stroke: #ffffff; stroke-width: 0.75; stroke-linejoin: miter"/>
     <use xlink:href="#m269d7d61ae" x="347.022476" y="69.009702" style="fill: #2ca02c; stroke: #ffffff; stroke-width: 0.75; stroke-linejoin: miter"/>
     <use xlink:href="#m269d7d61ae" x="351.903116" y="63.862468" style="fill: #2ca02c; stroke: #ffffff; stroke-width: 0.75; stroke-linejoin: miter"/>
     <use xlink:href="#m269d7d61ae" x="357.355148" y="58.715234" style="fill: #2ca02c; stroke: #ffffff; stroke-width: 0.75; stroke-linejoin: miter"/>
     <use xlink:href="#m269d7d61ae" x="363.176204" y="53.568" style="fill: #2ca02c; stroke: #ffffff; stroke-width: 0.75; stroke-linejoin: miter"/>
    </g>
   </g>
   <g id="patch_3">
    <path d="M 57.6 307.584 
L 57.6 41.472 
" style="fill: none; stroke: #000000; stroke-width: 0.8; stroke-linejoin: miter; stroke-linecap: square"/>
   </g>
   <g id="patch_4">
    <path d="M 414.72 307.584 
L 414.72 41.472 
" style="fill: none; stroke: #000000; stroke-width: 0.8; stroke-linejoin: miter; stroke-linecap: square"/>
   </g>
   <g id="patch_5">
    <path d="M 57.6 307.584 
L 414.72 307.584 
" style="fill: none; stroke: #000000; stroke-width: 0.8; stroke-linejoin: miter; stroke-linecap: square"/>
   </g>
   <g id="patch_6">
    <path d="M 57.6 41.472 
L 414.72 41.472 
" style="fill: none; stroke: #000000; stroke-width: 0.8; stroke-linejoin: miter; stroke-linecap: square"/>
   </g>
  </g>
 </g>
 <defs>
  <clipPath id="pe6e43780da">
   <rect x="57.6" y="41.472" width="357.12" height="266.112"/>
  </clipPath>
 </defs>
</svg>
