<?xml version="1.0" encoding="utf-8" standalone="no"?>
<!DOCTYPE svg PUBLIC "-//W3C//DTD SVG 1.1//EN"
  "http://www.w3.org/Graphics/SVG/1.1/DTD/svg11.dtd">
<svg xmlns:xlink="http://www.w3.org/1999/xlink" width="460.8pt" height="345.6pt" viewBox="0 0 460.8 345.6" xmlns="http://www.w3.org/2000/svg" version="1.1">
 <metadata>
  <rdf:RDF xmlns:dc="http://purl.org/dc/elements/1.1/" xmlns:cc="http://creativecommons.org/ns#" xmlns:rdf="http://www.w3.org/1999/02/22-rdf-syntax-ns#">
   <cc:Work>
    <dc:type rdf:resource="http://purl.org/dc/dcmitype/StillImage"/>
    <dc:date>2024-06-24T20:04:39.629589</dc:date>
    <dc:format>image/svg+xml</dc:format>
    <dc:creator>
     <cc:Agent>
      <dc:title>Matplotlib v3.8.4, https://matplotlib.org/</dc:title>
     </cc:Agent>
    </dc:creator>
   </cc:Work>
  </rdf:RDF>
 </metadata>
 <defs>
  <style type="text/css">*{stroke-linejoin: round; stroke-linecap: butt}</style>
 </defs>
 <g id="figure_1">
  <g id="patch_1">
   <path d="M 0 345.6 
L 460.8 345.6 
L 460.8 0 
L 0 0 
L 0 345.6 
z
" style="fill: none"/>
  </g>
  <g id="axes_1">
   <g id="patch_2">
    <path d="M 57.6 307.584 
L 414.72 307.584 
L 414.72 41.472 
L 57.6 41.472 
L 57.6 307.584 
z
" style="fill: none"/>
   </g>
   <g id="PolyCollection_1">
    <defs>
     <path id="m5ea6621b44" d="M 76.755793 -50.112 
L 74.130822 -50.112 
L 79.404973 -55.259234 
L 84.360151 -60.406468 
L 90.533692 -65.553702 
L 97.422422 -70.700936 
L 102.116278 -75.84817 
L 107.346556 -80.995404 
L 113.059576 -86.142638 
L 118.834628 -91.289872 
L 124.561516 -96.437106 
L 129.844859 -101.58434 
L 135.921349 -106.731574 
L 141.676913 -111.878809 
L 147.569898 -117.026043 
L 153.335953 -122.173277 
L 158.961889 -127.320511 
L 164.820361 -132.467745 
L 169.971965 -137.614979 
L 175.683833 -142.762213 
L 181.271167 -147.909447 
L 187.463205 -153.056681 
L 193.076257 -158.203915 
L 198.704127 -163.351149 
L 204.276134 -168.498383 
L 209.999638 -173.645617 
L 214.927065 -178.792851 
L 221.369354 -183.940085 
L 227.613388 -189.087319 
L 233.41262 -194.234553 
L 238.586519 -199.381787 
L 244.449539 -204.529021 
L 249.962686 -209.676255 
L 255.403207 -214.823489 
L 260.515714 -219.970723 
L 266.40187 -225.117957 
L 271.311315 -230.265191 
L 277.340429 -235.412426 
L 283.936363 -240.55966 
L 289.208437 -245.706894 
L 294.249853 -250.854128 
L 300.346497 -256.001362 
L 306.135884 -261.148596 
L 311.393792 -266.29583 
L 317.956546 -271.443064 
L 323.207188 -276.590298 
L 329.232869 -281.737532 
L 336.696757 -286.884766 
L 340.896426 -292.032 
L 346.895391 -292.032 
L 346.895391 -292.032 
L 344.367986 -286.884766 
L 335.452228 -281.737532 
L 329.712408 -276.590298 
L 324.681303 -271.443064 
L 318.613805 -266.29583 
L 312.841052 -261.148596 
L 306.630549 -256.001362 
L 300.769142 -250.854128 
L 295.48908 -245.706894 
L 290.088926 -240.55966 
L 283.928888 -235.412426 
L 278.205327 -230.265191 
L 272.689193 -225.117957 
L 266.708992 -219.970723 
L 261.353878 -214.823489 
L 255.449939 -209.676255 
L 250.075963 -204.529021 
L 244.418866 -199.381787 
L 238.366538 -194.234553 
L 232.854843 -189.087319 
L 226.972681 -183.940085 
L 220.929199 -178.792851 
L 215.281011 -173.645617 
L 209.387137 -168.498383 
L 203.728754 -163.351149 
L 197.954196 -158.203915 
L 192.358065 -153.056681 
L 186.904962 -147.909447 
L 182.158341 -142.762213 
L 175.148645 -137.614979 
L 169.072402 -132.467745 
L 163.547001 -127.320511 
L 157.405381 -122.173277 
L 151.483464 -117.026043 
L 145.05053 -111.878809 
L 139.412677 -106.731574 
L 133.354418 -101.58434 
L 128.02432 -96.437106 
L 124.207695 -91.289872 
L 116.750851 -86.142638 
L 110.913495 -80.995404 
L 105.290477 -75.84817 
L 99.793824 -70.700936 
L 93.641354 -65.553702 
L 87.283677 -60.406468 
L 82.244542 -55.259234 
L 76.755793 -50.112 
z
" style="stroke: #1f77b4; stroke-opacity: 0.2"/>
    </defs>
    <g clip-path="url(#p5bab15e9af)">
     <use xlink:href="#m5ea6621b44" x="0" y="345.6" style="fill: #1f77b4; fill-opacity: 0.2; stroke: #1f77b4; stroke-opacity: 0.2"/>
    </g>
   </g>
   <g id="PolyCollection_2">
    <defs>
     <path id="mfd18e1a464" d="M 103.309501 -50.112 
L 81.500675 -50.112 
L 87.966548 -55.259234 
L 94.201101 -60.406468 
L 99.527746 -65.553702 
L 106.033677 -70.700936 
L 112.152333 -75.84817 
L 118.461453 -80.995404 
L 125.181398 -86.142638 
L 130.722573 -91.289872 
L 136.555533 -96.437106 
L 142.529107 -101.58434 
L 148.173837 -106.731574 
L 153.935373 -111.878809 
L 160.363533 -117.026043 
L 165.958413 -122.173277 
L 171.196173 -127.320511 
L 176.672013 -132.467745 
L 182.100237 -137.614979 
L 187.531604 -142.762213 
L 192.504333 -147.909447 
L 199.408653 -153.056681 
L 204.765453 -158.203915 
L 210.360333 -163.351149 
L 215.955213 -168.498383 
L 221.309995 -173.645617 
L 226.657455 -178.792851 
L 232.549389 -183.940085 
L 238.215693 -189.087319 
L 243.786765 -194.234553 
L 249.143565 -199.381787 
L 254.809869 -204.529021 
L 260.619021 -209.676255 
L 265.436451 -214.823489 
L 271.102755 -219.970723 
L 276.498957 -225.117957 
L 282.323703 -230.265191 
L 287.450637 -235.412426 
L 293.450253 -240.55966 
L 299.865496 -245.706894 
L 304.925709 -250.854128 
L 310.115853 -256.001362 
L 316.186893 -261.148596 
L 322.341807 -266.29583 
L 326.611653 -271.443064 
L 333.236564 -276.590298 
L 339.256845 -281.737532 
L 344.637453 -286.884766 
L 349.875213 -292.032 
L 373.477615 -292.032 
L 373.477615 -292.032 
L 365.911741 -286.884766 
L 360.296197 -281.737532 
L 354.62999 -276.590298 
L 347.844613 -271.443064 
L 341.603773 -266.29583 
L 336.154885 -261.148596 
L 330.560005 -256.001362 
L 324.961981 -250.854128 
L 319.557565 -245.706894 
L 313.894405 -240.55966 
L 307.439293 -235.412426 
L 299.862994 -230.265191 
L 294.987709 -225.117957 
L 290.107069 -219.970723 
L 284.991493 -214.823489 
L 276.935793 -209.676255 
L 272.489149 -204.529021 
L 267.421286 -199.381787 
L 259.65336 -194.234553 
L 254.942423 -189.087319 
L 249.60141 -183.940085 
L 244.827397 -178.792851 
L 239.986159 -173.645617 
L 233.896381 -168.498383 
L 228.542725 -163.351149 
L 223.325629 -158.203915 
L 217.829222 -153.056681 
L 212.11845 -147.909447 
L 206.091781 -142.762213 
L 200.330245 -137.614979 
L 194.232253 -132.467745 
L 188.235781 -127.320511 
L 182.947261 -122.173277 
L 177.614943 -117.026043 
L 171.579385 -111.878809 
L 165.338453 -106.731574 
L 161.634031 -101.58434 
L 153.782461 -96.437106 
L 147.991665 -91.289872 
L 143.888475 -86.142638 
L 137.650779 -80.995404 
L 131.641021 -75.84817 
L 125.808061 -70.700936 
L 119.961435 -65.553702 
L 113.943081 -60.406468 
L 109.467177 -55.259234 
L 103.309501 -50.112 
z
" style="stroke: #ff7f0e; stroke-opacity: 0.2"/>
    </defs>
    <g clip-path="url(#p5bab15e9af)">
     <use xlink:href="#mfd18e1a464" x="0" y="345.6" style="fill: #ff7f0e; fill-opacity: 0.2; stroke: #ff7f0e; stroke-opacity: 0.2"/>
    </g>
   </g>
   <g id="PolyCollection_3">
    <defs>
     <path id="m51b6236f9d" d="M 90.421685 -50.112 
L 77.560113 -50.112 
L 84.237211 -55.259234 
L 90.026776 -60.406468 
L 97.12158 -65.553702 
L 102.486333 -70.700936 
L 109.834907 -75.84817 
L 114.999276 -80.995404 
L 120.128967 -86.142638 
L 125.47475 -91.289872 
L 131.562732 -96.437106 
L 137.319257 -101.58434 
L 143.722384 -106.731574 
L 149.426663 -111.878809 
L 156.159514 -117.026043 
L 162.228778 -122.173277 
L 167.998419 -127.320511 
L 173.104728 -132.467745 
L 178.769821 -137.614979 
L 184.944725 -142.762213 
L 191.283011 -147.909447 
L 197.416236 -153.056681 
L 203.19468 -158.203915 
L 208.936696 -163.351149 
L 214.526795 -168.498383 
L 220.624569 -173.645617 
L 225.751906 -178.792851 
L 232.901081 -183.940085 
L 239.144528 -189.087319 
L 243.783421 -194.234553 
L 250.344352 -199.381787 
L 256.005687 -204.529021 
L 261.553978 -209.676255 
L 267.037933 -214.823489 
L 272.392561 -219.970723 
L 278.708832 -225.117957 
L 284.567455 -230.265191 
L 290.216485 -235.412426 
L 297.057389 -240.55966 
L 303.265624 -245.706894 
L 309.370326 -250.854128 
L 314.312585 -256.001362 
L 320.70622 -261.148596 
L 326.915766 -266.29583 
L 333.412577 -271.443064 
L 339.081492 -276.590298 
L 343.819328 -281.737532 
L 349.406391 -286.884766 
L 355.195119 -292.032 
L 370.818858 -292.032 
L 370.818858 -292.032 
L 365.251787 -286.884766 
L 360.027924 -281.737532 
L 354.581159 -276.590298 
L 348.740965 -271.443064 
L 341.470153 -266.29583 
L 335.98392 -261.148596 
L 329.629444 -256.001362 
L 324.682328 -250.854128 
L 318.124199 -245.706894 
L 310.547739 -240.55966 
L 304.234859 -235.412426 
L 298.942129 -230.265191 
L 293.729722 -225.117957 
L 287.424853 -219.970723 
L 281.625563 -214.823489 
L 275.850704 -209.676255 
L 270.929018 -204.529021 
L 263.943406 -199.381787 
L 257.746114 -194.234553 
L 252.33585 -189.087319 
L 245.16113 -183.940085 
L 239.982046 -178.792851 
L 235.099206 -173.645617 
L 228.722179 -168.498383 
L 223.041347 -163.351149 
L 217.080332 -158.203915 
L 210.919243 -153.056681 
L 204.415439 -147.909447 
L 198.757662 -142.762213 
L 192.523364 -137.614979 
L 187.462513 -132.467745 
L 181.757224 -127.320511 
L 175.52817 -122.173277 
L 170.21672 -117.026043 
L 163.501249 -111.878809 
L 157.232201 -106.731574 
L 151.05501 -101.58434 
L 145.044422 -96.437106 
L 138.995194 -91.289872 
L 132.673264 -86.142638 
L 126.682977 -80.995404 
L 121.665995 -75.84817 
L 114.21637 -70.700936 
L 108.493849 -65.553702 
L 101.955333 -60.406468 
L 96.377472 -55.259234 
L 90.421685 -50.112 
z
" style="stroke: #2ca02c; stroke-opacity: 0.2"/>
    </defs>
    <g clip-path="url(#p5bab15e9af)">
     <use xlink:href="#m51b6236f9d" x="0" y="345.6" style="fill: #2ca02c; fill-opacity: 0.2; stroke: #2ca02c; stroke-opacity: 0.2"/>
    </g>
   </g>
   <g id="matplotlib.axis_1">
    <g id="xtick_1">
     <g id="line2d_1">
      <defs>
       <path id="m3997368a35" d="M 0 0 
L 0 3.5 
" style="stroke: #000000; stroke-width: 0.8"/>
      </defs>
      <g>
       <use xlink:href="#m3997368a35" x="57.6" y="307.584" style="stroke: #000000; stroke-width: 0.8"/>
      </g>
     </g>
     <g id="text_1">
      <!-- 0 -->
      <g transform="translate(52.51 326.7415) scale(0.16 -0.16)">
       <defs>
        <path id="DejaVuSans-30" d="M 2034 4250 
Q 1547 4250 1301 3770 
Q 1056 3291 1056 2328 
Q 1056 1369 1301 889 
Q 1547 409 2034 409 
Q 2525 409 2770 889 
Q 3016 1369 3016 2328 
Q 3016 3291 2770 3770 
Q 2525 4250 2034 4250 
z
M 2034 4750 
Q 2819 4750 3233 4129 
Q 3647 3509 3647 2328 
Q 3647 1150 3233 529 
Q 2819 -91 2034 -91 
Q 1250 -91 836 529 
Q 422 1150 422 2328 
Q 422 3509 836 4129 
Q 1250 4750 2034 4750 
z
" transform="scale(0.015625)"/>
       </defs>
       <use xlink:href="#DejaVuSans-30"/>
      </g>
     </g>
    </g>
    <g id="xtick_2">
     <g id="line2d_2">
      <g>
       <use xlink:href="#m3997368a35" x="129.024" y="307.584" style="stroke: #000000; stroke-width: 0.8"/>
      </g>
     </g>
     <g id="text_2">
      <!-- 10 -->
      <g transform="translate(118.844 326.7415) scale(0.16 -0.16)">
       <defs>
        <path id="DejaVuSans-31" d="M 794 531 
L 1825 531 
L 1825 4091 
L 703 3866 
L 703 4441 
L 1819 4666 
L 2450 4666 
L 2450 531 
L 3481 531 
L 3481 0 
L 794 0 
L 794 531 
z
" transform="scale(0.015625)"/>
       </defs>
       <use xlink:href="#DejaVuSans-31"/>
       <use xlink:href="#DejaVuSans-30" x="63.623047"/>
      </g>
     </g>
    </g>
    <g id="xtick_3">
     <g id="line2d_3">
      <g>
       <use xlink:href="#m3997368a35" x="200.448" y="307.584" style="stroke: #000000; stroke-width: 0.8"/>
      </g>
     </g>
     <g id="text_3">
      <!-- 20 -->
      <g transform="translate(190.268 326.7415) scale(0.16 -0.16)">
       <defs>
        <path id="DejaVuSans-32" d="M 1228 531 
L 3431 531 
L 3431 0 
L 469 0 
L 469 531 
Q 828 903 1448 1529 
Q 2069 2156 2228 2338 
Q 2531 2678 2651 2914 
Q 2772 3150 2772 3378 
Q 2772 3750 2511 3984 
Q 2250 4219 1831 4219 
Q 1534 4219 1204 4116 
Q 875 4013 500 3803 
L 500 4441 
Q 881 4594 1212 4672 
Q 1544 4750 1819 4750 
Q 2544 4750 2975 4387 
Q 3406 4025 3406 3419 
Q 3406 3131 3298 2873 
Q 3191 2616 2906 2266 
Q 2828 2175 2409 1742 
Q 1991 1309 1228 531 
z
" transform="scale(0.015625)"/>
       </defs>
       <use xlink:href="#DejaVuSans-32"/>
       <use xlink:href="#DejaVuSans-30" x="63.623047"/>
      </g>
     </g>
    </g>
    <g id="xtick_4">
     <g id="line2d_4">
      <g>
       <use xlink:href="#m3997368a35" x="271.872" y="307.584" style="stroke: #000000; stroke-width: 0.8"/>
      </g>
     </g>
     <g id="text_4">
      <!-- 30 -->
      <g transform="translate(261.692 326.7415) scale(0.16 -0.16)">
       <defs>
        <path id="DejaVuSans-33" d="M 2597 2516 
Q 3050 2419 3304 2112 
Q 3559 1806 3559 1356 
Q 3559 666 3084 287 
Q 2609 -91 1734 -91 
Q 1441 -91 1130 -33 
Q 819 25 488 141 
L 488 750 
Q 750 597 1062 519 
Q 1375 441 1716 441 
Q 2309 441 2620 675 
Q 2931 909 2931 1356 
Q 2931 1769 2642 2001 
Q 2353 2234 1838 2234 
L 1294 2234 
L 1294 2753 
L 1863 2753 
Q 2328 2753 2575 2939 
Q 2822 3125 2822 3475 
Q 2822 3834 2567 4026 
Q 2313 4219 1838 4219 
Q 1578 4219 1281 4162 
Q 984 4106 628 3988 
L 628 4550 
Q 988 4650 1302 4700 
Q 1616 4750 1894 4750 
Q 2613 4750 3031 4423 
Q 3450 4097 3450 3541 
Q 3450 3153 3228 2886 
Q 3006 2619 2597 2516 
z
" transform="scale(0.015625)"/>
       </defs>
       <use xlink:href="#DejaVuSans-33"/>
       <use xlink:href="#DejaVuSans-30" x="63.623047"/>
      </g>
     </g>
    </g>
    <g id="xtick_5">
     <g id="line2d_5">
      <g>
       <use xlink:href="#m3997368a35" x="343.296" y="307.584" style="stroke: #000000; stroke-width: 0.8"/>
      </g>
     </g>
     <g id="text_5">
      <!-- 40 -->
      <g transform="translate(333.116 326.7415) scale(0.16 -0.16)">
       <defs>
        <path id="DejaVuSans-34" d="M 2419 4116 
L 825 1625 
L 2419 1625 
L 2419 4116 
z
M 2253 4666 
L 3047 4666 
L 3047 1625 
L 3713 1625 
L 3713 1100 
L 3047 1100 
L 3047 0 
L 2419 0 
L 2419 1100 
L 313 1100 
L 313 1709 
L 2253 4666 
z
" transform="scale(0.015625)"/>
       </defs>
       <use xlink:href="#DejaVuSans-34"/>
       <use xlink:href="#DejaVuSans-30" x="63.623047"/>
      </g>
     </g>
    </g>
    <g id="xtick_6">
     <g id="line2d_6">
      <g>
       <use xlink:href="#m3997368a35" x="414.72" y="307.584" style="stroke: #000000; stroke-width: 0.8"/>
      </g>
     </g>
     <g id="text_6">
      <!-- 50 -->
      <g transform="translate(404.54 326.7415) scale(0.16 -0.16)">
       <defs>
        <path id="DejaVuSans-35" d="M 691 4666 
L 3169 4666 
L 3169 4134 
L 1269 4134 
L 1269 2991 
Q 1406 3038 1543 3061 
Q 1681 3084 1819 3084 
Q 2600 3084 3056 2656 
Q 3513 2228 3513 1497 
Q 3513 744 3044 326 
Q 2575 -91 1722 -91 
Q 1428 -91 1123 -41 
Q 819 9 494 109 
L 494 744 
Q 775 591 1075 516 
Q 1375 441 1709 441 
Q 2250 441 2565 725 
Q 2881 1009 2881 1497 
Q 2881 1984 2565 2268 
Q 2250 2553 1709 2553 
Q 1456 2553 1204 2497 
Q 953 2441 691 2322 
L 691 4666 
z
" transform="scale(0.015625)"/>
       </defs>
       <use xlink:href="#DejaVuSans-35"/>
       <use xlink:href="#DejaVuSans-30" x="63.623047"/>
      </g>
     </g>
    </g>
   </g>
   <g id="matplotlib.axis_2">
    <g id="ytick_1">
     <g id="line2d_7">
      <defs>
       <path id="ma2d3c67da5" d="M 0 0 
L -3.5 0 
" style="stroke: #000000; stroke-width: 0.8"/>
      </defs>
      <g>
       <use xlink:href="#ma2d3c67da5" x="57.6" y="300.635234" style="stroke: #000000; stroke-width: 0.8"/>
      </g>
     </g>
     <g id="text_7">
      <!-- 0 -->
      <g transform="translate(40.42 306.713984) scale(0.16 -0.16)">
       <use xlink:href="#DejaVuSans-30"/>
      </g>
     </g>
    </g>
    <g id="ytick_2">
     <g id="line2d_8">
      <g>
       <use xlink:href="#ma2d3c67da5" x="57.6" y="249.162894" style="stroke: #000000; stroke-width: 0.8"/>
      </g>
     </g>
     <g id="text_8">
      <!-- 10 -->
      <g transform="translate(30.24 255.241644) scale(0.16 -0.16)">
       <use xlink:href="#DejaVuSans-31"/>
       <use xlink:href="#DejaVuSans-30" x="63.623047"/>
      </g>
     </g>
    </g>
    <g id="ytick_3">
     <g id="line2d_9">
      <g>
       <use xlink:href="#ma2d3c67da5" x="57.6" y="197.690553" style="stroke: #000000; stroke-width: 0.8"/>
      </g>
     </g>
     <g id="text_9">
      <!-- 20 -->
      <g transform="translate(30.24 203.769303) scale(0.16 -0.16)">
       <use xlink:href="#DejaVuSans-32"/>
       <use xlink:href="#DejaVuSans-30" x="63.623047"/>
      </g>
     </g>
    </g>
    <g id="ytick_4">
     <g id="line2d_10">
      <g>
       <use xlink:href="#ma2d3c67da5" x="57.6" y="146.218213" style="stroke: #000000; stroke-width: 0.8"/>
      </g>
     </g>
     <g id="text_10">
      <!-- 30 -->
      <g transform="translate(30.24 152.296963) scale(0.16 -0.16)">
       <use xlink:href="#DejaVuSans-33"/>
       <use xlink:href="#DejaVuSans-30" x="63.623047"/>
      </g>
     </g>
    </g>
    <g id="ytick_5">
     <g id="line2d_11">
      <g>
       <use xlink:href="#ma2d3c67da5" x="57.6" y="94.745872" style="stroke: #000000; stroke-width: 0.8"/>
      </g>
     </g>
     <g id="text_11">
      <!-- 40 -->
      <g transform="translate(30.24 100.824622) scale(0.16 -0.16)">
       <use xlink:href="#DejaVuSans-34"/>
       <use xlink:href="#DejaVuSans-30" x="63.623047"/>
      </g>
     </g>
    </g>
    <g id="ytick_6">
     <g id="line2d_12">
      <g>
       <use xlink:href="#ma2d3c67da5" x="57.6" y="43.273532" style="stroke: #000000; stroke-width: 0.8"/>
      </g>
     </g>
     <g id="text_12">
      <!-- 50 -->
      <g transform="translate(30.24 49.352282) scale(0.16 -0.16)">
       <use xlink:href="#DejaVuSans-35"/>
       <use xlink:href="#DejaVuSans-30" x="63.623047"/>
      </g>
     </g>
    </g>
   </g>
   <g id="line2d_13">
    <path d="M 75.463486 295.488 
L 80.850046 290.340766 
L 85.953886 285.193532 
L 92.173726 280.046298 
L 98.735806 274.899064 
L 103.720606 269.75183 
L 109.360126 264.604596 
L 114.969886 259.457362 
L 121.398046 254.310128 
L 126.308446 249.162894 
L 131.724766 244.01566 
L 137.721406 238.868426 
L 143.494846 233.721191 
L 149.506366 228.573957 
L 155.354206 223.426723 
L 161.365726 218.279489 
L 166.990366 213.132255 
L 172.719166 207.985021 
L 178.909246 202.837787 
L 184.206526 197.690553 
L 190.054366 192.543319 
L 195.708766 187.396085 
L 201.437566 182.248851 
L 207.002686 177.101617 
L 212.850526 171.954383 
L 218.430526 166.807149 
L 224.501566 161.659915 
L 230.468446 156.512681 
L 236.167486 151.365447 
L 241.866526 146.218213 
L 247.595326 141.070979 
L 252.967006 135.923745 
L 258.532126 130.776511 
L 263.784766 125.629277 
L 269.424286 120.482043 
L 274.676926 115.334809 
L 280.733086 110.187574 
L 287.161246 105.04034 
L 292.503166 99.893106 
L 297.562366 94.745872 
L 303.692926 89.598638 
L 309.406846 84.451404 
L 315.061246 79.30417 
L 321.385246 74.156936 
L 326.503966 69.009702 
L 332.307166 63.862468 
L 340.193566 58.715234 
L 343.601086 53.568 
" clip-path="url(#p5bab15e9af)" style="fill: none; stroke: #1f77b4; stroke-width: 1.5; stroke-linecap: square"/>
    <defs>
     <path id="m310e5f967c" d="M 0 3 
C 0.795609 3 1.55874 2.683901 2.12132 2.12132 
C 2.683901 1.55874 3 0.795609 3 0 
C 3 -0.795609 2.683901 -1.55874 2.12132 -2.12132 
C 1.55874 -2.683901 0.795609 -3 0 -3 
C -0.795609 -3 -1.55874 -2.683901 -2.12132 -2.12132 
C -2.683901 -1.55874 -3 -0.795609 -3 0 
C -3 0.795609 -2.683901 1.55874 -2.12132 2.12132 
C -1.55874 2.683901 -0.795609 3 0 3 
z
" style="stroke: #ffffff; stroke-width: 0.75"/>
    </defs>
    <g clip-path="url(#p5bab15e9af)">
     <use xlink:href="#m310e5f967c" x="75.463486" y="295.488" style="fill: #1f77b4; stroke: #ffffff; stroke-width: 0.75"/>
     <use xlink:href="#m310e5f967c" x="80.850046" y="290.340766" style="fill: #1f77b4; stroke: #ffffff; stroke-width: 0.75"/>
     <use xlink:href="#m310e5f967c" x="85.953886" y="285.193532" style="fill: #1f77b4; stroke: #ffffff; stroke-width: 0.75"/>
     <use xlink:href="#m310e5f967c" x="92.173726" y="280.046298" style="fill: #1f77b4; stroke: #ffffff; stroke-width: 0.75"/>
     <use xlink:href="#m310e5f967c" x="98.735806" y="274.899064" style="fill: #1f77b4; stroke: #ffffff; stroke-width: 0.75"/>
     <use xlink:href="#m310e5f967c" x="103.720606" y="269.75183" style="fill: #1f77b4; stroke: #ffffff; stroke-width: 0.75"/>
     <use xlink:href="#m310e5f967c" x="109.360126" y="264.604596" style="fill: #1f77b4; stroke: #ffffff; stroke-width: 0.75"/>
     <use xlink:href="#m310e5f967c" x="114.969886" y="259.457362" style="fill: #1f77b4; stroke: #ffffff; stroke-width: 0.75"/>
     <use xlink:href="#m310e5f967c" x="121.398046" y="254.310128" style="fill: #1f77b4; stroke: #ffffff; stroke-width: 0.75"/>
     <use xlink:href="#m310e5f967c" x="126.308446" y="249.162894" style="fill: #1f77b4; stroke: #ffffff; stroke-width: 0.75"/>
     <use xlink:href="#m310e5f967c" x="131.724766" y="244.01566" style="fill: #1f77b4; stroke: #ffffff; stroke-width: 0.75"/>
     <use xlink:href="#m310e5f967c" x="137.721406" y="238.868426" style="fill: #1f77b4; stroke: #ffffff; stroke-width: 0.75"/>
     <use xlink:href="#m310e5f967c" x="143.494846" y="233.721191" style="fill: #1f77b4; stroke: #ffffff; stroke-width: 0.75"/>
     <use xlink:href="#m310e5f967c" x="149.506366" y="228.573957" style="fill: #1f77b4; stroke: #ffffff; stroke-width: 0.75"/>
     <use xlink:href="#m310e5f967c" x="155.354206" y="223.426723" style="fill: #1f77b4; stroke: #ffffff; stroke-width: 0.75"/>
     <use xlink:href="#m310e5f967c" x="161.365726" y="218.279489" style="fill: #1f77b4; stroke: #ffffff; stroke-width: 0.75"/>
     <use xlink:href="#m310e5f967c" x="166.990366" y="213.132255" style="fill: #1f77b4; stroke: #ffffff; stroke-width: 0.75"/>
     <use xlink:href="#m310e5f967c" x="172.719166" y="207.985021" style="fill: #1f77b4; stroke: #ffffff; stroke-width: 0.75"/>
     <use xlink:href="#m310e5f967c" x="178.909246" y="202.837787" style="fill: #1f77b4; stroke: #ffffff; stroke-width: 0.75"/>
     <use xlink:href="#m310e5f967c" x="184.206526" y="197.690553" style="fill: #1f77b4; stroke: #ffffff; stroke-width: 0.75"/>
     <use xlink:href="#m310e5f967c" x="190.054366" y="192.543319" style="fill: #1f77b4; stroke: #ffffff; stroke-width: 0.75"/>
     <use xlink:href="#m310e5f967c" x="195.708766" y="187.396085" style="fill: #1f77b4; stroke: #ffffff; stroke-width: 0.75"/>
     <use xlink:href="#m310e5f967c" x="201.437566" y="182.248851" style="fill: #1f77b4; stroke: #ffffff; stroke-width: 0.75"/>
     <use xlink:href="#m310e5f967c" x="207.002686" y="177.101617" style="fill: #1f77b4; stroke: #ffffff; stroke-width: 0.75"/>
     <use xlink:href="#m310e5f967c" x="212.850526" y="171.954383" style="fill: #1f77b4; stroke: #ffffff; stroke-width: 0.75"/>
     <use xlink:href="#m310e5f967c" x="218.430526" y="166.807149" style="fill: #1f77b4; stroke: #ffffff; stroke-width: 0.75"/>
     <use xlink:href="#m310e5f967c" x="224.501566" y="161.659915" style="fill: #1f77b4; stroke: #ffffff; stroke-width: 0.75"/>
     <use xlink:href="#m310e5f967c" x="230.468446" y="156.512681" style="fill: #1f77b4; stroke: #ffffff; stroke-width: 0.75"/>
     <use xlink:href="#m310e5f967c" x="236.167486" y="151.365447" style="fill: #1f77b4; stroke: #ffffff; stroke-width: 0.75"/>
     <use xlink:href="#m310e5f967c" x="241.866526" y="146.218213" style="fill: #1f77b4; stroke: #ffffff; stroke-width: 0.75"/>
     <use xlink:href="#m310e5f967c" x="247.595326" y="141.070979" style="fill: #1f77b4; stroke: #ffffff; stroke-width: 0.75"/>
     <use xlink:href="#m310e5f967c" x="252.967006" y="135.923745" style="fill: #1f77b4; stroke: #ffffff; stroke-width: 0.75"/>
     <use xlink:href="#m310e5f967c" x="258.532126" y="130.776511" style="fill: #1f77b4; stroke: #ffffff; stroke-width: 0.75"/>
     <use xlink:href="#m310e5f967c" x="263.784766" y="125.629277" style="fill: #1f77b4; stroke: #ffffff; stroke-width: 0.75"/>
     <use xlink:href="#m310e5f967c" x="269.424286" y="120.482043" style="fill: #1f77b4; stroke: #ffffff; stroke-width: 0.75"/>
     <use xlink:href="#m310e5f967c" x="274.676926" y="115.334809" style="fill: #1f77b4; stroke: #ffffff; stroke-width: 0.75"/>
     <use xlink:href="#m310e5f967c" x="280.733086" y="110.187574" style="fill: #1f77b4; stroke: #ffffff; stroke-width: 0.75"/>
     <use xlink:href="#m310e5f967c" x="287.161246" y="105.04034" style="fill: #1f77b4; stroke: #ffffff; stroke-width: 0.75"/>
     <use xlink:href="#m310e5f967c" x="292.503166" y="99.893106" style="fill: #1f77b4; stroke: #ffffff; stroke-width: 0.75"/>
     <use xlink:href="#m310e5f967c" x="297.562366" y="94.745872" style="fill: #1f77b4; stroke: #ffffff; stroke-width: 0.75"/>
     <use xlink:href="#m310e5f967c" x="303.692926" y="89.598638" style="fill: #1f77b4; stroke: #ffffff; stroke-width: 0.75"/>
     <use xlink:href="#m310e5f967c" x="309.406846" y="84.451404" style="fill: #1f77b4; stroke: #ffffff; stroke-width: 0.75"/>
     <use xlink:href="#m310e5f967c" x="315.061246" y="79.30417" style="fill: #1f77b4; stroke: #ffffff; stroke-width: 0.75"/>
     <use xlink:href="#m310e5f967c" x="321.385246" y="74.156936" style="fill: #1f77b4; stroke: #ffffff; stroke-width: 0.75"/>
     <use xlink:href="#m310e5f967c" x="326.503966" y="69.009702" style="fill: #1f77b4; stroke: #ffffff; stroke-width: 0.75"/>
     <use xlink:href="#m310e5f967c" x="332.307166" y="63.862468" style="fill: #1f77b4; stroke: #ffffff; stroke-width: 0.75"/>
     <use xlink:href="#m310e5f967c" x="340.193566" y="58.715234" style="fill: #1f77b4; stroke: #ffffff; stroke-width: 0.75"/>
     <use xlink:href="#m310e5f967c" x="343.601086" y="53.568" style="fill: #1f77b4; stroke: #ffffff; stroke-width: 0.75"/>
    </g>
   </g>
   <g id="line2d_14">
    <path d="M 90.872175 295.488 
L 98.109807 290.340766 
L 102.823791 285.193532 
L 108.347247 280.046298 
L 114.561135 274.899064 
L 120.417903 269.75183 
L 126.369903 264.604596 
L 132.869487 259.457362 
L 138.631023 254.310128 
L 144.225903 249.162894 
L 150.201711 244.01566 
L 156.225135 238.868426 
L 161.962863 233.721191 
L 168.057711 228.573957 
L 173.628783 223.426723 
L 178.890351 218.279489 
L 184.628079 213.132255 
L 190.508655 207.985021 
L 195.913071 202.837787 
L 201.531759 197.690553 
L 207.793263 192.543319 
L 213.173871 187.396085 
L 218.792559 182.248851 
L 224.101743 177.101617 
L 229.506159 171.954383 
L 234.910575 166.807149 
L 240.481647 161.659915 
L 246.314607 156.512681 
L 251.695215 151.365447 
L 257.266287 146.218213 
L 263.099247 141.070979 
L 268.551279 135.923745 
L 274.074735 130.776511 
L 279.907695 125.629277 
L 285.145455 120.482043 
L 290.859375 115.334809 
L 296.597103 110.187574 
L 302.953839 105.04034 
L 308.858223 99.893106 
L 314.762607 94.745872 
L 320.095599 89.598638 
L 325.809519 84.451404 
L 331.356783 79.30417 
L 336.808815 74.156936 
L 342.784623 69.009702 
L 348.998511 63.862468 
L 354.783855 58.715234 
L 360.497775 53.568 
" clip-path="url(#p5bab15e9af)" style="fill: none; stroke-dasharray: 6,2.25; stroke-dashoffset: 0; stroke: #ff7f0e; stroke-width: 1.5"/>
    <defs>
     <path id="m18efc849fb" d="M -1.5 3 
L 0 1.5 
L 1.5 3 
L 3 1.5 
L 1.5 0 
L 3 -1.5 
L 1.5 -3 
L 0 -1.5 
L -1.5 -3 
L -3 -1.5 
L -1.5 0 
L -3 1.5 
z
" style="stroke: #ffffff; stroke-width: 0.75; stroke-linejoin: miter"/>
    </defs>
    <g clip-path="url(#p5bab15e9af)">
     <use xlink:href="#m18efc849fb" x="90.872175" y="295.488" style="fill: #ff7f0e; stroke: #ffffff; stroke-width: 0.75; stroke-linejoin: miter"/>
     <use xlink:href="#m18efc849fb" x="98.109807" y="290.340766" style="fill: #ff7f0e; stroke: #ffffff; stroke-width: 0.75; stroke-linejoin: miter"/>
     <use xlink:href="#m18efc849fb" x="102.823791" y="285.193532" style="fill: #ff7f0e; stroke: #ffffff; stroke-width: 0.75; stroke-linejoin: miter"/>
     <use xlink:href="#m18efc849fb" x="108.347247" y="280.046298" style="fill: #ff7f0e; stroke: #ffffff; stroke-width: 0.75; stroke-linejoin: miter"/>
     <use xlink:href="#m18efc849fb" x="114.561135" y="274.899064" style="fill: #ff7f0e; stroke: #ffffff; stroke-width: 0.75; stroke-linejoin: miter"/>
     <use xlink:href="#m18efc849fb" x="120.417903" y="269.75183" style="fill: #ff7f0e; stroke: #ffffff; stroke-width: 0.75; stroke-linejoin: miter"/>
     <use xlink:href="#m18efc849fb" x="126.369903" y="264.604596" style="fill: #ff7f0e; stroke: #ffffff; stroke-width: 0.75; stroke-linejoin: miter"/>
     <use xlink:href="#m18efc849fb" x="132.869487" y="259.457362" style="fill: #ff7f0e; stroke: #ffffff; stroke-width: 0.75; stroke-linejoin: miter"/>
     <use xlink:href="#m18efc849fb" x="138.631023" y="254.310128" style="fill: #ff7f0e; stroke: #ffffff; stroke-width: 0.75; stroke-linejoin: miter"/>
     <use xlink:href="#m18efc849fb" x="144.225903" y="249.162894" style="fill: #ff7f0e; stroke: #ffffff; stroke-width: 0.75; stroke-linejoin: miter"/>
     <use xlink:href="#m18efc849fb" x="150.201711" y="244.01566" style="fill: #ff7f0e; stroke: #ffffff; stroke-width: 0.75; stroke-linejoin: miter"/>
     <use xlink:href="#m18efc849fb" x="156.225135" y="238.868426" style="fill: #ff7f0e; stroke: #ffffff; stroke-width: 0.75; stroke-linejoin: miter"/>
     <use xlink:href="#m18efc849fb" x="161.962863" y="233.721191" style="fill: #ff7f0e; stroke: #ffffff; stroke-width: 0.75; stroke-linejoin: miter"/>
     <use xlink:href="#m18efc849fb" x="168.057711" y="228.573957" style="fill: #ff7f0e; stroke: #ffffff; stroke-width: 0.75; stroke-linejoin: miter"/>
     <use xlink:href="#m18efc849fb" x="173.628783" y="223.426723" style="fill: #ff7f0e; stroke: #ffffff; stroke-width: 0.75; stroke-linejoin: miter"/>
     <use xlink:href="#m18efc849fb" x="178.890351" y="218.279489" style="fill: #ff7f0e; stroke: #ffffff; stroke-width: 0.75; stroke-linejoin: miter"/>
     <use xlink:href="#m18efc849fb" x="184.628079" y="213.132255" style="fill: #ff7f0e; stroke: #ffffff; stroke-width: 0.75; stroke-linejoin: miter"/>
     <use xlink:href="#m18efc849fb" x="190.508655" y="207.985021" style="fill: #ff7f0e; stroke: #ffffff; stroke-width: 0.75; stroke-linejoin: miter"/>
     <use xlink:href="#m18efc849fb" x="195.913071" y="202.837787" style="fill: #ff7f0e; stroke: #ffffff; stroke-width: 0.75; stroke-linejoin: miter"/>
     <use xlink:href="#m18efc849fb" x="201.531759" y="197.690553" style="fill: #ff7f0e; stroke: #ffffff; stroke-width: 0.75; stroke-linejoin: miter"/>
     <use xlink:href="#m18efc849fb" x="207.793263" y="192.543319" style="fill: #ff7f0e; stroke: #ffffff; stroke-width: 0.75; stroke-linejoin: miter"/>
     <use xlink:href="#m18efc849fb" x="213.173871" y="187.396085" style="fill: #ff7f0e; stroke: #ffffff; stroke-width: 0.75; stroke-linejoin: miter"/>
     <use xlink:href="#m18efc849fb" x="218.792559" y="182.248851" style="fill: #ff7f0e; stroke: #ffffff; stroke-width: 0.75; stroke-linejoin: miter"/>
     <use xlink:href="#m18efc849fb" x="224.101743" y="177.101617" style="fill: #ff7f0e; stroke: #ffffff; stroke-width: 0.75; stroke-linejoin: miter"/>
     <use xlink:href="#m18efc849fb" x="229.506159" y="171.954383" style="fill: #ff7f0e; stroke: #ffffff; stroke-width: 0.75; stroke-linejoin: miter"/>
     <use xlink:href="#m18efc849fb" x="234.910575" y="166.807149" style="fill: #ff7f0e; stroke: #ffffff; stroke-width: 0.75; stroke-linejoin: miter"/>
     <use xlink:href="#m18efc849fb" x="240.481647" y="161.659915" style="fill: #ff7f0e; stroke: #ffffff; stroke-width: 0.75; stroke-linejoin: miter"/>
     <use xlink:href="#m18efc849fb" x="246.314607" y="156.512681" style="fill: #ff7f0e; stroke: #ffffff; stroke-width: 0.75; stroke-linejoin: miter"/>
     <use xlink:href="#m18efc849fb" x="251.695215" y="151.365447" style="fill: #ff7f0e; stroke: #ffffff; stroke-width: 0.75; stroke-linejoin: miter"/>
     <use xlink:href="#m18efc849fb" x="257.266287" y="146.218213" style="fill: #ff7f0e; stroke: #ffffff; stroke-width: 0.75; stroke-linejoin: miter"/>
     <use xlink:href="#m18efc849fb" x="263.099247" y="141.070979" style="fill: #ff7f0e; stroke: #ffffff; stroke-width: 0.75; stroke-linejoin: miter"/>
     <use xlink:href="#m18efc849fb" x="268.551279" y="135.923745" style="fill: #ff7f0e; stroke: #ffffff; stroke-width: 0.75; stroke-linejoin: miter"/>
     <use xlink:href="#m18efc849fb" x="274.074735" y="130.776511" style="fill: #ff7f0e; stroke: #ffffff; stroke-width: 0.75; stroke-linejoin: miter"/>
     <use xlink:href="#m18efc849fb" x="279.907695" y="125.629277" style="fill: #ff7f0e; stroke: #ffffff; stroke-width: 0.75; stroke-linejoin: miter"/>
     <use xlink:href="#m18efc849fb" x="285.145455" y="120.482043" style="fill: #ff7f0e; stroke: #ffffff; stroke-width: 0.75; stroke-linejoin: miter"/>
     <use xlink:href="#m18efc849fb" x="290.859375" y="115.334809" style="fill: #ff7f0e; stroke: #ffffff; stroke-width: 0.75; stroke-linejoin: miter"/>
     <use xlink:href="#m18efc849fb" x="296.597103" y="110.187574" style="fill: #ff7f0e; stroke: #ffffff; stroke-width: 0.75; stroke-linejoin: miter"/>
     <use xlink:href="#m18efc849fb" x="302.953839" y="105.04034" style="fill: #ff7f0e; stroke: #ffffff; stroke-width: 0.75; stroke-linejoin: miter"/>
     <use xlink:href="#m18efc849fb" x="308.858223" y="99.893106" style="fill: #ff7f0e; stroke: #ffffff; stroke-width: 0.75; stroke-linejoin: miter"/>
     <use xlink:href="#m18efc849fb" x="314.762607" y="94.745872" style="fill: #ff7f0e; stroke: #ffffff; stroke-width: 0.75; stroke-linejoin: miter"/>
     <use xlink:href="#m18efc849fb" x="320.095599" y="89.598638" style="fill: #ff7f0e; stroke: #ffffff; stroke-width: 0.75; stroke-linejoin: miter"/>
     <use xlink:href="#m18efc849fb" x="325.809519" y="84.451404" style="fill: #ff7f0e; stroke: #ffffff; stroke-width: 0.75; stroke-linejoin: miter"/>
     <use xlink:href="#m18efc849fb" x="331.356783" y="79.30417" style="fill: #ff7f0e; stroke: #ffffff; stroke-width: 0.75; stroke-linejoin: miter"/>
     <use xlink:href="#m18efc849fb" x="336.808815" y="74.156936" style="fill: #ff7f0e; stroke: #ffffff; stroke-width: 0.75; stroke-linejoin: miter"/>
     <use xlink:href="#m18efc849fb" x="342.784623" y="69.009702" style="fill: #ff7f0e; stroke: #ffffff; stroke-width: 0.75; stroke-linejoin: miter"/>
     <use xlink:href="#m18efc849fb" x="348.998511" y="63.862468" style="fill: #ff7f0e; stroke: #ffffff; stroke-width: 0.75; stroke-linejoin: miter"/>
     <use xlink:href="#m18efc849fb" x="354.783855" y="58.715234" style="fill: #ff7f0e; stroke: #ffffff; stroke-width: 0.75; stroke-linejoin: miter"/>
     <use xlink:href="#m18efc849fb" x="360.497775" y="53.568" style="fill: #ff7f0e; stroke: #ffffff; stroke-width: 0.75; stroke-linejoin: miter"/>
    </g>
   </g>
   <g id="line2d_15">
    <path d="M 83.884556 295.488 
L 90.098444 290.340766 
L 96.074252 285.193532 
L 102.669068 280.046298 
L 108.406796 274.899064 
L 115.656332 269.75183 
L 120.691724 264.604596 
L 126.477068 259.457362 
L 132.10766 254.310128 
L 138.166796 249.162894 
L 144.214028 244.01566 
L 150.20174 238.868426 
L 156.534668 233.721191 
L 162.855692 228.573957 
L 168.59342 223.426723 
L 174.533516 218.279489 
L 179.890316 213.132255 
L 185.55662 207.985021 
L 191.615756 202.837787 
L 197.6987 197.690553 
L 203.900684 192.543319 
L 209.95982 187.396085 
L 215.459468 182.248851 
L 221.292428 177.101617 
L 228.089612 171.954383 
L 232.684556 166.807149 
L 238.981772 161.659915 
L 245.278988 156.512681 
L 250.85006 151.365447 
L 257.04014 146.218213 
L 263.34926 141.070979 
L 268.610828 135.923745 
L 274.086668 130.776511 
L 280.098188 125.629277 
L 285.895436 120.482043 
L 291.62126 115.334809 
L 297.644684 110.187574 
L 303.751436 105.04034 
L 310.417676 99.893106 
L 316.97678 94.745872 
L 322.619276 89.598638 
L 328.309388 84.451404 
L 334.35662 79.30417 
L 340.760972 74.156936 
L 347.022476 69.009702 
L 351.903116 63.862468 
L 357.355148 58.715234 
L 363.176204 53.568 
" clip-path="url(#p5bab15e9af)" style="fill: none; stroke-dasharray: 1.5,1.5; stroke-dashoffset: 0; stroke: #2ca02c; stroke-width: 1.5"/>
    <defs>
     <path id="mc7f8cf5583" d="M -2.12132 -2.12132 
L -2.12132 2.12132 
L 2.12132 2.12132 
L 2.12132 -2.12132 
z
" style="stroke: #ffffff; stroke-width: 0.75; stroke-linejoin: miter"/>
    </defs>
    <g clip-path="url(#p5bab15e9af)">
     <use xlink:href="#mc7f8cf5583" x="83.884556" y="295.488" style="fill: #2ca02c; stroke: #ffffff; stroke-width: 0.75; stroke-linejoin: miter"/>
     <use xlink:href="#mc7f8cf5583" x="90.098444" y="290.340766" style="fill: #2ca02c; stroke: #ffffff; stroke-width: 0.75; stroke-linejoin: miter"/>
     <use xlink:href="#mc7f8cf5583" x="96.074252" y="285.193532" style="fill: #2ca02c; stroke: #ffffff; stroke-width: 0.75; stroke-linejoin: miter"/>
     <use xlink:href="#mc7f8cf5583" x="102.669068" y="280.046298" style="fill: #2ca02c; stroke: #ffffff; stroke-width: 0.75; stroke-linejoin: miter"/>
     <use xlink:href="#mc7f8cf5583" x="108.406796" y="274.899064" style="fill: #2ca02c; stroke: #ffffff; stroke-width: 0.75; stroke-linejoin: miter"/>
     <use xlink:href="#mc7f8cf5583" x="115.656332" y="269.75183" style="fill: #2ca02c; stroke: #ffffff; stroke-width: 0.75; stroke-linejoin: miter"/>
     <use xlink:href="#mc7f8cf5583" x="120.691724" y="264.604596" style="fill: #2ca02c; stroke: #ffffff; stroke-width: 0.75; stroke-linejoin: miter"/>
     <use xlink:href="#mc7f8cf5583" x="126.477068" y="259.457362" style="fill: #2ca02c; stroke: #ffffff; stroke-width: 0.75; stroke-linejoin: miter"/>
     <use xlink:href="#mc7f8cf5583" x="132.10766" y="254.310128" style="fill: #2ca02c; stroke: #ffffff; stroke-width: 0.75; stroke-linejoin: miter"/>
     <use xlink:href="#mc7f8cf5583" x="138.166796" y="249.162894" style="fill: #2ca02c; stroke: #ffffff; stroke-width: 0.75; stroke-linejoin: miter"/>
     <use xlink:href="#mc7f8cf5583" x="144.214028" y="244.01566" style="fill: #2ca02c; stroke: #ffffff; stroke-width: 0.75; stroke-linejoin: miter"/>
     <use xlink:href="#mc7f8cf5583" x="150.20174" y="238.868426" style="fill: #2ca02c; stroke: #ffffff; stroke-width: 0.75; stroke-linejoin: miter"/>
     <use xlink:href="#mc7f8cf5583" x="156.534668" y="233.721191" style="fill: #2ca02c; stroke: #ffffff; stroke-width: 0.75; stroke-linejoin: miter"/>
     <use xlink:href="#mc7f8cf5583" x="162.855692" y="228.573957" style="fill: #2ca02c; stroke: #ffffff; stroke-width: 0.75; stroke-linejoin: miter"/>
     <use xlink:href="#mc7f8cf5583" x="168.59342" y="223.426723" style="fill: #2ca02c; stroke: #ffffff; stroke-width: 0.75; stroke-linejoin: miter"/>
     <use xlink:href="#mc7f8cf5583" x="174.533516" y="218.279489" style="fill: #2ca02c; stroke: #ffffff; stroke-width: 0.75; stroke-linejoin: miter"/>
     <use xlink:href="#mc7f8cf5583" x="179.890316" y="213.132255" style="fill: #2ca02c; stroke: #ffffff; stroke-width: 0.75; stroke-linejoin: miter"/>
     <use xlink:href="#mc7f8cf5583" x="185.55662" y="207.985021" style="fill: #2ca02c; stroke: #ffffff; stroke-width: 0.75; stroke-linejoin: miter"/>
     <use xlink:href="#mc7f8cf5583" x="191.615756" y="202.837787" style="fill: #2ca02c; stroke: #ffffff; stroke-width: 0.75; stroke-linejoin: miter"/>
     <use xlink:href="#mc7f8cf5583" x="197.6987" y="197.690553" style="fill: #2ca02c; stroke: #ffffff; stroke-width: 0.75; stroke-linejoin: miter"/>
     <use xlink:href="#mc7f8cf5583" x="203.900684" y="192.543319" style="fill: #2ca02c; stroke: #ffffff; stroke-width: 0.75; stroke-linejoin: miter"/>
     <use xlink:href="#mc7f8cf5583" x="209.95982" y="187.396085" style="fill: #2ca02c; stroke: #ffffff; stroke-width: 0.75; stroke-linejoin: miter"/>
     <use xlink:href="#mc7f8cf5583" x="215.459468" y="182.248851" style="fill: #2ca02c; stroke: #ffffff; stroke-width: 0.75; stroke-linejoin: miter"/>
     <use xlink:href="#mc7f8cf5583" x="221.292428" y="177.101617" style="fill: #2ca02c; stroke: #ffffff; stroke-width: 0.75; stroke-linejoin: miter"/>
     <use xlink:href="#mc7f8cf5583" x="228.089612" y="171.954383" style="fill: #2ca02c; stroke: #ffffff; stroke-width: 0.75; stroke-linejoin: miter"/>
     <use xlink:href="#mc7f8cf5583" x="232.684556" y="166.807149" style="fill: #2ca02c; stroke: #ffffff; stroke-width: 0.75; stroke-linejoin: miter"/>
     <use xlink:href="#mc7f8cf5583" x="238.981772" y="161.659915" style="fill: #2ca02c; stroke: #ffffff; stroke-width: 0.75; stroke-linejoin: miter"/>
     <use xlink:href="#mc7f8cf5583" x="245.278988" y="156.512681" style="fill: #2ca02c; stroke: #ffffff; stroke-width: 0.75; stroke-linejoin: miter"/>
     <use xlink:href="#mc7f8cf5583" x="250.85006" y="151.365447" style="fill: #2ca02c; stroke: #ffffff; stroke-width: 0.75; stroke-linejoin: miter"/>
     <use xlink:href="#mc7f8cf5583" x="257.04014" y="146.218213" style="fill: #2ca02c; stroke: #ffffff; stroke-width: 0.75; stroke-linejoin: miter"/>
     <use xlink:href="#mc7f8cf5583" x="263.34926" y="141.070979" style="fill: #2ca02c; stroke: #ffffff; stroke-width: 0.75; stroke-linejoin: miter"/>
     <use xlink:href="#mc7f8cf5583" x="268.610828" y="135.923745" style="fill: #2ca02c; stroke: #ffffff; stroke-width: 0.75; stroke-linejoin: miter"/>
     <use xlink:href="#mc7f8cf5583" x="274.086668" y="130.776511" style="fill: #2ca02c; stroke: #ffffff; stroke-width: 0.75; stroke-linejoin: miter"/>
     <use xlink:href="#mc7f8cf5583" x="280.098188" y="125.629277" style="fill: #2ca02c; stroke: #ffffff; stroke-width: 0.75; stroke-linejoin: miter"/>
     <use xlink:href="#mc7f8cf5583" x="285.895436" y="120.482043" style="fill: #2ca02c; stroke: #ffffff; stroke-width: 0.75; stroke-linejoin: miter"/>
     <use xlink:href="#mc7f8cf5583" x="291.62126" y="115.334809" style="fill: #2ca02c; stroke: #ffffff; stroke-width: 0.75; stroke-linejoin: miter"/>
     <use xlink:href="#mc7f8cf5583" x="297.644684" y="110.187574" style="fill: #2ca02c; stroke: #ffffff; stroke-width: 0.75; stroke-linejoin: miter"/>
     <use xlink:href="#mc7f8cf5583" x="303.751436" y="105.04034" style="fill: #2ca02c; stroke: #ffffff; stroke-width: 0.75; stroke-linejoin: miter"/>
     <use xlink:href="#mc7f8cf5583" x="310.417676" y="99.893106" style="fill: #2ca02c; stroke: #ffffff; stroke-width: 0.75; stroke-linejoin: miter"/>
     <use xlink:href="#mc7f8cf5583" x="316.97678" y="94.745872" style="fill: #2ca02c; stroke: #ffffff; stroke-width: 0.75; stroke-linejoin: miter"/>
     <use xlink:href="#mc7f8cf5583" x="322.619276" y="89.598638" style="fill: #2ca02c; stroke: #ffffff; stroke-width: 0.75; stroke-linejoin: miter"/>
     <use xlink:href="#mc7f8cf5583" x="328.309388" y="84.451404" style="fill: #2ca02c; stroke: #ffffff; stroke-width: 0.75; stroke-linejoin: miter"/>
     <use xlink:href="#mc7f8cf5583" x="334.35662" y="79.30417" style="fill: #2ca02c; stroke: #ffffff; stroke-width: 0.75; stroke-linejoin: miter"/>
     <use xlink:href="#mc7f8cf5583" x="340.760972" y="74.156936" style="fill: #2ca02c; stroke: #ffffff; stroke-width: 0.75; stroke-linejoin: miter"/>
     <use xlink:href="#mc7f8cf5583" x="347.022476" y="69.009702" style="fill: #2ca02c; stroke: #ffffff; stroke-width: 0.75; stroke-linejoin: miter"/>
     <use xlink:href="#mc7f8cf5583" x="351.903116" y="63.862468" style="fill: #2ca02c; stroke: #ffffff; stroke-width: 0.75; stroke-linejoin: miter"/>
     <use xlink:href="#mc7f8cf5583" x="357.355148" y="58.715234" style="fill: #2ca02c; stroke: #ffffff; stroke-width: 0.75; stroke-linejoin: miter"/>
     <use xlink:href="#mc7f8cf5583" x="363.176204" y="53.568" style="fill: #2ca02c; stroke: #ffffff; stroke-width: 0.75; stroke-linejoin: miter"/>
    </g>
   </g>
   <g id="patch_3">
    <path d="M 57.6 307.584 
L 57.6 41.472 
" style="fill: none; stroke: #000000; stroke-width: 0.8; stroke-linejoin: miter; stroke-linecap: square"/>
   </g>
   <g id="patch_4">
    <path d="M 414.72 307.584 
L 414.72 41.472 
" style="fill: none; stroke: #000000; stroke-width: 0.8; stroke-linejoin: miter; stroke-linecap: square"/>
   </g>
   <g id="patch_5">
    <path d="M 57.6 307.584 
L 414.72 307.584 
" style="fill: none; stroke: #000000; stroke-width: 0.8; stroke-linejoin: miter; stroke-linecap: square"/>
   </g>
   <g id="patch_6">
    <path d="M 57.6 41.472 
L 414.72 41.472 
" style="fill: none; stroke: #000000; stroke-width: 0.8; stroke-linejoin: miter; stroke-linecap: square"/>
   </g>
  </g>
 </g>
 <defs>
  <clipPath id="p5bab15e9af">
   <rect x="57.6" y="41.472" width="357.12" height="266.112"/>
  </clipPath>
 </defs>
</svg>
